<?xml version="1.0" encoding="UTF-8" standalone="no"?>
<!-- Created with Inkscape (http://www.inkscape.org/) -->

<svg
   xmlns:dc="http://purl.org/dc/elements/1.1/"
   xmlns:cc="http://creativecommons.org/ns#"
   xmlns:rdf="http://www.w3.org/1999/02/22-rdf-syntax-ns#"
   xmlns:svg="http://www.w3.org/2000/svg"
   xmlns="http://www.w3.org/2000/svg"
   xmlns:sodipodi="http://sodipodi.sourceforge.net/DTD/sodipodi-0.dtd"
   xmlns:inkscape="http://www.inkscape.org/namespaces/inkscape"
   width="1487.2102"
   height="325.85721"
   id="svg2"
   version="1.1"
   inkscape:version="0.48.4 r9939"
   sodipodi:docname="datastructures.svg">
  <defs
     id="defs4" />
  <sodipodi:namedview
     id="base"
     pagecolor="#ffffff"
     bordercolor="#666666"
     borderopacity="1.0"
     inkscape:pageopacity="0.0"
     inkscape:pageshadow="2"
     inkscape:zoom="0.70710678"
     inkscape:cx="788.48781"
     inkscape:cy="10.575235"
     inkscape:document-units="px"
     inkscape:current-layer="layer1"
     showgrid="false"
     inkscape:window-width="1918"
     inkscape:window-height="1198"
     inkscape:window-x="1920"
     inkscape:window-y="0"
     inkscape:window-maximized="0"
     fit-margin-top="0"
     fit-margin-left="0"
     fit-margin-right="0"
     fit-margin-bottom="0" />
  <metadata
     id="metadata7">
    <rdf:RDF>
      <cc:Work
         rdf:about="">
        <dc:format>image/svg+xml</dc:format>
        <dc:type
           rdf:resource="http://purl.org/dc/dcmitype/StillImage" />
        <dc:title></dc:title>
      </cc:Work>
    </rdf:RDF>
  </metadata>
  <g
     inkscape:label="Layer 1"
     inkscape:groupmode="layer"
     id="layer1"
     transform="translate(533.07144,-444.41647)">
    <g
       id="g4543"
       transform="translate(0,1.333508)">
      <path
         sodipodi:nodetypes="ccccccccccc"
         inkscape:connector-curvature="0"
         id="rect2985"
         d="m -288.71428,524.583 80,-80 -242.85715,0 -80.00001,80 0,242.85714 242.85716,0 80,-80 0,-242.85714 m -80,322.85714 0,-242.85714 -242.85716,0"
         style="fill:#ffffff;fill-opacity:1;stroke:#000000;stroke-width:3;stroke-linecap:round;stroke-linejoin:round;stroke-miterlimit:4;stroke-opacity:1;stroke-dashoffset:0" />
      <flowRoot
         transform="translate(-229.75503,597.72084)"
         style="font-size:40px;font-style:normal;font-weight:normal;line-height:125%;letter-spacing:-2.96000004px;word-spacing:0px;fill:#000000;fill-opacity:1;stroke:none;font-family:Sans"
         id="flowRoot4338"
         xml:space="preserve"><flowRegion
           id="flowRegion4340"><rect
             y="-164.14279"
             x="-305.71429"
             height="237.14285"
             width="491.42856"
             id="rect4342" /></flowRegion><flowPara
           id="flowPara4344">a)</flowPara></flowRoot>    </g>
    <g
       id="g4550"
       transform="translate(-65.739434,1.3335093)">
      <g
         transform="translate(-496.11502,-569.09183)"
         id="g4304">
        <path
           style="fill:#ffffff;fill-opacity:1;stroke:#000000;stroke-width:3;stroke-linecap:round;stroke-linejoin:round;stroke-miterlimit:4;stroke-opacity:1;stroke-dashoffset:0"
           d="m 660.25784,1093.6748 80,-80 -242.85714,0 -80.00001,80 0,242.8572 242.85715,0 80,-80 0,-242.8572 m -80,322.8572 0,-242.8572 -242.85715,0"
           id="rect2985-7"
           inkscape:connector-curvature="0"
           sodipodi:nodetypes="ccccccccccc" />
        <path
           style="fill:none;stroke:#000000;stroke-width:1;stroke-linecap:round;stroke-linejoin:round;stroke-miterlimit:4;stroke-opacity:1;stroke-dasharray:none;stroke-dashoffset:0"
           d="m 680.25786,1316.532 0,-242.8572 -242.85725,0 m 282.85735,202.8572 0,-242.8572 -242.85721,0 m 222.85721,262.8572 0,-242.8572 -242.85722,0 m 282.85712,202.8572 0,-242.8572 -242.85721,0 m 162.85721,322.8572 0,-242.8572 -242.8572,0 m 181.64289,10e-5 80.00001,-80 m -80.00001,322.857 0,-242.857 m -60.2143,0 80,-80.0001 m -80,322.8572 0,-242.8571 m -60.2144,0 80,-80 m -80,322.8571 0,-242.8571 m -60.2142,0 80,-80 m -80,322.8571 0,-242.8571 m 240.8572,0 80.00001,-80 m -80.00001,322.8571 0,-242.8571 m 1.00001,60.7142 80,-80 m -80,80 -242.85718,0 m 242.85718,121.4286 80,-80 m -80,80 -242.85718,0 m 242.85718,-60.7143 80,-80 m -80,80 -242.85718,0 m 242.85718,121.4286 80,-80 m -80,80 -242.85718,0 m 242.85718,-242.8572 80,-80 m -80,80 -242.85718,0"
           id="rect2985-7-6-7-8"
           inkscape:connector-curvature="0"
           sodipodi:nodetypes="ccccccccccccccccccccccccccccccccccccccccccccccccccccccc" />
      </g>
      <flowRoot
         transform="translate(221.87161,597.75987)"
         style="font-size:40px;font-style:normal;font-weight:normal;line-height:125%;letter-spacing:-2.96000004px;word-spacing:0px;fill:#000000;fill-opacity:1;stroke:none;font-family:Sans"
         id="flowRoot4338-0"
         xml:space="preserve"><flowRegion
           id="flowRegion4340-6"><rect
             y="-164.14279"
             x="-305.71429"
             height="237.14285"
             width="491.42856"
             id="rect4342-4" /></flowRegion><flowPara
           id="flowPara4344-0">b)</flowPara></flowRoot>    </g>
    <g
       id="g4559"
       transform="translate(-131.47885,1.33351)">
      <g
         transform="translate(628.28454,-390.79223)"
         id="g4334">
        <path
           style="fill:#ffffff;fill-opacity:1;stroke:#000000;stroke-width:3;stroke-linecap:round;stroke-linejoin:round;stroke-miterlimit:4;stroke-opacity:1;stroke-dashoffset:0"
           d="m -11.28457,915.37519 80,-80 -242.85714,0 -80.00001,80 0,242.85721 242.85715,0 80,-80 0,-242.85721 m -80,322.85721 0,-242.85721 -242.85715,0"
           id="rect2985-7-0"
           inkscape:connector-curvature="0"
           sodipodi:nodetypes="ccccccccccc" />
        <path
           style="fill:none;stroke:#000000;stroke-width:1;stroke-linecap:round;stroke-linejoin:round;stroke-miterlimit:4;stroke-opacity:1;stroke-dasharray:none;stroke-dashoffset:0"
           d="m 8.715455,1138.2324 0,-91.0714 m 40.0001,51.0714 0,-121.4286 m -20,141.4286 0,-242.85721 -242.857215,0 m 282.857115,202.85721 0,-30.3571 m -242.857205,-212.50011 242.857205,0 0,212.50011 -80,80 0,-60.7143 m -242.857195,-151.78581 242.857195,0 0,151.78581 m -61.21431,-30.3577 0,30.3577 61.21431,0 20,-20 0,-30.3572 m -20,141.4286 0,-30.3571 m -61.21431,30.357 0,-91.0713 m -60.214295,-151.78571 79.999995,-80.0001 m -79.999995,322.85721 c 0,-80.9524 0,-161.90474 0,-242.85711 m -60.2144,242.85711 0,-121.4286 m -60.2142,-121.42851 80,-80 m -80,322.85711 0,-30.3571 m 0,-212.50001 0,212.50001 241.857205,0 m 0,-30.3572 -91.071435,0 m -60.7143,0 60.7143,0 0,60.7143 -30.35715,0 -30.35715,0 m -91.07144,-60.7143 30.35714,0 0,60.7143 -30.35714,0 m 242.857175,-121.4286 80,-80.00001 m -80,80.00001 -242.857175,0 m 242.857175,121.4286 10,-10 m 70,-70 -10,10 m -40,-20.7143 c -10,10 -20,20 -30,30 m 10,-70.7143 0,121.4286 10,-10 10,-10 0,-60.7143 c 6.66667,-6.6667 13.33333,-13.3333 20,-20 m 30,-30 -10,10 m -40,100.7143 10,-10 10,-10 0,-60.7143 c 6.66667,-6.6667 13.33333,-13.3333 20,-20 l 0,60.7143 -10,10 -10,10 m -50,50 -30.35715,0 m -60.714285,0 30.357145,0 30.35714,0 -2e-5,-121.4291 m -182.142865,121.4291 30.35715,0 30.35715,0 0,-60.7143 c -20.2381,0 -40.4762,0 -60.7143,0 m 212.500035,-182.14291 79.99983,-80 m -79.99983,80 -242.857175,0"
           id="rect2985-7-6-7-8-5"
           inkscape:connector-curvature="0"
           sodipodi:nodetypes="ccccccccccccccccccccccccccccccccccccccccccccccccccccccccccccccccccccccccccccccccccccccccccc" />
      </g>
      <flowRoot
         transform="translate(676.15454,597.72081)"
         style="font-size:40px;font-style:normal;font-weight:normal;line-height:125%;letter-spacing:-2.96000004px;word-spacing:0px;fill:#000000;fill-opacity:1;stroke:none;font-family:Sans"
         id="flowRoot4338-0-5"
         xml:space="preserve"><flowRegion
           id="flowRegion4340-6-4"><rect
             y="-164.14279"
             x="-305.71429"
             height="237.14285"
             width="491.42856"
             id="rect4342-4-5" /></flowRegion><flowPara
           id="flowPara4344-0-5">c)</flowPara></flowRoot>    </g>
    <g
       id="g4595"
       transform="translate(-189.99989,-1.333545)">
      <g
         transform="translate(-196.57568,226.27417)"
         id="g4539">
        <path
           style="fill:#ffffff;fill-opacity:1;stroke:#000000;stroke-width:3;stroke-linecap:round;stroke-linejoin:round;stroke-miterlimit:4;stroke-opacity:1;stroke-dashoffset:0"
           d="m 1259.2143,300.97588 80,-80 -242.8571,0 -80,80 0,242.85714 242.8571,0 80,-80 0,-242.85714 m -80,322.85714 0,-242.85714 -242.8571,0"
           id="rect2985-3-0"
           inkscape:connector-curvature="0"
           sodipodi:nodetypes="ccccccccccc" />
        <path
           id="path4464-0-0"
           style="fill:none;stroke:#000000;stroke-width:1;stroke-linecap:round;stroke-linejoin:round;stroke-miterlimit:4;stroke-opacity:1;stroke-dasharray:none"
           d="m 1317.3367,447.92495 c 21.8143,-21.81437 21.8143,-21.81437 21.8143,-21.81437 m -39.6803,45.54867 c 17.7111,-17.71119 17.7111,-17.71119 17.7111,-17.71119 m -37.8434,33.60022 c 19.7312,-19.73121 19.7312,-19.73121 19.7312,-19.73121 m 0.17,-31.81356 17.9847,-17.98474 m 21.9847,-21.98474 -17.9847,17.98474 m -22.01,14.09997 0,75.71429 18,-18 0.01,-67.81426 4,-4 -0.01,-83.61431 18,-18 0,151.42857 -22,22 m -165.3359,-218.85714 141.3358,-4.3e-4 0,91.34418 m -95.4285,-137.34375 141.4286,0 -80,80 -141.4286,0 m 0,242.85714 -50.7143,0 m -50.7143,-107.97681 0,71.91323 42.7143,0 m 240.1429,-3.93642 -20,20 m -161.4286,-55.71457 0,-32.26224 -58.7143,0 0,71.91323 8,0 0,15.26 m -50.7143,0 0,20.80358 50.7143,0 0,-13.67858 m 50.7143,-229.17857 46,-46 m -101.4285,0 34,-34 101.4285,0 -34,34 -101.4285,0 -46.0001,46 0,134.88033 42.7144,0 m 58.7143,71.91324 0,-39.651 70.7143,0 m 70.7143,0 -68.7143,0 m -123.4286,39.651 50.7143,0 0,3.635 m 141.4286,-119 -68.7143,0 0,75.714 -2,0 0,43.286 m -172.1429,-3.635 0,15.26 50.7143,0 0,7.125 50.7143,0 0,13.67857 70.7143,0 0,-29.85757 m 70.7143,-121.571 0,75.714 18,-17.99986 m 0,-75.71414 22,-22 0,75.71428 -20,19.99986 m -20,-147.14271 0,91.42857 18,-18 0,75.71414 2,-2 0,45.85722 m 20,-141.57136 22,-22 m 18,-109.42857 0,91.42857 m -221.4286,80 0,43.45176 m -101.4286,-134.88033 101.4286,0 0,91.42857 72.7143,0 m 68.7143,151.42858 0,-29.85758 m 0,-45.85699 0,45.85699 m -141.4286,16.179 0,-18.75 70.7143,0 0,2.571 70.7143,0 20,-19.99964 0,29.85722 -20,20 -70.7143,0"
           inkscape:connector-curvature="0" />
      </g>
      <flowRoot
         xml:space="preserve"
         id="flowRoot4338-0-5-9"
         style="font-size:40px;font-style:normal;font-weight:normal;line-height:125%;letter-spacing:-2.96000004px;word-spacing:0px;fill:#000000;fill-opacity:1;stroke:none;font-family:Sans"
         transform="translate(1121.7932,600.42696)"><flowRegion
           id="flowRegion4340-6-4-5"><rect
             id="rect4342-4-5-5"
             width="491.42856"
             height="237.14285"
             x="-305.71429"
             y="-164.14279" /></flowRegion><flowPara
           id="flowPara4344-0-5-2">d)</flowPara></flowRoot>    </g>
  </g>
</svg>
