<?xml version="1.0" encoding="UTF-8" standalone="no"?>
<!-- Created with Inkscape (http://www.inkscape.org/) -->

<svg
   xmlns:dc="http://purl.org/dc/elements/1.1/"
   xmlns:cc="http://creativecommons.org/ns#"
   xmlns:rdf="http://www.w3.org/1999/02/22-rdf-syntax-ns#"
   xmlns:svg="http://www.w3.org/2000/svg"
   xmlns="http://www.w3.org/2000/svg"
   xmlns:sodipodi="http://sodipodi.sourceforge.net/DTD/sodipodi-0.dtd"
   xmlns:inkscape="http://www.inkscape.org/namespaces/inkscape"
   width="116.08646"
   height="103.13525"
   id="svg2"
   version="1.1"
   inkscape:version="0.48.4 r9939"
   sodipodi:docname="delaunay-flip-d.pdf">
  <sodipodi:namedview
     id="base"
     pagecolor="#ffffff"
     bordercolor="#666666"
     borderopacity="1.0"
     inkscape:pageopacity="0.0"
     inkscape:pageshadow="2"
     inkscape:zoom="2"
     inkscape:cx="93.782279"
     inkscape:cy="4.0602976"
     inkscape:document-units="px"
     inkscape:current-layer="layer1"
     showgrid="false"
     inkscape:window-width="1920"
     inkscape:window-height="1200"
     inkscape:window-x="1920"
     inkscape:window-y="0"
     inkscape:window-maximized="0"
     fit-margin-top="0"
     fit-margin-left="0"
     fit-margin-right="0"
     fit-margin-bottom="0"
     units="in" />
  <defs
     id="defs4">
    <marker
       style="overflow:visible"
       id="DotM"
       refX="0"
       refY="0"
       orient="auto"
       inkscape:stockid="DotM">
      <path
         transform="matrix(0.4,0,0,0.4,2.96,0.4)"
         style="fill-rule:evenodd;stroke:#000000;stroke-width:1pt"
         d="m -2.5,-1 c 0,2.76 -2.24,5 -5,5 -2.76,0 -5,-2.24 -5,-5 0,-2.76 2.24,-5 5,-5 2.76,0 5,2.24 5,5 z"
         id="path5363"
         inkscape:connector-curvature="0" />
    </marker>
    <marker
       style="overflow:visible"
       id="Torso"
       refX="0"
       refY="0"
       orient="auto"
       inkscape:stockid="Torso">
      <g
         transform="scale(0.7,0.7)"
         id="g5511">
        <path
           style="fill:none;stroke:#000000;stroke-width:1.25"
           d="m -4.7792281,-3.239542 c 2.350374,0.3659393 5.30026732,1.9375477 5.03715532,3.62748546 C -0.00518779,2.0778819 -2.2126741,2.6176539 -4.5630471,2.2517169 -6.9134221,1.8857769 -8.521035,0.75201414 -8.257922,-0.93792336 -7.994809,-2.6278615 -7.1296041,-3.6054813 -4.7792281,-3.239542 z"
           id="path5513"
           inkscape:connector-curvature="0" />
        <path
           style="fill:none;stroke:#000000;stroke-width:1pt"
           d="M 4.4598789,0.08866574 C -2.5564571,-4.378332 5.2248769,-3.9061806 -0.84829578,-8.7197331"
           id="path5515"
           inkscape:connector-curvature="0" />
        <path
           style="fill:none;stroke:#000000;stroke-width:1pt"
           d="M 4.9298719,0.05752074 C -1.3872731,1.7494689 1.8027579,5.4782079 -4.9448731,7.5462725"
           id="path5517"
           inkscape:connector-curvature="0" />
        <rect
           style="fill-rule:evenodd;stroke-width:1pt"
           width="2.6366582"
           height="2.7608147"
           x="-10.391706"
           y="-1.7408575"
           transform="matrix(0.527536,-0.849533,0.887668,0.460484,0,0)"
           id="rect5519" />
        <rect
           style="fill-rule:evenodd;stroke-width:1pt"
           width="2.7327356"
           height="2.8614161"
           x="4.9587269"
           y="-7.9629307"
           transform="matrix(0.671205,-0.741272,0.790802,0.612072,0,0)"
           id="rect5521" />
        <path
           style="fill:#ff0000;fill-opacity:0.75;fill-rule:evenodd;stroke:#000000;stroke-width:1pt"
           d="m 16.779951,-28.685045 a 0.60731727,0.60731727 0 1 0 -1.214634,0 0.60731727,0.60731727 0 1 0 1.214634,0 z"
           transform="matrix(0,-1.109517,1.109517,0,25.96648,19.71619)"
           id="path5523"
           inkscape:connector-curvature="0" />
        <path
           style="fill:#ff0000;fill-opacity:0.75;fill-rule:evenodd;stroke:#000000;stroke-width:1pt"
           d="m 16.779951,-28.685045 a 0.60731727,0.60731727 0 1 0 -1.214634,0 0.60731727,0.60731727 0 1 0 1.214634,0 z"
           transform="matrix(0,-1.109517,1.109517,0,26.8245,16.99126)"
           id="path5525"
           inkscape:connector-curvature="0" />
      </g>
    </marker>
    <marker
       style="overflow:visible"
       id="DotL"
       refX="0"
       refY="0"
       orient="auto"
       inkscape:stockid="DotL">
      <path
         transform="matrix(0.8,0,0,0.8,5.92,0.8)"
         style="fill-rule:evenodd;stroke:#000000;stroke-width:1pt"
         d="m -2.5,-1 c 0,2.76 -2.24,5 -5,5 -2.76,0 -5,-2.24 -5,-5 0,-2.76 2.24,-5 5,-5 2.76,0 5,2.24 5,5 z"
         id="path5360"
         inkscape:connector-curvature="0" />
    </marker>
    <marker
       style="overflow:visible"
       id="Arrow2Lend"
       refX="0"
       refY="0"
       orient="auto"
       inkscape:stockid="Arrow2Lend">
      <path
         transform="matrix(-1.1,0,0,-1.1,-1.1,0)"
         d="M 8.7185878,4.0337352 -2.2072895,0.01601326 8.7185884,-4.0017078 c -1.7454984,2.3720609 -1.7354408,5.6174519 -6e-7,8.035443 z"
         style="fill-rule:evenodd;stroke-width:0.625;stroke-linejoin:round"
         id="path5320"
         inkscape:connector-curvature="0" />
    </marker>
    <marker
       style="overflow:visible"
       id="Arrow1Mend"
       refX="0"
       refY="0"
       orient="auto"
       inkscape:stockid="Arrow1Mend">
      <path
         transform="matrix(-0.4,0,0,-0.4,-4,0)"
         style="fill-rule:evenodd;stroke:#000000;stroke-width:1pt"
         d="M 0,0 5,-5 -12.5,0 5,5 0,0 z"
         id="path5308"
         inkscape:connector-curvature="0" />
    </marker>
    <marker
       style="overflow:visible"
       id="DotM-3"
       refX="0"
       refY="0"
       orient="auto"
       inkscape:stockid="DotM">
      <path
         transform="matrix(0.4,0,0,0.4,2.96,0.4)"
         style="fill-rule:evenodd;stroke:#000000;stroke-width:1pt"
         d="m -2.5,-1 c 0,2.76 -2.24,5 -5,5 -2.76,0 -5,-2.24 -5,-5 0,-2.76 2.24,-5 5,-5 2.76,0 5,2.24 5,5 z"
         id="path5363-9"
         inkscape:connector-curvature="0" />
    </marker>
    <marker
       style="overflow:visible"
       id="marker7299"
       refX="0"
       refY="0"
       orient="auto"
       inkscape:stockid="DotM">
      <path
         transform="matrix(0.4,0,0,0.4,2.96,0.4)"
         style="fill-rule:evenodd;stroke:#000000;stroke-width:1pt"
         d="m -2.5,-1 c 0,2.76 -2.24,5 -5,5 -2.76,0 -5,-2.24 -5,-5 0,-2.76 2.24,-5 5,-5 2.76,0 5,2.24 5,5 z"
         id="path7301"
         inkscape:connector-curvature="0" />
    </marker>
    <marker
       style="overflow:visible"
       id="DotMI"
       refX="0"
       refY="0"
       orient="auto"
       inkscape:stockid="DotMI">
      <path
         transform="matrix(0.4,0,0,0.4,2.96,0.4)"
         style="fill:#ff0000;fill-rule:evenodd;stroke:#ff0000;stroke-width:1pt"
         d="m -2.5,-1 c 0,2.76 -2.24,5 -5,5 -2.76,0 -5,-2.24 -5,-5 0,-2.76 2.24,-5 5,-5 2.76,0 5,2.24 5,5 z"
         id="path7687"
         inkscape:connector-curvature="0" />
    </marker>
    <marker
       style="overflow:visible"
       id="DotMX"
       refX="0"
       refY="0"
       orient="auto"
       inkscape:stockid="DotMX">
      <path
         transform="matrix(0.4,0,0,0.4,2.96,0.4)"
         style="fill:#ff0000;fill-rule:evenodd;stroke:#ff0000;stroke-width:1pt"
         d="m -2.5,-1 c 0,2.76 -2.24,5 -5,5 -2.76,0 -5,-2.24 -5,-5 0,-2.76 2.24,-5 5,-5 2.76,0 5,2.24 5,5 z"
         id="path7690"
         inkscape:connector-curvature="0" />
    </marker>
    <marker
       style="overflow:visible"
       id="DotM-4"
       refX="0"
       refY="0"
       orient="auto"
       inkscape:stockid="DotM">
      <path
         inkscape:connector-curvature="0"
         transform="matrix(0.4,0,0,0.4,2.96,0.4)"
         style="fill-rule:evenodd;stroke:#000000;stroke-width:1pt"
         d="m -2.5,-1 c 0,2.76 -2.24,5 -5,5 -2.76,0 -5,-2.24 -5,-5 0,-2.76 2.24,-5 5,-5 2.76,0 5,2.24 5,5 z"
         id="path5363-3" />
    </marker>
    <marker
       style="overflow:visible"
       id="marker7875"
       refX="0"
       refY="0"
       orient="auto"
       inkscape:stockid="DotM">
      <path
         inkscape:connector-curvature="0"
         transform="matrix(0.4,0,0,0.4,2.96,0.4)"
         style="fill-rule:evenodd;stroke:#000000;stroke-width:1pt"
         d="m -2.5,-1 c 0,2.76 -2.24,5 -5,5 -2.76,0 -5,-2.24 -5,-5 0,-2.76 2.24,-5 5,-5 2.76,0 5,2.24 5,5 z"
         id="path7877" />
    </marker>
    <marker
       style="overflow:visible"
       id="DotM-2"
       refX="0"
       refY="0"
       orient="auto"
       inkscape:stockid="DotM">
      <path
         inkscape:connector-curvature="0"
         transform="matrix(0.4,0,0,0.4,2.96,0.4)"
         style="fill-rule:evenodd;stroke:#000000;stroke-width:1pt"
         d="m -2.5,-1 c 0,2.76 -2.24,5 -5,5 -2.76,0 -5,-2.24 -5,-5 0,-2.76 2.24,-5 5,-5 2.76,0 5,2.24 5,5 z"
         id="path5363-7" />
    </marker>
    <marker
       style="overflow:visible"
       id="marker7907"
       refX="0"
       refY="0"
       orient="auto"
       inkscape:stockid="DotM">
      <path
         inkscape:connector-curvature="0"
         transform="matrix(0.4,0,0,0.4,2.96,0.4)"
         style="fill-rule:evenodd;stroke:#000000;stroke-width:1pt"
         d="m -2.5,-1 c 0,2.76 -2.24,5 -5,5 -2.76,0 -5,-2.24 -5,-5 0,-2.76 2.24,-5 5,-5 2.76,0 5,2.24 5,5 z"
         id="path7909" />
    </marker>
    <marker
       style="overflow:visible"
       id="DotM-9"
       refX="0"
       refY="0"
       orient="auto"
       inkscape:stockid="DotM">
      <path
         inkscape:connector-curvature="0"
         transform="matrix(0.4,0,0,0.4,2.96,0.4)"
         style="fill-rule:evenodd;stroke:#000000;stroke-width:1pt"
         d="m -2.5,-1 c 0,2.76 -2.24,5 -5,5 -2.76,0 -5,-2.24 -5,-5 0,-2.76 2.24,-5 5,-5 2.76,0 5,2.24 5,5 z"
         id="path5363-1" />
    </marker>
    <marker
       style="overflow:visible"
       id="marker7941"
       refX="0"
       refY="0"
       orient="auto"
       inkscape:stockid="DotM">
      <path
         inkscape:connector-curvature="0"
         transform="matrix(0.4,0,0,0.4,2.96,0.4)"
         style="fill-rule:evenodd;stroke:#000000;stroke-width:1pt"
         d="m -2.5,-1 c 0,2.76 -2.24,5 -5,5 -2.76,0 -5,-2.24 -5,-5 0,-2.76 2.24,-5 5,-5 2.76,0 5,2.24 5,5 z"
         id="path7943" />
    </marker>
    <marker
       style="overflow:visible"
       id="DotM-6"
       refX="0"
       refY="0"
       orient="auto"
       inkscape:stockid="DotM">
      <path
         inkscape:connector-curvature="0"
         transform="matrix(0.4,0,0,0.4,2.96,0.4)"
         style="fill-rule:evenodd;stroke:#000000;stroke-width:1pt"
         d="m -2.5,-1 c 0,2.76 -2.24,5 -5,5 -2.76,0 -5,-2.24 -5,-5 0,-2.76 2.24,-5 5,-5 2.76,0 5,2.24 5,5 z"
         id="path5363-37" />
    </marker>
    <marker
       style="overflow:visible"
       id="marker7973"
       refX="0"
       refY="0"
       orient="auto"
       inkscape:stockid="DotM">
      <path
         inkscape:connector-curvature="0"
         transform="matrix(0.4,0,0,0.4,2.96,0.4)"
         style="fill-rule:evenodd;stroke:#000000;stroke-width:1pt"
         d="m -2.5,-1 c 0,2.76 -2.24,5 -5,5 -2.76,0 -5,-2.24 -5,-5 0,-2.76 2.24,-5 5,-5 2.76,0 5,2.24 5,5 z"
         id="path7975" />
    </marker>
    <marker
       style="overflow:visible"
       id="DotM-61"
       refX="0"
       refY="0"
       orient="auto"
       inkscape:stockid="DotM">
      <path
         inkscape:connector-curvature="0"
         transform="matrix(0.4,0,0,0.4,2.96,0.4)"
         style="fill-rule:evenodd;stroke:#000000;stroke-width:1pt"
         d="m -2.5,-1 c 0,2.76 -2.24,5 -5,5 -2.76,0 -5,-2.24 -5,-5 0,-2.76 2.24,-5 5,-5 2.76,0 5,2.24 5,5 z"
         id="path5363-5" />
    </marker>
    <marker
       style="overflow:visible"
       id="marker8017"
       refX="0"
       refY="0"
       orient="auto"
       inkscape:stockid="DotM">
      <path
         inkscape:connector-curvature="0"
         transform="matrix(0.4,0,0,0.4,2.96,0.4)"
         style="fill-rule:evenodd;stroke:#000000;stroke-width:1pt"
         d="m -2.5,-1 c 0,2.76 -2.24,5 -5,5 -2.76,0 -5,-2.24 -5,-5 0,-2.76 2.24,-5 5,-5 2.76,0 5,2.24 5,5 z"
         id="path8019" />
    </marker>
    <marker
       style="overflow:visible"
       id="marker8021"
       refX="0"
       refY="0"
       orient="auto"
       inkscape:stockid="DotM">
      <path
         inkscape:connector-curvature="0"
         transform="matrix(0.4,0,0,0.4,2.96,0.4)"
         style="fill-rule:evenodd;stroke:#000000;stroke-width:1pt"
         d="m -2.5,-1 c 0,2.76 -2.24,5 -5,5 -2.76,0 -5,-2.24 -5,-5 0,-2.76 2.24,-5 5,-5 2.76,0 5,2.24 5,5 z"
         id="path8023" />
    </marker>
    <marker
       style="overflow:visible"
       id="marker8025"
       refX="0"
       refY="0"
       orient="auto"
       inkscape:stockid="DotM">
      <path
         inkscape:connector-curvature="0"
         transform="matrix(0.4,0,0,0.4,2.96,0.4)"
         style="fill-rule:evenodd;stroke:#000000;stroke-width:1pt"
         d="m -2.5,-1 c 0,2.76 -2.24,5 -5,5 -2.76,0 -5,-2.24 -5,-5 0,-2.76 2.24,-5 5,-5 2.76,0 5,2.24 5,5 z"
         id="path8027" />
    </marker>
    <marker
       style="overflow:visible"
       id="DotM-7"
       refX="0"
       refY="0"
       orient="auto"
       inkscape:stockid="DotM">
      <path
         transform="matrix(0.4,0,0,0.4,2.96,0.4)"
         style="fill-rule:evenodd;stroke:#000000;stroke-width:1pt"
         d="m -2.5,-1 c 0,2.76 -2.24,5 -5,5 -2.76,0 -5,-2.24 -5,-5 0,-2.76 2.24,-5 5,-5 2.76,0 5,2.24 5,5 z"
         id="path5363-13"
         inkscape:connector-curvature="0" />
    </marker>
    <marker
       style="overflow:visible"
       id="marker3066"
       refX="0"
       refY="0"
       orient="auto"
       inkscape:stockid="DotM">
      <path
         transform="matrix(0.4,0,0,0.4,2.96,0.4)"
         style="fill-rule:evenodd;stroke:#000000;stroke-width:1pt"
         d="m -2.5,-1 c 0,2.76 -2.24,5 -5,5 -2.76,0 -5,-2.24 -5,-5 0,-2.76 2.24,-5 5,-5 2.76,0 5,2.24 5,5 z"
         id="path3068"
         inkscape:connector-curvature="0" />
    </marker>
    <marker
       style="overflow:visible"
       id="DotMQ"
       refX="0"
       refY="0"
       orient="auto"
       inkscape:stockid="DotMQ">
      <path
         transform="matrix(0.4,0,0,0.4,2.96,0.4)"
         style="fill:#ff0000;fill-rule:evenodd;stroke:#ff0000;stroke-width:1pt"
         d="m -2.5,-1 c 0,2.76 -2.24,5 -5,5 -2.76,0 -5,-2.24 -5,-5 0,-2.76 2.24,-5 5,-5 2.76,0 5,2.24 5,5 z"
         id="path4332"
         inkscape:connector-curvature="0" />
    </marker>
    <marker
       style="overflow:visible"
       id="DotM7"
       refX="0"
       refY="0"
       orient="auto"
       inkscape:stockid="DotM7">
      <path
         transform="matrix(0.4,0,0,0.4,2.96,0.4)"
         style="fill:#ff0000;fill-rule:evenodd;stroke:#ff0000;stroke-width:1pt"
         d="m -2.5,-1 c 0,2.76 -2.24,5 -5,5 -2.76,0 -5,-2.24 -5,-5 0,-2.76 2.24,-5 5,-5 2.76,0 5,2.24 5,5 z"
         id="path4335"
         inkscape:connector-curvature="0" />
    </marker>
    <marker
       style="overflow:visible"
       id="DotMH"
       refX="0"
       refY="0"
       orient="auto"
       inkscape:stockid="DotMH">
      <path
         transform="matrix(0.4,0,0,0.4,2.96,0.4)"
         style="fill:#0000ff;fill-rule:evenodd;stroke:#0000ff;stroke-width:1pt"
         d="m -2.5,-1 c 0,2.76 -2.24,5 -5,5 -2.76,0 -5,-2.24 -5,-5 0,-2.76 2.24,-5 5,-5 2.76,0 5,2.24 5,5 z"
         id="path4476"
         inkscape:connector-curvature="0" />
    </marker>
    <marker
       style="overflow:visible"
       id="DotMHq"
       refX="0"
       refY="0"
       orient="auto"
       inkscape:stockid="DotMHq">
      <path
         transform="matrix(0.4,0,0,0.4,2.96,0.4)"
         style="fill:#0000ff;fill-rule:evenodd;stroke:#0000ff;stroke-width:1pt"
         d="m -2.5,-1 c 0,2.76 -2.24,5 -5,5 -2.76,0 -5,-2.24 -5,-5 0,-2.76 2.24,-5 5,-5 2.76,0 5,2.24 5,5 z"
         id="path4479"
         inkscape:connector-curvature="0" />
    </marker>
    <marker
       style="overflow:visible"
       id="DotM-1"
       refX="0"
       refY="0"
       orient="auto"
       inkscape:stockid="DotM">
      <path
         transform="matrix(0.4,0,0,0.4,2.96,0.4)"
         style="fill-rule:evenodd;stroke:#000000;stroke-width:1pt"
         d="m -2.5,-1 c 0,2.76 -2.24,5 -5,5 -2.76,0 -5,-2.24 -5,-5 0,-2.76 2.24,-5 5,-5 2.76,0 5,2.24 5,5 z"
         id="path5363-4"
         inkscape:connector-curvature="0" />
    </marker>
    <marker
       style="overflow:visible"
       id="marker4583"
       refX="0"
       refY="0"
       orient="auto"
       inkscape:stockid="DotM">
      <path
         transform="matrix(0.4,0,0,0.4,2.96,0.4)"
         style="fill-rule:evenodd;stroke:#000000;stroke-width:1pt"
         d="m -2.5,-1 c 0,2.76 -2.24,5 -5,5 -2.76,0 -5,-2.24 -5,-5 0,-2.76 2.24,-5 5,-5 2.76,0 5,2.24 5,5 z"
         id="path4585"
         inkscape:connector-curvature="0" />
    </marker>
    <marker
       style="overflow:visible"
       id="DotM-26"
       refX="0"
       refY="0"
       orient="auto"
       inkscape:stockid="DotM">
      <path
         transform="matrix(0.4,0,0,0.4,2.96,0.4)"
         style="fill-rule:evenodd;stroke:#000000;stroke-width:1pt"
         d="m -2.5,-1 c 0,2.76 -2.24,5 -5,5 -2.76,0 -5,-2.24 -5,-5 0,-2.76 2.24,-5 5,-5 2.76,0 5,2.24 5,5 z"
         id="path5363-6"
         inkscape:connector-curvature="0" />
    </marker>
    <marker
       style="overflow:visible"
       id="marker5356"
       refX="0"
       refY="0"
       orient="auto"
       inkscape:stockid="DotM">
      <path
         transform="matrix(0.4,0,0,0.4,2.96,0.4)"
         style="fill-rule:evenodd;stroke:#000000;stroke-width:1pt"
         d="m -2.5,-1 c 0,2.76 -2.24,5 -5,5 -2.76,0 -5,-2.24 -5,-5 0,-2.76 2.24,-5 5,-5 2.76,0 5,2.24 5,5 z"
         id="path5358"
         inkscape:connector-curvature="0" />
    </marker>
    <marker
       style="overflow:visible"
       id="DotMP"
       refX="0"
       refY="0"
       orient="auto"
       inkscape:stockid="DotMP">
      <path
         transform="matrix(0.4,0,0,0.4,2.96,0.4)"
         style="fill:#ff0000;fill-rule:evenodd;stroke:#ff0000;stroke-width:1pt"
         d="m -2.5,-1 c 0,2.76 -2.24,5 -5,5 -2.76,0 -5,-2.24 -5,-5 0,-2.76 2.24,-5 5,-5 2.76,0 5,2.24 5,5 z"
         id="path5815"
         inkscape:connector-curvature="0" />
    </marker>
    <marker
       style="overflow:visible"
       id="DotMt"
       refX="0"
       refY="0"
       orient="auto"
       inkscape:stockid="DotMt">
      <path
         transform="matrix(0.4,0,0,0.4,2.96,0.4)"
         style="fill:#ff0000;fill-rule:evenodd;stroke:#ff0000;stroke-width:1pt"
         d="m -2.5,-1 c 0,2.76 -2.24,5 -5,5 -2.76,0 -5,-2.24 -5,-5 0,-2.76 2.24,-5 5,-5 2.76,0 5,2.24 5,5 z"
         id="path5818"
         inkscape:connector-curvature="0" />
    </marker>
    <marker
       style="overflow:visible"
       id="DotMC"
       refX="0"
       refY="0"
       orient="auto"
       inkscape:stockid="DotMC">
      <path
         transform="matrix(0.4,0,0,0.4,2.96,0.4)"
         style="fill:#0000ff;fill-rule:evenodd;stroke:#0000ff;stroke-width:1pt"
         d="m -2.5,-1 c 0,2.76 -2.24,5 -5,5 -2.76,0 -5,-2.24 -5,-5 0,-2.76 2.24,-5 5,-5 2.76,0 5,2.24 5,5 z"
         id="path6011"
         inkscape:connector-curvature="0" />
    </marker>
    <marker
       style="overflow:visible"
       id="DotMR"
       refX="0"
       refY="0"
       orient="auto"
       inkscape:stockid="DotMR">
      <path
         transform="matrix(0.4,0,0,0.4,2.96,0.4)"
         style="fill:#0000ff;fill-rule:evenodd;stroke:#0000ff;stroke-width:1pt"
         d="m -2.5,-1 c 0,2.76 -2.24,5 -5,5 -2.76,0 -5,-2.24 -5,-5 0,-2.76 2.24,-5 5,-5 2.76,0 5,2.24 5,5 z"
         id="path6014"
         inkscape:connector-curvature="0" />
    </marker>
    <marker
       style="overflow:visible"
       id="DotMQ6"
       refX="0"
       refY="0"
       orient="auto"
       inkscape:stockid="DotMQ6">
      <path
         transform="matrix(0.4,0,0,0.4,2.96,0.4)"
         style="fill:#000000;fill-rule:evenodd;stroke:#000000;stroke-width:1pt"
         d="m -2.5,-1 c 0,2.76 -2.24,5 -5,5 -2.76,0 -5,-2.24 -5,-5 0,-2.76 2.24,-5 5,-5 2.76,0 5,2.24 5,5 z"
         id="path13362"
         inkscape:connector-curvature="0" />
    </marker>
    <marker
       style="overflow:visible"
       id="DotM74"
       refX="0"
       refY="0"
       orient="auto"
       inkscape:stockid="DotM74">
      <path
         transform="matrix(0.4,0,0,0.4,2.96,0.4)"
         style="fill:#000000;fill-rule:evenodd;stroke:#000000;stroke-width:1pt"
         d="m -2.5,-1 c 0,2.76 -2.24,5 -5,5 -2.76,0 -5,-2.24 -5,-5 0,-2.76 2.24,-5 5,-5 2.76,0 5,2.24 5,5 z"
         id="path13365"
         inkscape:connector-curvature="0" />
    </marker>
    <marker
       style="overflow:visible"
       id="DotMHW"
       refX="0"
       refY="0"
       orient="auto"
       inkscape:stockid="DotMHW">
      <path
         transform="matrix(0.4,0,0,0.4,2.96,0.4)"
         style="fill:#000000;fill-rule:evenodd;stroke:#000000;stroke-width:1pt"
         d="m -2.5,-1 c 0,2.76 -2.24,5 -5,5 -2.76,0 -5,-2.24 -5,-5 0,-2.76 2.24,-5 5,-5 2.76,0 5,2.24 5,5 z"
         id="path13368"
         inkscape:connector-curvature="0" />
    </marker>
    <marker
       style="overflow:visible"
       id="DotMHqd"
       refX="0"
       refY="0"
       orient="auto"
       inkscape:stockid="DotMHqd">
      <path
         transform="matrix(0.4,0,0,0.4,2.96,0.4)"
         style="fill:#000000;fill-rule:evenodd;stroke:#000000;stroke-width:1pt"
         d="m -2.5,-1 c 0,2.76 -2.24,5 -5,5 -2.76,0 -5,-2.24 -5,-5 0,-2.76 2.24,-5 5,-5 2.76,0 5,2.24 5,5 z"
         id="path13371"
         inkscape:connector-curvature="0" />
    </marker>
    <marker
       style="overflow:visible"
       id="DotMPi"
       refX="0"
       refY="0"
       orient="auto"
       inkscape:stockid="DotMPi">
      <path
         transform="matrix(0.4,0,0,0.4,2.96,0.4)"
         style="fill:#000000;fill-rule:evenodd;stroke:#000000;stroke-width:1pt"
         d="m -2.5,-1 c 0,2.76 -2.24,5 -5,5 -2.76,0 -5,-2.24 -5,-5 0,-2.76 2.24,-5 5,-5 2.76,0 5,2.24 5,5 z"
         id="path14869"
         inkscape:connector-curvature="0" />
    </marker>
    <marker
       style="overflow:visible"
       id="DotMt5"
       refX="0"
       refY="0"
       orient="auto"
       inkscape:stockid="DotMt5">
      <path
         transform="matrix(0.4,0,0,0.4,2.96,0.4)"
         style="fill:#000000;fill-rule:evenodd;stroke:#000000;stroke-width:1pt"
         d="m -2.5,-1 c 0,2.76 -2.24,5 -5,5 -2.76,0 -5,-2.24 -5,-5 0,-2.76 2.24,-5 5,-5 2.76,0 5,2.24 5,5 z"
         id="path14872"
         inkscape:connector-curvature="0" />
    </marker>
  </defs>
  <metadata
     id="metadata7">
    <rdf:RDF>
      <cc:Work
         rdf:about="">
        <dc:format>image/svg+xml</dc:format>
        <dc:type
           rdf:resource="http://purl.org/dc/dcmitype/StillImage" />
        <dc:title></dc:title>
      </cc:Work>
    </rdf:RDF>
  </metadata>
  <g
     inkscape:label="Layer 1"
     inkscape:groupmode="layer"
     id="layer1"
     transform="translate(-328.18979,183.66305)">
    <path
       sodipodi:nodetypes="cccccc"
       inkscape:connector-curvature="0"
       id="path11933"
       d="M 300.92409,36.137548 318.38856,-26.84826 274.85396,-53.769617 300.92409,36.137548 248.0245,3.6287433 274.85396,-53.769617"
       style="fill:none;stroke:#000000;stroke-width:2;stroke-linecap:butt;stroke-linejoin:miter;stroke-miterlimit:4;stroke-opacity:1;stroke-dasharray:none;marker-start:url(#DotM);marker-mid:url(#DotM)" />
    <g
       transform="matrix(0.50603009,0,0,0.50603009,215.42676,103.55055)"
       id="g11945">
      <path
         style="fill:none;stroke:#0000ff;stroke-width:3.95233417;stroke-linecap:butt;stroke-linejoin:miter;stroke-miterlimit:4;stroke-opacity:1;stroke-dasharray:none;marker-start:url(#DotMH);marker-mid:url(#DotMHq)"
         d="m 449.6877,-144.64306 -104.53844,-64.24283 53.0195,-113.42875 z"
         id="path11947"
         inkscape:connector-curvature="0"
         sodipodi:nodetypes="cccc" />
      <g
         transform="translate(449.6877,-144.64306)"
         inkscape:label="TriangleElements"
         id="g11949"
         style="stroke:#0000ff;stroke-width:3.95233417;stroke-miterlimit:4;stroke-opacity:1;stroke-dasharray:none">
        <circle
           sodipodi:ry="93.097198"
           sodipodi:rx="93.097198"
           sodipodi:cy="-91.779686"
           sodipodi:cx="-15.606953"
           cx="-15.606953"
           cy="-91.779686"
           r="93.097198"
           style="fill:none;stroke:#0000ff;stroke-width:3.95233417;stroke-miterlimit:4;stroke-opacity:1;stroke-dasharray:none"
           inkscape:label="Circumcircle"
           id="circle11951"
           d="m 77.490246,-91.779686 c 0,51.416163 -41.681036,93.0971985 -93.097199,93.0971985 -51.416163,0 -93.097197,-41.6810355 -93.097197,-93.0971985 0,-51.416164 41.681034,-93.097194 93.097197,-93.097194 51.416163,0 93.097199,41.68103 93.097199,93.097194 z" />
      </g>
      <path
         sodipodi:nodetypes="cccc"
         inkscape:connector-curvature="0"
         id="path11953"
         d="m 484.2004,-269.11354 -86.03164,-53.2011 51.51894,177.67158 z"
         style="fill:none;stroke:#ff0000;stroke-width:3.95233417;stroke-linecap:butt;stroke-linejoin:miter;stroke-miterlimit:4;stroke-opacity:1;stroke-dasharray:none;marker-start:url(#DotMQ);marker-mid:url(#DotM7)" />
      <g
         id="g11955"
         inkscape:label="TriangleElements"
         transform="translate(484.2004,-269.11354)"
         style="stroke:#ff0000;stroke-width:3.95233417;stroke-miterlimit:4;stroke-opacity:1;stroke-dasharray:none">
        <circle
           sodipodi:ry="96.336639"
           sodipodi:rx="96.336639"
           sodipodi:cy="43.135479"
           sodipodi:cx="-86.139877"
           d="m 10.196762,43.135479 c 0,53.205257 -43.131383,96.336641 -96.336639,96.336641 -53.205253,0 -96.336643,-43.131384 -96.336643,-96.336641 0,-53.205257 43.13139,-96.336639 96.336643,-96.336639 53.205256,0 96.336639,43.131382 96.336639,96.336639 z"
           id="circle11957"
           inkscape:label="Circumcircle"
           style="fill:none;stroke:#ff0000;stroke-width:3.95233417;stroke-miterlimit:4;stroke-opacity:1;stroke-dasharray:none"
           r="96.336639"
           cy="43.135479"
           cx="-86.139877" />
      </g>
    </g>
    <g
       transform="matrix(0.50603009,0,0,0.50603009,151.45966,202.11425)"
       id="g11969">
      <path
         style="fill:none;stroke:#000000;stroke-width:3.95233417;stroke-linecap:butt;stroke-linejoin:miter;stroke-miterlimit:4;stroke-opacity:1;stroke-dasharray:none;marker-start:url(#DotM);marker-mid:url(#DotM)"
         d="m 594.28481,-123.52518 34.5127,-124.47048 -86.03163,-53.2011 m 51.51893,177.67158 -104.53843,-64.24283 53.0195,-113.42875"
         id="path11971"
         inkscape:connector-curvature="0"
         sodipodi:nodetypes="cccccc" />
      <path
         sodipodi:nodetypes="cccc"
         inkscape:connector-curvature="0"
         id="path11973"
         d="m 594.28481,-123.46521 -51.51893,-177.67158 51.51893,177.67158 -51.51893,-177.67158"
         style="fill:none;stroke:#000000;stroke-width:3.95233417;stroke-linecap:butt;stroke-linejoin:miter;stroke-miterlimit:4;stroke-opacity:1;stroke-dasharray:3.95233415, 11.85700244;stroke-dashoffset:0;marker-start:none;marker-mid:none" />
    </g>
    <g
       transform="matrix(0.50603009,0,0,0.50603009,60.093266,97.708706)"
       id="g11985">
      <path
         sodipodi:nodetypes="cccc"
         style="fill:none;stroke:#0000ff;stroke-width:3.95233417;stroke-linecap:butt;stroke-linejoin:miter;stroke-miterlimit:4;stroke-opacity:1;stroke-dasharray:none;marker-start:url(#DotMC);marker-mid:url(#DotMR)"
         d="m 939.15311,-186.86771 53.0195,-113.42875 86.03169,53.2011 -139.05119,60.22765"
         id="path11987"
         inkscape:connector-curvature="0" />
      <g
         transform="translate(939.15311,-186.86771)"
         inkscape:label="TriangleElements"
         id="g11989"
         style="stroke:#0000ff;stroke-width:3.95233417;stroke-miterlimit:4;stroke-opacity:1;stroke-dasharray:none">
        <circle
           sodipodi:ry="76.284897"
           sodipodi:rx="76.284897"
           sodipodi:cy="-38.256142"
           sodipodi:cx="65.998894"
           cx="65.998894"
           cy="-38.256142"
           r="76.284897"
           style="fill:none;stroke:#0000ff;stroke-width:3.95233417;stroke-miterlimit:4;stroke-opacity:1;stroke-dasharray:none"
           inkscape:label="Circumcircle"
           id="circle11991"
           d="m 142.28379,-38.256142 c 0,42.1309855 -34.15391,76.284897 -76.284896,76.284897 -42.130985,0 -76.284897,-34.1539115 -76.284897,-76.284897 0,-42.130985 34.153912,-76.284898 76.284897,-76.284898 42.130986,0 76.284896,34.153913 76.284896,76.284898 z" />
      </g>
      <path
         inkscape:connector-curvature="0"
         id="path11993"
         d="m 1078.2043,-247.09536 -34.5127,124.47049 -104.53849,-64.24284 m 139.05119,-60.22765 -139.05119,60.22765"
         style="fill:none;stroke:#ff0000;stroke-width:3.95233417;stroke-linecap:butt;stroke-linejoin:miter;stroke-miterlimit:4;stroke-opacity:1;stroke-dasharray:none;marker-start:url(#DotMP);marker-mid:url(#DotMt)"
         sodipodi:nodetypes="ccccc" />
      <g
         id="g11995"
         inkscape:label="TriangleElements"
         transform="translate(1078.2043,-247.09536)"
         style="stroke:#ff0000;stroke-width:3.95233417;stroke-miterlimit:4;stroke-opacity:1;stroke-dasharray:none">
        <circle
           sodipodi:ry="78.850067"
           sodipodi:rx="78.850067"
           sodipodi:cy="50.148319"
           sodipodi:cx="-60.847996"
           d="m 18.002071,50.148319 c 0,43.54769 -35.302377,78.850071 -78.850067,78.850071 -43.547694,0 -78.850064,-35.302381 -78.850064,-78.850071 0,-43.5476894 35.30237,-78.850067 78.850064,-78.850067 43.54769,0 78.850067,35.3023776 78.850067,78.850067 z"
           id="circle11997"
           inkscape:label="Circumcircle"
           style="fill:none;stroke:#ff0000;stroke-width:3.95233417;stroke-miterlimit:4;stroke-opacity:1;stroke-dasharray:none"
           r="78.850067"
           cy="50.148319"
           cx="-60.847996" />
      </g>
    </g>
    <path
       inkscape:connector-curvature="0"
       id="path12009"
       d="M 602.22646,76.674832 584.762,139.66065 531.86237,107.15184 558.69183,49.753475 602.22646,76.674832 531.86237,107.15184"
       style="fill:none;stroke:#000000;stroke-width:2;stroke-linecap:butt;stroke-linejoin:miter;stroke-miterlimit:4;stroke-opacity:1;stroke-dasharray:none;marker-start:url(#DotM);marker-mid:url(#DotM)"
       sodipodi:nodetypes="cccccc" />
    <g
       transform="matrix(0.50603009,0,0,0.50603009,-3.0775735,220.70773)"
       id="g14742">
      <path
         sodipodi:nodetypes="cccccc"
         inkscape:connector-curvature="0"
         id="path7999-9-3"
         d="m 637.68327,-160.26902 34.5127,-124.47048 -86.03163,-53.2011 m 51.51893,177.67158 -104.53843,-64.24283 53.0195,-113.42875"
         style="fill:none;stroke:#000000;stroke-width:3.95233417;stroke-linecap:butt;stroke-linejoin:miter;stroke-miterlimit:4;stroke-opacity:1;stroke-dasharray:none;marker-start:url(#DotM);marker-mid:url(#DotM)" />
      <path
         style="fill:none;stroke:#000000;stroke-width:3.95233417;stroke-linecap:butt;stroke-linejoin:miter;stroke-miterlimit:4;stroke-opacity:1;stroke-dasharray:23.71400488, 23.71400488;stroke-dashoffset:0;marker-start:none;marker-mid:none"
         d="M 637.68327,-160.20905 586.16433,-337.88063"
         id="path12019-2"
         inkscape:connector-curvature="0"
         sodipodi:nodetypes="cc" />
    </g>
    <path
       style="fill:none;stroke:#000000;stroke-width:2;stroke-linecap:butt;stroke-linejoin:miter;stroke-miterlimit:4;stroke-opacity:1;stroke-dasharray:none;marker-start:url(#DotM);marker-mid:url(#DotM)"
       d="m 260.44169,-89.211677 17.46447,-62.985803 -43.5346,-26.92136 26.07013,89.907163 -52.89959,-32.508803 26.82946,-57.39836"
       id="path7999-9"
       inkscape:connector-curvature="0"
       sodipodi:nodetypes="cccccc" />
    <path
       sodipodi:nodetypes="cccccc"
       style="fill:none;stroke:#000000;stroke-width:2;stroke-linecap:butt;stroke-linejoin:miter;stroke-miterlimit:4;stroke-opacity:1;stroke-dasharray:none;marker-start:url(#DotM);marker-mid:url(#DotM)"
       d="m 699.05077,-152.26754 -17.46447,62.985809 -52.89963,-32.508809 26.82947,-57.39836 43.53463,26.92136 -70.3641,30.477"
       id="path7999"
       inkscape:connector-curvature="0" />
    <g
       id="g4250"
       transform="matrix(0.50603009,0,0,0.50603009,224.26953,-6.0704252)">
      <path
         sodipodi:nodetypes="ccccc"
         inkscape:connector-curvature="0"
         d="m 389.8013,-288.5777 -34.5127,124.47048 -104.53844,-64.24283 53.0195,-113.42875 z"
         style="fill:none;stroke:#000000;stroke-width:3.95233417;stroke-linecap:butt;stroke-linejoin:miter;stroke-miterlimit:4;stroke-opacity:1;stroke-dasharray:none;marker-start:url(#marker5356);marker-mid:url(#marker5356);marker-end:url(#marker5356)"
         id="path3086" />
      <path
         sodipodi:nodetypes="cc"
         inkscape:connector-curvature="0"
         id="path12019"
         d="M 355.2886,-164.10722 303.76966,-341.7788"
         style="fill:none;stroke:#000000;stroke-width:3.95233417;stroke-linecap:butt;stroke-linejoin:miter;stroke-miterlimit:4;stroke-opacity:1;stroke-dasharray:23.71400488, 23.71400488;stroke-dashoffset:0;marker-start:none;marker-mid:none" />
      <g
         style="stroke:#ff0000;stroke-width:3.95233417;stroke-miterlimit:4;stroke-opacity:0.75294118;stroke-dasharray:none"
         id="g3150"
         inkscape:label="TriangleElements"
         transform="translate(355.2886,-164.10722)" />
      <g
         style="stroke:#ff0000;stroke-width:3.95233417;stroke-miterlimit:4;stroke-opacity:0.75294118;stroke-dasharray:none"
         transform="translate(389.8013,-288.5777)"
         inkscape:label="TriangleElements"
         id="g3280">
        <path
           id="circle3282"
           style="fill:none;stroke:#ff0000"
           d="m 10.196762,43.135479 c 0,53.205257 -43.131383,96.336641 -96.336639,96.336641 -53.205253,0 -96.336643,-43.131384 -96.336643,-96.336641 0,-53.205257 43.13139,-96.336639 96.336643,-96.336639 53.205256,0 96.336639,43.131382 96.336639,96.336639 z M 42.977546,32.690794 c 0,51.416163 -41.681036,93.097196 -93.097199,93.097196 -51.416167,0 -93.097197,-41.681033 -93.097197,-93.097196 0,-51.416164 41.68103,-93.097194 93.097197,-93.097194 51.416163,0 93.097199,41.68103 93.097199,93.097194 z"
           inkscape:connector-curvature="0" />
      </g>
    </g>
    <g
       id="g15672"
       transform="matrix(0.50603009,0,0,0.50603009,100.52556,-7.9454917)">
      <path
         sodipodi:nodetypes="ccccc"
         inkscape:connector-curvature="0"
         id="path5376"
         style="fill:none;stroke:#000000;stroke-width:3.95233417;stroke-linecap:butt;stroke-linejoin:miter;stroke-miterlimit:4;stroke-opacity:1;stroke-dasharray:none;marker-start:url(#DotMPi);marker-mid:url(#DotMt5)"
         d="m 889.94199,-160.734 -104.53849,-64.24284 53.0195,-113.42875 86.03169,53.2011 z" />
      <path
         inkscape:connector-curvature="0"
         id="path14755"
         d="M 924.45469,-285.20449 785.4035,-224.97684"
         style="fill:none;stroke:#000000;stroke-width:3.95233417;stroke-linecap:butt;stroke-linejoin:miter;stroke-miterlimit:4;stroke-opacity:1;stroke-dasharray:23.71400488, 23.71400488;stroke-dashoffset:0;marker-start:none;marker-mid:none"
         sodipodi:nodetypes="cc" />
      <path
         id="circle5650"
         transform="translate(924.45469,-285.20449)"
         style="fill:none;stroke:#00c000;stroke-width:3.95233417;stroke-miterlimit:4;stroke-opacity:0.75294118"
         d="m 18.002071,50.148319 c 0,43.54769 -35.302377,78.850071 -78.850067,78.850071 -43.547694,0 -78.850064,-35.302381 -78.850064,-78.850071 0,-43.5476894 35.30237,-78.850067 78.850064,-78.850067 43.54769,0 78.850067,35.3023776 78.850067,78.850067 z M 3.2326,21.971508 c 0,42.130986 -34.15391,76.284897 -76.284896,76.284897 -42.130984,0 -76.284894,-34.153911 -76.284894,-76.284897 0,-42.130985 34.15391,-76.284898 76.284894,-76.284898 42.130986,0 76.284896,34.153913 76.284896,76.284898 z"
         inkscape:connector-curvature="0" />
    </g>
  </g>
</svg>
