<?xml version="1.0" encoding="UTF-8" standalone="no"?>
<!-- Created with Inkscape (http://www.inkscape.org/) -->

<svg
   xmlns:dc="http://purl.org/dc/elements/1.1/"
   xmlns:cc="http://creativecommons.org/ns#"
   xmlns:rdf="http://www.w3.org/1999/02/22-rdf-syntax-ns#"
   xmlns:svg="http://www.w3.org/2000/svg"
   xmlns="http://www.w3.org/2000/svg"
   xmlns:sodipodi="http://sodipodi.sourceforge.net/DTD/sodipodi-0.dtd"
   xmlns:inkscape="http://www.inkscape.org/namespaces/inkscape"
   width="1334.5334"
   height="315.99399"
   id="svg2"
   version="1.1"
   inkscape:version="0.48.4 r9939"
   sodipodi:docname="delaunay-alpha.svg">
  <sodipodi:namedview
     id="base"
     pagecolor="#ffffff"
     bordercolor="#666666"
     borderopacity="1.0"
     inkscape:pageopacity="0.0"
     inkscape:pageshadow="2"
     inkscape:zoom="0.49497475"
     inkscape:cx="770.28498"
     inkscape:cy="-19.472059"
     inkscape:document-units="px"
     inkscape:current-layer="layer1"
     showgrid="false"
     inkscape:window-width="958"
     inkscape:window-height="1198"
     inkscape:window-x="2880"
     inkscape:window-y="0"
     inkscape:window-maximized="0"
     showguides="true"
     inkscape:guide-bbox="true"
     fit-margin-top="0"
     fit-margin-left="0"
     fit-margin-right="0"
     fit-margin-bottom="0" />
  <defs
     id="defs4">
    <marker
       inkscape:stockid="DotM"
       orient="auto"
       refY="0"
       refX="0"
       id="DotM"
       style="overflow:visible">
      <path
         id="path3833"
         d="m -2.5,-1 c 0,2.76 -2.24,5 -5,5 -2.76,0 -5,-2.24 -5,-5 0,-2.76 2.24,-5 5,-5 2.76,0 5,2.24 5,5 z"
         style="fill-rule:evenodd;stroke:#000000;stroke-width:1pt"
         transform="matrix(0.4,0,0,0.4,2.96,0.4)"
         inkscape:connector-curvature="0" />
    </marker>
    <marker
       inkscape:stockid="DotM"
       orient="auto"
       refY="0"
       refX="0"
       id="DotM-2"
       style="overflow:visible">
      <path
         inkscape:connector-curvature="0"
         id="path3833-6"
         d="m -2.5,-1 c 0,2.76 -2.24,5 -5,5 -2.76,0 -5,-2.24 -5,-5 0,-2.76 2.24,-5 5,-5 2.76,0 5,2.24 5,5 z"
         style="fill-rule:evenodd;stroke:#000000;stroke-width:1pt"
         transform="matrix(0.4,0,0,0.4,2.96,0.4)" />
    </marker>
    <marker
       inkscape:stockid="DotM"
       orient="auto"
       refY="0"
       refX="0"
       id="marker5152"
       style="overflow:visible">
      <path
         inkscape:connector-curvature="0"
         id="path5154"
         d="m -2.5,-1 c 0,2.76 -2.24,5 -5,5 -2.76,0 -5,-2.24 -5,-5 0,-2.76 2.24,-5 5,-5 2.76,0 5,2.24 5,5 z"
         style="fill-rule:evenodd;stroke:#000000;stroke-width:1pt"
         transform="matrix(0.4,0,0,0.4,2.96,0.4)" />
    </marker>
    <marker
       inkscape:stockid="DotM"
       orient="auto"
       refY="0"
       refX="0"
       id="marker5156"
       style="overflow:visible">
      <path
         inkscape:connector-curvature="0"
         id="path5158"
         d="m -2.5,-1 c 0,2.76 -2.24,5 -5,5 -2.76,0 -5,-2.24 -5,-5 0,-2.76 2.24,-5 5,-5 2.76,0 5,2.24 5,5 z"
         style="fill-rule:evenodd;stroke:#000000;stroke-width:1pt"
         transform="matrix(0.4,0,0,0.4,2.96,0.4)" />
    </marker>
    <marker
       inkscape:stockid="DotMh"
       orient="auto"
       refY="0"
       refX="0"
       id="DotMh"
       style="overflow:visible">
      <path
         id="path5193"
         d="m -2.5,-1 c 0,2.76 -2.24,5 -5,5 -2.76,0 -5,-2.24 -5,-5 0,-2.76 2.24,-5 5,-5 2.76,0 5,2.24 5,5 z"
         style="fill:#808080;fill-rule:evenodd;stroke:#808080;stroke-width:1pt"
         transform="matrix(0.4,0,0,0.4,2.96,0.4)"
         inkscape:connector-curvature="0" />
    </marker>
    <marker
       inkscape:stockid="DotMz"
       orient="auto"
       refY="0"
       refX="0"
       id="DotMz"
       style="overflow:visible">
      <path
         id="path5196"
         d="m -2.5,-1 c 0,2.76 -2.24,5 -5,5 -2.76,0 -5,-2.24 -5,-5 0,-2.76 2.24,-5 5,-5 2.76,0 5,2.24 5,5 z"
         style="fill:#808080;fill-rule:evenodd;stroke:#808080;stroke-width:1pt"
         transform="matrix(0.4,0,0,0.4,2.96,0.4)"
         inkscape:connector-curvature="0" />
    </marker>
    <marker
       inkscape:stockid="DotMa"
       orient="auto"
       refY="0"
       refX="0"
       id="DotMa"
       style="overflow:visible">
      <path
         id="path5199"
         d="m -2.5,-1 c 0,2.76 -2.24,5 -5,5 -2.76,0 -5,-2.24 -5,-5 0,-2.76 2.24,-5 5,-5 2.76,0 5,2.24 5,5 z"
         style="fill:#808080;fill-rule:evenodd;stroke:#808080;stroke-width:1pt"
         transform="matrix(0.4,0,0,0.4,2.96,0.4)"
         inkscape:connector-curvature="0" />
    </marker>
    <marker
       inkscape:stockid="DotM"
       orient="auto"
       refY="0"
       refX="0"
       id="DotM-5"
       style="overflow:visible">
      <path
         id="path3833-4"
         d="m -2.5,-1 c 0,2.76 -2.24,5 -5,5 -2.76,0 -5,-2.24 -5,-5 0,-2.76 2.24,-5 5,-5 2.76,0 5,2.24 5,5 z"
         style="fill-rule:evenodd;stroke:#000000;stroke-width:1pt"
         transform="matrix(0.4,0,0,0.4,2.96,0.4)"
         inkscape:connector-curvature="0" />
    </marker>
    <marker
       inkscape:stockid="DotM"
       orient="auto"
       refY="0"
       refX="0"
       id="marker5243"
       style="overflow:visible">
      <path
         id="path5245"
         d="m -2.5,-1 c 0,2.76 -2.24,5 -5,5 -2.76,0 -5,-2.24 -5,-5 0,-2.76 2.24,-5 5,-5 2.76,0 5,2.24 5,5 z"
         style="fill-rule:evenodd;stroke:#000000;stroke-width:1pt"
         transform="matrix(0.4,0,0,0.4,2.96,0.4)"
         inkscape:connector-curvature="0" />
    </marker>
    <marker
       inkscape:stockid="DotM"
       orient="auto"
       refY="0"
       refX="0"
       id="marker5247"
       style="overflow:visible">
      <path
         id="path5249"
         d="m -2.5,-1 c 0,2.76 -2.24,5 -5,5 -2.76,0 -5,-2.24 -5,-5 0,-2.76 2.24,-5 5,-5 2.76,0 5,2.24 5,5 z"
         style="fill-rule:evenodd;stroke:#000000;stroke-width:1pt"
         transform="matrix(0.4,0,0,0.4,2.96,0.4)"
         inkscape:connector-curvature="0" />
    </marker>
    <marker
       inkscape:stockid="DotM"
       orient="auto"
       refY="0"
       refX="0"
       id="DotM-4"
       style="overflow:visible">
      <path
         id="path3833-8"
         d="m -2.5,-1 c 0,2.76 -2.24,5 -5,5 -2.76,0 -5,-2.24 -5,-5 0,-2.76 2.24,-5 5,-5 2.76,0 5,2.24 5,5 z"
         style="fill-rule:evenodd;stroke:#000000;stroke-width:1pt"
         transform="matrix(0.4,0,0,0.4,2.96,0.4)"
         inkscape:connector-curvature="0" />
    </marker>
    <marker
       inkscape:stockid="DotM"
       orient="auto"
       refY="0"
       refX="0"
       id="marker5582"
       style="overflow:visible">
      <path
         id="path5584"
         d="m -2.5,-1 c 0,2.76 -2.24,5 -5,5 -2.76,0 -5,-2.24 -5,-5 0,-2.76 2.24,-5 5,-5 2.76,0 5,2.24 5,5 z"
         style="fill-rule:evenodd;stroke:#000000;stroke-width:1pt"
         transform="matrix(0.4,0,0,0.4,2.96,0.4)"
         inkscape:connector-curvature="0" />
    </marker>
    <marker
       inkscape:stockid="DotM"
       orient="auto"
       refY="0"
       refX="0"
       id="marker5586"
       style="overflow:visible">
      <path
         id="path5588"
         d="m -2.5,-1 c 0,2.76 -2.24,5 -5,5 -2.76,0 -5,-2.24 -5,-5 0,-2.76 2.24,-5 5,-5 2.76,0 5,2.24 5,5 z"
         style="fill-rule:evenodd;stroke:#000000;stroke-width:1pt"
         transform="matrix(0.4,0,0,0.4,2.96,0.4)"
         inkscape:connector-curvature="0" />
    </marker>
    <marker
       inkscape:stockid="DotMh"
       orient="auto"
       refY="0"
       refX="0"
       id="DotMh-9"
       style="overflow:visible">
      <path
         id="path5193-1"
         d="m -2.5,-1 c 0,2.76 -2.24,5 -5,5 -2.76,0 -5,-2.24 -5,-5 0,-2.76 2.24,-5 5,-5 2.76,0 5,2.24 5,5 z"
         style="fill:#808080;fill-rule:evenodd;stroke:#808080;stroke-width:1pt"
         transform="matrix(0.4,0,0,0.4,2.96,0.4)"
         inkscape:connector-curvature="0" />
    </marker>
    <marker
       inkscape:stockid="DotMz"
       orient="auto"
       refY="0"
       refX="0"
       id="DotMz-6"
       style="overflow:visible">
      <path
         id="path5196-6"
         d="m -2.5,-1 c 0,2.76 -2.24,5 -5,5 -2.76,0 -5,-2.24 -5,-5 0,-2.76 2.24,-5 5,-5 2.76,0 5,2.24 5,5 z"
         style="fill:#808080;fill-rule:evenodd;stroke:#808080;stroke-width:1pt"
         transform="matrix(0.4,0,0,0.4,2.96,0.4)"
         inkscape:connector-curvature="0" />
    </marker>
    <marker
       inkscape:stockid="DotMa"
       orient="auto"
       refY="0"
       refX="0"
       id="DotMa-5"
       style="overflow:visible">
      <path
         id="path5199-3"
         d="m -2.5,-1 c 0,2.76 -2.24,5 -5,5 -2.76,0 -5,-2.24 -5,-5 0,-2.76 2.24,-5 5,-5 2.76,0 5,2.24 5,5 z"
         style="fill:#808080;fill-rule:evenodd;stroke:#808080;stroke-width:1pt"
         transform="matrix(0.4,0,0,0.4,2.96,0.4)"
         inkscape:connector-curvature="0" />
    </marker>
    <marker
       inkscape:stockid="DotM"
       orient="auto"
       refY="0"
       refX="0"
       id="DotM-28"
       style="overflow:visible">
      <path
         id="path3833-1"
         d="m -2.5,-1 c 0,2.76 -2.24,5 -5,5 -2.76,0 -5,-2.24 -5,-5 0,-2.76 2.24,-5 5,-5 2.76,0 5,2.24 5,5 z"
         style="fill-rule:evenodd;stroke:#000000;stroke-width:1pt"
         transform="matrix(0.4,0,0,0.4,2.96,0.4)"
         inkscape:connector-curvature="0" />
    </marker>
    <marker
       inkscape:stockid="DotM"
       orient="auto"
       refY="0"
       refX="0"
       id="marker5628"
       style="overflow:visible">
      <path
         id="path5630"
         d="m -2.5,-1 c 0,2.76 -2.24,5 -5,5 -2.76,0 -5,-2.24 -5,-5 0,-2.76 2.24,-5 5,-5 2.76,0 5,2.24 5,5 z"
         style="fill-rule:evenodd;stroke:#000000;stroke-width:1pt"
         transform="matrix(0.4,0,0,0.4,2.96,0.4)"
         inkscape:connector-curvature="0" />
    </marker>
    <marker
       inkscape:stockid="DotM"
       orient="auto"
       refY="0"
       refX="0"
       id="marker5632"
       style="overflow:visible">
      <path
         id="path5634"
         d="m -2.5,-1 c 0,2.76 -2.24,5 -5,5 -2.76,0 -5,-2.24 -5,-5 0,-2.76 2.24,-5 5,-5 2.76,0 5,2.24 5,5 z"
         style="fill-rule:evenodd;stroke:#000000;stroke-width:1pt"
         transform="matrix(0.4,0,0,0.4,2.96,0.4)"
         inkscape:connector-curvature="0" />
    </marker>
    <marker
       inkscape:stockid="DotMA"
       orient="auto"
       refY="0"
       refX="0"
       id="DotMA"
       style="overflow:visible">
      <path
         id="path5718"
         d="m -2.5,-1 c 0,2.76 -2.24,5 -5,5 -2.76,0 -5,-2.24 -5,-5 0,-2.76 2.24,-5 5,-5 2.76,0 5,2.24 5,5 z"
         style="fill:#c4c4c4;fill-rule:evenodd;stroke:#c4c4c4;stroke-width:1pt"
         transform="matrix(0.4,0,0,0.4,2.96,0.4)"
         inkscape:connector-curvature="0" />
    </marker>
    <marker
       inkscape:stockid="DotMW"
       orient="auto"
       refY="0"
       refX="0"
       id="DotMW"
       style="overflow:visible">
      <path
         id="path5721"
         d="m -2.5,-1 c 0,2.76 -2.24,5 -5,5 -2.76,0 -5,-2.24 -5,-5 0,-2.76 2.24,-5 5,-5 2.76,0 5,2.24 5,5 z"
         style="fill:#c4c4c4;fill-rule:evenodd;stroke:#c4c4c4;stroke-width:1pt"
         transform="matrix(0.4,0,0,0.4,2.96,0.4)"
         inkscape:connector-curvature="0" />
    </marker>
    <marker
       inkscape:stockid="DotMd"
       orient="auto"
       refY="0"
       refX="0"
       id="DotMd"
       style="overflow:visible">
      <path
         id="path5724"
         d="m -2.5,-1 c 0,2.76 -2.24,5 -5,5 -2.76,0 -5,-2.24 -5,-5 0,-2.76 2.24,-5 5,-5 2.76,0 5,2.24 5,5 z"
         style="fill:#c4c4c4;fill-rule:evenodd;stroke:#c4c4c4;stroke-width:1pt"
         transform="matrix(0.4,0,0,0.4,2.96,0.4)"
         inkscape:connector-curvature="0" />
    </marker>
    <marker
       inkscape:stockid="DotM3"
       orient="auto"
       refY="0"
       refX="0"
       id="DotM3"
       style="overflow:visible">
      <path
         id="path5843"
         d="m -2.5,-1 c 0,2.76 -2.24,5 -5,5 -2.76,0 -5,-2.24 -5,-5 0,-2.76 2.24,-5 5,-5 2.76,0 5,2.24 5,5 z"
         style="fill:#c4c4c4;fill-rule:evenodd;stroke:#c4c4c4;stroke-width:1pt"
         transform="matrix(0.4,0,0,0.4,2.96,0.4)"
         inkscape:connector-curvature="0" />
    </marker>
    <marker
       inkscape:stockid="DotMV"
       orient="auto"
       refY="0"
       refX="0"
       id="DotMV"
       style="overflow:visible">
      <path
         id="path5846"
         d="m -2.5,-1 c 0,2.76 -2.24,5 -5,5 -2.76,0 -5,-2.24 -5,-5 0,-2.76 2.24,-5 5,-5 2.76,0 5,2.24 5,5 z"
         style="fill:#c4c4c4;fill-rule:evenodd;stroke:#c4c4c4;stroke-width:1pt"
         transform="matrix(0.4,0,0,0.4,2.96,0.4)"
         inkscape:connector-curvature="0" />
    </marker>
    <marker
       inkscape:stockid="DotM8"
       orient="auto"
       refY="0"
       refX="0"
       id="DotM8"
       style="overflow:visible">
      <path
         id="path5849"
         d="m -2.5,-1 c 0,2.76 -2.24,5 -5,5 -2.76,0 -5,-2.24 -5,-5 0,-2.76 2.24,-5 5,-5 2.76,0 5,2.24 5,5 z"
         style="fill:#c4c4c4;fill-rule:evenodd;stroke:#c4c4c4;stroke-width:1pt"
         transform="matrix(0.4,0,0,0.4,2.96,0.4)"
         inkscape:connector-curvature="0" />
    </marker>
    <marker
       inkscape:stockid="DotM3z"
       orient="auto"
       refY="0"
       refX="0"
       id="DotM3z"
       style="overflow:visible">
      <path
         id="path5980"
         d="m -2.5,-1 c 0,2.76 -2.24,5 -5,5 -2.76,0 -5,-2.24 -5,-5 0,-2.76 2.24,-5 5,-5 2.76,0 5,2.24 5,5 z"
         style="fill:#808080;fill-rule:evenodd;stroke:#808080;stroke-width:1pt"
         transform="matrix(0.4,0,0,0.4,2.96,0.4)"
         inkscape:connector-curvature="0" />
    </marker>
    <marker
       inkscape:stockid="DotMV9"
       orient="auto"
       refY="0"
       refX="0"
       id="DotMV9"
       style="overflow:visible">
      <path
         id="path5983"
         d="m -2.5,-1 c 0,2.76 -2.24,5 -5,5 -2.76,0 -5,-2.24 -5,-5 0,-2.76 2.24,-5 5,-5 2.76,0 5,2.24 5,5 z"
         style="fill:#808080;fill-rule:evenodd;stroke:#808080;stroke-width:1pt"
         transform="matrix(0.4,0,0,0.4,2.96,0.4)"
         inkscape:connector-curvature="0" />
    </marker>
    <marker
       inkscape:stockid="DotM8D"
       orient="auto"
       refY="0"
       refX="0"
       id="DotM8D"
       style="overflow:visible">
      <path
         id="path5986"
         d="m -2.5,-1 c 0,2.76 -2.24,5 -5,5 -2.76,0 -5,-2.24 -5,-5 0,-2.76 2.24,-5 5,-5 2.76,0 5,2.24 5,5 z"
         style="fill:#808080;fill-rule:evenodd;stroke:#808080;stroke-width:1pt"
         transform="matrix(0.4,0,0,0.4,2.96,0.4)"
         inkscape:connector-curvature="0" />
    </marker>
    <marker
       inkscape:stockid="DotM3zK"
       orient="auto"
       refY="0"
       refX="0"
       id="DotM3zK"
       style="overflow:visible">
      <path
         id="path6129"
         d="m -2.5,-1 c 0,2.76 -2.24,5 -5,5 -2.76,0 -5,-2.24 -5,-5 0,-2.76 2.24,-5 5,-5 2.76,0 5,2.24 5,5 z"
         style="fill:#a9a9a9;fill-rule:evenodd;stroke:#a9a9a9;stroke-width:1pt"
         transform="matrix(0.4,0,0,0.4,2.96,0.4)"
         inkscape:connector-curvature="0" />
    </marker>
    <marker
       inkscape:stockid="DotMV9a"
       orient="auto"
       refY="0"
       refX="0"
       id="DotMV9a"
       style="overflow:visible">
      <path
         id="path6132"
         d="m -2.5,-1 c 0,2.76 -2.24,5 -5,5 -2.76,0 -5,-2.24 -5,-5 0,-2.76 2.24,-5 5,-5 2.76,0 5,2.24 5,5 z"
         style="fill:#a9a9a9;fill-rule:evenodd;stroke:#a9a9a9;stroke-width:1pt"
         transform="matrix(0.4,0,0,0.4,2.96,0.4)"
         inkscape:connector-curvature="0" />
    </marker>
    <marker
       inkscape:stockid="DotM8DC"
       orient="auto"
       refY="0"
       refX="0"
       id="DotM8DC"
       style="overflow:visible">
      <path
         id="path6135"
         d="m -2.5,-1 c 0,2.76 -2.24,5 -5,5 -2.76,0 -5,-2.24 -5,-5 0,-2.76 2.24,-5 5,-5 2.76,0 5,2.24 5,5 z"
         style="fill:#a9a9a9;fill-rule:evenodd;stroke:#a9a9a9;stroke-width:1pt"
         transform="matrix(0.4,0,0,0.4,2.96,0.4)"
         inkscape:connector-curvature="0" />
    </marker>
    <marker
       inkscape:stockid="DotM3zKi"
       orient="auto"
       refY="0"
       refX="0"
       id="DotM3zKi"
       style="overflow:visible">
      <path
         id="path6322"
         d="m -2.5,-1 c 0,2.76 -2.24,5 -5,5 -2.76,0 -5,-2.24 -5,-5 0,-2.76 2.24,-5 5,-5 2.76,0 5,2.24 5,5 z"
         style="fill:#c4c4c4;fill-rule:evenodd;stroke:#c4c4c4;stroke-width:1pt"
         transform="matrix(0.4,0,0,0.4,2.96,0.4)"
         inkscape:connector-curvature="0" />
    </marker>
    <marker
       inkscape:stockid="DotMV9aE"
       orient="auto"
       refY="0"
       refX="0"
       id="DotMV9aE"
       style="overflow:visible">
      <path
         id="path6325"
         d="m -2.5,-1 c 0,2.76 -2.24,5 -5,5 -2.76,0 -5,-2.24 -5,-5 0,-2.76 2.24,-5 5,-5 2.76,0 5,2.24 5,5 z"
         style="fill:#c4c4c4;fill-rule:evenodd;stroke:#c4c4c4;stroke-width:1pt"
         transform="matrix(0.4,0,0,0.4,2.96,0.4)"
         inkscape:connector-curvature="0" />
    </marker>
    <marker
       inkscape:stockid="DotM8DCP"
       orient="auto"
       refY="0"
       refX="0"
       id="DotM8DCP"
       style="overflow:visible">
      <path
         id="path6328"
         d="m -2.5,-1 c 0,2.76 -2.24,5 -5,5 -2.76,0 -5,-2.24 -5,-5 0,-2.76 2.24,-5 5,-5 2.76,0 5,2.24 5,5 z"
         style="fill:#c4c4c4;fill-rule:evenodd;stroke:#c4c4c4;stroke-width:1pt"
         transform="matrix(0.4,0,0,0.4,2.96,0.4)"
         inkscape:connector-curvature="0" />
    </marker>
  </defs>
  <metadata
     id="metadata7">
    <rdf:RDF>
      <cc:Work
         rdf:about="">
        <dc:format>image/svg+xml</dc:format>
        <dc:type
           rdf:resource="http://purl.org/dc/dcmitype/StillImage" />
        <dc:title />
      </cc:Work>
    </rdf:RDF>
  </metadata>
  <g
     inkscape:label="Layer 1"
     inkscape:groupmode="layer"
     id="layer1"
     transform="translate(-171.55196,-145.98466)">
    <path
       style="fill:none;stroke:#000000;stroke-width:1px;stroke-linecap:butt;stroke-linejoin:miter;stroke-opacity:0;marker-start:url(#DotM);marker-mid:url(#DotM);marker-end:url(#DotM)"
       d="m 481.7657,744.87721 6.42857,34.2857 8.57143,-52.1429 14.28571,53.5715 30.7143,-60 -23.57144,25.7142 33.57144,25 24.2857,-70 52.1429,60.7143 -34.2858,10.7143 -6.4285,-40 30.7143,-21.4286 -61.4286,0 13.5714,62.1429 105,-67.1429 -0.7143,50 -37.1428,-41.4285 7.8571,39.2857 54.2857,24.2857 -7.1428,-50 -15,66.4286 -22.1429,-12.1429 -7.1428,45 -35.7143,-37.1428 -15,57.1428 -23.5715,-55 -24.2857,5 -2.1428,20.7143 -38.57146,10 -38.57143,-21.4286 -8.57142,-37.8571 -16.42858,-29.2857 -24.99999,88.5714 32.14285,103.5714 25,50.00004 4.28572,-63.57144 25.71428,20.7143 -3.57143,29.2857 8.57143,44.28569 60.71433,0 -34.2858,-52.85709 -7.8571,31.42854 -7.85714,-58.57144 10.71424,5 17.1429,28.5714 7.1429,-45 11.4285,60 7.1429,22.85719 10.7143,-24.99999 -7.8572,-49.2857 25,66.42854 6.4286,-42.85714 -5.7143,-42.8571 27.1429,22.1428 c 0,0 -5,35.7143 -4.2857,43.5714 0.7142,7.85724 25,17.14294 25,17.14294 l 1.4285,-37.14294 -7.8571,-42.8571 16.4286,-0.7143 21.4285,45.7143 4.2857,48.57139 10.7143,-56.42849 -17.1428,-47.1429 68.5714,-14.2857 -40.7143,52.1428 3.5714,47.85724 -9.2857,-70.00004 30,52.1428 2.1429,-33.5714 19.2857,31.4286 -9.2857,-72.1429 31.4286,5 -17.1429,37.1429 12.1429,11.4286 7.8571,-32.1429 50,-34.2857 -27.8571,-21.4286 -14.2858,14.2857 -21.4285,5 31.4285,7.8572 -15.7142,-49.2857 -26.4286,6.4285 3.5714,30.7143 -25,2.8572 4.2857,-32.8572 -82.8571,36.4286 80,-60 z"
       id="path4573"
       inkscape:connector-curvature="0" />
    <g
       id="g5227"
       transform="translate(430.76988,691.24227)">
      <path
         inkscape:connector-curvature="0"
         id="path4573-6"
         d="m 477.5008,51.626667 6.42857,34.28571 8.57143,-52.142856 14.28571,53.571426 30.71429,-59.999997 -23.57142,25.714287 33.57142,25 24.28571,-70.0000008 52.14287,60.7142808 -34.28573,10.71429 -6.42857,-40 30.7143,-21.428571 -61.42858,0 13.57142,62.142861 105.00001,-67.142861 -0.71428,50.000001 -37.14286,-41.428573 7.85714,39.285713 54.28572,24.28572 -7.14286,-50.000004 -15,66.428577 -22.14286,-12.142863 -7.14285,45.000003 -35.7143,-37.142863 -15,57.142863 -23.57143,-55.000003 -24.28571,5.000003 -2.14286,20.71429 -38.57143,10 -38.57142,-21.42858 -8.57143,-37.857143 -16.42857,-29.28571 -25,88.571433 32.14285,103.57142 25,50 4.28572,-63.57142 25.71428,20.71428 -3.57143,29.28572 8.57143,44.28571 60.71429,0 -34.28572,-52.85714 -7.85714,31.42857 -7.85713,-58.57143 10.71427,5 17.14286,28.57143 7.14286,-45 11.42857,60 7.14286,22.85714 10.71428,-25 -7.85714,-49.28571 25,66.42857 6.42857,-42.85714 -5.71429,-42.85715 27.14287,22.14286 c 0,0 -5,35.71429 -4.28571,43.57143 0.71428,7.85714 25,17.14286 25,17.14286 l 1.42857,-37.14286 -7.85714,-42.85714 16.42857,-0.71429 21.42857,45.71429 4.28571,48.57142 10.71429,-56.42857 -17.14286,-47.14285 68.57143,-14.28572 -40.71429,52.14286 3.57143,47.85714 -9.28571,-70 30,52.14286 2.14286,-33.57143 19.28571,31.42857 -9.28571,-72.14286 31.42857,5 -17.14286,37.14286 12.14286,11.42857 7.85714,-32.14285 50,-34.28572 -27.85714,-21.42857 -14.28572,14.28571 -21.42857,5 31.42857,7.85715 -15.71428,-49.28572 -26.42857,6.42857 3.57142,30.71429 -25,2.85714 4.28572,-32.85714 -82.85714,36.42857 80,-60 z"
         style="fill:none;stroke:#000000;stroke-width:1px;stroke-linecap:butt;stroke-linejoin:miter;stroke-opacity:0;marker-start:url(#DotMh);marker-mid:url(#DotMz);marker-end:url(#DotMa)" />
      <path
         sodipodi:nodetypes="ccccccccccccc"
         style="fill:none;stroke:#000000;stroke-width:1px;stroke-linecap:butt;stroke-linejoin:miter;stroke-opacity:1;marker-start:url(#DotM);marker-mid:url(#DotM);marker-end:url(#DotM)"
         d="M 671.07223,13.055236 571.78651,8.0552362 441.07223,46.626667 l -25,88.571433 32.14285,103.57142 25,50 35,30.71429 60.71429,0 115.71429,-5.71429 67.14286,-37.85714 17.14286,-18.57143 57.85714,-66.42857 z"
         id="path5180"
         inkscape:connector-curvature="0" />
    </g>
    <g
       id="g16514">
      <path
         inkscape:connector-curvature="0"
         id="path4573-1"
         d="m 584.54021,331.11994 -27.85714,-21.42857 -20,-22.14286 m -10,110 -12.14286,-11.42857 m -50.71429,2.14286 -5.71428,-22.14286 42.14286,-22.14286 m -265,21.42858 25.71429,20.71428 15.71429,-6.42857 m -10.71429,80 60.71429,0 m 182.85713,-43.57143 -67.14286,37.85714 -4.28571,-48.57142 m -56.42856,17.85714 25,17.14286 31.42856,-35 m -27.85713,-74.28572 -10,29.28572 16.42857,-0.71429 m 76.42856,-65 -82.85713,36.42857 m 174.2857,0 -57.85714,66.42857 -17.14286,18.57143 m -73.57143,-65.71428 -19.2857,9.28571 m -159.28572,55.71429 8.57143,44.28571 m -92.14286,-184.28571 32.14286,103.57142 29.28571,-13.57142 m -29.28571,13.57142 25,50 m 4.28571,-237.14285 6.42858,34.28571 30,-32.85714 -36.42858,-1.42857 -36.42857,-5 -25,88.57143 88.57143,0 -27.14286,90 m 15,-191.42858 -51.42857,12.85715 m 102.14286,78.57143 -38.57143,10 2.14286,-47.85715 m -2.14286,47.85715 38.57143,-10 m -77.14286,-11.42858 17.85715,-27.85714 22.85714,1.42857 m 38.57143,17.14286 -2.14286,20.71429 m 65,-27.85715 -15,57.14286 m 15,-57.14286 -38.57143,2.14286 -26.42857,25.71429 m 2.14286,-20.71429 -38.57143,-17.14286 7.14286,-34.28571 33.57143,25 m -40.71429,9.28571 40.71429,-9.28571 m -33.57143,-25 23.57143,-25.71429 10,50.71429 18.57142,2.14286 m 3.57143,19.28571 23.57143,55 m 57.85714,-65 -7.14285,45 M 584.54021,331.11994 445.96878,175.40565 428.82593,153.26279 m 97.85714,244.28572 7.85714,-32.14285 M 428.82593,153.26279 584.54021,331.11994 m -47.85714,-43.57143 47.85714,43.57143 -32.14286,5.71429 m -10,-12.85715 14.28572,-14.28571 -4.28572,27.14286 -10,-12.85715 m -42.14285,20 31.42857,5 20.71428,-12.14285 -17.85714,28.57143 -2.85714,-16.42858 m -21.42857,-55 -17.14286,0.71429 -2.85714,-23.57143 20,22.85714 3.57142,30.71429 7.14286,4.28571 m -16.42857,7.14286 16.42857,-7.14286 10.71429,20 m -17.85715,-24.28571 -9.28571,11.42857 m -138.57142,-98.57143 35.71429,37.14286 8.57143,56.42857 M 271.68308,193.2628 250.2545,173.97708 m 79.28572,-25.71429 -19.28571,10 m 0,0 -15,9.28572 m 45.71428,12.14286 -30.71428,-21.42858 -60.00001,15.71429 45.00001,-6.42857 45.71428,12.14286 m 50,-17.85715 7.85714,39.28572 m -57.85714,-21.42857 6.42857,40 -23.57143,0.71429 3.57143,19.28571 m 44.28572,-81.42858 -30.71429,21.42858 -35.71428,38.57143 -2.14286,26.42857 m 78.57143,-35.71429 -34.28572,10.71429 m 81.42857,-66.42858 -37.85714,8.57143 -9.28571,47.14286 -15.71429,28.57143 -18.57143,-17.85714 -20,20 m -77.14286,-65.71429 -15,17.85715 -20,24.28571 -16.42857,-29.28571 130.71429,-38.57144 m -79.28572,25.71429 79.28572,-25.71429 m 42.14286,10 -42.14286,-10 11.42857,31.42858 m -17.14286,40.71429 17.14286,-40.71429 40.71429,29.28571 m -52.14286,-60.71429 99.28571,5 m -37.85714,8.57143 -19.28571,-3.57143 m 57.14285,-5 -0.71428,50.00001 m -29.28572,-2.14286 29.28572,2.14286 m -19.28572,26.42857 19.28572,-26.42857 m -46.42857,5.71428 17.14285,-7.85714 m 10,28.57143 -10,-28.57143 30,-47.85715 -57.14285,5 10,50.71429 27.14285,20.71429 m 22.14286,12.14286 -22.14286,-12.14286 -42.85714,7.85714 m 62.14286,-34.28571 24.99999,22.14286 m -7.14286,-50.00001 -17.85713,27.85715 2.85714,38.57143 m 105.71428,45.71428 -26.42857,6.42857 10.71428,35 15.71429,-41.42857 5.71428,36.42857 -21.42857,5 m 15.71429,-41.42857 -83.57143,-62.14285 -22.14285,16.42857 m 59.28571,29.28571 -59.28571,-29.28571 -29.28571,32.85714 m 88.57142,-3.57143 -37.14286,-45.71428 -7.14286,-50.00001 90.71429,112.14286 m -43.57143,7.14286 -91.42856,-20 88.57142,-3.57143 46.42857,16.42857 m -47.85715,40 25,-2.85714 -20.71428,-30 -4.28572,32.85714 m -78.57141,3.57143 25.71427,19.28572 m -212.14285,-96.42858 38.57143,21.42858 m -88.57143,0 41.42857,-59.28572 26.42858,10 20.71428,49.28572 m 49.28572,92.85714 -35,11.42857 -14.28572,-104.28571 m 78.57143,150.71428 -7.85714,-49.28571 25.71428,-19.28572 -47.14285,10.71429 -49.28572,-92.85714 40.71429,-30.71429 24.28571,-5 m 2.85715,211.42857 10.71428,-25 m -17.85714,2.14286 7.14286,22.85714 27.85714,-7.85714 m 0.71428,-85.71429 5.71429,42.85715 m -52.85714,-32.14286 21.42857,8.57143 31.42857,23.57143 m -37.85714,59.28571 3.57143,-8.57143 -45.7143,-12.85714 38.57144,-10 17.85714,-2.14286 23.57143,-25.71428 m 43.57143,2.85714 -22.14286,-23.57143 -21.42857,20.71429 m -80.00001,37.85714 -18.57142,21.42857 -35,-30.71429 26.42857,-13.57142 27.14285,22.85714 42.14287,21.42857 31.42857,-16.42857 m -31.42857,16.42857 115.71427,-5.71429 m -84.2857,-10.71428 84.2857,10.71428 m -84.2857,-10.71428 48.57143,-2.85714 35.71427,13.57142 25,-17.85714 m 42.14286,-20 -42.14286,20 m 20.71429,-17.85714 2.14286,-33.57143 m -32.14286,-18.57143 -22.14286,-15.71428 52.85714,-22.85715 m -30.71428,38.57143 30.71428,-38.57143 11.42858,16.42857 m -42.14286,22.14286 32.14286,18.57143 10,-40.71429 m -89.99999,-12.85714 78.57141,-3.57143 15.71429,8.57143 27.14286,12.85714 10.71428,-25 m -135.71427,116.42858 1.42857,-37.14286 29.99999,2.14286 -21.42856,-45.71429 m 41.42856,6.42857 -41.42856,-6.42857 36.42856,37.85714 m 0,0 10.71428,-9.28571 m -25.71428,17.14286 29.28571,30.71428 -14.28571,-38.57143 5,-31.42857 m 30,52.14286 -24.28572,-30 26.42858,-3.57143 m -2.14286,33.57143 21.42857,-2.14286 m -5,-80 -4.28571,7.85714 m 34.28571,21.42858 -20,20.71428 -14.28571,-42.14286 34.28571,21.42858 m 50,-34.28572 -50,34.28572 m -20,20.71428 -5,30 -19.28571,-31.42857 24.28571,1.42857 m -76.42857,19.28572 15,-7.85715 35,20.71429 -20.71429,17.85714 m -252.14285,-220 8.57143,37.85714 -50,21.42858 61.42857,90 m 166.42858,-90.71429 -50.71429,20 7.85714,62.85714 41.42858,2.85715 m -139.28572,25.71428 -30,42.85714 4.28571,-63.57142 41.42858,14.28571 m 10.71427,5 -10.71427,-5 m 10.71427,5 5,22.14286 -7.85714,31.42857 m 20.00001,-25 -20.00001,25 m 27.14287,-70 -24.28573,16.42857 m 17.14287,28.57143 28.57143,-36.42857 -10,51.42857 -18.57143,-15 -17.14287,-28.57143 -26.42856,1.42857 31.42856,20.71429 m 58.57144,-112.14286 -50,-29.28571 10.71429,102.85714 m -19.28573,38.57143 12.14287,6.42857 m 0,0 7.14286,-45 39.28571,-73.57143 59.28572,36.42857 -51.42858,26.42857 27.14286,22.14286 m 0,0 14.28572,-19.28571 7.85714,42.85714 -43.57143,-2.85714 17.14286,22.85714 -40.71429,2.85714 17.14286,17.14286 23.57143,-20 26.42857,-20 8.57143,-43.57143 m -6.42857,-28.57143 6.42857,28.57143 m -124.28573,47.14286 -34.99999,8.57143 3.57143,-29.28572"
         style="fill:none;stroke:#000000;stroke-width:1px;stroke-linecap:butt;stroke-linejoin:miter;stroke-opacity:1;marker-start:url(#DotM);marker-mid:url(#DotM);marker-end:url(#DotM)"
         sodipodi:nodetypes="cccccccccccccccccccccccccccccccccccccccccccccccccccccccccccccccccccccccccccccccccccccccccccccccccccccccccccccccccccccccccccccccccccccccccccccccccccccccccccccccccccccccccccccccccccccccccccccccccccccccccccccccccccccccccccccccccccccccccccccccccccccccccccccccccccccccccccccccccccccccccccccccccccccccccccccccccccccccccccccccccccccccccccccccccccccccccccccccccccccc" />
      <flowRoot
         transform="translate(-465.13163,669.77275)"
         style="font-size:40px;font-style:normal;font-weight:normal;line-height:125%;letter-spacing:-2.96000004px;word-spacing:0px;fill:#000000;fill-opacity:1;stroke:none;font-family:Sans"
         id="flowRoot16420"
         xml:space="preserve"><flowRegion
           id="flowRegion16422"><rect
             y="-252.92386"
             x="634.28571"
             height="222.85715"
             width="278.57144"
             id="rect16424" /></flowRegion><flowPara
           id="flowPara16426">a)</flowPara></flowRoot>    </g>
    <g
       id="g16505"
       transform="translate(-20.000031,0)">
      <g
         id="g6234"
         transform="translate(-280.30056,5.7214391)">
        <path
           sodipodi:nodetypes="cccccccccccccccccccccccccccccccccccccccccccccccccccccccccccccccccccccccccccccccccccccccccccccccccccccccccccccccccccccccccccccccccccccccccccccccccccccccccccccccccccccccccccccccccccccccccccccccccccccccccccccccccccccccccccccccccccccccccccccccccccccccccccccccccccccccccccccccccccccccccccccccccccccccccccccccccccccccccccccccccccccccccccccccccccccccccccccccccccccc"
           style="fill:none;stroke:#c4c4c4;stroke-width:1px;stroke-linecap:butt;stroke-linejoin:miter;stroke-opacity:1;marker-start:url(#DotMA);marker-mid:url(#DotMW);marker-end:url(#DotMd)"
           d="m 1344.3138,325.3985 -27.8572,-21.42857 -20,-22.14286 m -10,110 -12.1428,-11.42857 m -50.7143,2.14286 -5.7143,-22.14286 42.1429,-22.14286 m -265.00004,21.42858 25.71434,20.71428 15.7142,-6.42857 m -10.7142,80 60.7142,0 m 182.8572,-43.57143 -67.1429,37.85714 -4.2857,-48.57142 m -56.4286,17.85714 25,17.14286 31.4286,-35 m -27.8571,-74.28572 -10,29.28572 16.4285,-0.71429 m 76.4286,-65 -82.8571,36.42857 m 174.2857,0 -57.8572,66.42857 -17.1428,18.57143 m -73.5714,-65.71428 -19.2858,9.28571 m -159.2857,55.71429 8.5715,44.28571 m -92.14295,-184.28571 32.14286,103.57142 29.28575,-13.57142 m -29.28575,13.57142 25.00005,50 m 4.2857,-237.14285 6.42854,34.28571 30,-32.85714 -36.42854,-1.42857 -36.42861,-5 -25,88.57143 88.57145,0 -27.14284,90 m 15.00004,-191.42858 -51.42865,12.85715 m 102.14295,78.57143 -38.5715,10 2.1429,-47.85715 m -2.1429,47.85715 38.5715,-10 m -77.14294,-11.42858 17.85714,-27.85714 22.8572,1.42857 m 38.5714,17.14286 -2.1428,20.71429 m 65,-27.85715 -15,57.14286 m 15,-57.14286 -38.5715,2.14286 -26.4285,25.71429 m 2.1428,-20.71429 -38.5714,-17.14286 7.1428,-34.28571 33.5715,25 m -40.7143,9.28571 40.7143,-9.28571 m -33.5715,-25 23.5715,-25.71429 10,50.71429 18.5714,2.14286 m 3.5714,19.28571 23.5715,55 m 57.8571,-65 -7.1429,45 m 182.8572,56.42857 -138.5714,-155.71429 -17.1429,-22.14286 m 97.8571,244.28572 7.8572,-32.14285 M 1188.5995,147.54135 1344.3138,325.3985 m -47.8572,-43.57143 47.8572,43.57143 -32.1429,5.71429 m -10,-12.85715 14.2857,-14.28571 -4.2857,27.14286 -10,-12.85715 m -42.1428,20 31.4285,5 20.7143,-12.14285 -17.8571,28.57143 -2.8572,-16.42858 m -21.4285,-55 -17.1429,0.71429 -2.8571,-23.57143 20,22.85714 3.5714,30.71429 7.1429,4.28571 m -16.4286,7.14286 16.4286,-7.14286 10.7142,20 m -17.8571,-24.28571 -9.2857,11.42857 m -138.5714,-98.57143 35.7142,37.14286 8.5715,56.42857 m -138.5715,-137.85714 -21.4285,-19.28572 m 79.2857,-25.71429 -19.2857,10 m 0,0 -15,9.28572 m 45.7143,12.14286 -30.7143,-21.42858 -60,15.71429 45,-6.42857 45.7143,12.14286 m 50,-17.85715 7.8571,39.28572 m -57.8571,-21.42857 6.4285,40 -23.5714,0.71429 3.5714,19.28571 m 44.2857,-81.42858 -30.7142,21.42858 -35.7143,38.57143 -2.1429,26.42857 m 78.5714,-35.71429 -34.2857,10.71429 m 81.4286,-66.42858 -37.8571,8.57143 -9.2858,47.14286 -15.7142,28.57143 -18.5715,-17.85714 -20,20 m -77.1428,-65.71429 -15.00004,17.85715 -20.00003,24.28571 -16.42858,-29.28571 130.71435,-38.57144 m -79.2857,25.71429 79.2857,-25.71429 m 42.1428,10 -42.1428,-10 11.4286,31.42858 m -17.1429,40.71429 17.1429,-40.71429 40.7142,29.28571 m -52.1428,-60.71429 99.2857,5 m -37.8571,8.57143 -19.2858,-3.57143 m 57.1429,-5 -0.7143,50.00001 m -29.2857,-2.14286 29.2857,2.14286 m -19.2857,26.42857 19.2857,-26.42857 m -46.4286,5.71428 17.1429,-7.85714 m 10,28.57143 -10,-28.57143 30,-47.85715 -57.1429,5 10,50.71429 27.1429,20.71429 m 22.1429,12.14286 -22.1429,-12.14286 -42.8571,7.85714 m 62.1428,-34.28571 25,22.14286 m -7.1428,-50.00001 -17.8572,27.85715 2.8572,38.57143 m 105.7142,45.71428 -26.4285,6.42857 10.7143,35 15.7142,-41.42857 5.7143,36.42857 -21.4285,5 m 15.7142,-41.42857 -83.5714,-62.14285 -22.1428,16.42857 m 59.2857,29.28571 -59.2857,-29.28571 -29.2858,32.85714 m 88.5715,-3.57143 -37.1429,-45.71428 -7.1428,-50.00001 90.7142,112.14286 m -43.5714,7.14286 -91.4286,-20 88.5715,-3.57143 46.4285,16.42857 m -47.8571,40 25,-2.85714 -20.7143,-30 -4.2857,32.85714 m -78.5714,3.57143 25.7143,19.28572 m -212.14294,-96.42858 38.57144,21.42858 m -88.57145,0 41.42858,-59.28572 26.42857,10 20.7143,49.28572 m 49.2857,92.85714 -35,11.42857 -14.2857,-104.28571 m 78.5715,150.71428 -7.8572,-49.28571 25.7143,-19.28572 -47.1429,10.71429 -49.2857,-92.85714 40.7143,-30.71429 24.2857,-5 m 2.8572,211.42857 10.7143,-25 m -17.8572,2.14286 7.1429,22.85714 27.8571,-7.85714 m 0.7143,-85.71429 5.7143,42.85715 m -52.8572,-32.14286 21.4286,8.57143 31.4286,23.57143 m -37.8572,59.28571 3.5715,-8.57143 -45.7143,-12.85714 38.5714,-10 17.8572,-2.14286 23.5714,-25.71428 m 43.5714,2.85714 -22.1428,-23.57143 -21.4286,20.71429 m -80,37.85714 -18.5714,21.42857 -35.00004,-30.71429 26.42854,-13.57142 27.1429,22.85714 42.1428,21.42857 31.4286,-16.42857 m -31.4286,16.42857 115.7143,-5.71429 m -84.2857,-10.71428 84.2857,10.71428 m -84.2857,-10.71428 48.5714,-2.85714 35.7143,13.57142 25,-17.85714 m 42.1429,-20 -42.1429,20 m 20.7143,-17.85714 2.1429,-33.57143 m -32.1429,-18.57143 -22.1428,-15.71428 52.8571,-22.85715 m -30.7143,38.57143 30.7143,-38.57143 11.4286,16.42857 m -42.1429,22.14286 32.1429,18.57143 10,-40.71429 m -90,-12.85714 78.5714,-3.57143 15.7143,8.57143 27.1428,12.85714 10.7143,-25 m -135.7143,116.42858 1.4286,-37.14286 30,2.14286 -21.4286,-45.71429 m 41.4286,6.42857 -41.4286,-6.42857 36.4286,37.85714 m 0,0 10.7143,-9.28571 m -25.7143,17.14286 29.2857,30.71428 -14.2857,-38.57143 5,-31.42857 m 30,52.14286 -24.2857,-30 26.4286,-3.57143 m -2.1429,33.57143 21.4286,-2.14286 m -5,-80 -4.2857,7.85714 m 34.2857,21.42858 -20,20.71428 -14.2857,-42.14286 34.2857,21.42858 m 50,-34.28572 -50,34.28572 m -20,20.71428 -5,30 -19.2857,-31.42857 24.2857,1.42857 m -76.4286,19.28572 15,-7.85715 35,20.71429 -20.7143,17.85714 m -252.14287,-220 8.57143,37.85714 -50.00001,21.42858 61.42861,90 m 166.42854,-90.71429 -50.7142,20 7.8571,62.85714 41.4286,2.85715 m -139.2857,25.71428 -30.00004,42.85714 4.2857,-63.57142 41.42854,14.28571 m 10.7143,5 -10.7143,-5 m 10.7143,5 5,22.14286 -7.8571,31.42857 m 20,-25 -20,25 m 27.1428,-70 -24.2857,16.42857 m 17.1429,28.57143 28.5714,-36.42857 -10,51.42857 -18.5714,-15 -17.1429,-28.57143 -26.4285,1.42857 31.4285,20.71429 m 58.5715,-112.14286 -50,-29.28571 10.7142,102.85714 m -19.2857,38.57143 12.1429,6.42857 m 0,0 7.1428,-45 39.2858,-73.57143 59.2857,36.42857 -51.4286,26.42857 27.1429,22.14286 m 0,0 14.2857,-19.28571 7.8571,42.85714 -43.5714,-2.85714 17.1428,22.85714 -40.7142,2.85714 17.1428,17.14286 23.5714,-20 26.4286,-20 8.5714,-43.57143 m -6.4285,-28.57143 6.4285,28.57143 m -124.2857,47.14286 -35,8.57143 3.5715,-29.28572"
           id="path4573-1-9"
           inkscape:connector-curvature="0" />
        <path
           inkscape:connector-curvature="0"
           id="path5180-1"
           d="m 1188.6042,147.54715 -99.2857,-5 -130.71435,38.57143 -25,88.57143 32.14285,103.57142 25,50 35,30.71429 60.7143,0 115.7143,-5.71429 67.1429,-37.85714 17.1428,-18.57143 57.8572,-66.42857 z"
           style="fill:none;stroke:#000000;stroke-width:1px;stroke-linecap:butt;stroke-linejoin:miter;stroke-opacity:1;marker-start:url(#DotM);marker-mid:url(#DotM);marker-end:url(#DotM)"
           sodipodi:nodetypes="ccccccccccccc" />
      </g>
      <flowRoot
         transform="translate(13.11086,669.77275)"
         style="font-size:40px;font-style:normal;font-weight:normal;line-height:125%;letter-spacing:-2.96000004px;word-spacing:0px;fill:#000000;fill-opacity:1;stroke:none;font-family:Sans"
         id="flowRoot16420-2"
         xml:space="preserve"><flowRegion
           id="flowRegion16422-5"><rect
             y="-252.92386"
             x="634.28571"
             height="222.85715"
             width="278.57144"
             id="rect16424-3" /></flowRegion><flowPara
           id="flowPara16426-8">b)</flowPara></flowRoot>    </g>
    <g
       id="g16490"
       transform="translate(-39.999994,0)">
      <g
         transform="translate(131.57876,80.348799)"
         id="g6445">
        <path
           transform="matrix(0.85887096,0,0,0.85887096,581.21953,-317.51091)"
           d="m 576.07142,613.07648 c 0,24.45832 -19.82739,44.28571 -44.28571,44.28571 -24.45833,0 -44.28572,-19.82739 -44.28572,-44.28571 0,-24.45833 19.82739,-44.28572 44.28572,-44.28572 24.45832,0 44.28571,19.82739 44.28571,44.28572 z"
           sodipodi:ry="44.285713"
           sodipodi:rx="44.285713"
           sodipodi:cy="613.07648"
           sodipodi:cx="531.78571"
           id="path5566"
           style="fill:none;stroke:#8989ff;stroke-width:2.32863855;stroke-linecap:round;stroke-linejoin:miter;stroke-miterlimit:4;stroke-opacity:1;stroke-dasharray:none;stroke-dashoffset:0"
           sodipodi:type="arc" />
        <path
           sodipodi:type="arc"
           style="fill:none;stroke:#8989ff;stroke-width:2.32863855;stroke-linecap:round;stroke-linejoin:miter;stroke-miterlimit:4;stroke-opacity:1;stroke-dasharray:none;stroke-dashoffset:0"
           id="path6242"
           sodipodi:cx="531.78571"
           sodipodi:cy="613.07648"
           sodipodi:rx="44.285713"
           sodipodi:ry="44.285713"
           d="m 576.07142,613.07648 c 0,24.45832 -19.82739,44.28571 -44.28571,44.28571 -24.45833,0 -44.28572,-19.82739 -44.28572,-44.28571 0,-24.45833 19.82739,-44.28572 44.28572,-44.28572 24.45832,0 44.28571,19.82739 44.28571,44.28572 z"
           transform="matrix(0.85887096,0,0,0.85887096,599.14974,-315.4906)" />
        <path
           transform="matrix(0.85887096,0,0,0.85887096,661.27412,-305.13654)"
           d="m 576.07142,613.07648 c 0,24.45832 -19.82739,44.28571 -44.28571,44.28571 -24.45833,0 -44.28572,-19.82739 -44.28572,-44.28571 0,-24.45833 19.82739,-44.28572 44.28572,-44.28572 24.45832,0 44.28571,19.82739 44.28571,44.28572 z"
           sodipodi:ry="44.285713"
           sodipodi:rx="44.285713"
           sodipodi:cy="613.07648"
           sodipodi:cx="531.78571"
           id="path6244"
           style="fill:none;stroke:#8989ff;stroke-width:2.32863855;stroke-linecap:round;stroke-linejoin:miter;stroke-miterlimit:4;stroke-opacity:1;stroke-dasharray:none;stroke-dashoffset:0"
           sodipodi:type="arc" />
        <path
           sodipodi:type="arc"
           style="fill:none;stroke:#8989ff;stroke-width:2.32863855;stroke-linecap:round;stroke-linejoin:miter;stroke-miterlimit:4;stroke-opacity:1;stroke-dasharray:none;stroke-dashoffset:0"
           id="path6246"
           sodipodi:cx="531.78571"
           sodipodi:cy="613.07648"
           sodipodi:rx="44.285713"
           sodipodi:ry="44.285713"
           d="m 576.07142,613.07648 c 0,24.45832 -19.82739,44.28571 -44.28571,44.28571 -24.45833,0 -44.28572,-19.82739 -44.28572,-44.28571 0,-24.45833 19.82739,-44.28572 44.28572,-44.28572 24.45832,0 44.28571,19.82739 44.28571,44.28572 z"
           transform="matrix(0.85887096,0,0,0.85887096,684.00255,-305.64162)" />
        <path
           transform="matrix(0.85887096,0,0,0.85887096,801.93786,-308.41954)"
           d="m 576.07142,613.07648 c 0,24.45832 -19.82739,44.28571 -44.28571,44.28571 -24.45833,0 -44.28572,-19.82739 -44.28572,-44.28571 0,-24.45833 19.82739,-44.28572 44.28572,-44.28572 24.45832,0 44.28571,19.82739 44.28571,44.28572 z"
           sodipodi:ry="44.285713"
           sodipodi:rx="44.285713"
           sodipodi:cy="613.07648"
           sodipodi:cx="531.78571"
           id="path6248"
           style="fill:none;stroke:#8989ff;stroke-width:2.32863855;stroke-linecap:round;stroke-linejoin:miter;stroke-miterlimit:4;stroke-opacity:1;stroke-dasharray:none;stroke-dashoffset:0"
           sodipodi:type="arc" />
        <g
           id="g6435">
          <path
             sodipodi:nodetypes="cccccccccccccccccccccccccccccccccccccccccccccccccccccccccccccccccccccccccccccccccccccccccccccccccccccccccccccccccccccccccccccccccccccccccccccccccccccccccccccccccccccccccccccccccccccccccccccccccccccccccccccccccccccccccccccccccccccccccccccccccccccccccccccccccccccccccccccccccccccccccccccccccccccccccccccccccccccccccccccccccccccc"
             style="fill:none;stroke:#c4c4c4;stroke-width:1px;stroke-linecap:butt;stroke-linejoin:miter;stroke-opacity:1;marker-start:url(#DotM3zKi);marker-mid:url(#DotMV9aE);marker-end:url(#DotM8DCP)"
             d="m 1412.2171,250.77114 -27.8571,-21.42857 -20,-22.14286 m -10,110 -12.1429,-11.42857 m -50.7143,2.14286 -5.7143,-22.14286 42.1429,-22.14286 m -265,21.42858 25.7143,20.71428 15.7143,-6.42857 m -10.7143,80 60.7143,0 m 115.7142,-5.71429 -4.2857,-48.57142 m -56.4285,17.85714 25,17.14286 31.4285,-35 m -27.8571,-74.28572 -10,29.28572 16.4286,-0.71429 m 110,37.85714 -17.1429,18.57143 m -73.5714,-65.71428 -19.2857,9.28571 m -159.2858,55.71429 8.5715,44.28571 m -60,-80.71429 29.2857,-13.57142 m -29.2857,13.57142 25,50 m 4.2857,-237.14285 6.4286,34.28571 30,-32.85714 -36.4286,-1.42857 -36.4286,-5 m 51.4286,-12.85715 -51.4286,12.85715 m 102.1429,78.57143 -38.5715,10 2.1429,-47.85715 m -2.1429,47.85715 38.5715,-10 m -77.1429,-11.42858 17.8572,-27.85714 22.8571,1.42857 m 38.5714,17.14286 -2.1428,20.71429 m 65,-27.85715 -15,57.14286 m 15,-57.14286 -38.5715,2.14286 -26.4285,25.71429 m 2.1428,-20.71429 -38.5714,-17.14286 7.1429,-34.28571 33.5714,25 m -40.7143,9.28571 40.7143,-9.28571 m -33.5714,-25 23.5714,-25.71429 10,50.71429 18.5714,2.14286 m 3.5714,19.28571 23.5715,55 m 57.8571,-65 -7.1428,45 m 44.2857,-99.28572 -17.1429,-22.14286 m 97.8572,244.28572 7.8571,-32.14285 m 50,-34.28572 -32.1429,5.71429 m -10,-12.85715 14.2858,-14.28571 -4.2858,27.14286 -10,-12.85715 m -42.1428,20 31.4286,5 20.7142,-12.14285 -17.8571,28.57143 -2.8571,-16.42858 m -21.4286,-55 -17.1429,0.71429 -2.8571,-23.57143 20,22.85714 3.5714,30.71429 7.1429,4.28571 m -16.4286,7.14286 16.4286,-7.14286 10.7143,20 m -17.8572,-24.28571 -9.2857,11.42857 m -138.5714,-98.57143 35.7143,37.14286 8.5714,56.42857 M 1099.36,112.914 1077.9314,93.62828 m 79.2857,-25.71429 -19.2857,10 m 0,0 -15,9.28572 m 45.7143,12.14286 -30.7143,-21.42858 m -60,15.71429 45,-6.42857 45.7143,12.14286 m 50,-17.85715 7.8571,39.28572 m -57.8571,-21.42857 6.4285,40 -23.5714,0.71429 3.5714,19.28571 m 44.2858,-81.42858 -30.7143,21.42858 -35.7143,38.57143 -2.1429,26.42857 m 78.5715,-35.71429 -34.2858,10.71429 m 81.4286,-66.42858 -37.8571,8.57143 -9.2857,47.14286 -15.7143,28.57143 -18.5715,-17.85714 -20,20 m -77.1428,-65.71429 -15,17.85715 -20,24.28571 -16.4286,-29.28571 m 172.8572,-28.57144 -42.1429,-10 11.4286,31.42858 m -17.1429,40.71429 17.1429,-40.71429 40.7143,29.28571 m 9.2857,-47.14286 -19.2857,-3.57143 m 57.1428,-5 -0.7143,50.00001 m -29.2857,-2.14286 29.2857,2.14286 m -19.2857,26.42857 19.2857,-26.42857 m -46.4285,5.71428 17.1428,-7.85714 m 10,28.57143 -10,-28.57143 30,-47.85715 m -57.1428,5 10,50.71429 27.1428,20.71429 m 22.1429,12.14286 -22.1429,-12.14286 -42.8571,7.85714 m 62.1428,-34.28571 25,22.14286 m -7.1428,-50.00001 -17.8572,27.85715 2.8572,38.57143 m 105.7143,45.71428 -26.4286,6.42857 10.7143,35 15.7143,-41.42857 5.7142,36.42857 -21.4285,5 m -67.8572,-103.57142 -22.1428,16.42857 m 59.2857,29.28571 -59.2857,-29.28571 -29.2857,32.85714 m 88.5714,-3.57143 -37.1429,-45.71428 -7.1428,-50.00001 m 44.2857,95.71429 46.4285,16.42857 m -47.8571,40 25,-2.85714 -20.7143,-30 -4.2857,32.85714 m -78.5714,3.57143 25.7143,19.28572 m -212.1429,-96.42858 38.5714,21.42858 m -88.5714,0 41.4286,-59.28572 26.4285,10 20.7143,49.28572 m 49.2857,92.85714 -35,11.42857 m 64.2858,46.42857 -7.8572,-49.28571 25.7143,-19.28572 -47.1429,10.71429 m -49.2857,-92.85714 40.7143,-30.71429 24.2857,-5 m 2.8572,211.42857 10.7143,-25 m -17.8572,2.14286 7.1429,22.85714 27.8571,-7.85714 m 0.7143,-85.71429 5.7143,42.85715 M 1139.36,287.914 l 21.4285,8.57143 31.4286,23.57143 m -37.8571,59.28571 3.5714,-8.57143 -45.7143,-12.85714 38.5714,-10 17.8572,-2.14286 23.5714,-25.71428 m 43.5714,2.85714 -22.1428,-23.57143 -21.4286,20.71429 m -80,37.85714 -18.5714,21.42857 -35,-30.71429 26.4285,-13.57142 27.1429,22.85714 42.1429,21.42857 31.4285,-16.42857 m 0,0 48.5715,-2.85714 35.7142,13.57142 25,-17.85714 m 20.7143,-17.85714 2.1429,-33.57143 m -32.1429,-18.57143 -22.1428,-15.71428 52.8571,-22.85715 m -30.7143,38.57143 30.7143,-38.57143 11.4286,16.42857 m -42.1429,22.14286 32.1429,18.57143 10,-40.71429 m -90,-12.85714 78.5714,-3.57143 15.7143,8.57143 27.1429,12.85714 10.7142,-25 m -135.7142,116.42858 1.4285,-37.14286 30,2.14286 -21.4285,-45.71429 m 41.4285,6.42857 -41.4285,-6.42857 36.4285,37.85714 m 0,0 10.7143,-9.28571 m -25.7143,17.14286 29.2857,30.71428 -14.2857,-38.57143 5,-31.42857 m 30,52.14286 -24.2857,-30 26.4286,-3.57143 m -2.1429,33.57143 21.4286,-2.14286 m -5,-80 -4.2857,7.85714 m 34.2857,21.42858 -20,20.71428 -14.2857,-42.14286 34.2857,21.42858 m -20,20.71428 -5,30 -19.2857,-31.42857 24.2857,1.42857 m -76.4286,19.28572 15,-7.85715 35,20.71429 -20.7143,17.85714 m -252.1428,-220 8.5714,37.85714 -50,21.42858 m 227.8572,-0.71429 -50.7143,20 7.8571,62.85714 41.4286,2.85715 m -139.2857,25.71428 -30,42.85714 4.2857,-63.57142 41.4286,14.28571 m 10.7142,5 -10.7142,-5 m 10.7142,5 5,22.14286 -7.8571,31.42857 m 20,-25 -20,25 m 27.1429,-70 -24.2858,16.42857 m 17.1429,28.57143 28.5714,-36.42857 -10,51.42857 -18.5714,-15 -17.1429,-28.57143 -26.4285,1.42857 31.4285,20.71429 m 58.5715,-112.14286 -50,-29.28571 m -8.5715,141.42857 12.1429,6.42857 m 0,0 7.1429,-45 m 39.2857,-73.57143 59.2857,36.42857 -51.4286,26.42857 27.1429,22.14286 m 0,0 14.2857,-19.28571 7.8571,42.85714 -43.5714,-2.85714 17.1429,22.85714 -40.7143,2.85714 17.1428,17.14286 23.5715,-20 26.4285,-20 8.5715,-43.57143 m -6.4286,-28.57143 6.4286,28.57143 m -124.2858,47.14286 -35,8.57143 3.5715,-29.28572"
             id="path5564"
             inkscape:connector-curvature="0" />
          <path
             inkscape:connector-curvature="0"
             id="path5568"
             d="m 1412.2171,250.77125 -27.8571,-21.42857 -20,-22.14286 m -270.7143,172.14284 60.7143,0 m 200,-62.1428 -17.1429,18.5714 m -303.5714,-37.1429 29.2857,-13.5714 m -29.2857,13.5714 25,50 m 19.2857,-254.99997 -51.4286,12.85715 m 102.1429,78.57143 -38.5715,10 m 0,0 38.5715,-10 m 145,-90.00001 -17.1429,-22.14286 m 97.8572,244.28576 7.8571,-32.1429 m 50,-34.28571 -32.1429,5.71431 m 0,0 -17.8571,28.5714 m -41.4286,-70.71428 -2.8571,-23.57143 m -88.5714,3.57143 8.5714,56.42857 m -80.7143,-182.85715 -19.2857,10 m 0,0 -15,9.28572 m -45,6.42857 45,-6.42857 m 133.5714,-14.28572 -37.8571,8.57143 m -175.7143,54.28572 -16.4286,-29.28571 M 1199.36,77.9141 l -42.1429,-10 m 61.4286,13.57143 -19.2857,-3.57143 m 118.5714,112.85715 -59.2857,-29.28571 -29.2857,32.85714 m 88.5714,-3.57143 -37.1429,-45.71428 -7.1428,-50.00001 m 44.2857,95.71429 46.4286,16.42857 m -43.5715,7.14286 -4.2857,32.85714 m -265,-73.57143 38.5714,21.42858 m -88.5714,0 41.4286,-59.28572 m 96.4286,152.14291 -35,11.4285 m 82.1428,-22.1428 -47.1428,10.7143 m -45.7143,91.4285 -35,-30.7143 m 95.7143,30.7143 31.4285,-16.4285 m 0,0 48.5715,-2.8572 35.7142,13.5714 25,-17.8571 m -57.1428,-105.00001 78.5714,-3.57143 m -0.7143,90.71434 21.4286,-2.1429 m -21.4286,2.1429 -20.7143,17.8571 m -243.5714,-182.14287 -50,21.42858 m 177.1429,19.28571 7.8571,62.85718 m -123.5714,7.8571 41.4286,14.2857 m 74.2857,-84.99998 -50,-29.28571"
             style="fill:none;stroke:#000000;stroke-width:1px;stroke-linecap:butt;stroke-linejoin:miter;stroke-opacity:1;marker-start:url(#DotM);marker-mid:url(#DotM);marker-end:url(#DotM)"
             sodipodi:nodetypes="ccccccccccccccccccccccccccccccccccccccccccccccccccccccccccccccccccccccccccccccccccc" />
        </g>
      </g>
      <flowRoot
         transform="translate(494.0096,669.77275)"
         style="font-size:40px;font-style:normal;font-weight:normal;line-height:125%;letter-spacing:-2.96000004px;word-spacing:0px;fill:#000000;fill-opacity:1;stroke:none;font-family:Sans"
         id="flowRoot16420-3"
         xml:space="preserve"><flowRegion
           id="flowRegion16422-9"><rect
             y="-252.92386"
             x="634.28571"
             height="222.85715"
             width="278.57144"
             id="rect16424-0" /></flowRegion><flowPara
           id="flowPara16426-2">c)</flowPara></flowRoot>    </g>
    <g
       id="g6439"
       transform="translate(308.01155,629.87178)">
      <path
         inkscape:connector-curvature="0"
         id="path6441"
         d="m 1412.2171,250.77114 -27.8571,-21.42857 -20,-22.14286 m -10,110 -12.1429,-11.42857 m -50.7143,2.14286 -5.7143,-22.14286 42.1429,-22.14286 m -265,21.42858 25.7143,20.71428 15.7143,-6.42857 m -10.7143,80 60.7143,0 m 115.7142,-5.71429 -4.2857,-48.57142 m -56.4285,17.85714 25,17.14286 31.4285,-35 m -27.8571,-74.28572 -10,29.28572 16.4286,-0.71429 m 110,37.85714 -17.1429,18.57143 m -73.5714,-65.71428 -19.2857,9.28571 m -159.2858,55.71429 8.5715,44.28571 m -60,-80.71429 29.2857,-13.57142 m -29.2857,13.57142 25,50 m 4.2857,-237.14285 6.4286,34.28571 30,-32.85714 -36.4286,-1.42857 -36.4286,-5 m 51.4286,-12.85715 -51.4286,12.85715 m 102.1429,78.57143 -38.5715,10 2.1429,-47.85715 m -2.1429,47.85715 38.5715,-10 m -77.1429,-11.42858 17.8572,-27.85714 22.8571,1.42857 m 38.5714,17.14286 -2.1428,20.71429 m 65,-27.85715 -15,57.14286 m 15,-57.14286 -38.5715,2.14286 -26.4285,25.71429 m 2.1428,-20.71429 -38.5714,-17.14286 7.1429,-34.28571 33.5714,25 m -40.7143,9.28571 40.7143,-9.28571 m -33.5714,-25 23.5714,-25.71429 10,50.71429 18.5714,2.14286 m 3.5714,19.28571 23.5715,55 m 57.8571,-65 -7.1428,45 m 44.2857,-99.28572 -17.1429,-22.14286 m 97.8572,244.28572 7.8571,-32.14285 m 50,-34.28572 -32.1429,5.71429 m -10,-12.85715 14.2858,-14.28571 -4.2858,27.14286 -10,-12.85715 m -42.1428,20 31.4286,5 20.7142,-12.14285 -17.8571,28.57143 -2.8571,-16.42858 m -21.4286,-55 -17.1429,0.71429 -2.8571,-23.57143 20,22.85714 3.5714,30.71429 7.1429,4.28571 m -16.4286,7.14286 16.4286,-7.14286 10.7143,20 m -17.8572,-24.28571 -9.2857,11.42857 m -138.5714,-98.57143 35.7143,37.14286 8.5714,56.42857 M 1099.36,112.914 1077.9314,93.62828 m 79.2857,-25.71429 -19.2857,10 m 0,0 -15,9.28572 m 45.7143,12.14286 -30.7143,-21.42858 m -60,15.71429 45,-6.42857 45.7143,12.14286 m 50,-17.85715 7.8571,39.28572 m -57.8571,-21.42857 6.4285,40 -23.5714,0.71429 3.5714,19.28571 m 44.2858,-81.42858 -30.7143,21.42858 -35.7143,38.57143 -2.1429,26.42857 m 78.5715,-35.71429 -34.2858,10.71429 m 81.4286,-66.42858 -37.8571,8.57143 -9.2857,47.14286 -15.7143,28.57143 -18.5715,-17.85714 -20,20 m -77.1428,-65.71429 -15,17.85715 -20,24.28571 -16.4286,-29.28571 m 172.8572,-28.57144 -42.1429,-10 11.4286,31.42858 m -17.1429,40.71429 17.1429,-40.71429 40.7143,29.28571 m 9.2857,-47.14286 -19.2857,-3.57143 m 57.1428,-5 -0.7143,50.00001 m -29.2857,-2.14286 29.2857,2.14286 m -19.2857,26.42857 19.2857,-26.42857 m -46.4285,5.71428 17.1428,-7.85714 m 10,28.57143 -10,-28.57143 30,-47.85715 m -57.1428,5 10,50.71429 27.1428,20.71429 m 22.1429,12.14286 -22.1429,-12.14286 -42.8571,7.85714 m 62.1428,-34.28571 25,22.14286 m -7.1428,-50.00001 -17.8572,27.85715 2.8572,38.57143 m 105.7143,45.71428 -26.4286,6.42857 10.7143,35 15.7143,-41.42857 5.7142,36.42857 -21.4285,5 m -67.8572,-103.57142 -22.1428,16.42857 m 59.2857,29.28571 -59.2857,-29.28571 -29.2857,32.85714 m 88.5714,-3.57143 -37.1429,-45.71428 -7.1428,-50.00001 m 44.2857,95.71429 46.4285,16.42857 m -47.8571,40 25,-2.85714 -20.7143,-30 -4.2857,32.85714 m -78.5714,3.57143 25.7143,19.28572 m -212.1429,-96.42858 38.5714,21.42858 m -88.5714,0 41.4286,-59.28572 26.4285,10 20.7143,49.28572 m 49.2857,92.85714 -35,11.42857 m 64.2858,46.42857 -7.8572,-49.28571 25.7143,-19.28572 -47.1429,10.71429 m -49.2857,-92.85714 40.7143,-30.71429 24.2857,-5 m 2.8572,211.42857 10.7143,-25 m -17.8572,2.14286 7.1429,22.85714 27.8571,-7.85714 m 0.7143,-85.71429 5.7143,42.85715 M 1139.36,287.914 l 21.4285,8.57143 31.4286,23.57143 m -37.8571,59.28571 3.5714,-8.57143 -45.7143,-12.85714 38.5714,-10 17.8572,-2.14286 23.5714,-25.71428 m 43.5714,2.85714 -22.1428,-23.57143 -21.4286,20.71429 m -80,37.85714 -18.5714,21.42857 -35,-30.71429 26.4285,-13.57142 27.1429,22.85714 42.1429,21.42857 31.4285,-16.42857 m 0,0 48.5715,-2.85714 35.7142,13.57142 25,-17.85714 m 20.7143,-17.85714 2.1429,-33.57143 m -32.1429,-18.57143 -22.1428,-15.71428 52.8571,-22.85715 m -30.7143,38.57143 30.7143,-38.57143 11.4286,16.42857 m -42.1429,22.14286 32.1429,18.57143 10,-40.71429 m -90,-12.85714 78.5714,-3.57143 15.7143,8.57143 27.1429,12.85714 10.7142,-25 m -135.7142,116.42858 1.4285,-37.14286 30,2.14286 -21.4285,-45.71429 m 41.4285,6.42857 -41.4285,-6.42857 36.4285,37.85714 m 0,0 10.7143,-9.28571 m -25.7143,17.14286 29.2857,30.71428 -14.2857,-38.57143 5,-31.42857 m 30,52.14286 -24.2857,-30 26.4286,-3.57143 m -2.1429,33.57143 21.4286,-2.14286 m -5,-80 -4.2857,7.85714 m 34.2857,21.42858 -20,20.71428 -14.2857,-42.14286 34.2857,21.42858 m -20,20.71428 -5,30 -19.2857,-31.42857 24.2857,1.42857 m -76.4286,19.28572 15,-7.85715 35,20.71429 -20.7143,17.85714 m -252.1428,-220 8.5714,37.85714 -50,21.42858 m 227.8572,-0.71429 -50.7143,20 7.8571,62.85714 41.4286,2.85715 m -139.2857,25.71428 -30,42.85714 4.2857,-63.57142 41.4286,14.28571 m 10.7142,5 -10.7142,-5 m 10.7142,5 5,22.14286 -7.8571,31.42857 m 20,-25 -20,25 m 27.1429,-70 -24.2858,16.42857 m 17.1429,28.57143 28.5714,-36.42857 -10,51.42857 -18.5714,-15 -17.1429,-28.57143 -26.4285,1.42857 31.4285,20.71429 m 58.5715,-112.14286 -50,-29.28571 m -8.5715,141.42857 12.1429,6.42857 m 0,0 7.1429,-45 m 39.2857,-73.57143 59.2857,36.42857 -51.4286,26.42857 27.1429,22.14286 m 0,0 14.2857,-19.28571 7.8571,42.85714 -43.5714,-2.85714 17.1429,22.85714 -40.7143,2.85714 17.1428,17.14286 23.5715,-20 26.4285,-20 8.5715,-43.57143 m -6.4286,-28.57143 6.4286,28.57143 m -124.2858,47.14286 -35,8.57143 3.5715,-29.28572"
         style="fill:none;stroke:#c4c4c4;stroke-width:1px;stroke-linecap:butt;stroke-linejoin:miter;stroke-opacity:1;marker-start:url(#DotM3zKi);marker-mid:url(#DotMV9aE);marker-end:url(#DotM8DCP)"
         sodipodi:nodetypes="cccccccccccccccccccccccccccccccccccccccccccccccccccccccccccccccccccccccccccccccccccccccccccccccccccccccccccccccccccccccccccccccccccccccccccccccccccccccccccccccccccccccccccccccccccccccccccccccccccccccccccccccccccccccccccccccccccccccccccccccccccccccccccccccccccccccccccccccccccccccccccccccccccccccccccccccccccccccccccccccccccccc" />
      <path
         sodipodi:nodetypes="ccccccccccccccccccccccccccccccccccccccccccccccccccccccccccccccccccccccccccccccccccc"
         style="fill:none;stroke:#000000;stroke-width:1px;stroke-linecap:butt;stroke-linejoin:miter;stroke-opacity:1;marker-start:url(#DotM);marker-mid:url(#DotM);marker-end:url(#DotM)"
         d="m 1412.2171,250.77125 -27.8571,-21.42857 -20,-22.14286 m -270.7143,172.14284 60.7143,0 m 200,-62.1428 -17.1429,18.5714 m -303.5714,-37.1429 29.2857,-13.5714 m -29.2857,13.5714 25,50 m 19.2857,-254.99997 -51.4286,12.85715 m 102.1429,78.57143 -38.5715,10 m 0,0 38.5715,-10 m 145,-90.00001 -17.1429,-22.14286 m 97.8572,244.28576 7.8571,-32.1429 m 50,-34.28571 -32.1429,5.71431 m 0,0 -17.8571,28.5714 m -41.4286,-70.71428 -2.8571,-23.57143 m -88.5714,3.57143 8.5714,56.42857 m -80.7143,-182.85715 -19.2857,10 m 0,0 -15,9.28572 m -45,6.42857 45,-6.42857 m 133.5714,-14.28572 -37.8571,8.57143 m -175.7143,54.28572 -16.4286,-29.28571 M 1199.36,77.9141 l -42.1429,-10 m 61.4286,13.57143 -19.2857,-3.57143 m 118.5714,112.85715 -59.2857,-29.28571 -29.2857,32.85714 m 88.5714,-3.57143 -37.1429,-45.71428 -7.1428,-50.00001 m 44.2857,95.71429 46.4286,16.42857 m -43.5715,7.14286 -4.2857,32.85714 m -265,-73.57143 38.5714,21.42858 m -88.5714,0 41.4286,-59.28572 m 96.4286,152.14291 -35,11.4285 m 82.1428,-22.1428 -47.1428,10.7143 m -45.7143,91.4285 -35,-30.7143 m 95.7143,30.7143 31.4285,-16.4285 m 0,0 48.5715,-2.8572 35.7142,13.5714 25,-17.8571 m -57.1428,-105.00001 78.5714,-3.57143 m -0.7143,90.71434 21.4286,-2.1429 m -21.4286,2.1429 -20.7143,17.8571 m -243.5714,-182.14287 -50,21.42858 m 177.1429,19.28571 7.8571,62.85718 m -123.5714,7.8571 41.4286,14.2857 m 74.2857,-84.99998 -50,-29.28571"
         id="path6443"
         inkscape:connector-curvature="0" />
    </g>
  </g>
</svg>
