<?xml version="1.0" encoding="UTF-8" standalone="no"?>
<!-- Created with Inkscape (http://www.inkscape.org/) -->

<svg
   xmlns:dc="http://purl.org/dc/elements/1.1/"
   xmlns:cc="http://creativecommons.org/ns#"
   xmlns:rdf="http://www.w3.org/1999/02/22-rdf-syntax-ns#"
   xmlns:svg="http://www.w3.org/2000/svg"
   xmlns="http://www.w3.org/2000/svg"
   xmlns:sodipodi="http://sodipodi.sourceforge.net/DTD/sodipodi-0.dtd"
   xmlns:inkscape="http://www.inkscape.org/namespaces/inkscape"
   width="649.89899"
   height="496.12125"
   id="svg2"
   version="1.1"
   inkscape:version="0.48.4 r9939"
   sodipodi:docname="delaunay-alpha.svg">
  <sodipodi:namedview
     id="base"
     pagecolor="#ffffff"
     bordercolor="#666666"
     borderopacity="1.0"
     inkscape:pageopacity="0.0"
     inkscape:pageshadow="2"
     inkscape:zoom="0.70710678"
     inkscape:cx="734.17982"
     inkscape:cy="12.597033"
     inkscape:document-units="px"
     inkscape:current-layer="layer1"
     showgrid="false"
     inkscape:window-width="1918"
     inkscape:window-height="1198"
     inkscape:window-x="1920"
     inkscape:window-y="0"
     inkscape:window-maximized="0"
     showguides="true"
     inkscape:guide-bbox="true"
     fit-margin-top="0"
     fit-margin-left="0"
     fit-margin-right="0"
     fit-margin-bottom="0"
     units="cm" />
  <defs
     id="defs4">
    <marker
       style="overflow:visible"
       id="DotM"
       refX="0"
       refY="0"
       orient="auto"
       inkscape:stockid="DotM">
      <path
         inkscape:connector-curvature="0"
         transform="matrix(0.4,0,0,0.4,2.96,0.4)"
         style="fill-rule:evenodd;stroke:#000000;stroke-width:1pt"
         d="m -2.5,-1 c 0,2.76 -2.24,5 -5,5 -2.76,0 -5,-2.24 -5,-5 0,-2.76 2.24,-5 5,-5 2.76,0 5,2.24 5,5 z"
         id="path3833" />
    </marker>
    <marker
       style="overflow:visible"
       id="DotM-2"
       refX="0"
       refY="0"
       orient="auto"
       inkscape:stockid="DotM">
      <path
         transform="matrix(0.4,0,0,0.4,2.96,0.4)"
         style="fill-rule:evenodd;stroke:#000000;stroke-width:1pt"
         d="m -2.5,-1 c 0,2.76 -2.24,5 -5,5 -2.76,0 -5,-2.24 -5,-5 0,-2.76 2.24,-5 5,-5 2.76,0 5,2.24 5,5 z"
         id="path3833-6"
         inkscape:connector-curvature="0" />
    </marker>
    <marker
       style="overflow:visible"
       id="marker5152"
       refX="0"
       refY="0"
       orient="auto"
       inkscape:stockid="DotM">
      <path
         transform="matrix(0.4,0,0,0.4,2.96,0.4)"
         style="fill-rule:evenodd;stroke:#000000;stroke-width:1pt"
         d="m -2.5,-1 c 0,2.76 -2.24,5 -5,5 -2.76,0 -5,-2.24 -5,-5 0,-2.76 2.24,-5 5,-5 2.76,0 5,2.24 5,5 z"
         id="path5154"
         inkscape:connector-curvature="0" />
    </marker>
    <marker
       style="overflow:visible"
       id="marker5156"
       refX="0"
       refY="0"
       orient="auto"
       inkscape:stockid="DotM">
      <path
         transform="matrix(0.4,0,0,0.4,2.96,0.4)"
         style="fill-rule:evenodd;stroke:#000000;stroke-width:1pt"
         d="m -2.5,-1 c 0,2.76 -2.24,5 -5,5 -2.76,0 -5,-2.24 -5,-5 0,-2.76 2.24,-5 5,-5 2.76,0 5,2.24 5,5 z"
         id="path5158"
         inkscape:connector-curvature="0" />
    </marker>
    <marker
       style="overflow:visible"
       id="DotMh"
       refX="0"
       refY="0"
       orient="auto"
       inkscape:stockid="DotMh">
      <path
         inkscape:connector-curvature="0"
         transform="matrix(0.4,0,0,0.4,2.96,0.4)"
         style="fill:#808080;fill-rule:evenodd;stroke:#808080;stroke-width:1pt"
         d="m -2.5,-1 c 0,2.76 -2.24,5 -5,5 -2.76,0 -5,-2.24 -5,-5 0,-2.76 2.24,-5 5,-5 2.76,0 5,2.24 5,5 z"
         id="path5193" />
    </marker>
    <marker
       style="overflow:visible"
       id="DotMz"
       refX="0"
       refY="0"
       orient="auto"
       inkscape:stockid="DotMz">
      <path
         inkscape:connector-curvature="0"
         transform="matrix(0.4,0,0,0.4,2.96,0.4)"
         style="fill:#808080;fill-rule:evenodd;stroke:#808080;stroke-width:1pt"
         d="m -2.5,-1 c 0,2.76 -2.24,5 -5,5 -2.76,0 -5,-2.24 -5,-5 0,-2.76 2.24,-5 5,-5 2.76,0 5,2.24 5,5 z"
         id="path5196" />
    </marker>
    <marker
       style="overflow:visible"
       id="DotMa"
       refX="0"
       refY="0"
       orient="auto"
       inkscape:stockid="DotMa">
      <path
         inkscape:connector-curvature="0"
         transform="matrix(0.4,0,0,0.4,2.96,0.4)"
         style="fill:#808080;fill-rule:evenodd;stroke:#808080;stroke-width:1pt"
         d="m -2.5,-1 c 0,2.76 -2.24,5 -5,5 -2.76,0 -5,-2.24 -5,-5 0,-2.76 2.24,-5 5,-5 2.76,0 5,2.24 5,5 z"
         id="path5199" />
    </marker>
    <marker
       style="overflow:visible"
       id="DotM-5"
       refX="0"
       refY="0"
       orient="auto"
       inkscape:stockid="DotM">
      <path
         inkscape:connector-curvature="0"
         transform="matrix(0.4,0,0,0.4,2.96,0.4)"
         style="fill-rule:evenodd;stroke:#000000;stroke-width:1pt"
         d="m -2.5,-1 c 0,2.76 -2.24,5 -5,5 -2.76,0 -5,-2.24 -5,-5 0,-2.76 2.24,-5 5,-5 2.76,0 5,2.24 5,5 z"
         id="path3833-4" />
    </marker>
    <marker
       style="overflow:visible"
       id="marker5243"
       refX="0"
       refY="0"
       orient="auto"
       inkscape:stockid="DotM">
      <path
         inkscape:connector-curvature="0"
         transform="matrix(0.4,0,0,0.4,2.96,0.4)"
         style="fill-rule:evenodd;stroke:#000000;stroke-width:1pt"
         d="m -2.5,-1 c 0,2.76 -2.24,5 -5,5 -2.76,0 -5,-2.24 -5,-5 0,-2.76 2.24,-5 5,-5 2.76,0 5,2.24 5,5 z"
         id="path5245" />
    </marker>
    <marker
       style="overflow:visible"
       id="marker5247"
       refX="0"
       refY="0"
       orient="auto"
       inkscape:stockid="DotM">
      <path
         inkscape:connector-curvature="0"
         transform="matrix(0.4,0,0,0.4,2.96,0.4)"
         style="fill-rule:evenodd;stroke:#000000;stroke-width:1pt"
         d="m -2.5,-1 c 0,2.76 -2.24,5 -5,5 -2.76,0 -5,-2.24 -5,-5 0,-2.76 2.24,-5 5,-5 2.76,0 5,2.24 5,5 z"
         id="path5249" />
    </marker>
    <marker
       style="overflow:visible"
       id="DotM-4"
       refX="0"
       refY="0"
       orient="auto"
       inkscape:stockid="DotM">
      <path
         inkscape:connector-curvature="0"
         transform="matrix(0.4,0,0,0.4,2.96,0.4)"
         style="fill-rule:evenodd;stroke:#000000;stroke-width:1pt"
         d="m -2.5,-1 c 0,2.76 -2.24,5 -5,5 -2.76,0 -5,-2.24 -5,-5 0,-2.76 2.24,-5 5,-5 2.76,0 5,2.24 5,5 z"
         id="path3833-8" />
    </marker>
    <marker
       style="overflow:visible"
       id="marker5582"
       refX="0"
       refY="0"
       orient="auto"
       inkscape:stockid="DotM">
      <path
         inkscape:connector-curvature="0"
         transform="matrix(0.4,0,0,0.4,2.96,0.4)"
         style="fill-rule:evenodd;stroke:#000000;stroke-width:1pt"
         d="m -2.5,-1 c 0,2.76 -2.24,5 -5,5 -2.76,0 -5,-2.24 -5,-5 0,-2.76 2.24,-5 5,-5 2.76,0 5,2.24 5,5 z"
         id="path5584" />
    </marker>
    <marker
       style="overflow:visible"
       id="marker5586"
       refX="0"
       refY="0"
       orient="auto"
       inkscape:stockid="DotM">
      <path
         inkscape:connector-curvature="0"
         transform="matrix(0.4,0,0,0.4,2.96,0.4)"
         style="fill-rule:evenodd;stroke:#000000;stroke-width:1pt"
         d="m -2.5,-1 c 0,2.76 -2.24,5 -5,5 -2.76,0 -5,-2.24 -5,-5 0,-2.76 2.24,-5 5,-5 2.76,0 5,2.24 5,5 z"
         id="path5588" />
    </marker>
    <marker
       style="overflow:visible"
       id="DotMh-9"
       refX="0"
       refY="0"
       orient="auto"
       inkscape:stockid="DotMh">
      <path
         inkscape:connector-curvature="0"
         transform="matrix(0.4,0,0,0.4,2.96,0.4)"
         style="fill:#808080;fill-rule:evenodd;stroke:#808080;stroke-width:1pt"
         d="m -2.5,-1 c 0,2.76 -2.24,5 -5,5 -2.76,0 -5,-2.24 -5,-5 0,-2.76 2.24,-5 5,-5 2.76,0 5,2.24 5,5 z"
         id="path5193-1" />
    </marker>
    <marker
       style="overflow:visible"
       id="DotMz-6"
       refX="0"
       refY="0"
       orient="auto"
       inkscape:stockid="DotMz">
      <path
         inkscape:connector-curvature="0"
         transform="matrix(0.4,0,0,0.4,2.96,0.4)"
         style="fill:#808080;fill-rule:evenodd;stroke:#808080;stroke-width:1pt"
         d="m -2.5,-1 c 0,2.76 -2.24,5 -5,5 -2.76,0 -5,-2.24 -5,-5 0,-2.76 2.24,-5 5,-5 2.76,0 5,2.24 5,5 z"
         id="path5196-6" />
    </marker>
    <marker
       style="overflow:visible"
       id="DotMa-5"
       refX="0"
       refY="0"
       orient="auto"
       inkscape:stockid="DotMa">
      <path
         inkscape:connector-curvature="0"
         transform="matrix(0.4,0,0,0.4,2.96,0.4)"
         style="fill:#808080;fill-rule:evenodd;stroke:#808080;stroke-width:1pt"
         d="m -2.5,-1 c 0,2.76 -2.24,5 -5,5 -2.76,0 -5,-2.24 -5,-5 0,-2.76 2.24,-5 5,-5 2.76,0 5,2.24 5,5 z"
         id="path5199-3" />
    </marker>
    <marker
       style="overflow:visible"
       id="DotM-28"
       refX="0"
       refY="0"
       orient="auto"
       inkscape:stockid="DotM">
      <path
         inkscape:connector-curvature="0"
         transform="matrix(0.4,0,0,0.4,2.96,0.4)"
         style="fill-rule:evenodd;stroke:#000000;stroke-width:1pt"
         d="m -2.5,-1 c 0,2.76 -2.24,5 -5,5 -2.76,0 -5,-2.24 -5,-5 0,-2.76 2.24,-5 5,-5 2.76,0 5,2.24 5,5 z"
         id="path3833-1" />
    </marker>
    <marker
       style="overflow:visible"
       id="marker5628"
       refX="0"
       refY="0"
       orient="auto"
       inkscape:stockid="DotM">
      <path
         inkscape:connector-curvature="0"
         transform="matrix(0.4,0,0,0.4,2.96,0.4)"
         style="fill-rule:evenodd;stroke:#000000;stroke-width:1pt"
         d="m -2.5,-1 c 0,2.76 -2.24,5 -5,5 -2.76,0 -5,-2.24 -5,-5 0,-2.76 2.24,-5 5,-5 2.76,0 5,2.24 5,5 z"
         id="path5630" />
    </marker>
    <marker
       style="overflow:visible"
       id="marker5632"
       refX="0"
       refY="0"
       orient="auto"
       inkscape:stockid="DotM">
      <path
         inkscape:connector-curvature="0"
         transform="matrix(0.4,0,0,0.4,2.96,0.4)"
         style="fill-rule:evenodd;stroke:#000000;stroke-width:1pt"
         d="m -2.5,-1 c 0,2.76 -2.24,5 -5,5 -2.76,0 -5,-2.24 -5,-5 0,-2.76 2.24,-5 5,-5 2.76,0 5,2.24 5,5 z"
         id="path5634" />
    </marker>
    <marker
       style="overflow:visible"
       id="DotMA"
       refX="0"
       refY="0"
       orient="auto"
       inkscape:stockid="DotMA">
      <path
         inkscape:connector-curvature="0"
         transform="matrix(0.4,0,0,0.4,2.96,0.4)"
         style="fill:#c4c4c4;fill-rule:evenodd;stroke:#c4c4c4;stroke-width:1pt"
         d="m -2.5,-1 c 0,2.76 -2.24,5 -5,5 -2.76,0 -5,-2.24 -5,-5 0,-2.76 2.24,-5 5,-5 2.76,0 5,2.24 5,5 z"
         id="path5718" />
    </marker>
    <marker
       style="overflow:visible"
       id="DotMW"
       refX="0"
       refY="0"
       orient="auto"
       inkscape:stockid="DotMW">
      <path
         inkscape:connector-curvature="0"
         transform="matrix(0.4,0,0,0.4,2.96,0.4)"
         style="fill:#c4c4c4;fill-rule:evenodd;stroke:#c4c4c4;stroke-width:1pt"
         d="m -2.5,-1 c 0,2.76 -2.24,5 -5,5 -2.76,0 -5,-2.24 -5,-5 0,-2.76 2.24,-5 5,-5 2.76,0 5,2.24 5,5 z"
         id="path5721" />
    </marker>
    <marker
       style="overflow:visible"
       id="DotMd"
       refX="0"
       refY="0"
       orient="auto"
       inkscape:stockid="DotMd">
      <path
         inkscape:connector-curvature="0"
         transform="matrix(0.4,0,0,0.4,2.96,0.4)"
         style="fill:#c4c4c4;fill-rule:evenodd;stroke:#c4c4c4;stroke-width:1pt"
         d="m -2.5,-1 c 0,2.76 -2.24,5 -5,5 -2.76,0 -5,-2.24 -5,-5 0,-2.76 2.24,-5 5,-5 2.76,0 5,2.24 5,5 z"
         id="path5724" />
    </marker>
    <marker
       style="overflow:visible"
       id="DotM3"
       refX="0"
       refY="0"
       orient="auto"
       inkscape:stockid="DotM3">
      <path
         inkscape:connector-curvature="0"
         transform="matrix(0.4,0,0,0.4,2.96,0.4)"
         style="fill:#c4c4c4;fill-rule:evenodd;stroke:#c4c4c4;stroke-width:1pt"
         d="m -2.5,-1 c 0,2.76 -2.24,5 -5,5 -2.76,0 -5,-2.24 -5,-5 0,-2.76 2.24,-5 5,-5 2.76,0 5,2.24 5,5 z"
         id="path5843" />
    </marker>
    <marker
       style="overflow:visible"
       id="DotMV"
       refX="0"
       refY="0"
       orient="auto"
       inkscape:stockid="DotMV">
      <path
         inkscape:connector-curvature="0"
         transform="matrix(0.4,0,0,0.4,2.96,0.4)"
         style="fill:#c4c4c4;fill-rule:evenodd;stroke:#c4c4c4;stroke-width:1pt"
         d="m -2.5,-1 c 0,2.76 -2.24,5 -5,5 -2.76,0 -5,-2.24 -5,-5 0,-2.76 2.24,-5 5,-5 2.76,0 5,2.24 5,5 z"
         id="path5846" />
    </marker>
    <marker
       style="overflow:visible"
       id="DotM8"
       refX="0"
       refY="0"
       orient="auto"
       inkscape:stockid="DotM8">
      <path
         inkscape:connector-curvature="0"
         transform="matrix(0.4,0,0,0.4,2.96,0.4)"
         style="fill:#c4c4c4;fill-rule:evenodd;stroke:#c4c4c4;stroke-width:1pt"
         d="m -2.5,-1 c 0,2.76 -2.24,5 -5,5 -2.76,0 -5,-2.24 -5,-5 0,-2.76 2.24,-5 5,-5 2.76,0 5,2.24 5,5 z"
         id="path5849" />
    </marker>
    <marker
       style="overflow:visible"
       id="DotM3z"
       refX="0"
       refY="0"
       orient="auto"
       inkscape:stockid="DotM3z">
      <path
         inkscape:connector-curvature="0"
         transform="matrix(0.4,0,0,0.4,2.96,0.4)"
         style="fill:#808080;fill-rule:evenodd;stroke:#808080;stroke-width:1pt"
         d="m -2.5,-1 c 0,2.76 -2.24,5 -5,5 -2.76,0 -5,-2.24 -5,-5 0,-2.76 2.24,-5 5,-5 2.76,0 5,2.24 5,5 z"
         id="path5980" />
    </marker>
    <marker
       style="overflow:visible"
       id="DotMV9"
       refX="0"
       refY="0"
       orient="auto"
       inkscape:stockid="DotMV9">
      <path
         inkscape:connector-curvature="0"
         transform="matrix(0.4,0,0,0.4,2.96,0.4)"
         style="fill:#808080;fill-rule:evenodd;stroke:#808080;stroke-width:1pt"
         d="m -2.5,-1 c 0,2.76 -2.24,5 -5,5 -2.76,0 -5,-2.24 -5,-5 0,-2.76 2.24,-5 5,-5 2.76,0 5,2.24 5,5 z"
         id="path5983" />
    </marker>
    <marker
       style="overflow:visible"
       id="DotM8D"
       refX="0"
       refY="0"
       orient="auto"
       inkscape:stockid="DotM8D">
      <path
         inkscape:connector-curvature="0"
         transform="matrix(0.4,0,0,0.4,2.96,0.4)"
         style="fill:#808080;fill-rule:evenodd;stroke:#808080;stroke-width:1pt"
         d="m -2.5,-1 c 0,2.76 -2.24,5 -5,5 -2.76,0 -5,-2.24 -5,-5 0,-2.76 2.24,-5 5,-5 2.76,0 5,2.24 5,5 z"
         id="path5986" />
    </marker>
    <marker
       style="overflow:visible"
       id="DotM3zK"
       refX="0"
       refY="0"
       orient="auto"
       inkscape:stockid="DotM3zK">
      <path
         inkscape:connector-curvature="0"
         transform="matrix(0.4,0,0,0.4,2.96,0.4)"
         style="fill:#a9a9a9;fill-rule:evenodd;stroke:#a9a9a9;stroke-width:1pt"
         d="m -2.5,-1 c 0,2.76 -2.24,5 -5,5 -2.76,0 -5,-2.24 -5,-5 0,-2.76 2.24,-5 5,-5 2.76,0 5,2.24 5,5 z"
         id="path6129" />
    </marker>
    <marker
       style="overflow:visible"
       id="DotMV9a"
       refX="0"
       refY="0"
       orient="auto"
       inkscape:stockid="DotMV9a">
      <path
         inkscape:connector-curvature="0"
         transform="matrix(0.4,0,0,0.4,2.96,0.4)"
         style="fill:#a9a9a9;fill-rule:evenodd;stroke:#a9a9a9;stroke-width:1pt"
         d="m -2.5,-1 c 0,2.76 -2.24,5 -5,5 -2.76,0 -5,-2.24 -5,-5 0,-2.76 2.24,-5 5,-5 2.76,0 5,2.24 5,5 z"
         id="path6132" />
    </marker>
    <marker
       style="overflow:visible"
       id="DotM8DC"
       refX="0"
       refY="0"
       orient="auto"
       inkscape:stockid="DotM8DC">
      <path
         inkscape:connector-curvature="0"
         transform="matrix(0.4,0,0,0.4,2.96,0.4)"
         style="fill:#a9a9a9;fill-rule:evenodd;stroke:#a9a9a9;stroke-width:1pt"
         d="m -2.5,-1 c 0,2.76 -2.24,5 -5,5 -2.76,0 -5,-2.24 -5,-5 0,-2.76 2.24,-5 5,-5 2.76,0 5,2.24 5,5 z"
         id="path6135" />
    </marker>
    <marker
       style="overflow:visible"
       id="DotM3zKi"
       refX="0"
       refY="0"
       orient="auto"
       inkscape:stockid="DotM3zKi">
      <path
         inkscape:connector-curvature="0"
         transform="matrix(0.4,0,0,0.4,2.96,0.4)"
         style="fill:#c4c4c4;fill-rule:evenodd;stroke:#c4c4c4;stroke-width:1pt"
         d="m -2.5,-1 c 0,2.76 -2.24,5 -5,5 -2.76,0 -5,-2.24 -5,-5 0,-2.76 2.24,-5 5,-5 2.76,0 5,2.24 5,5 z"
         id="path6322" />
    </marker>
    <marker
       style="overflow:visible"
       id="DotMV9aE"
       refX="0"
       refY="0"
       orient="auto"
       inkscape:stockid="DotMV9aE">
      <path
         inkscape:connector-curvature="0"
         transform="matrix(0.4,0,0,0.4,2.96,0.4)"
         style="fill:#c4c4c4;fill-rule:evenodd;stroke:#c4c4c4;stroke-width:1pt"
         d="m -2.5,-1 c 0,2.76 -2.24,5 -5,5 -2.76,0 -5,-2.24 -5,-5 0,-2.76 2.24,-5 5,-5 2.76,0 5,2.24 5,5 z"
         id="path6325" />
    </marker>
    <marker
       style="overflow:visible"
       id="DotM8DCP"
       refX="0"
       refY="0"
       orient="auto"
       inkscape:stockid="DotM8DCP">
      <path
         inkscape:connector-curvature="0"
         transform="matrix(0.4,0,0,0.4,2.96,0.4)"
         style="fill:#c4c4c4;fill-rule:evenodd;stroke:#c4c4c4;stroke-width:1pt"
         d="m -2.5,-1 c 0,2.76 -2.24,5 -5,5 -2.76,0 -5,-2.24 -5,-5 0,-2.76 2.24,-5 5,-5 2.76,0 5,2.24 5,5 z"
         id="path6328" />
    </marker>
    <marker
       style="overflow:visible"
       id="DotM-3"
       refX="0"
       refY="0"
       orient="auto"
       inkscape:stockid="DotM">
      <path
         inkscape:connector-curvature="0"
         transform="matrix(0.4,0,0,0.4,2.96,0.4)"
         style="fill-rule:evenodd;stroke:#000000;stroke-width:1pt"
         d="m -2.5,-1 c 0,2.76 -2.24,5 -5,5 -2.76,0 -5,-2.24 -5,-5 0,-2.76 2.24,-5 5,-5 2.76,0 5,2.24 5,5 z"
         id="path3833-84" />
    </marker>
    <marker
       style="overflow:visible"
       id="marker3097"
       refX="0"
       refY="0"
       orient="auto"
       inkscape:stockid="DotM">
      <path
         inkscape:connector-curvature="0"
         transform="matrix(0.4,0,0,0.4,2.96,0.4)"
         style="fill-rule:evenodd;stroke:#000000;stroke-width:1pt"
         d="m -2.5,-1 c 0,2.76 -2.24,5 -5,5 -2.76,0 -5,-2.24 -5,-5 0,-2.76 2.24,-5 5,-5 2.76,0 5,2.24 5,5 z"
         id="path3099" />
    </marker>
    <marker
       style="overflow:visible"
       id="marker3101"
       refX="0"
       refY="0"
       orient="auto"
       inkscape:stockid="DotM">
      <path
         inkscape:connector-curvature="0"
         transform="matrix(0.4,0,0,0.4,2.96,0.4)"
         style="fill-rule:evenodd;stroke:#000000;stroke-width:1pt"
         d="m -2.5,-1 c 0,2.76 -2.24,5 -5,5 -2.76,0 -5,-2.24 -5,-5 0,-2.76 2.24,-5 5,-5 2.76,0 5,2.24 5,5 z"
         id="path3103" />
    </marker>
    <marker
       style="overflow:visible"
       id="DotM3zKi-2"
       refX="0"
       refY="0"
       orient="auto"
       inkscape:stockid="DotM3zKi">
      <path
         inkscape:connector-curvature="0"
         transform="matrix(0.4,0,0,0.4,2.96,0.4)"
         style="fill:#c4c4c4;fill-rule:evenodd;stroke:#c4c4c4;stroke-width:1pt"
         d="m -2.5,-1 c 0,2.76 -2.24,5 -5,5 -2.76,0 -5,-2.24 -5,-5 0,-2.76 2.24,-5 5,-5 2.76,0 5,2.24 5,5 z"
         id="path6322-3" />
    </marker>
    <marker
       style="overflow:visible"
       id="DotMV9aE-9"
       refX="0"
       refY="0"
       orient="auto"
       inkscape:stockid="DotMV9aE">
      <path
         inkscape:connector-curvature="0"
         transform="matrix(0.4,0,0,0.4,2.96,0.4)"
         style="fill:#c4c4c4;fill-rule:evenodd;stroke:#c4c4c4;stroke-width:1pt"
         d="m -2.5,-1 c 0,2.76 -2.24,5 -5,5 -2.76,0 -5,-2.24 -5,-5 0,-2.76 2.24,-5 5,-5 2.76,0 5,2.24 5,5 z"
         id="path6325-9" />
    </marker>
    <marker
       style="overflow:visible"
       id="DotM8DCP-3"
       refX="0"
       refY="0"
       orient="auto"
       inkscape:stockid="DotM8DCP">
      <path
         inkscape:connector-curvature="0"
         transform="matrix(0.4,0,0,0.4,2.96,0.4)"
         style="fill:#c4c4c4;fill-rule:evenodd;stroke:#c4c4c4;stroke-width:1pt"
         d="m -2.5,-1 c 0,2.76 -2.24,5 -5,5 -2.76,0 -5,-2.24 -5,-5 0,-2.76 2.24,-5 5,-5 2.76,0 5,2.24 5,5 z"
         id="path6328-5" />
    </marker>
    <marker
       style="overflow:visible"
       id="DotM-0"
       refX="0"
       refY="0"
       orient="auto"
       inkscape:stockid="DotM">
      <path
         inkscape:connector-curvature="0"
         transform="matrix(0.4,0,0,0.4,2.96,0.4)"
         style="fill-rule:evenodd;stroke:#000000;stroke-width:1pt"
         d="m -2.5,-1 c 0,2.76 -2.24,5 -5,5 -2.76,0 -5,-2.24 -5,-5 0,-2.76 2.24,-5 5,-5 2.76,0 5,2.24 5,5 z"
         id="path3833-18" />
    </marker>
    <marker
       style="overflow:visible"
       id="marker3158"
       refX="0"
       refY="0"
       orient="auto"
       inkscape:stockid="DotM">
      <path
         inkscape:connector-curvature="0"
         transform="matrix(0.4,0,0,0.4,2.96,0.4)"
         style="fill-rule:evenodd;stroke:#000000;stroke-width:1pt"
         d="m -2.5,-1 c 0,2.76 -2.24,5 -5,5 -2.76,0 -5,-2.24 -5,-5 0,-2.76 2.24,-5 5,-5 2.76,0 5,2.24 5,5 z"
         id="path3160" />
    </marker>
    <marker
       style="overflow:visible"
       id="marker3162"
       refX="0"
       refY="0"
       orient="auto"
       inkscape:stockid="DotM">
      <path
         inkscape:connector-curvature="0"
         transform="matrix(0.4,0,0,0.4,2.96,0.4)"
         style="fill-rule:evenodd;stroke:#000000;stroke-width:1pt"
         d="m -2.5,-1 c 0,2.76 -2.24,5 -5,5 -2.76,0 -5,-2.24 -5,-5 0,-2.76 2.24,-5 5,-5 2.76,0 5,2.24 5,5 z"
         id="path3164" />
    </marker>
    <marker
       style="overflow:visible"
       id="DotM-32"
       refX="0"
       refY="0"
       orient="auto"
       inkscape:stockid="DotM">
      <path
         inkscape:connector-curvature="0"
         transform="matrix(0.4,0,0,0.4,2.96,0.4)"
         style="fill-rule:evenodd;stroke:#000000;stroke-width:1pt"
         d="m -2.5,-1 c 0,2.76 -2.24,5 -5,5 -2.76,0 -5,-2.24 -5,-5 0,-2.76 2.24,-5 5,-5 2.76,0 5,2.24 5,5 z"
         id="path3833-7" />
    </marker>
    <marker
       style="overflow:visible"
       id="marker4280"
       refX="0"
       refY="0"
       orient="auto"
       inkscape:stockid="DotM">
      <path
         inkscape:connector-curvature="0"
         transform="matrix(0.4,0,0,0.4,2.96,0.4)"
         style="fill-rule:evenodd;stroke:#000000;stroke-width:1pt"
         d="m -2.5,-1 c 0,2.76 -2.24,5 -5,5 -2.76,0 -5,-2.24 -5,-5 0,-2.76 2.24,-5 5,-5 2.76,0 5,2.24 5,5 z"
         id="path4282" />
    </marker>
    <marker
       style="overflow:visible"
       id="marker4284"
       refX="0"
       refY="0"
       orient="auto"
       inkscape:stockid="DotM">
      <path
         inkscape:connector-curvature="0"
         transform="matrix(0.4,0,0,0.4,2.96,0.4)"
         style="fill-rule:evenodd;stroke:#000000;stroke-width:1pt"
         d="m -2.5,-1 c 0,2.76 -2.24,5 -5,5 -2.76,0 -5,-2.24 -5,-5 0,-2.76 2.24,-5 5,-5 2.76,0 5,2.24 5,5 z"
         id="path4286" />
    </marker>
    <marker
       style="overflow:visible"
       id="DotMF"
       refX="0"
       refY="0"
       orient="auto"
       inkscape:stockid="DotMF">
      <path
         inkscape:connector-curvature="0"
         transform="matrix(0.4,0,0,0.4,2.96,0.4)"
         style="fill:#c4c4c4;fill-rule:evenodd;stroke:#c4c4c4;stroke-width:1pt"
         d="m -2.5,-1 c 0,2.76 -2.24,5 -5,5 -2.76,0 -5,-2.24 -5,-5 0,-2.76 2.24,-5 5,-5 2.76,0 5,2.24 5,5 z"
         id="path4440" />
    </marker>
    <marker
       style="overflow:visible"
       id="DotMT"
       refX="0"
       refY="0"
       orient="auto"
       inkscape:stockid="DotMT">
      <path
         inkscape:connector-curvature="0"
         transform="matrix(0.4,0,0,0.4,2.96,0.4)"
         style="fill:#c4c4c4;fill-rule:evenodd;stroke:#c4c4c4;stroke-width:1pt"
         d="m -2.5,-1 c 0,2.76 -2.24,5 -5,5 -2.76,0 -5,-2.24 -5,-5 0,-2.76 2.24,-5 5,-5 2.76,0 5,2.24 5,5 z"
         id="path4443" />
    </marker>
    <marker
       style="overflow:visible"
       id="DotMX"
       refX="0"
       refY="0"
       orient="auto"
       inkscape:stockid="DotMX">
      <path
         inkscape:connector-curvature="0"
         transform="matrix(0.4,0,0,0.4,2.96,0.4)"
         style="fill:#c4c4c4;fill-rule:evenodd;stroke:#c4c4c4;stroke-width:1pt"
         d="m -2.5,-1 c 0,2.76 -2.24,5 -5,5 -2.76,0 -5,-2.24 -5,-5 0,-2.76 2.24,-5 5,-5 2.76,0 5,2.24 5,5 z"
         id="path4446" />
    </marker>
    <marker
       style="overflow:visible"
       id="DotM-8"
       refX="0"
       refY="0"
       orient="auto"
       inkscape:stockid="DotM">
      <path
         inkscape:connector-curvature="0"
         transform="matrix(0.4,0,0,0.4,2.96,0.4)"
         style="fill-rule:evenodd;stroke:#000000;stroke-width:1pt"
         d="m -2.5,-1 c 0,2.76 -2.24,5 -5,5 -2.76,0 -5,-2.24 -5,-5 0,-2.76 2.24,-5 5,-5 2.76,0 5,2.24 5,5 z"
         id="path3833-3" />
    </marker>
    <marker
       style="overflow:visible"
       id="marker4255"
       refX="0"
       refY="0"
       orient="auto"
       inkscape:stockid="DotM">
      <path
         inkscape:connector-curvature="0"
         transform="matrix(0.4,0,0,0.4,2.96,0.4)"
         style="fill-rule:evenodd;stroke:#000000;stroke-width:1pt"
         d="m -2.5,-1 c 0,2.76 -2.24,5 -5,5 -2.76,0 -5,-2.24 -5,-5 0,-2.76 2.24,-5 5,-5 2.76,0 5,2.24 5,5 z"
         id="path4257" />
    </marker>
    <marker
       style="overflow:visible"
       id="marker4259"
       refX="0"
       refY="0"
       orient="auto"
       inkscape:stockid="DotM">
      <path
         inkscape:connector-curvature="0"
         transform="matrix(0.4,0,0,0.4,2.96,0.4)"
         style="fill-rule:evenodd;stroke:#000000;stroke-width:1pt"
         d="m -2.5,-1 c 0,2.76 -2.24,5 -5,5 -2.76,0 -5,-2.24 -5,-5 0,-2.76 2.24,-5 5,-5 2.76,0 5,2.24 5,5 z"
         id="path4261" />
    </marker>
    <marker
       style="overflow:visible"
       id="DotM8B"
       refX="0"
       refY="0"
       orient="auto"
       inkscape:stockid="DotM8B">
      <path
         inkscape:connector-curvature="0"
         transform="matrix(0.4,0,0,0.4,2.96,0.4)"
         style="fill:#c4c4c4;fill-rule:evenodd;stroke:#c4c4c4;stroke-width:1pt"
         d="m -2.5,-1 c 0,2.76 -2.24,5 -5,5 -2.76,0 -5,-2.24 -5,-5 0,-2.76 2.24,-5 5,-5 2.76,0 5,2.24 5,5 z"
         id="path4391" />
    </marker>
    <marker
       style="overflow:visible"
       id="DotML"
       refX="0"
       refY="0"
       orient="auto"
       inkscape:stockid="DotML">
      <path
         inkscape:connector-curvature="0"
         transform="matrix(0.4,0,0,0.4,2.96,0.4)"
         style="fill:#c4c4c4;fill-rule:evenodd;stroke:#c4c4c4;stroke-width:1pt"
         d="m -2.5,-1 c 0,2.76 -2.24,5 -5,5 -2.76,0 -5,-2.24 -5,-5 0,-2.76 2.24,-5 5,-5 2.76,0 5,2.24 5,5 z"
         id="path4394" />
    </marker>
    <marker
       style="overflow:visible"
       id="DotMj"
       refX="0"
       refY="0"
       orient="auto"
       inkscape:stockid="DotMj">
      <path
         inkscape:connector-curvature="0"
         transform="matrix(0.4,0,0,0.4,2.96,0.4)"
         style="fill:#c4c4c4;fill-rule:evenodd;stroke:#c4c4c4;stroke-width:1pt"
         d="m -2.5,-1 c 0,2.76 -2.24,5 -5,5 -2.76,0 -5,-2.24 -5,-5 0,-2.76 2.24,-5 5,-5 2.76,0 5,2.24 5,5 z"
         id="path4397" />
    </marker>
    <marker
       style="overflow:visible"
       id="DotM8B-8"
       refX="0"
       refY="0"
       orient="auto"
       inkscape:stockid="DotM8B">
      <path
         inkscape:connector-curvature="0"
         transform="matrix(0.4,0,0,0.4,2.96,0.4)"
         style="fill:#c4c4c4;fill-rule:evenodd;stroke:#c4c4c4;stroke-width:1pt"
         d="m -2.5,-1 c 0,2.76 -2.24,5 -5,5 -2.76,0 -5,-2.24 -5,-5 0,-2.76 2.24,-5 5,-5 2.76,0 5,2.24 5,5 z"
         id="path4391-7" />
    </marker>
    <marker
       style="overflow:visible"
       id="DotML-5"
       refX="0"
       refY="0"
       orient="auto"
       inkscape:stockid="DotML">
      <path
         inkscape:connector-curvature="0"
         transform="matrix(0.4,0,0,0.4,2.96,0.4)"
         style="fill:#c4c4c4;fill-rule:evenodd;stroke:#c4c4c4;stroke-width:1pt"
         d="m -2.5,-1 c 0,2.76 -2.24,5 -5,5 -2.76,0 -5,-2.24 -5,-5 0,-2.76 2.24,-5 5,-5 2.76,0 5,2.24 5,5 z"
         id="path4394-3" />
    </marker>
    <marker
       style="overflow:visible"
       id="DotMj-0"
       refX="0"
       refY="0"
       orient="auto"
       inkscape:stockid="DotMj">
      <path
         inkscape:connector-curvature="0"
         transform="matrix(0.4,0,0,0.4,2.96,0.4)"
         style="fill:#c4c4c4;fill-rule:evenodd;stroke:#c4c4c4;stroke-width:1pt"
         d="m -2.5,-1 c 0,2.76 -2.24,5 -5,5 -2.76,0 -5,-2.24 -5,-5 0,-2.76 2.24,-5 5,-5 2.76,0 5,2.24 5,5 z"
         id="path4397-9" />
    </marker>
    <marker
       style="overflow:visible"
       id="DotM-27"
       refX="0"
       refY="0"
       orient="auto"
       inkscape:stockid="DotM">
      <path
         inkscape:connector-curvature="0"
         transform="matrix(0.4,0,0,0.4,2.96,0.4)"
         style="fill-rule:evenodd;stroke:#000000;stroke-width:1pt"
         d="m -2.5,-1 c 0,2.76 -2.24,5 -5,5 -2.76,0 -5,-2.24 -5,-5 0,-2.76 2.24,-5 5,-5 2.76,0 5,2.24 5,5 z"
         id="path3833-9" />
    </marker>
    <marker
       style="overflow:visible"
       id="marker4771"
       refX="0"
       refY="0"
       orient="auto"
       inkscape:stockid="DotM">
      <path
         inkscape:connector-curvature="0"
         transform="matrix(0.4,0,0,0.4,2.96,0.4)"
         style="fill-rule:evenodd;stroke:#000000;stroke-width:1pt"
         d="m -2.5,-1 c 0,2.76 -2.24,5 -5,5 -2.76,0 -5,-2.24 -5,-5 0,-2.76 2.24,-5 5,-5 2.76,0 5,2.24 5,5 z"
         id="path4773" />
    </marker>
    <marker
       style="overflow:visible"
       id="marker4775"
       refX="0"
       refY="0"
       orient="auto"
       inkscape:stockid="DotM">
      <path
         inkscape:connector-curvature="0"
         transform="matrix(0.4,0,0,0.4,2.96,0.4)"
         style="fill-rule:evenodd;stroke:#000000;stroke-width:1pt"
         d="m -2.5,-1 c 0,2.76 -2.24,5 -5,5 -2.76,0 -5,-2.24 -5,-5 0,-2.76 2.24,-5 5,-5 2.76,0 5,2.24 5,5 z"
         id="path4777" />
    </marker>
    <marker
       style="overflow:visible"
       id="DotMP"
       refX="0"
       refY="0"
       orient="auto"
       inkscape:stockid="DotMP">
      <path
         inkscape:connector-curvature="0"
         transform="matrix(0.4,0,0,0.4,2.96,0.4)"
         style="fill:#c4c4c4;fill-rule:evenodd;stroke:#c4c4c4;stroke-width:1pt"
         d="m -2.5,-1 c 0,2.76 -2.24,5 -5,5 -2.76,0 -5,-2.24 -5,-5 0,-2.76 2.24,-5 5,-5 2.76,0 5,2.24 5,5 z"
         id="path4934" />
    </marker>
    <marker
       style="overflow:visible"
       id="DotMK"
       refX="0"
       refY="0"
       orient="auto"
       inkscape:stockid="DotMK">
      <path
         inkscape:connector-curvature="0"
         transform="matrix(0.4,0,0,0.4,2.96,0.4)"
         style="fill:#c4c4c4;fill-rule:evenodd;stroke:#c4c4c4;stroke-width:1pt"
         d="m -2.5,-1 c 0,2.76 -2.24,5 -5,5 -2.76,0 -5,-2.24 -5,-5 0,-2.76 2.24,-5 5,-5 2.76,0 5,2.24 5,5 z"
         id="path4937" />
    </marker>
    <marker
       style="overflow:visible"
       id="DotMx"
       refX="0"
       refY="0"
       orient="auto"
       inkscape:stockid="DotMx">
      <path
         inkscape:connector-curvature="0"
         transform="matrix(0.4,0,0,0.4,2.96,0.4)"
         style="fill:#c4c4c4;fill-rule:evenodd;stroke:#c4c4c4;stroke-width:1pt"
         d="m -2.5,-1 c 0,2.76 -2.24,5 -5,5 -2.76,0 -5,-2.24 -5,-5 0,-2.76 2.24,-5 5,-5 2.76,0 5,2.24 5,5 z"
         id="path4940" />
    </marker>
  </defs>
  <metadata
     id="metadata7">
    <rdf:RDF>
      <cc:Work
         rdf:about="">
        <dc:format>image/svg+xml</dc:format>
        <dc:type
           rdf:resource="http://purl.org/dc/dcmitype/StillImage" />
        <dc:title />
      </cc:Work>
    </rdf:RDF>
  </metadata>
  <g
     transform="translate(-258.79704,-186.35465)"
     id="layer1"
     inkscape:groupmode="layer"
     inkscape:label="Layer 1">
    <path
       inkscape:connector-curvature="0"
       id="path4573"
       d="m 306.71514,761.03113 4.77916,25.48887 6.37222,-38.76437 10.62036,39.82637 22.83378,-44.60547 -17.5236,19.11658 24.95786,18.58562 18.0546,-52.03976 38.76434,45.13654 -25.48892,7.96529 -4.77912,-29.73701 22.8338,-15.93056 -45.66758,0 10.08932,46.19857 78.05966,-49.91571 -0.53104,37.17128 -27.6129,-30.799 5.84118,29.20598 40.35736,18.05465 -5.31014,-37.17131 -11.15138,49.38471 -16.4616,-9.0273 -5.31014,33.4541 -26.5509,-27.6129 -11.15138,42.4814 -17.52364,-40.8884 -18.05462,3.7171 -1.593,15.3996 -28.675,7.4342 -28.67498,-15.9305 -6.3722,-28.14397 -12.21342,-21.77174 -18.58562,65.84621 23.8958,76.9976 18.58562,37.1713 3.18612,-47.2606 19.11664,15.3995 -2.65508,21.7718 6.37222,32.9231 45.13656,0 -25.48894,-39.2953 -5.84116,23.3647 -5.8412,-43.5435 7.96524,3.7172 12.74446,21.2407 5.31022,-33.4542 8.49624,44.6056 5.3102,16.9926 7.96528,-18.5857 -5.84124,-36.6402 18.58564,49.3847 4.77918,-31.8611 -4.24816,-31.8611 20.17872,16.4615 c 0,0 -3.71712,26.551 -3.1861,32.3921 0.53096,5.8413 18.58564,12.7445 18.58564,12.7445 l 1.06198,-27.613 -5.84116,-31.861 12.21342,-0.5311 15.9305,33.9852 3.1861,36.1092 7.96528,-41.9504 -12.7444,-35.0472 50.97772,-10.6203 -30.26804,38.7642 2.65506,35.5783 -6.90322,-52.0398 22.30276,38.7643 1.59308,-24.9578 14.33748,23.3648 -6.90322,-53.6329 23.36482,3.7172 -12.74448,27.6129 9.02734,8.4963 5.84118,-23.8958 37.17126,-25.4889 -20.70968,-15.9305 -10.62042,10.6203 -15.9305,3.7172 23.36474,5.8412 -11.68232,-36.6402 -19.6477,4.7791 2.65508,22.8338 -18.58564,2.1241 3.1861,-24.4269 -61.59806,27.0819 59.47402,-44.6055 z"
       style="fill:none;stroke:#000000;stroke-width:1;stroke-linecap:butt;stroke-linejoin:miter;stroke-miterlimit:4;stroke-opacity:0;stroke-dasharray:none;marker-start:url(#DotM);marker-mid:url(#DotM);marker-end:url(#DotM)" />
    <g
       style="stroke-width:1.3451252;stroke-miterlimit:4;stroke-dasharray:none"
       transform="matrix(0.74342524,0,0,0.74342524,291.72901,722.65057)"
       id="g5227">
      <path
         style="fill:none;stroke:#000000;stroke-width:1.3451252;stroke-linecap:butt;stroke-linejoin:miter;stroke-miterlimit:4;stroke-opacity:0;stroke-dasharray:none;marker-start:url(#DotMh);marker-mid:url(#DotMz);marker-end:url(#DotMa)"
         d="m 477.5008,51.626667 6.42857,34.28571 8.57143,-52.142856 14.28571,53.571426 30.71429,-59.999997 -23.57142,25.714287 33.57142,25 24.28571,-70.0000008 52.14287,60.7142808 -34.28573,10.71429 -6.42857,-40 30.7143,-21.428571 -61.42858,0 13.57142,62.142861 105.00001,-67.142861 -0.71428,50.000001 -37.14286,-41.428573 7.85714,39.285713 54.28572,24.28572 -7.14286,-50.000004 -15,66.428577 -22.14286,-12.142863 -7.14285,45.000003 -35.7143,-37.142863 -15,57.142863 -23.57143,-55.000003 -24.28571,5.000003 -2.14286,20.71429 -38.57143,10 -38.57142,-21.42858 -8.57143,-37.857143 -16.42857,-29.28571 -25,88.571433 32.14285,103.57142 25,50 4.28572,-63.57142 25.71428,20.71428 -3.57143,29.28572 8.57143,44.28571 60.71429,0 -34.28572,-52.85714 -7.85714,31.42857 -7.85713,-58.57143 10.71427,5 17.14286,28.57143 7.14286,-45 11.42857,60 7.14286,22.85714 10.71428,-25 -7.85714,-49.28571 25,66.42857 6.42857,-42.85714 -5.71429,-42.85715 27.14287,22.14286 c 0,0 -5,35.71429 -4.28571,43.57143 0.71428,7.85714 25,17.14286 25,17.14286 l 1.42857,-37.14286 -7.85714,-42.85714 16.42857,-0.71429 21.42857,45.71429 4.28571,48.57142 10.71429,-56.42857 -17.14286,-47.14285 68.57143,-14.28572 -40.71429,52.14286 3.57143,47.85714 -9.28571,-70 30,52.14286 2.14286,-33.57143 19.28571,31.42857 -9.28571,-72.14286 31.42857,5 -17.14286,37.14286 12.14286,11.42857 7.85714,-32.14285 50,-34.28572 -27.85714,-21.42857 -14.28572,14.28571 -21.42857,5 31.42857,7.85715 -15.71428,-49.28572 -26.42857,6.42857 3.57142,30.71429 -25,2.85714 4.28572,-32.85714 -82.85714,36.42857 80,-60 z"
         id="path4573-6"
         inkscape:connector-curvature="0" />
      <path
         inkscape:connector-curvature="0"
         id="path5180"
         d="M 671.07223,13.055236 571.78651,8.0552362 441.07223,46.626667 l -25,88.571433 32.14285,103.57142 25,50 35,30.71429 60.71429,0 115.71429,-5.71429 67.14286,-37.85714 17.14286,-18.57143 57.85714,-66.42857 z"
         style="fill:none;stroke:#000000;stroke-width:1.3451252;stroke-linecap:butt;stroke-linejoin:miter;stroke-miterlimit:4;stroke-opacity:1;stroke-dasharray:none;marker-start:url(#DotM);marker-mid:url(#DotM);marker-end:url(#DotM)"
         sodipodi:nodetypes="ccccccccccccc" />
    </g>
    <g
       id="g4692"
       transform="matrix(2,0,0,2,-922.19403,-538.35874)">
      <path
         sodipodi:nodetypes="cccccccccccccccccccccccccccccccccccccccccccccccccccccccccccccccccccccccccccccccccccccccccccccccccccccccccccccccccccccccccccccccccccccccccccccccccccccccccccccccccccccccccccccccccccccccccccccccccccccccccccccccccccccccccccccccccccccccccccccccccccccccccccccccccccccccccccccccccccccccccccccccccccccccccccccccccccccccccccccccccccccccccccccccccccccccccccccccccccccccccccc"
         style="fill:none;stroke:#000000;stroke-width:0.5;stroke-linecap:butt;stroke-linejoin:miter;stroke-miterlimit:4;stroke-opacity:1;stroke-dasharray:none;marker-start:url(#DotM);marker-mid:url(#DotM);marker-end:url(#DotM)"
         d="m 744.3002,431.48206 -10.35485,-7.96527 -7.43425,-8.23078 m -3.71713,40.88839 -4.51365,-4.24815 m -18.85114,0.79653 -2.12407,-8.23078 15.66503,-8.23078 m -98.50384,7.96528 9.55832,7.69975 5.8412,-2.38958 m -3.98263,29.73701 22.56826,0 m 67.97031,-16.19605 -24.95785,14.07198 -1.59305,-18.05461 m -20.97521,6.63772 9.29281,6.37222 11.6824,-13.00994 m -10.35485,-27.61294 -3.71713,10.88587 6.10671,-0.26551 m 28.40946,-24.16132 -30.79904,13.54096 m 64.78419,0 -21.50623,24.69234 -6.37221,6.90323 m -27.34743,-24.42682 -7.16874,3.45161 m -59.20851,20.70971 3.18611,16.46155 m -34.25067,-68.50132 11.94791,38.4988 10.88587,-5.04466 m -10.88587,5.04466 9.29281,18.58563 m 1.59306,-88.14899 2.38958,12.74444 11.15138,-12.21342 -13.54096,-0.53102 -13.54096,-1.85856 -9.29282,32.92312 32.92312,0 -10.08934,33.45414 m 5.57569,-71.15642 -19.11665,4.77916 m 37.96779,29.20599 -14.33749,3.71713 0.79653,-17.78911 m -0.79653,17.78911 14.33749,-3.71713 m -28.67498,-4.24814 6.63773,-10.35485 8.49629,0.53101 m 14.33749,6.37222 -0.79653,7.69976 m 24.16132,-10.35485 -5.57569,21.24072 m 5.57569,-21.24072 -14.33749,0.79653 -9.82383,9.55832 m 0.79653,-7.69976 -14.33749,-6.37222 2.65509,-12.74443 12.47892,9.29282 m -15.13401,3.45161 15.13401,-3.45161 m -12.47892,-9.29282 8.7618,-9.55832 3.71712,18.85114 6.90323,0.79653 m 1.32755,7.16874 8.7618,20.44419 m 21.50623,-24.16132 -2.65509,16.72707 m 16.46155,-36.90576 -6.37221,-8.23078 m 36.37473,90.80409 2.9206,-11.9479 m -39.29533,-78.85619 48.94048,13.05588 m 8.94048,53.05587 -11.9479,2.12407 m -3.71713,-4.77916 5.31018,-5.31018 m -5.31018,5.31018 3.71713,4.77916 1.59305,-10.08934 1.41437,-45.0906 m -22.38958,57.83503 11.6824,1.85856 7.69976,-4.51365 -6.63773,10.62037 -1.06203,-6.10672 m -7.96527,-20.44419 -6.37222,0.26551 -1.06204,-8.7618 7.43426,8.49629 1.32754,11.41689 2.65509,1.59305 m -6.10671,2.65509 6.10671,-2.65509 3.98264,7.43425 m -6.63773,-9.0273 -3.45162,4.24814 m -51.50874,-36.64024 13.27545,13.80647 3.18611,20.97521 m -51.50875,-51.24324 -7.96527,-7.16874 m 29.4715,-9.55833 -7.16874,3.71713 m 0,0 -5.57569,3.45162 m 16.99257,4.51365 -11.41688,-7.96527 -22.30276,5.8412 16.72707,-2.38958 16.99257,4.51365 m 18.58563,-6.63773 2.9206,14.603 m -21.50623,-7.96527 2.38958,14.8685 -8.7618,0.26552 1.32755,7.16874 m 16.46156,-30.26803 -11.41689,7.96527 -13.27545,14.33749 -0.79652,9.82383 m 29.20599,-13.27545 -12.74444,3.98263 m 30.26803,-24.69234 -14.07198,3.18611 -3.45161,17.5236 -5.8412,10.62036 -6.90324,-6.63773 -7.43425,7.43426 m -28.67497,-24.42683 -5.57569,6.63772 -7.43426,9.02731 -6.1067,-10.88587 48.58815,-14.33749 m -29.4715,9.55833 29.4715,-9.55833 m 15.66503,3.71713 -15.66503,-3.71713 4.24814,11.6824 m -6.37222,15.13402 6.37222,-15.13402 15.13402,10.88587 m -19.38216,-22.56827 36.90575,1.85856 m -14.07198,3.18611 -7.16874,-1.32754 m 21.24072,-1.85857 -0.26551,18.58564 m -10.88587,-0.79653 10.88587,0.79653 m -7.16874,9.82383 7.16874,-9.82383 m -17.25808,2.12407 6.37221,-2.9206 m 3.71713,10.62036 -3.71713,-10.62036 11.15138,-17.78911 -21.24072,1.85857 3.71713,18.85114 10.08934,7.69976 m 8.23078,4.51366 -8.23078,-4.51366 -15.93054,2.9206 m 23.09928,-12.74443 9.29281,8.23078 m -2.65509,-18.58564 -6.63772,10.35486 1.06204,14.33749 m 39.29533,16.99257 -9.82383,2.38958 3.98263,13.00994 5.8412,-15.39952 2.12407,13.54096 -7.96527,1.85856 m -25.22336,-38.4988 -8.23077,6.10671 m 22.03724,10.88586 -22.03724,-10.88586 -10.88587,12.21341 m 32.92311,-1.32755 -13.80647,-16.99257 m -2.65509,-18.58564 2.65509,18.58564 39.91318,-13.76054 8.94048,53.05587 m -51.50875,-57.88097 42.56827,4.8251 m -25.04467,39.51491 -33.98515,-7.43425 32.92311,-1.32755 m 26.10671,-30.75311 -8.84862,36.85982 -17.25809,-6.10671 26.10671,-30.75311 m -26.63773,51.72832 9.29282,-1.06203 -7.69976,-11.15138 -1.59306,12.21341 m -29.20598,1.32755 9.55832,7.16875 m -78.85618,-35.84372 14.33749,7.96527 m -32.92312,0 15.39952,-22.03725 9.82384,3.71713 7.69976,18.32012 m 18.32012,34.51617 -13.00994,4.24814 -5.31018,-38.76431 m 29.20599,56.0224 -2.9206,-18.32012 9.55833,-7.16875 -17.5236,3.98264 -18.32012,-34.51617 15.13402,-11.41689 9.0273,-1.85856 m 1.06204,78.59066 3.98263,-9.29281 m -6.63772,0.79653 2.65509,8.49628 10.35485,-2.92059 m 0.26551,-31.86109 2.12407,15.93055 m -19.64767,-11.94791 7.96527,3.18611 11.6824,8.7618 m -14.07198,22.03724 1.32755,-3.18611 -16.99258,-4.77916 14.33749,-3.71712 6.63772,-0.79653 8.7618,-9.55832 m 16.19605,1.06203 -8.23078,-8.7618 -7.96527,7.69977 m -29.73701,14.07197 -6.90323,7.96527 -13.00995,-11.41689 9.82384,-5.04466 10.08934,8.49628 15.66503,7.96527 11.6824,-6.1067 m -11.6824,6.1067 43.01246,-2.12407 m -31.33006,-3.98263 31.33006,3.98263 m -31.33006,-3.98263 18.05461,-1.06204 13.27545,5.04467 9.29281,-6.63772 m 15.66504,-7.43426 -15.66504,7.43426 m 7.69977,-6.63773 0.79652,-12.47892 m -11.9479,-6.90324 -8.23078,-5.84119 19.64766,-8.4963 m -11.41688,14.33749 11.41688,-14.33749 4.24815,6.10671 m -15.66503,8.23078 11.9479,6.90324 3.71713,-15.13402 m -33.45413,-4.77916 29.20598,-1.32755 5.8412,3.18611 10.08935,4.77916 3.98263,-9.29281 m -50.44671,43.27797 0.53102,-13.80647 11.15138,0.79653 -7.96527,-16.99258 m 15.39952,2.38958 -15.39952,-2.38958 13.54095,14.07198 m 0,0 3.98264,-3.45162 m -9.55832,6.37222 10.88586,11.41689 -5.31018,-14.33749 1.85857,-11.6824 m 11.15138,19.38216 -9.02731,-11.15138 9.82383,-1.32754 m -0.79652,12.47892 7.96527,-0.79653 m -1.85857,-29.73701 -1.59305,2.9206 m 12.74443,7.96528 -7.43425,7.69975 -5.31018,-15.66503 12.74443,7.96528 m 18.58563,-12.74444 -18.58563,12.74444 m -7.43425,7.69975 -1.85856,11.15138 -7.16875,-11.68239 9.02731,0.53101 m -28.40946,7.16875 5.57568,-2.9206 13.00995,7.69976 -7.69977,6.63773 m -93.72468,-81.77678 3.18611,14.07198 -18.58563,7.96527 22.83378,33.45414 m 61.8636,-33.71965 -18.85114,7.43425 2.9206,23.36479 15.39952,1.06204 m -51.77426,9.55832 -11.15138,15.93054 1.59306,-23.63029 15.39952,5.31017 m 3.98263,1.85857 -3.98263,-1.85857 m 3.98263,1.85857 1.85857,8.23078 -2.9206,11.68239 m 7.43425,-9.29281 -7.43425,9.29281 m 10.08934,-26.01988 -9.02731,6.10671 m 6.37222,10.62036 10.62036,-13.54096 -3.71712,19.11665 -6.90324,-5.57569 -6.37222,-10.62036 -9.82383,0.53101 11.6824,7.69977 m 21.77174,-41.68492 -18.58563,-10.88587 3.98263,38.2333 m -7.16874,14.33749 4.51365,2.38958 m 0,0 2.65509,-16.72707 14.603,-27.34743 22.03725,13.54096 -19.11665,9.82383 10.08934,8.23078 m 0,0 5.31018,-7.16874 2.9206,15.93054 -16.19605,-1.06203 6.37222,8.49628 -15.13402,1.06204 6.37222,6.37222 8.7618,-7.43426 9.82383,-7.43425 3.18611,-16.19605 m -2.38958,-10.62036 2.38958,10.62036 m -46.19857,17.5236 -13.00994,3.18611 1.32754,-10.88588"
         id="path4573-1"
         inkscape:connector-curvature="0" />
      <flowRoot
         xml:space="preserve"
         id="flowRoot16420"
         style="font-size:43.04400635px;font-style:normal;font-weight:normal;line-height:125%;letter-spacing:-2.96000004px;word-spacing:0px;fill:#000000;fill-opacity:1;stroke:none;font-family:Sans"
         transform="matrix(0.37171262,0,0,0.37171262,353.76425,556.38002)"><flowRegion
           id="flowRegion16422"><rect
             id="rect16424"
             width="278.57144"
             height="222.85715"
             x="634.28571"
             y="-252.92386"
             style="font-size:43.04400635px" /></flowRegion><flowPara
           id="flowPara16426">a)</flowPara></flowRoot>    </g>
    <g
       transform="matrix(2,0,0,2,-921.184,-538.35874)"
       id="g4703">
      <g
         id="g4699">
        <path
           inkscape:connector-curvature="0"
           id="path4573-1-2"
           d="m 913.79519,431.46607 -10.35485,-7.96527 -7.43425,-8.23078 m -3.71713,40.88839 -4.51365,-4.24815 m -18.85114,0.79653 -2.12407,-8.23078 15.66503,-8.23078 m -98.50384,7.96528 9.55832,7.69975 5.8412,-2.38958 m -3.98263,29.73701 22.56826,0 m 67.97031,-16.19605 -24.95785,14.07198 -1.59305,-18.05461 m -20.97521,6.63772 9.29281,6.37222 11.6824,-13.00994 m -10.35485,-27.61294 -3.71713,10.88587 6.10671,-0.26551 m 28.40946,-24.16132 -30.79904,13.54096 m 64.78419,0 -21.50623,24.69234 -6.37221,6.90323 m -27.34743,-24.42682 -7.16874,3.45161 m -59.20851,20.70971 3.18611,16.46155 m -34.25067,-68.50132 11.94791,38.4988 10.88587,-5.04466 m -10.88587,5.04466 9.29281,18.58563 m 1.59306,-88.14899 2.38958,12.74444 11.15138,-12.21342 -13.54096,-0.53102 -13.54096,-1.85856 -9.29282,32.92312 32.92312,0 -10.08934,33.45414 m 5.57569,-71.15642 -19.11665,4.77916 m 37.96779,29.20599 -14.33749,3.71713 0.79653,-17.78911 m -0.79653,17.78911 14.33749,-3.71713 m -28.67498,-4.24814 6.63773,-10.35485 8.49629,0.53101 m 14.33749,6.37222 -0.79653,7.69976 m 24.16132,-10.35485 -5.57569,21.24072 m 5.57569,-21.24072 -14.33749,0.79653 -9.82383,9.55832 m 0.79653,-7.69976 -14.33749,-6.37222 2.65509,-12.74443 12.47892,9.29282 m -15.13401,3.45161 15.13401,-3.45161 m -12.47892,-9.29282 8.7618,-9.55832 3.71712,18.85114 6.90323,0.79653 m 1.32755,7.16874 8.7618,20.44419 m 21.50623,-24.16132 -2.65509,16.72707 m 16.46155,-36.90576 -6.37221,-8.23078 m 36.37473,90.80409 2.9206,-11.9479 m -39.29533,-78.85619 48.94048,13.05588 m 8.94048,53.05587 -11.9479,2.12407 m -3.71713,-4.77916 5.31018,-5.31018 m -5.31018,5.31018 3.71713,4.77916 1.59305,-10.08934 1.41437,-45.0906 m -22.38958,57.83503 11.6824,1.85856 7.69976,-4.51365 -6.63773,10.62037 -1.06203,-6.10672 m -7.96527,-20.44419 -6.37222,0.26551 -1.06204,-8.7618 7.43426,8.49629 1.32754,11.41689 2.65509,1.59305 m -6.10671,2.65509 6.10671,-2.65509 3.98264,7.43425 m -6.63773,-9.0273 -3.45162,4.24814 m -51.50874,-36.64024 13.27545,13.80647 3.18611,20.97521 m -51.50875,-51.24324 -7.96527,-7.16874 m 29.4715,-9.55833 -7.16874,3.71713 m 0,0 -5.57569,3.45162 m 16.99257,4.51365 -11.41688,-7.96527 -22.30276,5.8412 16.72707,-2.38958 16.99257,4.51365 m 18.58563,-6.63773 2.9206,14.603 m -21.50623,-7.96527 2.38958,14.8685 -8.7618,0.26552 1.32755,7.16874 m 16.46156,-30.26803 -11.41689,7.96527 -13.27545,14.33749 -0.79652,9.82383 m 29.20599,-13.27545 -12.74444,3.98263 m 30.26803,-24.69234 -14.07198,3.18611 -3.45161,17.5236 -5.8412,10.62036 -6.90324,-6.63773 -7.43425,7.43426 m -28.67497,-24.42683 -5.57569,6.63772 -7.43426,9.02731 -6.1067,-10.88587 48.58815,-14.33749 m -29.4715,9.55833 29.4715,-9.55833 m 15.66503,3.71713 -15.66503,-3.71713 4.24814,11.6824 m -6.37222,15.13402 6.37222,-15.13402 15.13402,10.88587 m -19.38216,-22.56827 36.90575,1.85856 m -14.07198,3.18611 -7.16874,-1.32754 m 21.24072,-1.85857 -0.26551,18.58564 m -10.88587,-0.79653 10.88587,0.79653 m -7.16874,9.82383 7.16874,-9.82383 m -17.25808,2.12407 6.37221,-2.9206 m 3.71713,10.62036 -3.71713,-10.62036 11.15138,-17.78911 -21.24072,1.85857 3.71713,18.85114 10.08934,7.69976 m 8.23078,4.51366 -8.23078,-4.51366 -15.93054,2.9206 m 23.09928,-12.74443 9.29281,8.23078 m -2.65509,-18.58564 -6.63772,10.35486 1.06204,14.33749 m 39.29533,16.99257 -9.82383,2.38958 3.98263,13.00994 5.8412,-15.39952 2.12407,13.54096 -7.96527,1.85856 m -25.22336,-38.4988 -8.23077,6.10671 m 22.03724,10.88586 -22.03724,-10.88586 -10.88587,12.21341 m 32.92311,-1.32755 -13.80647,-16.99257 m -2.65509,-18.58564 2.65509,18.58564 39.91318,-13.76054 8.94048,53.05587 m -51.50875,-57.88097 42.56827,4.8251 m -25.04467,39.51491 -33.98515,-7.43425 32.92311,-1.32755 m 26.10671,-30.75311 -8.84862,36.85982 -17.25809,-6.10671 26.10671,-30.75311 m -26.63773,51.72832 9.29282,-1.06203 -7.69976,-11.15138 -1.59306,12.21341 m -29.20598,1.32755 9.55832,7.16875 m -78.85618,-35.84372 14.33749,7.96527 m -32.92312,0 15.39952,-22.03725 9.82384,3.71713 7.69976,18.32012 m 18.32012,34.51617 -13.00994,4.24814 -5.31018,-38.76431 m 29.20599,56.0224 -2.9206,-18.32012 9.55833,-7.16875 -17.5236,3.98264 -18.32012,-34.51617 15.13402,-11.41689 9.0273,-1.85856 m 1.06204,78.59066 3.98263,-9.29281 m -6.63772,0.79653 2.65509,8.49628 10.35485,-2.92059 m 0.26551,-31.86109 2.12407,15.93055 m -19.64767,-11.94791 7.96527,3.18611 11.6824,8.7618 m -14.07198,22.03724 1.32755,-3.18611 -16.99258,-4.77916 14.33749,-3.71712 6.63772,-0.79653 8.7618,-9.55832 m 16.19605,1.06203 -8.23078,-8.7618 -7.96527,7.69977 m -29.73701,14.07197 -6.90323,7.96527 -13.00995,-11.41689 9.82384,-5.04466 10.08934,8.49628 15.66503,7.96527 11.6824,-6.1067 m -11.6824,6.1067 43.01246,-2.12407 m -31.33006,-3.98263 31.33006,3.98263 m -31.33006,-3.98263 18.05461,-1.06204 13.27545,5.04467 9.29281,-6.63772 m 15.66504,-7.43426 -15.66504,7.43426 m 7.69977,-6.63773 0.79652,-12.47892 m -11.9479,-6.90324 -8.23078,-5.84119 19.64766,-8.4963 m -11.41688,14.33749 11.41688,-14.33749 4.24815,6.10671 m -15.66503,8.23078 11.9479,6.90324 3.71713,-15.13402 m -33.45413,-4.77916 29.20598,-1.32755 5.8412,3.18611 10.08935,4.77916 3.98263,-9.29281 m -50.44671,43.27797 0.53102,-13.80647 11.15138,0.79653 -7.96527,-16.99258 m 15.39952,2.38958 -15.39952,-2.38958 13.54095,14.07198 m 0,0 3.98264,-3.45162 m -9.55832,6.37222 10.88586,11.41689 -5.31018,-14.33749 1.85857,-11.6824 m 11.15138,19.38216 -9.02731,-11.15138 9.82383,-1.32754 m -0.79652,12.47892 7.96527,-0.79653 m -1.85857,-29.73701 -1.59305,2.9206 m 12.74443,7.96528 -7.43425,7.69975 -5.31018,-15.66503 12.74443,7.96528 m 18.58563,-12.74444 -18.58563,12.74444 m -7.43425,7.69975 -1.85856,11.15138 -7.16875,-11.68239 9.02731,0.53101 m -28.40946,7.16875 5.57568,-2.9206 13.00995,7.69976 -7.69977,6.63773 m -93.72468,-81.77678 3.18611,14.07198 -18.58563,7.96527 22.83378,33.45414 m 61.8636,-33.71965 -18.85114,7.43425 2.9206,23.36479 15.39952,1.06204 m -51.77426,9.55832 -11.15138,15.93054 1.59306,-23.63029 15.39952,5.31017 m 3.98263,1.85857 -3.98263,-1.85857 m 3.98263,1.85857 1.85857,8.23078 -2.9206,11.68239 m 7.43425,-9.29281 -7.43425,9.29281 m 10.08934,-26.01988 -9.02731,6.10671 m 6.37222,10.62036 10.62036,-13.54096 -3.71712,19.11665 -6.90324,-5.57569 -6.37222,-10.62036 -9.82383,0.53101 11.6824,7.69977 m 21.77174,-41.68492 -18.58563,-10.88587 3.98263,38.2333 m -7.16874,14.33749 4.51365,2.38958 m 0,0 2.65509,-16.72707 14.603,-27.34743 22.03725,13.54096 -19.11665,9.82383 10.08934,8.23078 m 0,0 5.31018,-7.16874 2.9206,15.93054 -16.19605,-1.06203 6.37222,8.49628 -15.13402,1.06204 6.37222,6.37222 8.7618,-7.43426 9.82383,-7.43425 3.18611,-16.19605 m -2.38958,-10.62036 2.38958,10.62036 m -46.19857,17.5236 -13.00994,3.18611 1.32754,-10.88588"
           style="fill:none;stroke:#c4c4c4;stroke-width:0.5;stroke-linecap:butt;stroke-linejoin:miter;stroke-miterlimit:4;stroke-opacity:1;stroke-dasharray:none;marker-start:url(#DotM8B);marker-mid:url(#DotML);marker-end:url(#DotMj)"
           sodipodi:nodetypes="cccccccccccccccccccccccccccccccccccccccccccccccccccccccccccccccccccccccccccccccccccccccccccccccccccccccccccccccccccccccccccccccccccccccccccccccccccccccccccccccccccccccccccccccccccccccccccccccccccccccccccccccccccccccccccccccccccccccccccccccccccccccccccccccccccccccccccccccccccccccccccccccccccccccccccccccccccccccccccccccccccccccccccccccccccccccccccccccccccccccccccc" />
        <path
           sodipodi:nodetypes="cccccccccccccc"
           style="fill:none;stroke:#000000;stroke-width:0.5;stroke-linecap:butt;stroke-linejoin:miter;stroke-miterlimit:4;stroke-opacity:1;stroke-dasharray:none;marker-start:url(#DotM);marker-mid:url(#DotM);marker-end:url(#DotM)"
           d="m 855.90253,365.37247 -36.90575,-1.85857 -48.58817,14.33749 -9.29282,32.92312 11.94791,38.4988 9.29281,18.58564 13.00994,11.41688 22.56828,0 43.01246,-2.12407 24.95787,-14.07198 6.37219,-6.90323 21.50625,-24.69234 -8.94049,-53.05587 z"
           id="path5180-1"
           inkscape:connector-curvature="0" />
      </g>
      <flowRoot
         xml:space="preserve"
         id="flowRoot16420-2"
         style="font-size:43.04400635px;font-style:normal;font-weight:normal;line-height:125%;letter-spacing:-2.96000004px;word-spacing:0px;fill:#000000;fill-opacity:1;stroke:none;font-family:Sans"
         transform="matrix(0.37171262,0,0,0.37171262,523.14808,556.38002)"><flowRegion
           id="flowRegion16422-5"><rect
             id="rect16424-3"
             width="278.57144"
             height="222.85715"
             x="634.28571"
             y="-252.92386"
             style="font-size:43.04400635px" /></flowRegion><flowPara
           id="flowPara16426-8">b)</flowPara></flowRoot>    </g>
    <g
       id="g5148"
       transform="matrix(2,0,0,2,-1605.593,281.61356)">
      <g
         style="stroke-width:1.3451252;stroke-miterlimit:4;stroke-dasharray:none"
         id="g6445"
         transform="matrix(0.37171262,0,0,0.37171262,561.06022,338.26726)">
        <path
           sodipodi:type="arc"
           style="fill:none;stroke:#8989ff;stroke-width:1.5661552;stroke-linecap:round;stroke-linejoin:miter;stroke-miterlimit:4;stroke-opacity:1;stroke-dasharray:none;stroke-dashoffset:0"
           id="path5566"
           sodipodi:cx="531.78571"
           sodipodi:cy="613.07648"
           sodipodi:rx="44.285713"
           sodipodi:ry="44.285713"
           d="m 576.07142,613.07648 c 0,24.45832 -19.82739,44.28571 -44.28571,44.28571 -24.45833,0 -44.28572,-19.82739 -44.28572,-44.28571 0,-24.45833 19.82739,-44.28572 44.28572,-44.28572 24.45832,0 44.28571,19.82739 44.28571,44.28572 z"
           transform="matrix(0.85887096,0,0,0.85887096,581.21953,-317.51091)" />
        <path
           transform="matrix(0.85887096,0,0,0.85887096,599.14974,-315.4906)"
           d="m 576.07142,613.07648 c 0,24.45832 -19.82739,44.28571 -44.28571,44.28571 -24.45833,0 -44.28572,-19.82739 -44.28572,-44.28571 0,-24.45833 19.82739,-44.28572 44.28572,-44.28572 24.45832,0 44.28571,19.82739 44.28571,44.28572 z"
           sodipodi:ry="44.285713"
           sodipodi:rx="44.285713"
           sodipodi:cy="613.07648"
           sodipodi:cx="531.78571"
           id="path6242"
           style="fill:none;stroke:#8989ff;stroke-width:1.5661552;stroke-linecap:round;stroke-linejoin:miter;stroke-miterlimit:4;stroke-opacity:1;stroke-dasharray:none;stroke-dashoffset:0"
           sodipodi:type="arc" />
        <path
           sodipodi:type="arc"
           style="fill:none;stroke:#8989ff;stroke-width:1.5661552;stroke-linecap:round;stroke-linejoin:miter;stroke-miterlimit:4;stroke-opacity:1;stroke-dasharray:none;stroke-dashoffset:0"
           id="path6244"
           sodipodi:cx="531.78571"
           sodipodi:cy="613.07648"
           sodipodi:rx="44.285713"
           sodipodi:ry="44.285713"
           d="m 576.07142,613.07648 c 0,24.45832 -19.82739,44.28571 -44.28571,44.28571 -24.45833,0 -44.28572,-19.82739 -44.28572,-44.28571 0,-24.45833 19.82739,-44.28572 44.28572,-44.28572 24.45832,0 44.28571,19.82739 44.28571,44.28572 z"
           transform="matrix(0.85887096,0,0,0.85887096,661.27412,-305.13654)" />
        <path
           transform="matrix(0.85887096,0,0,0.85887096,684.00255,-305.64162)"
           d="m 576.07142,613.07648 c 0,24.45832 -19.82739,44.28571 -44.28571,44.28571 -24.45833,0 -44.28572,-19.82739 -44.28572,-44.28571 0,-24.45833 19.82739,-44.28572 44.28572,-44.28572 24.45832,0 44.28571,19.82739 44.28571,44.28572 z"
           sodipodi:ry="44.285713"
           sodipodi:rx="44.285713"
           sodipodi:cy="613.07648"
           sodipodi:cx="531.78571"
           id="path6246"
           style="fill:none;stroke:#8989ff;stroke-width:1.5661552;stroke-linecap:round;stroke-linejoin:miter;stroke-miterlimit:4;stroke-opacity:1;stroke-dasharray:none;stroke-dashoffset:0"
           sodipodi:type="arc" />
        <path
           sodipodi:type="arc"
           style="fill:none;stroke:#8989ff;stroke-width:1.5661552;stroke-linecap:round;stroke-linejoin:miter;stroke-miterlimit:4;stroke-opacity:1;stroke-dasharray:none;stroke-dashoffset:0"
           id="path6248"
           sodipodi:cx="531.78571"
           sodipodi:cy="613.07648"
           sodipodi:rx="44.285713"
           sodipodi:ry="44.285713"
           d="m 576.07142,613.07648 c 0,24.45832 -19.82739,44.28571 -44.28571,44.28571 -24.45833,0 -44.28572,-19.82739 -44.28572,-44.28571 0,-24.45833 19.82739,-44.28572 44.28572,-44.28572 24.45832,0 44.28571,19.82739 44.28571,44.28572 z"
           transform="matrix(0.85887096,0,0,0.85887096,801.93786,-308.41954)" />
        <g
           style="stroke-width:1.3451252;stroke-miterlimit:4;stroke-dasharray:none"
           id="g6435">
          <path
             inkscape:connector-curvature="0"
             id="path5564"
             d="m 1412.2171,250.77114 -27.8571,-21.42857 -20,-22.14286 m -10,110 -12.1429,-11.42857 m -50.7143,2.14286 -5.7143,-22.14286 42.1429,-22.14286 m -265,21.42858 25.7143,20.71428 15.7143,-6.42857 m -10.7143,80 60.7143,0 m 115.7142,-5.71429 -4.2857,-48.57142 m -56.4285,17.85714 25,17.14286 31.4285,-35 m -27.8571,-74.28572 -10,29.28572 16.4286,-0.71429 m 110,37.85714 -17.1429,18.57143 m -73.5714,-65.71428 -19.2857,9.28571 m -159.2858,55.71429 8.5715,44.28571 m -60,-80.71429 29.2857,-13.57142 m -29.2857,13.57142 25,50 m 4.2857,-237.14285 6.4286,34.28571 30,-32.85714 -36.4286,-1.42857 -36.4286,-5 m 51.4286,-12.85715 -51.4286,12.85715 m 102.1429,78.57143 -38.5715,10 2.1429,-47.85715 m -2.1429,47.85715 38.5715,-10 m -77.1429,-11.42858 17.8572,-27.85714 22.8571,1.42857 m 38.5714,17.14286 -2.1428,20.71429 m 65,-27.85715 -15,57.14286 m 15,-57.14286 -38.5715,2.14286 -26.4285,25.71429 m 2.1428,-20.71429 -38.5714,-17.14286 7.1429,-34.28571 33.5714,25 m -40.7143,9.28571 40.7143,-9.28571 m -33.5714,-25 23.5714,-25.71429 10,50.71429 18.5714,2.14286 m 3.5714,19.28571 23.5715,55 m 57.8571,-65 -7.1428,45 m 44.2857,-99.28572 -17.1429,-22.14286 m 97.8572,244.28572 7.8571,-32.14285 m 50,-34.28572 -32.1429,5.71429 m -10,-12.85715 14.2858,-14.28571 -4.2858,27.14286 -10,-12.85715 m -42.1428,20 31.4286,5 20.7142,-12.14285 -17.8571,28.57143 -2.8571,-16.42858 m -21.4286,-55 -17.1429,0.71429 -2.8571,-23.57143 20,22.85714 3.5714,30.71429 7.1429,4.28571 m -16.4286,7.14286 16.4286,-7.14286 10.7143,20 m -17.8572,-24.28571 -9.2857,11.42857 m -138.5714,-98.57143 35.7143,37.14286 8.5714,56.42857 M 1099.36,112.914 1077.9314,93.62828 m 79.2857,-25.71429 -19.2857,10 m 0,0 -15,9.28572 m 45.7143,12.14286 -30.7143,-21.42858 m -60,15.71429 45,-6.42857 45.7143,12.14286 m 50,-17.85715 7.8571,39.28572 m -57.8571,-21.42857 6.4285,40 -23.5714,0.71429 3.5714,19.28571 m 44.2858,-81.42858 -30.7143,21.42858 -35.7143,38.57143 -2.1429,26.42857 m 78.5715,-35.71429 -34.2858,10.71429 m 81.4286,-66.42858 -37.8571,8.57143 -9.2857,47.14286 -15.7143,28.57143 -18.5715,-17.85714 -20,20 m -77.1428,-65.71429 -15,17.85715 -20,24.28571 -16.4286,-29.28571 m 172.8572,-28.57144 -42.1429,-10 11.4286,31.42858 m -17.1429,40.71429 17.1429,-40.71429 40.7143,29.28571 m 9.2857,-47.14286 -19.2857,-3.57143 m 57.1428,-5 -0.7143,50.00001 m -29.2857,-2.14286 29.2857,2.14286 m -19.2857,26.42857 19.2857,-26.42857 m -46.4285,5.71428 17.1428,-7.85714 m 10,28.57143 -10,-28.57143 30,-47.85715 m -57.1428,5 10,50.71429 27.1428,20.71429 m 22.1429,12.14286 -22.1429,-12.14286 -42.8571,7.85714 m 62.1428,-34.28571 25,22.14286 m -7.1428,-50.00001 -17.8572,27.85715 2.8572,38.57143 m 105.7143,45.71428 -26.4286,6.42857 10.7143,35 15.7143,-41.42857 5.7142,36.42857 -21.4285,5 m -67.8572,-103.57142 -22.1428,16.42857 m 59.2857,29.28571 -59.2857,-29.28571 -29.2857,32.85714 m 88.5714,-3.57143 -37.1429,-45.71428 -7.1428,-50.00001 m 44.2857,95.71429 46.4285,16.42857 m -47.8571,40 25,-2.85714 -20.7143,-30 -4.2857,32.85714 m -78.5714,3.57143 25.7143,19.28572 m -212.1429,-96.42858 38.5714,21.42858 m -88.5714,0 41.4286,-59.28572 26.4285,10 20.7143,49.28572 m 49.2857,92.85714 -35,11.42857 m 64.2858,46.42857 -7.8572,-49.28571 25.7143,-19.28572 -47.1429,10.71429 m -49.2857,-92.85714 40.7143,-30.71429 24.2857,-5 m 2.8572,211.42857 10.7143,-25 m -17.8572,2.14286 7.1429,22.85714 27.8571,-7.85714 m 0.7143,-85.71429 5.7143,42.85715 M 1139.36,287.914 l 21.4285,8.57143 31.4286,23.57143 m -37.8571,59.28571 3.5714,-8.57143 -45.7143,-12.85714 38.5714,-10 17.8572,-2.14286 23.5714,-25.71428 m 43.5714,2.85714 -22.1428,-23.57143 -21.4286,20.71429 m -80,37.85714 -18.5714,21.42857 -35,-30.71429 26.4285,-13.57142 27.1429,22.85714 42.1429,21.42857 31.4285,-16.42857 m 0,0 48.5715,-2.85714 35.7142,13.57142 25,-17.85714 m 20.7143,-17.85714 2.1429,-33.57143 m -32.1429,-18.57143 -22.1428,-15.71428 52.8571,-22.85715 m -30.7143,38.57143 30.7143,-38.57143 11.4286,16.42857 m -42.1429,22.14286 32.1429,18.57143 10,-40.71429 m -90,-12.85714 78.5714,-3.57143 15.7143,8.57143 27.1429,12.85714 10.7142,-25 m -135.7142,116.42858 1.4285,-37.14286 30,2.14286 -21.4285,-45.71429 m 41.4285,6.42857 -41.4285,-6.42857 36.4285,37.85714 m 0,0 10.7143,-9.28571 m -25.7143,17.14286 29.2857,30.71428 -14.2857,-38.57143 5,-31.42857 m 30,52.14286 -24.2857,-30 26.4286,-3.57143 m -2.1429,33.57143 21.4286,-2.14286 m -5,-80 -4.2857,7.85714 m 34.2857,21.42858 -20,20.71428 -14.2857,-42.14286 34.2857,21.42858 m -20,20.71428 -5,30 -19.2857,-31.42857 24.2857,1.42857 m -76.4286,19.28572 15,-7.85715 35,20.71429 -20.7143,17.85714 m -252.1428,-220 8.5714,37.85714 -50,21.42858 m 227.8572,-0.71429 -50.7143,20 7.8571,62.85714 41.4286,2.85715 m -139.2857,25.71428 -30,42.85714 4.2857,-63.57142 41.4286,14.28571 m 10.7142,5 -10.7142,-5 m 10.7142,5 5,22.14286 -7.8571,31.42857 m 20,-25 -20,25 m 27.1429,-70 -24.2858,16.42857 m 17.1429,28.57143 28.5714,-36.42857 -10,51.42857 -18.5714,-15 -17.1429,-28.57143 -26.4285,1.42857 31.4285,20.71429 m 58.5715,-112.14286 -50,-29.28571 m -8.5715,141.42857 12.1429,6.42857 m 0,0 7.1429,-45 m 39.2857,-73.57143 59.2857,36.42857 -51.4286,26.42857 27.1429,22.14286 m 0,0 14.2857,-19.28571 7.8571,42.85714 -43.5714,-2.85714 17.1429,22.85714 -40.7143,2.85714 17.1428,17.14286 23.5715,-20 26.4285,-20 8.5715,-43.57143 m -6.4286,-28.57143 6.4286,28.57143 m -124.2858,47.14286 -35,8.57143 3.5715,-29.28572"
             style="fill:none;stroke:#c4c4c4;stroke-width:1.3451252;stroke-linecap:butt;stroke-linejoin:miter;stroke-miterlimit:4;stroke-opacity:1;stroke-dasharray:none;marker-start:url(#DotM3zKi);marker-mid:url(#DotMV9aE);marker-end:url(#DotM8DCP)"
             sodipodi:nodetypes="cccccccccccccccccccccccccccccccccccccccccccccccccccccccccccccccccccccccccccccccccccccccccccccccccccccccccccccccccccccccccccccccccccccccccccccccccccccccccccccccccccccccccccccccccccccccccccccccccccccccccccccccccccccccccccccccccccccccccccccccccccccccccccccccccccccccccccccccccccccccccccccccccccccccccccccccccccccccccccccccccccccc" />
          <path
             sodipodi:nodetypes="ccccccccccccccccccccccccccccccccccccccccccccccccccccccccccccccccccccccccccccccccccc"
             style="fill:none;stroke:#000000;stroke-width:1.3451252;stroke-linecap:butt;stroke-linejoin:miter;stroke-miterlimit:4;stroke-opacity:1;stroke-dasharray:none;marker-start:url(#DotM);marker-mid:url(#DotM);marker-end:url(#DotM)"
             d="m 1412.2171,250.77125 -27.8571,-21.42857 -20,-22.14286 m -270.7143,172.14284 60.7143,0 m 200,-62.1428 -17.1429,18.5714 m -303.5714,-37.1429 29.2857,-13.5714 m -29.2857,13.5714 25,50 m 19.2857,-254.99997 -51.4286,12.85715 m 102.1429,78.57143 -38.5715,10 m 0,0 38.5715,-10 m 145,-90.00001 -17.1429,-22.14286 m 97.8572,244.28576 7.8571,-32.1429 m 50,-34.28571 -32.1429,5.71431 m 0,0 -17.8571,28.5714 m -41.4286,-70.71428 -2.8571,-23.57143 m -88.5714,3.57143 8.5714,56.42857 m -80.7143,-182.85715 -19.2857,10 m 0,0 -15,9.28572 m -45,6.42857 45,-6.42857 m 133.5714,-14.28572 -37.8571,8.57143 m -175.7143,54.28572 -16.4286,-29.28571 M 1199.36,77.9141 l -42.1429,-10 m 61.4286,13.57143 -19.2857,-3.57143 m 118.5714,112.85715 -59.2857,-29.28571 -29.2857,32.85714 m 88.5714,-3.57143 -37.1429,-45.71428 -7.1428,-50.00001 m 44.2857,95.71429 46.4286,16.42857 m -43.5715,7.14286 -4.2857,32.85714 m -265,-73.57143 38.5714,21.42858 m -88.5714,0 41.4286,-59.28572 m 96.4286,152.14291 -35,11.4285 m 82.1428,-22.1428 -47.1428,10.7143 m -45.7143,91.4285 -35,-30.7143 m 95.7143,30.7143 31.4285,-16.4285 m 0,0 48.5715,-2.8572 35.7142,13.5714 25,-17.8571 m -57.1428,-105.00001 78.5714,-3.57143 m -0.7143,90.71434 21.4286,-2.1429 m -21.4286,2.1429 -20.7143,17.8571 m -243.5714,-182.14287 -50,21.42858 m 177.1429,19.28571 7.8571,62.85718 m -123.5714,7.8571 41.4286,14.2857 m 74.2857,-84.99998 -50,-29.28571"
             id="path5568"
             inkscape:connector-curvature="0" />
        </g>
      </g>
      <flowRoot
         xml:space="preserve"
         id="flowRoot16420-3"
         style="font-size:43.04400635px;font-style:normal;font-weight:normal;line-height:125%;letter-spacing:-2.96000004px;word-spacing:0px;fill:#000000;fill-opacity:1;stroke:none;font-family:Sans"
         transform="matrix(0.37171262,0,0,0.37171262,695.54188,556.38002)"><flowRegion
           id="flowRegion16422-9"><rect
             id="rect16424-0"
             width="278.57144"
             height="222.85715"
             x="634.28571"
             y="-252.92386"
             style="font-size:43.04400635px" /></flowRegion><flowPara
           id="flowPara16426-2">c)</flowPara></flowRoot>    </g>
    <g
       transform="matrix(2,0,0,2,-1599.0889,-278.3366)"
       id="g4729">
      <g
         id="g4725">
        <path
           inkscape:connector-curvature="0"
           id="path4573-1-2-2"
           d="m 1252.7477,431.47098 -10.3549,-7.96527 -7.4342,-8.23078 m -112.0448,28.94049 15.3995,5.31017 m -3.9827,29.73701 22.5683,0 m 67.9703,-16.19605 -24.9578,14.07198 m 18.8511,-59.20851 -30.799,13.54096 m 64.7842,0 -21.5063,24.69234 -6.3722,6.90323 m -124.7892,-52.30527 11.9479,38.4988 10.8859,-5.04466 m -10.8859,5.04466 9.2928,18.58563 m -11.9479,-90.00755 -9.2928,32.92312 32.9231,0 -10.0893,33.45414 m 5.5756,-71.15642 -19.1166,4.77916 m 37.9678,29.20599 -14.3375,3.71713 m 0,0 14.3375,-3.71713 m 53.8983,-33.45414 -6.3722,-8.23078 m 36.3747,90.80409 2.9206,-11.9479 m -39.2953,-78.85619 48.9405,13.05588 m 8.9405,53.05587 -11.9479,2.12407 m 1.593,-10.08934 1.4144,-45.0906 m -3.0074,55.17994 -6.6378,10.62037 m -15.3995,-26.2854 -1.062,-8.7618 m -32.9231,1.32755 3.1861,20.97521 m -30.0026,-67.97031 -7.1687,3.71713 m 0,0 -5.5757,3.45162 m 5.5757,-3.45162 -22.3028,5.8412 16.7271,-2.38958 m 49.6502,-5.31019 -14.072,3.18611 m -65.3152,20.17869 -6.1067,-10.88587 48.5881,-14.33749 m -29.4715,9.55833 29.4715,-9.55833 m 15.6651,3.71713 -15.6651,-3.71713 m 0,0 36.9058,1.85856 m -14.072,3.18611 -7.1687,-1.32754 m 21.2407,-1.85857 -21.2407,1.85857 m 61.3326,48.05713 0,0 m -17.2581,-6.10671 -22.0373,-10.88586 -10.8858,12.21341 m 32.9231,-1.32755 -13.8065,-16.99257 m -2.6551,-18.58564 2.6551,18.58564 39.9132,-13.76054 8.9405,53.05587 m -51.5088,-57.88097 42.5683,4.8251 m -25.0447,39.51491 -33.9851,-7.43425 32.9231,-1.32755 m 26.1067,-30.75311 -8.8486,36.85982 -17.2581,-6.10671 26.1067,-30.75311 m -26.6378,51.72832 1.5931,-12.21341 -1.5931,12.21341 m -98.5038,-27.34742 14.3375,7.96527 m -32.9231,0 15.3995,-22.03725 m 35.8437,56.55342 -13.0099,4.24814 -5.3102,-38.76431 m 35.8437,30.53353 -17.5236,3.98264 -18.3201,-34.51617 m 1.3275,68.50132 -13.0099,-11.41689 m 35.5782,11.41689 11.6824,-6.1067 m -11.6824,6.1067 43.0125,-2.12407 m -31.3301,-3.98263 31.3301,3.98263 m -31.3301,-3.98263 18.0546,-1.06204 13.2755,5.04467 9.2928,-6.63772 m 15.665,-7.43426 -15.665,7.43426 m -21.2407,-39.02983 29.2059,-1.32755 m -0.2655,33.71965 7.9653,-0.79653 m 9.2928,-18.85113 0,0 m 18.5857,-12.74444 -18.5857,12.74444 m -17.2581,19.64766 -7.6997,6.63773 m -90.5386,-67.7048 -18.5856,7.96527 22.8338,33.45414 m 43.0124,-26.2854 2.9206,23.36479 m -45.933,2.92061 15.3995,5.31017 m 27.6129,-31.59557 -18.5856,-10.88587 3.9826,38.2333 m 0,0 14.603,-27.34743"
           style="fill:none;stroke:#c4c4c4;stroke-width:0.5;stroke-linecap:butt;stroke-linejoin:miter;stroke-miterlimit:4;stroke-opacity:1;stroke-dasharray:none;marker-start:url(#DotM8B);marker-mid:url(#DotML);marker-end:url(#DotMj)"
           sodipodi:nodetypes="cccccccccccccccccccccccccccccccccccccccccccccccccccccccccccccccccccccccccccccccccccccccccccccccccccccccccccccccccccccccccccccccccccccccc" />
        <path
           inkscape:connector-curvature="0"
           id="path5568-0"
           d="m 1252.7471,431.47657 -10.3549,-7.96527 -7.4342,-8.23078 m -100.6279,63.98766 22.5682,0 m 74.3426,-23.09926 -6.3723,6.90322 m -112.8413,-13.80648 10.8859,-5.04466 m -10.8859,5.04466 9.2928,18.58563 m 7.1688,-94.78671 -19.1167,4.77917 m 37.9678,29.20599 -14.3375,3.71713 m 0,0 14.3375,-3.71713 m 53.8983,-33.45414 -6.3722,-8.23078 m 36.3748,90.8041 2.9205,-11.94792 m 18.5857,-12.74443 -11.9479,2.12408 m 0,0 -6.6378,10.62035 m -15.3995,-26.28539 -1.062,-8.7618 m -32.9231,1.32755 3.1861,20.97521 m -30.0025,-67.97031 -7.1688,3.71712 m 0,0 -5.5757,3.45162 m -16.727,2.38958 16.727,-2.38958 m 49.6502,-5.31018 -14.072,3.18611 m -65.3152,20.17869 -6.1067,-10.88587 m 64.2532,-10.62037 -15.665,-3.71712 m 22.8337,5.04467 -7.1687,-1.32755 m 44.0745,41.95043 -22.0372,-10.88587 -10.8859,12.21342 m 32.9231,-1.32755 -13.8065,-16.99257 -2.6551,-18.58564 m 16.4616,35.57821 17.2581,6.10671 m -16.1961,2.65509 -1.593,12.21341 m -98.5039,-27.34743 14.3375,7.96528 m -32.9231,0 15.3995,-22.03725 m 35.8438,56.55344 -13.01,4.24811 m 30.5335,-8.23075 -17.5235,3.98264 m -16.9926,33.98512 -13.01,-11.41689 m 35.5782,11.41689 11.6824,-6.10668 m 0,0 18.0546,-1.06205 13.2755,5.04466 9.2928,-6.63771 m -21.2407,-39.02983 29.206,-1.32755 m -0.2655,33.71967 7.9652,-0.79655 m -7.9652,0.79655 -7.6998,6.63771 m -90.5386,-67.70481 -18.5856,7.96528 m 65.8462,7.16874 2.9206,23.36481 m -45.933,2.92058 15.3995,5.31017 m 27.6129,-31.59556 -18.5856,-10.88587"
           style="fill:none;stroke:#000000;stroke-width:0.5;stroke-linecap:butt;stroke-linejoin:miter;stroke-miterlimit:4;stroke-opacity:1;stroke-dasharray:none;marker-start:url(#DotM);marker-mid:url(#DotM);marker-end:url(#DotM)"
           sodipodi:nodetypes="ccccccccccccccccccccccccccccccccccccccccccccccccccccccccccccccccccccccccccccccccccc" />
      </g>
      <flowRoot
         transform="matrix(0.37171262,0,0,0.37171262,862.28985,556.36895)"
         style="font-size:43.04400635px;font-style:normal;font-weight:normal;line-height:125%;letter-spacing:-2.96000004px;word-spacing:0px;fill:#000000;fill-opacity:1;stroke:none;font-family:Sans"
         id="flowRoot16420-3-5"
         xml:space="preserve"><flowRegion
           id="flowRegion16422-9-3"><rect
             style="font-size:43.04400635px"
             y="-252.92386"
             x="634.28571"
             height="222.85715"
             width="278.57144"
             id="rect16424-0-6" /></flowRegion><flowPara
           id="flowPara16426-2-2">d)</flowPara></flowRoot>    </g>
    <flowRoot
       transform="matrix(0.74342524,0,0,0.74342524,125.8814,1394.3736)"
       style="font-size:43.04400635px;font-style:normal;font-weight:normal;line-height:125%;letter-spacing:-2.96000004px;word-spacing:0px;fill:#000000;fill-opacity:1;stroke:none;font-family:Sans"
       id="flowRoot16420-3-5-8"
       xml:space="preserve"><flowRegion
         id="flowRegion16422-9-3-2"><rect
           style="font-size:43.04400635px"
           y="-252.92386"
           x="634.28571"
           height="222.85715"
           width="278.57144"
           id="rect16424-0-6-6" /></flowRegion><flowPara
         id="flowPara16426-2-2-7">z)</flowPara></flowRoot>    <path
       transform="matrix(0.63850634,0,0,0.63850634,436.01472,759.7137)"
       d="m 576.07142,613.07648 a 44.285713,44.285713 0 1 1 -88.57143,0 44.285713,44.285713 0 1 1 88.57143,0 z"
       sodipodi:ry="44.285713"
       sodipodi:rx="44.285713"
       sodipodi:cy="613.07648"
       sodipodi:cx="531.78571"
       id="path6242-1-3"
       style="fill:#454545;fill-opacity:0.16371681;stroke:#8989ff;stroke-width:1.5661552;stroke-linecap:round;stroke-linejoin:miter;stroke-miterlimit:4;stroke-opacity:1;stroke-dasharray:none;stroke-dashoffset:0"
       sodipodi:type="arc" />
    <g
       id="g5196"
       transform="matrix(2,0,0,2,-1600.1247,-278.35874)">
      <flowRoot
         xml:space="preserve"
         id="flowRoot16420-3-6"
         style="font-size:43.04400635px;font-style:normal;font-weight:normal;line-height:125%;letter-spacing:-2.96000004px;word-spacing:0px;fill:#000000;fill-opacity:1;stroke:none;font-family:Sans"
         transform="matrix(0.37171262,0,0,0.37171262,692.80773,556.38002)"><flowRegion
           id="flowRegion16422-9-7"><rect
             id="rect16424-0-2"
             width="278.57144"
             height="222.85715"
             x="634.28571"
             y="-252.92386"
             style="font-size:43.04400635px" /></flowRegion><flowPara
           id="flowPara16426-2-23">c)</flowPara></flowRoot>      <g
         id="g5179">
        <path
           inkscape:connector-curvature="0"
           id="path6441"
           d="m 1083.265,431.48206 -10.3548,-7.96527 -7.4343,-8.23078 m -3.7171,40.88839 -4.5137,-4.24815 m -18.8511,0.79653 -2.1241,-8.23078 15.6651,-8.23078 m -98.50391,7.96527 9.55833,7.69976 5.8412,-2.38958 m -3.98264,29.73701 22.56827,0 m 43.01245,-2.12407 -1.593,-18.05461 m -20.9752,6.63772 9.2928,6.37222 11.6824,-13.00994 m -10.3549,-27.61294 -3.7171,10.88587 6.1067,-0.26551 m 40.8884,14.07198 -6.3722,6.90323 m -27.3474,-24.42683 -7.1688,3.45162 m -59.20856,20.7097 3.18614,16.46156 m -22.30276,-30.00252 10.88587,-5.04467 m -10.88587,5.04467 9.29282,18.58563 m 1.59305,-88.14899 2.38959,12.74443 11.15138,-12.21341 -13.54097,-0.53102 -13.54097,-1.85856 m 19.11665,-4.77917 -19.11665,4.77917 m 37.9678,29.20599 -14.33751,3.71713 0.79654,-17.78911 m -0.79654,17.78911 14.33751,-3.71713 m -28.67499,-4.24815 6.63775,-10.35485 8.49627,0.53102 m 14.33748,6.37222 -0.79651,7.69976 m 24.16138,-10.35485 -5.57575,21.24072 m 5.57575,-21.24072 -14.33757,0.79652 -9.82381,9.55833 m 0.79651,-7.69976 -14.33748,-6.37222 2.65511,-12.74443 12.47891,9.29281 m -15.13402,3.45162 15.13402,-3.45162 m -12.47891,-9.29281 8.76178,-9.55833 3.71713,18.85114 6.90322,0.79653 m 1.32754,7.16874 8.76182,20.4442 m 21.50625,-24.16132 -2.6551,16.72707 m 16.4616,-36.90576 -6.3722,-8.23078 m 36.3747,90.80409 2.9206,-11.94791 m 18.5856,-12.74443 -11.9479,2.12407 m -3.7171,-4.77916 5.3102,-5.31018 -1.5931,10.08934 -3.7171,-4.77916 m -15.665,7.43425 11.6824,1.85856 7.6997,-4.51365 -6.6377,10.62036 -1.062,-6.10671 m -7.9653,-20.44419 -6.3722,0.26551 -1.0621,-8.7618 7.4343,8.49629 1.3275,11.41689 2.6551,1.59305 m -6.1067,2.65509 6.1067,-2.65509 3.9827,7.43425 m -6.6378,-9.0273 -3.4516,4.24814 m -51.5087,-36.64024 13.2754,13.80647 3.1861,20.97521 m -51.50874,-51.24324 -7.96529,-7.16875 m 29.4715,-9.55832 -7.16874,3.71712 m 0,0 -5.57569,3.45162 m 16.99258,4.51366 -11.41689,-7.96528 m -22.30276,5.8412 16.72707,-2.38958 16.99258,4.51366 m 18.58568,-6.63773 2.9206,14.603 m -21.50628,-7.96527 2.38956,14.8685 -8.76179,0.26551 1.32754,7.16874 m 16.46167,-30.26803 -11.41698,7.96528 -13.27545,14.33748 -0.79654,9.82384 m 29.20607,-13.27546 -12.74452,3.98264 m 30.26812,-24.69234 -14.072,3.18611 -3.4516,17.52359 -5.8412,10.62037 -6.90332,-6.63773 -7.43425,7.43425 m -28.67496,-24.42683 -5.57568,6.63773 -7.43426,9.02731 -6.10671,-10.88587 m 64.25328,-10.62037 -15.66513,-3.71712 4.24815,11.6824 m -6.37223,15.13401 6.37223,-15.13401 15.13408,10.88586 m 3.4516,-17.52359 -7.1687,-1.32755 m 21.2407,-1.85856 -0.2656,18.58563 m -10.8858,-0.79652 10.8858,0.79652 m -7.1687,9.82384 7.1687,-9.82384 m -17.258,2.12407 6.3722,-2.92059 m 3.7171,10.62036 -3.7171,-10.62036 11.1514,-17.78911 m -21.2407,1.85856 3.7171,18.85114 10.0893,7.69977 m 8.2308,4.51365 -8.2308,-4.51365 -15.9305,2.9206 m 23.0992,-12.74444 9.2929,8.23079 m -2.6551,-18.58564 -6.6378,10.35485 1.0621,14.33749 m 39.2953,16.99258 -9.8238,2.38958 3.9826,13.00994 5.8412,-15.39952 2.1241,13.54096 -7.9653,1.85856 m -25.2233,-38.4988 -8.2308,6.1067 m 22.0372,10.88587 -22.0372,-10.88587 -10.8859,12.21342 m 32.9231,-1.32755 -13.8064,-16.99257 -2.6551,-18.58564 m 16.4615,35.57821 17.2581,6.10671 m -17.7891,14.8685 9.2928,-1.06203 -7.6997,-11.15138 -1.5931,12.21341 m -29.206,1.32755 9.5584,7.16874 m -78.85627,-35.84372 14.33748,7.96528 m -32.92311,0 15.39953,-22.03725 9.82381,3.71712 7.69977,18.32013 m 18.32011,34.51617 -13.00994,4.24814 m 23.89584,17.25809 -2.92062,-18.32012 9.55833,-7.16875 -17.52361,3.98264 m -18.32011,-34.51617 15.13402,-11.41689 9.0273,-1.85857 m 1.06205,78.59067 3.98264,-9.29281 m -6.63774,0.79652 2.6551,8.49629 10.35484,-2.9206 m 0.26551,-31.86108 2.12417,15.93054 m -19.64774,-11.9479 7.96524,3.18611 11.6825,8.76179 m -14.07205,22.03725 1.32753,-3.18611 -16.99258,-4.77916 14.33748,-3.71713 6.63774,-0.79652 8.76188,-9.55833 m 16.196,1.06204 -8.2308,-8.7618 -7.9652,7.69976 m -29.7371,14.07198 -6.90322,7.96527 -13.00994,-11.41689 9.8238,-5.04467 10.08936,8.49629 15.66505,7.96527 11.68237,-6.10671 m 0,0 18.05468,-1.06203 13.2754,5.04467 9.2928,-6.63773 m 7.6998,-6.63772 0.7965,-12.47893 m -11.9479,-6.90323 -8.2307,-5.8412 19.6476,-8.49629 m -11.4169,14.33749 11.4169,-14.33749 4.2482,6.10671 m -15.6651,8.23078 11.9479,6.90323 3.7172,-15.13401 m -33.4542,-4.77916 29.206,-1.32755 5.8412,3.18611 10.0894,4.77916 3.9826,-9.29281 m -50.4467,43.27797 0.531,-13.80647 11.1514,0.79653 -7.9653,-16.99258 m 15.3995,2.38958 -15.3995,-2.38958 13.541,14.07198 m 0,0 3.9826,-3.45162 m -9.5583,6.37222 10.8858,11.41688 -5.3101,-14.33748 1.8585,-11.6824 m 11.1514,19.38216 -9.0273,-11.15138 9.8238,-1.32755 m -0.7965,12.47893 7.9653,-0.79653 m -1.8586,-29.73701 -1.593,2.9206 m 12.7444,7.96527 -7.4343,7.69976 -5.3101,-15.66503 12.7444,7.96527 m -7.4343,7.69976 -1.8585,11.15138 -7.1688,-11.6824 9.0273,0.53102 m -28.4094,7.16875 5.5757,-2.9206 13.0099,7.69976 -7.6998,6.63772 m -93.72467,-81.77677 3.1861,14.07197 -18.58563,7.96528 m 84.6974,-0.26551 -18.85115,7.43425 2.92058,23.36479 15.39957,1.06204 m -51.77428,9.55832 -11.15138,15.93054 1.59305,-23.6303 15.39953,5.31018 m 3.9826,1.85856 -3.9826,-1.85856 m 3.9826,1.85856 1.85857,8.23078 -2.92059,11.6824 m 7.43425,-9.29281 -7.43425,9.29281 m 10.08936,-26.01988 -9.02734,6.1067 m 6.37223,10.62037 10.62035,-13.54096 -3.71712,19.11664 -6.90323,-5.57568 -6.37223,-10.62037 -9.8238,0.53102 11.68237,7.69976 m 21.77176,-41.68491 -18.58563,-10.88587 m -3.18613,52.57078 4.51366,2.38959 m 0,0 2.65511,-16.72707 m 14.60299,-27.34743 22.03725,13.54096 -19.11667,9.82383 10.08937,8.23078 m 0,0 5.3102,-7.16874 2.9206,15.93054 -16.196,-1.06204 6.3722,8.49629 -15.13408,1.06204 6.3722,6.37221 8.76188,-7.43425 9.8238,-7.43425 3.1861,-16.19605 m -2.3896,-10.62036 2.3896,10.62036 m -46.19861,17.52359 -13.00995,3.18611 1.32758,-10.88587"
           style="fill:none;stroke:#c4c4c4;stroke-width:0.5;stroke-linecap:butt;stroke-linejoin:miter;stroke-miterlimit:4;stroke-opacity:1;stroke-dasharray:none;marker-start:url(#DotM3zKi);marker-mid:url(#DotMV9aE);marker-end:url(#DotM8DCP)"
           sodipodi:nodetypes="cccccccccccccccccccccccccccccccccccccccccccccccccccccccccccccccccccccccccccccccccccccccccccccccccccccccccccccccccccccccccccccccccccccccccccccccccccccccccccccccccccccccccccccccccccccccccccccccccccccccccccccccccccccccccccccccccccccccccccccccccccccccccccccccccccccccccccccccccccccccccccccccccccccccccccccccccccccccccccccccccccccc" />
        <path
           sodipodi:nodetypes="ccccccccccccccccccccccccccccccccccccccccccccccccccccccccccccccccccccccccccccccccccc"
           style="fill:none;stroke:#000000;stroke-width:0.5;stroke-linecap:butt;stroke-linejoin:miter;stroke-miterlimit:4;stroke-opacity:1;stroke-dasharray:none;marker-start:url(#DotM);marker-mid:url(#DotM);marker-end:url(#DotM)"
           d="m 1083.265,431.48765 -10.3548,-7.96527 -7.4343,-8.23078 m -100.62792,63.98766 22.56827,0 m 74.34255,-23.09926 -6.3722,6.90322 m -112.84138,-13.80648 10.88587,-5.04466 m -10.88587,5.04466 9.29282,18.58563 m 7.16873,-94.78671 -19.11665,4.77917 m 37.9678,29.20599 -14.33751,3.71713 m 0,0 14.33751,-3.71713 m 53.89838,-33.45414 -6.3722,-8.23078 m 36.3747,90.8041 2.9206,-11.94792 m 18.5856,-12.74443 -11.9479,2.12408 m 0,0 -6.6377,10.62035 m -15.3995,-26.28539 -1.0621,-8.7618 m -32.9231,1.32755 3.1861,20.97521 m -30.00253,-67.97031 -7.16874,3.71713 m 0,0 -5.57569,3.45161 m -16.72707,2.38958 16.72707,-2.38958 m 49.65026,-5.31018 -14.072,3.18611 m -65.31527,20.17869 -6.10671,-10.88587 m 64.25328,-10.62036 -15.66513,-3.71713 m 22.83383,5.04467 -7.1687,-1.32754 m 44.0744,41.95042 -22.0372,-10.88587 -10.8859,12.21342 m 32.9231,-1.32755 -13.8064,-16.99257 -2.6551,-18.58564 m 16.4615,35.57821 17.2581,6.10671 m -16.196,2.65509 -1.5931,12.21341 m -98.50387,-27.34743 14.33748,7.96528 m -32.92311,0 15.39953,-22.03725 m 35.84373,56.55344 -13.00994,4.24811 m 30.53351,-8.23075 -17.52357,3.98264 m -16.99258,33.98512 -13.00994,-11.41689 m 35.57821,11.41689 11.68237,-6.10668 m 0,0 18.05468,-1.06205 13.2754,5.04466 9.2928,-6.63771 m -21.2407,-39.02983 29.206,-1.32755 m -0.2655,33.71967 7.9653,-0.79655 m -7.9653,0.79655 -7.6998,6.63771 m -90.53857,-67.70481 -18.58563,7.96528 m 65.84625,7.16874 2.92058,23.36481 m -45.93304,2.92058 15.39953,5.31017 m 27.61293,-31.59556 -18.58563,-10.88587"
           id="path6443"
           inkscape:connector-curvature="0" />
        <path
           sodipodi:nodetypes="cc"
           style="fill:none;stroke:#c4c4c4;stroke-width:0.5;stroke-linecap:butt;stroke-linejoin:miter;stroke-miterlimit:4;stroke-opacity:1;stroke-dasharray:none;marker-start:url(#DotMP);marker-mid:url(#DotMK);marker-end:url(#DotMx)"
           d="M 1074.3134,378.44433 z"
           id="path5180-1-3"
           inkscape:connector-curvature="0" />
      </g>
    </g>
  </g>
</svg>
