<?xml version="1.0" encoding="UTF-8" standalone="no"?>
<!-- Created with Inkscape (http://www.inkscape.org/) -->

<svg
   xmlns:dc="http://purl.org/dc/elements/1.1/"
   xmlns:cc="http://creativecommons.org/ns#"
   xmlns:rdf="http://www.w3.org/1999/02/22-rdf-syntax-ns#"
   xmlns:svg="http://www.w3.org/2000/svg"
   xmlns="http://www.w3.org/2000/svg"
   xmlns:sodipodi="http://sodipodi.sourceforge.net/DTD/sodipodi-0.dtd"
   xmlns:inkscape="http://www.inkscape.org/namespaces/inkscape"
   width="496.64835"
   height="118.04464"
   id="svg2"
   version="1.1"
   inkscape:version="0.48.4 r9939"
   sodipodi:docname="delaunay-alpha-c.svg">
  <sodipodi:namedview
     id="base"
     pagecolor="#ffffff"
     bordercolor="#666666"
     borderopacity="1.0"
     inkscape:pageopacity="0.0"
     inkscape:pageshadow="2"
     inkscape:zoom="1.979899"
     inkscape:cx="269.77642"
     inkscape:cy="29.981046"
     inkscape:document-units="px"
     inkscape:current-layer="layer1"
     showgrid="false"
     inkscape:window-width="1918"
     inkscape:window-height="1198"
     inkscape:window-x="1920"
     inkscape:window-y="0"
     inkscape:window-maximized="0"
     showguides="true"
     inkscape:guide-bbox="true"
     fit-margin-top="0"
     fit-margin-left="0"
     fit-margin-right="0"
     fit-margin-bottom="0"
     units="cm" />
  <defs
     id="defs4">
    <marker
       inkscape:stockid="DotM"
       orient="auto"
       refY="0"
       refX="0"
       id="DotM"
       style="overflow:visible">
      <path
         id="path3833"
         d="m -2.5,-1 c 0,2.76 -2.24,5 -5,5 -2.76,0 -5,-2.24 -5,-5 0,-2.76 2.24,-5 5,-5 2.76,0 5,2.24 5,5 z"
         style="fill-rule:evenodd;stroke:#000000;stroke-width:1pt"
         transform="matrix(0.4,0,0,0.4,2.96,0.4)"
         inkscape:connector-curvature="0" />
    </marker>
    <marker
       inkscape:stockid="DotM"
       orient="auto"
       refY="0"
       refX="0"
       id="DotM-2"
       style="overflow:visible">
      <path
         inkscape:connector-curvature="0"
         id="path3833-6"
         d="m -2.5,-1 c 0,2.76 -2.24,5 -5,5 -2.76,0 -5,-2.24 -5,-5 0,-2.76 2.24,-5 5,-5 2.76,0 5,2.24 5,5 z"
         style="fill-rule:evenodd;stroke:#000000;stroke-width:1pt"
         transform="matrix(0.4,0,0,0.4,2.96,0.4)" />
    </marker>
    <marker
       inkscape:stockid="DotM"
       orient="auto"
       refY="0"
       refX="0"
       id="marker5152"
       style="overflow:visible">
      <path
         inkscape:connector-curvature="0"
         id="path5154"
         d="m -2.5,-1 c 0,2.76 -2.24,5 -5,5 -2.76,0 -5,-2.24 -5,-5 0,-2.76 2.24,-5 5,-5 2.76,0 5,2.24 5,5 z"
         style="fill-rule:evenodd;stroke:#000000;stroke-width:1pt"
         transform="matrix(0.4,0,0,0.4,2.96,0.4)" />
    </marker>
    <marker
       inkscape:stockid="DotM"
       orient="auto"
       refY="0"
       refX="0"
       id="marker5156"
       style="overflow:visible">
      <path
         inkscape:connector-curvature="0"
         id="path5158"
         d="m -2.5,-1 c 0,2.76 -2.24,5 -5,5 -2.76,0 -5,-2.24 -5,-5 0,-2.76 2.24,-5 5,-5 2.76,0 5,2.24 5,5 z"
         style="fill-rule:evenodd;stroke:#000000;stroke-width:1pt"
         transform="matrix(0.4,0,0,0.4,2.96,0.4)" />
    </marker>
    <marker
       inkscape:stockid="DotMh"
       orient="auto"
       refY="0"
       refX="0"
       id="DotMh"
       style="overflow:visible">
      <path
         id="path5193"
         d="m -2.5,-1 c 0,2.76 -2.24,5 -5,5 -2.76,0 -5,-2.24 -5,-5 0,-2.76 2.24,-5 5,-5 2.76,0 5,2.24 5,5 z"
         style="fill:#808080;fill-rule:evenodd;stroke:#808080;stroke-width:1pt"
         transform="matrix(0.4,0,0,0.4,2.96,0.4)"
         inkscape:connector-curvature="0" />
    </marker>
    <marker
       inkscape:stockid="DotMz"
       orient="auto"
       refY="0"
       refX="0"
       id="DotMz"
       style="overflow:visible">
      <path
         id="path5196"
         d="m -2.5,-1 c 0,2.76 -2.24,5 -5,5 -2.76,0 -5,-2.24 -5,-5 0,-2.76 2.24,-5 5,-5 2.76,0 5,2.24 5,5 z"
         style="fill:#808080;fill-rule:evenodd;stroke:#808080;stroke-width:1pt"
         transform="matrix(0.4,0,0,0.4,2.96,0.4)"
         inkscape:connector-curvature="0" />
    </marker>
    <marker
       inkscape:stockid="DotMa"
       orient="auto"
       refY="0"
       refX="0"
       id="DotMa"
       style="overflow:visible">
      <path
         id="path5199"
         d="m -2.5,-1 c 0,2.76 -2.24,5 -5,5 -2.76,0 -5,-2.24 -5,-5 0,-2.76 2.24,-5 5,-5 2.76,0 5,2.24 5,5 z"
         style="fill:#808080;fill-rule:evenodd;stroke:#808080;stroke-width:1pt"
         transform="matrix(0.4,0,0,0.4,2.96,0.4)"
         inkscape:connector-curvature="0" />
    </marker>
    <marker
       inkscape:stockid="DotM"
       orient="auto"
       refY="0"
       refX="0"
       id="DotM-5"
       style="overflow:visible">
      <path
         id="path3833-4"
         d="m -2.5,-1 c 0,2.76 -2.24,5 -5,5 -2.76,0 -5,-2.24 -5,-5 0,-2.76 2.24,-5 5,-5 2.76,0 5,2.24 5,5 z"
         style="fill-rule:evenodd;stroke:#000000;stroke-width:1pt"
         transform="matrix(0.4,0,0,0.4,2.96,0.4)"
         inkscape:connector-curvature="0" />
    </marker>
    <marker
       inkscape:stockid="DotM"
       orient="auto"
       refY="0"
       refX="0"
       id="marker5243"
       style="overflow:visible">
      <path
         id="path5245"
         d="m -2.5,-1 c 0,2.76 -2.24,5 -5,5 -2.76,0 -5,-2.24 -5,-5 0,-2.76 2.24,-5 5,-5 2.76,0 5,2.24 5,5 z"
         style="fill-rule:evenodd;stroke:#000000;stroke-width:1pt"
         transform="matrix(0.4,0,0,0.4,2.96,0.4)"
         inkscape:connector-curvature="0" />
    </marker>
    <marker
       inkscape:stockid="DotM"
       orient="auto"
       refY="0"
       refX="0"
       id="marker5247"
       style="overflow:visible">
      <path
         id="path5249"
         d="m -2.5,-1 c 0,2.76 -2.24,5 -5,5 -2.76,0 -5,-2.24 -5,-5 0,-2.76 2.24,-5 5,-5 2.76,0 5,2.24 5,5 z"
         style="fill-rule:evenodd;stroke:#000000;stroke-width:1pt"
         transform="matrix(0.4,0,0,0.4,2.96,0.4)"
         inkscape:connector-curvature="0" />
    </marker>
    <marker
       inkscape:stockid="DotM"
       orient="auto"
       refY="0"
       refX="0"
       id="DotM-4"
       style="overflow:visible">
      <path
         id="path3833-8"
         d="m -2.5,-1 c 0,2.76 -2.24,5 -5,5 -2.76,0 -5,-2.24 -5,-5 0,-2.76 2.24,-5 5,-5 2.76,0 5,2.24 5,5 z"
         style="fill-rule:evenodd;stroke:#000000;stroke-width:1pt"
         transform="matrix(0.4,0,0,0.4,2.96,0.4)"
         inkscape:connector-curvature="0" />
    </marker>
    <marker
       inkscape:stockid="DotM"
       orient="auto"
       refY="0"
       refX="0"
       id="marker5582"
       style="overflow:visible">
      <path
         id="path5584"
         d="m -2.5,-1 c 0,2.76 -2.24,5 -5,5 -2.76,0 -5,-2.24 -5,-5 0,-2.76 2.24,-5 5,-5 2.76,0 5,2.24 5,5 z"
         style="fill-rule:evenodd;stroke:#000000;stroke-width:1pt"
         transform="matrix(0.4,0,0,0.4,2.96,0.4)"
         inkscape:connector-curvature="0" />
    </marker>
    <marker
       inkscape:stockid="DotM"
       orient="auto"
       refY="0"
       refX="0"
       id="marker5586"
       style="overflow:visible">
      <path
         id="path5588"
         d="m -2.5,-1 c 0,2.76 -2.24,5 -5,5 -2.76,0 -5,-2.24 -5,-5 0,-2.76 2.24,-5 5,-5 2.76,0 5,2.24 5,5 z"
         style="fill-rule:evenodd;stroke:#000000;stroke-width:1pt"
         transform="matrix(0.4,0,0,0.4,2.96,0.4)"
         inkscape:connector-curvature="0" />
    </marker>
    <marker
       inkscape:stockid="DotMh"
       orient="auto"
       refY="0"
       refX="0"
       id="DotMh-9"
       style="overflow:visible">
      <path
         id="path5193-1"
         d="m -2.5,-1 c 0,2.76 -2.24,5 -5,5 -2.76,0 -5,-2.24 -5,-5 0,-2.76 2.24,-5 5,-5 2.76,0 5,2.24 5,5 z"
         style="fill:#808080;fill-rule:evenodd;stroke:#808080;stroke-width:1pt"
         transform="matrix(0.4,0,0,0.4,2.96,0.4)"
         inkscape:connector-curvature="0" />
    </marker>
    <marker
       inkscape:stockid="DotMz"
       orient="auto"
       refY="0"
       refX="0"
       id="DotMz-6"
       style="overflow:visible">
      <path
         id="path5196-6"
         d="m -2.5,-1 c 0,2.76 -2.24,5 -5,5 -2.76,0 -5,-2.24 -5,-5 0,-2.76 2.24,-5 5,-5 2.76,0 5,2.24 5,5 z"
         style="fill:#808080;fill-rule:evenodd;stroke:#808080;stroke-width:1pt"
         transform="matrix(0.4,0,0,0.4,2.96,0.4)"
         inkscape:connector-curvature="0" />
    </marker>
    <marker
       inkscape:stockid="DotMa"
       orient="auto"
       refY="0"
       refX="0"
       id="DotMa-5"
       style="overflow:visible">
      <path
         id="path5199-3"
         d="m -2.5,-1 c 0,2.76 -2.24,5 -5,5 -2.76,0 -5,-2.24 -5,-5 0,-2.76 2.24,-5 5,-5 2.76,0 5,2.24 5,5 z"
         style="fill:#808080;fill-rule:evenodd;stroke:#808080;stroke-width:1pt"
         transform="matrix(0.4,0,0,0.4,2.96,0.4)"
         inkscape:connector-curvature="0" />
    </marker>
    <marker
       inkscape:stockid="DotM"
       orient="auto"
       refY="0"
       refX="0"
       id="DotM-28"
       style="overflow:visible">
      <path
         id="path3833-1"
         d="m -2.5,-1 c 0,2.76 -2.24,5 -5,5 -2.76,0 -5,-2.24 -5,-5 0,-2.76 2.24,-5 5,-5 2.76,0 5,2.24 5,5 z"
         style="fill-rule:evenodd;stroke:#000000;stroke-width:1pt"
         transform="matrix(0.4,0,0,0.4,2.96,0.4)"
         inkscape:connector-curvature="0" />
    </marker>
    <marker
       inkscape:stockid="DotM"
       orient="auto"
       refY="0"
       refX="0"
       id="marker5628"
       style="overflow:visible">
      <path
         id="path5630"
         d="m -2.5,-1 c 0,2.76 -2.24,5 -5,5 -2.76,0 -5,-2.24 -5,-5 0,-2.76 2.24,-5 5,-5 2.76,0 5,2.24 5,5 z"
         style="fill-rule:evenodd;stroke:#000000;stroke-width:1pt"
         transform="matrix(0.4,0,0,0.4,2.96,0.4)"
         inkscape:connector-curvature="0" />
    </marker>
    <marker
       inkscape:stockid="DotM"
       orient="auto"
       refY="0"
       refX="0"
       id="marker5632"
       style="overflow:visible">
      <path
         id="path5634"
         d="m -2.5,-1 c 0,2.76 -2.24,5 -5,5 -2.76,0 -5,-2.24 -5,-5 0,-2.76 2.24,-5 5,-5 2.76,0 5,2.24 5,5 z"
         style="fill-rule:evenodd;stroke:#000000;stroke-width:1pt"
         transform="matrix(0.4,0,0,0.4,2.96,0.4)"
         inkscape:connector-curvature="0" />
    </marker>
    <marker
       inkscape:stockid="DotMA"
       orient="auto"
       refY="0"
       refX="0"
       id="DotMA"
       style="overflow:visible">
      <path
         id="path5718"
         d="m -2.5,-1 c 0,2.76 -2.24,5 -5,5 -2.76,0 -5,-2.24 -5,-5 0,-2.76 2.24,-5 5,-5 2.76,0 5,2.24 5,5 z"
         style="fill:#c4c4c4;fill-rule:evenodd;stroke:#c4c4c4;stroke-width:1pt"
         transform="matrix(0.4,0,0,0.4,2.96,0.4)"
         inkscape:connector-curvature="0" />
    </marker>
    <marker
       inkscape:stockid="DotMW"
       orient="auto"
       refY="0"
       refX="0"
       id="DotMW"
       style="overflow:visible">
      <path
         id="path5721"
         d="m -2.5,-1 c 0,2.76 -2.24,5 -5,5 -2.76,0 -5,-2.24 -5,-5 0,-2.76 2.24,-5 5,-5 2.76,0 5,2.24 5,5 z"
         style="fill:#c4c4c4;fill-rule:evenodd;stroke:#c4c4c4;stroke-width:1pt"
         transform="matrix(0.4,0,0,0.4,2.96,0.4)"
         inkscape:connector-curvature="0" />
    </marker>
    <marker
       inkscape:stockid="DotMd"
       orient="auto"
       refY="0"
       refX="0"
       id="DotMd"
       style="overflow:visible">
      <path
         id="path5724"
         d="m -2.5,-1 c 0,2.76 -2.24,5 -5,5 -2.76,0 -5,-2.24 -5,-5 0,-2.76 2.24,-5 5,-5 2.76,0 5,2.24 5,5 z"
         style="fill:#c4c4c4;fill-rule:evenodd;stroke:#c4c4c4;stroke-width:1pt"
         transform="matrix(0.4,0,0,0.4,2.96,0.4)"
         inkscape:connector-curvature="0" />
    </marker>
    <marker
       inkscape:stockid="DotM3"
       orient="auto"
       refY="0"
       refX="0"
       id="DotM3"
       style="overflow:visible">
      <path
         id="path5843"
         d="m -2.5,-1 c 0,2.76 -2.24,5 -5,5 -2.76,0 -5,-2.24 -5,-5 0,-2.76 2.24,-5 5,-5 2.76,0 5,2.24 5,5 z"
         style="fill:#c4c4c4;fill-rule:evenodd;stroke:#c4c4c4;stroke-width:1pt"
         transform="matrix(0.4,0,0,0.4,2.96,0.4)"
         inkscape:connector-curvature="0" />
    </marker>
    <marker
       inkscape:stockid="DotMV"
       orient="auto"
       refY="0"
       refX="0"
       id="DotMV"
       style="overflow:visible">
      <path
         id="path5846"
         d="m -2.5,-1 c 0,2.76 -2.24,5 -5,5 -2.76,0 -5,-2.24 -5,-5 0,-2.76 2.24,-5 5,-5 2.76,0 5,2.24 5,5 z"
         style="fill:#c4c4c4;fill-rule:evenodd;stroke:#c4c4c4;stroke-width:1pt"
         transform="matrix(0.4,0,0,0.4,2.96,0.4)"
         inkscape:connector-curvature="0" />
    </marker>
    <marker
       inkscape:stockid="DotM8"
       orient="auto"
       refY="0"
       refX="0"
       id="DotM8"
       style="overflow:visible">
      <path
         id="path5849"
         d="m -2.5,-1 c 0,2.76 -2.24,5 -5,5 -2.76,0 -5,-2.24 -5,-5 0,-2.76 2.24,-5 5,-5 2.76,0 5,2.24 5,5 z"
         style="fill:#c4c4c4;fill-rule:evenodd;stroke:#c4c4c4;stroke-width:1pt"
         transform="matrix(0.4,0,0,0.4,2.96,0.4)"
         inkscape:connector-curvature="0" />
    </marker>
    <marker
       inkscape:stockid="DotM3z"
       orient="auto"
       refY="0"
       refX="0"
       id="DotM3z"
       style="overflow:visible">
      <path
         id="path5980"
         d="m -2.5,-1 c 0,2.76 -2.24,5 -5,5 -2.76,0 -5,-2.24 -5,-5 0,-2.76 2.24,-5 5,-5 2.76,0 5,2.24 5,5 z"
         style="fill:#808080;fill-rule:evenodd;stroke:#808080;stroke-width:1pt"
         transform="matrix(0.4,0,0,0.4,2.96,0.4)"
         inkscape:connector-curvature="0" />
    </marker>
    <marker
       inkscape:stockid="DotMV9"
       orient="auto"
       refY="0"
       refX="0"
       id="DotMV9"
       style="overflow:visible">
      <path
         id="path5983"
         d="m -2.5,-1 c 0,2.76 -2.24,5 -5,5 -2.76,0 -5,-2.24 -5,-5 0,-2.76 2.24,-5 5,-5 2.76,0 5,2.24 5,5 z"
         style="fill:#808080;fill-rule:evenodd;stroke:#808080;stroke-width:1pt"
         transform="matrix(0.4,0,0,0.4,2.96,0.4)"
         inkscape:connector-curvature="0" />
    </marker>
    <marker
       inkscape:stockid="DotM8D"
       orient="auto"
       refY="0"
       refX="0"
       id="DotM8D"
       style="overflow:visible">
      <path
         id="path5986"
         d="m -2.5,-1 c 0,2.76 -2.24,5 -5,5 -2.76,0 -5,-2.24 -5,-5 0,-2.76 2.24,-5 5,-5 2.76,0 5,2.24 5,5 z"
         style="fill:#808080;fill-rule:evenodd;stroke:#808080;stroke-width:1pt"
         transform="matrix(0.4,0,0,0.4,2.96,0.4)"
         inkscape:connector-curvature="0" />
    </marker>
    <marker
       inkscape:stockid="DotM3zK"
       orient="auto"
       refY="0"
       refX="0"
       id="DotM3zK"
       style="overflow:visible">
      <path
         id="path6129"
         d="m -2.5,-1 c 0,2.76 -2.24,5 -5,5 -2.76,0 -5,-2.24 -5,-5 0,-2.76 2.24,-5 5,-5 2.76,0 5,2.24 5,5 z"
         style="fill:#a9a9a9;fill-rule:evenodd;stroke:#a9a9a9;stroke-width:1pt"
         transform="matrix(0.4,0,0,0.4,2.96,0.4)"
         inkscape:connector-curvature="0" />
    </marker>
    <marker
       inkscape:stockid="DotMV9a"
       orient="auto"
       refY="0"
       refX="0"
       id="DotMV9a"
       style="overflow:visible">
      <path
         id="path6132"
         d="m -2.5,-1 c 0,2.76 -2.24,5 -5,5 -2.76,0 -5,-2.24 -5,-5 0,-2.76 2.24,-5 5,-5 2.76,0 5,2.24 5,5 z"
         style="fill:#a9a9a9;fill-rule:evenodd;stroke:#a9a9a9;stroke-width:1pt"
         transform="matrix(0.4,0,0,0.4,2.96,0.4)"
         inkscape:connector-curvature="0" />
    </marker>
    <marker
       inkscape:stockid="DotM8DC"
       orient="auto"
       refY="0"
       refX="0"
       id="DotM8DC"
       style="overflow:visible">
      <path
         id="path6135"
         d="m -2.5,-1 c 0,2.76 -2.24,5 -5,5 -2.76,0 -5,-2.24 -5,-5 0,-2.76 2.24,-5 5,-5 2.76,0 5,2.24 5,5 z"
         style="fill:#a9a9a9;fill-rule:evenodd;stroke:#a9a9a9;stroke-width:1pt"
         transform="matrix(0.4,0,0,0.4,2.96,0.4)"
         inkscape:connector-curvature="0" />
    </marker>
    <marker
       inkscape:stockid="DotM3zKi"
       orient="auto"
       refY="0"
       refX="0"
       id="DotM3zKi"
       style="overflow:visible">
      <path
         id="path6322"
         d="m -2.5,-1 c 0,2.76 -2.24,5 -5,5 -2.76,0 -5,-2.24 -5,-5 0,-2.76 2.24,-5 5,-5 2.76,0 5,2.24 5,5 z"
         style="fill:#c4c4c4;fill-rule:evenodd;stroke:#c4c4c4;stroke-width:1pt"
         transform="matrix(0.4,0,0,0.4,2.96,0.4)"
         inkscape:connector-curvature="0" />
    </marker>
    <marker
       inkscape:stockid="DotMV9aE"
       orient="auto"
       refY="0"
       refX="0"
       id="DotMV9aE"
       style="overflow:visible">
      <path
         id="path6325"
         d="m -2.5,-1 c 0,2.76 -2.24,5 -5,5 -2.76,0 -5,-2.24 -5,-5 0,-2.76 2.24,-5 5,-5 2.76,0 5,2.24 5,5 z"
         style="fill:#c4c4c4;fill-rule:evenodd;stroke:#c4c4c4;stroke-width:1pt"
         transform="matrix(0.4,0,0,0.4,2.96,0.4)"
         inkscape:connector-curvature="0" />
    </marker>
    <marker
       inkscape:stockid="DotM8DCP"
       orient="auto"
       refY="0"
       refX="0"
       id="DotM8DCP"
       style="overflow:visible">
      <path
         id="path6328"
         d="m -2.5,-1 c 0,2.76 -2.24,5 -5,5 -2.76,0 -5,-2.24 -5,-5 0,-2.76 2.24,-5 5,-5 2.76,0 5,2.24 5,5 z"
         style="fill:#c4c4c4;fill-rule:evenodd;stroke:#c4c4c4;stroke-width:1pt"
         transform="matrix(0.4,0,0,0.4,2.96,0.4)"
         inkscape:connector-curvature="0" />
    </marker>
  </defs>
  <metadata
     id="metadata7">
    <rdf:RDF>
      <cc:Work
         rdf:about="">
        <dc:format>image/svg+xml</dc:format>
        <dc:type
           rdf:resource="http://purl.org/dc/dcmitype/StillImage" />
        <dc:title></dc:title>
      </cc:Work>
    </rdf:RDF>
  </metadata>
  <g
     inkscape:label="Layer 1"
     inkscape:groupmode="layer"
     id="layer1"
     transform="translate(-590.49553,-362.37268)">
    <path
       style="fill:none;stroke:#000000;stroke-width:0.5;stroke-linecap:butt;stroke-linejoin:miter;stroke-miterlimit:4;stroke-opacity:0;stroke-dasharray:none;marker-start:url(#DotM);marker-mid:url(#DotM);marker-end:url(#DotM)"
       d="m 614.45758,518.63135 2.38958,12.74443 3.18611,-19.38218 5.31018,19.9132 11.41689,-22.30275 -8.7618,9.55829 12.47893,9.29281 9.0273,-26.01988 19.38217,22.56827 -12.74446,3.98264 -2.38956,-14.8685 11.4169,-7.96528 -22.83379,0 5.04466,23.0993 39.02983,-24.95787 -0.26552,18.58564 -13.80645,-15.3995 2.92059,14.60299 20.17868,9.0273 -2.65507,-18.58563 -5.57569,24.69235 -8.2308,-4.51367 -2.65507,16.72707 -13.27545,-13.80645 -5.57569,21.2407 -8.76182,-20.44419 -9.02731,1.85856 -0.7965,7.69977 -14.3375,3.71712 -14.33749,-7.96528 -3.1861,-14.07196 -6.10671,-10.88587 -9.29281,32.92311 11.9479,38.4988 9.29281,18.58564 1.59306,-23.6303 9.55832,7.69976 -1.32754,10.88587 3.18611,16.46156 22.56828,0 -12.74447,-19.64766 -2.92058,11.68239 -2.9206,-21.77175 3.98262,1.85857 6.37223,10.62035 2.65511,-16.72707 4.24812,22.30276 2.6551,8.49631 3.98264,-9.29282 -2.92062,-18.32012 9.29282,24.69233 2.38959,-15.93054 -2.12408,-15.93053 10.08936,8.23076 c 0,0 -1.85856,13.27546 -1.59305,16.19604 0.26548,2.92064 9.29282,6.37225 9.29282,6.37225 l 0.53099,-13.8065 -2.92058,-15.93053 6.10671,-0.26551 7.96525,16.99258 1.59305,18.05461 3.98264,-20.97519 -6.3722,-17.52361 25.48886,-5.31018 -15.13402,19.38214 1.32753,17.78914 -3.45161,-26.0199 11.15138,19.38214 0.79654,-12.47891 7.16874,11.6824 -3.45161,-26.81642 11.68241,1.85856 -6.37224,13.80648 4.51367,4.24816 2.92059,-11.94792 18.58563,-12.74443 -10.35484,-7.96528 -5.31021,5.31017 -7.96525,1.85857 11.68237,2.92062 -5.84116,-18.32012 -9.82385,2.38956 1.32754,11.41689 -9.29282,1.06206 1.59305,-12.21344 -30.79903,13.54097 29.73701,-22.30276 z"
       id="path4573"
       inkscape:connector-curvature="0" />
    <g
       id="g5227"
       transform="matrix(0.37171262,0,0,0.37171262,607.7564,499.44328)"
       style="stroke-width:1.3451252;stroke-miterlimit:4;stroke-dasharray:none">
      <path
         inkscape:connector-curvature="0"
         id="path4573-6"
         d="m 477.5008,51.626667 6.42857,34.28571 8.57143,-52.142856 14.28571,53.571426 30.71429,-59.999997 -23.57142,25.714287 33.57142,25 24.28571,-70.0000008 52.14287,60.7142808 -34.28573,10.71429 -6.42857,-40 30.7143,-21.428571 -61.42858,0 13.57142,62.142861 105.00001,-67.142861 -0.71428,50.000001 -37.14286,-41.428573 7.85714,39.285713 54.28572,24.28572 -7.14286,-50.000004 -15,66.428577 -22.14286,-12.142863 -7.14285,45.000003 -35.7143,-37.142863 -15,57.142863 -23.57143,-55.000003 -24.28571,5.000003 -2.14286,20.71429 -38.57143,10 -38.57142,-21.42858 -8.57143,-37.857143 -16.42857,-29.28571 -25,88.571433 32.14285,103.57142 25,50 4.28572,-63.57142 25.71428,20.71428 -3.57143,29.28572 8.57143,44.28571 60.71429,0 -34.28572,-52.85714 -7.85714,31.42857 -7.85713,-58.57143 10.71427,5 17.14286,28.57143 7.14286,-45 11.42857,60 7.14286,22.85714 10.71428,-25 -7.85714,-49.28571 25,66.42857 6.42857,-42.85714 -5.71429,-42.85715 27.14287,22.14286 c 0,0 -5,35.71429 -4.28571,43.57143 0.71428,7.85714 25,17.14286 25,17.14286 l 1.42857,-37.14286 -7.85714,-42.85714 16.42857,-0.71429 21.42857,45.71429 4.28571,48.57142 10.71429,-56.42857 -17.14286,-47.14285 68.57143,-14.28572 -40.71429,52.14286 3.57143,47.85714 -9.28571,-70 30,52.14286 2.14286,-33.57143 19.28571,31.42857 -9.28571,-72.14286 31.42857,5 -17.14286,37.14286 12.14286,11.42857 7.85714,-32.14285 50,-34.28572 -27.85714,-21.42857 -14.28572,14.28571 -21.42857,5 31.42857,7.85715 -15.71428,-49.28572 -26.42857,6.42857 3.57142,30.71429 -25,2.85714 4.28572,-32.85714 -82.85714,36.42857 80,-60 z"
         style="fill:none;stroke:#000000;stroke-width:1.3451252;stroke-linecap:butt;stroke-linejoin:miter;stroke-miterlimit:4;stroke-opacity:0;stroke-dasharray:none;marker-start:url(#DotMh);marker-mid:url(#DotMz);marker-end:url(#DotMa)" />
      <path
         sodipodi:nodetypes="ccccccccccccc"
         style="fill:none;stroke:#000000;stroke-width:1.3451252;stroke-linecap:butt;stroke-linejoin:miter;stroke-miterlimit:4;stroke-opacity:1;stroke-dasharray:none;marker-start:url(#DotM);marker-mid:url(#DotM);marker-end:url(#DotM)"
         d="M 671.07223,13.055236 571.78651,8.0552362 441.07223,46.626667 l -25,88.571433 32.14285,103.57142 25,50 35,30.71429 60.71429,0 115.71429,-5.71429 67.14286,-37.85714 17.14286,-18.57143 57.85714,-66.42857 z"
         id="path5180"
         inkscape:connector-curvature="0" />
    </g>
    <g
       id="g5132">
      <path
         inkscape:connector-curvature="0"
         id="path4573-1"
         d="m 744.3002,431.48206 -10.35485,-7.96527 -7.43425,-8.23078 m -3.71713,40.88839 -4.51365,-4.24815 m -18.85114,0.79653 -2.12407,-8.23078 15.66503,-8.23078 m -98.50384,7.96528 9.55832,7.69975 5.8412,-2.38958 m -3.98263,29.73701 22.56826,0 m 67.97031,-16.19605 -24.95785,14.07198 -1.59305,-18.05461 m -20.97521,6.63772 9.29281,6.37222 11.6824,-13.00994 m -10.35485,-27.61294 -3.71713,10.88587 6.10671,-0.26551 m 28.40946,-24.16132 -30.79904,13.54096 m 64.78419,0 -21.50623,24.69234 -6.37221,6.90323 m -27.34743,-24.42682 -7.16874,3.45161 m -59.20851,20.70971 3.18611,16.46155 m -34.25067,-68.50132 11.94791,38.4988 10.88587,-5.04466 m -10.88587,5.04466 9.29281,18.58563 m 1.59306,-88.14899 2.38958,12.74444 11.15138,-12.21342 -13.54096,-0.53102 -13.54096,-1.85856 -9.29282,32.92312 32.92312,0 -10.08934,33.45414 m 5.57569,-71.15642 -19.11665,4.77916 m 37.96779,29.20599 -14.33749,3.71713 0.79653,-17.78911 m -0.79653,17.78911 14.33749,-3.71713 m -28.67498,-4.24814 6.63773,-10.35485 8.49629,0.53101 m 14.33749,6.37222 -0.79653,7.69976 m 24.16132,-10.35485 -5.57569,21.24072 m 5.57569,-21.24072 -14.33749,0.79653 -9.82383,9.55832 m 0.79653,-7.69976 -14.33749,-6.37222 2.65509,-12.74443 12.47892,9.29282 m -15.13401,3.45161 15.13401,-3.45161 m -12.47892,-9.29282 8.7618,-9.55832 3.71712,18.85114 6.90323,0.79653 m 1.32755,7.16874 8.7618,20.44419 m 21.50623,-24.16132 -2.65509,16.72707 m 67.9703,20.97521 -51.50875,-57.88097 -6.37221,-8.23078 m 36.37473,90.80409 2.9206,-11.9479 m -39.29533,-78.85619 57.88096,66.11175 m -17.7891,-16.19605 17.7891,16.19605 -11.9479,2.12407 m -3.71713,-4.77916 5.31018,-5.31018 -1.59305,10.08934 -3.71713,-4.77916 m -15.66503,7.43425 11.6824,1.85856 7.69976,-4.51365 -6.63773,10.62037 -1.06203,-6.10672 m -7.96527,-20.44419 -6.37222,0.26551 -1.06204,-8.7618 7.43426,8.49629 1.32754,11.41689 2.65509,1.59305 m -6.10671,2.65509 6.10671,-2.65509 3.98264,7.43425 m -6.63773,-9.0273 -3.45162,4.24814 m -51.50874,-36.64024 13.27545,13.80647 3.18611,20.97521 m -51.50875,-51.24324 -7.96527,-7.16874 m 29.4715,-9.55833 -7.16874,3.71713 m 0,0 -5.57569,3.45162 m 16.99257,4.51365 -11.41688,-7.96527 -22.30276,5.8412 16.72707,-2.38958 16.99257,4.51365 m 18.58563,-6.63773 2.9206,14.603 m -21.50623,-7.96527 2.38958,14.8685 -8.7618,0.26552 1.32755,7.16874 m 16.46156,-30.26803 -11.41689,7.96527 -13.27545,14.33749 -0.79652,9.82383 m 29.20599,-13.27545 -12.74444,3.98263 m 30.26803,-24.69234 -14.07198,3.18611 -3.45161,17.5236 -5.8412,10.62036 -6.90324,-6.63773 -7.43425,7.43426 m -28.67497,-24.42683 -5.57569,6.63772 -7.43426,9.02731 -6.1067,-10.88587 48.58815,-14.33749 m -29.4715,9.55833 29.4715,-9.55833 m 15.66503,3.71713 -15.66503,-3.71713 4.24814,11.6824 m -6.37222,15.13402 6.37222,-15.13402 15.13402,10.88587 m -19.38216,-22.56827 36.90575,1.85856 m -14.07198,3.18611 -7.16874,-1.32754 m 21.24072,-1.85857 -0.26551,18.58564 m -10.88587,-0.79653 10.88587,0.79653 m -7.16874,9.82383 7.16874,-9.82383 m -17.25808,2.12407 6.37221,-2.9206 m 3.71713,10.62036 -3.71713,-10.62036 11.15138,-17.78911 -21.24072,1.85857 3.71713,18.85114 10.08934,7.69976 m 8.23078,4.51366 -8.23078,-4.51366 -15.93054,2.9206 m 23.09928,-12.74443 9.29281,8.23078 m -2.65509,-18.58564 -6.63772,10.35486 1.06204,14.33749 m 39.29533,16.99257 -9.82383,2.38958 3.98263,13.00994 5.8412,-15.39952 2.12407,13.54096 -7.96527,1.85856 m 5.8412,-15.39952 -31.06456,-23.09928 -8.23077,6.10671 m 22.03724,10.88586 -22.03724,-10.88586 -10.88587,12.21341 m 32.92311,-1.32755 -13.80647,-16.99257 -2.65509,-18.58564 33.71965,41.68492 m -16.19605,2.65509 -33.98515,-7.43425 32.92311,-1.32755 17.25809,6.10671 m -17.78911,14.8685 9.29282,-1.06203 -7.69976,-11.15138 -1.59306,12.21341 m -29.20598,1.32755 9.55832,7.16875 m -78.85618,-35.84372 14.33749,7.96527 m -32.92312,0 15.39952,-22.03725 9.82384,3.71713 7.69976,18.32012 m 18.32012,34.51617 -13.00994,4.24814 -5.31018,-38.76431 m 29.20599,56.0224 -2.9206,-18.32012 9.55833,-7.16875 -17.5236,3.98264 -18.32012,-34.51617 15.13402,-11.41689 9.0273,-1.85856 m 1.06204,78.59066 3.98263,-9.29281 m -6.63772,0.79653 2.65509,8.49628 10.35485,-2.92059 m 0.26551,-31.86109 2.12407,15.93055 m -19.64767,-11.94791 7.96527,3.18611 11.6824,8.7618 m -14.07198,22.03724 1.32755,-3.18611 -16.99258,-4.77916 14.33749,-3.71712 6.63772,-0.79653 8.7618,-9.55832 m 16.19605,1.06203 -8.23078,-8.7618 -7.96527,7.69977 m -29.73701,14.07197 -6.90323,7.96527 -13.00995,-11.41689 9.82384,-5.04466 10.08934,8.49628 15.66503,7.96527 11.6824,-6.1067 m -11.6824,6.1067 43.01246,-2.12407 m -31.33006,-3.98263 31.33006,3.98263 m -31.33006,-3.98263 18.05461,-1.06204 13.27545,5.04467 9.29281,-6.63772 m 15.66504,-7.43426 -15.66504,7.43426 m 7.69977,-6.63773 0.79652,-12.47892 m -11.9479,-6.90324 -8.23078,-5.84119 19.64766,-8.4963 m -11.41688,14.33749 11.41688,-14.33749 4.24815,6.10671 m -15.66503,8.23078 11.9479,6.90324 3.71713,-15.13402 m -33.45413,-4.77916 29.20598,-1.32755 5.8412,3.18611 10.08935,4.77916 3.98263,-9.29281 m -50.44671,43.27797 0.53102,-13.80647 11.15138,0.79653 -7.96527,-16.99258 m 15.39952,2.38958 -15.39952,-2.38958 13.54095,14.07198 m 0,0 3.98264,-3.45162 m -9.55832,6.37222 10.88586,11.41689 -5.31018,-14.33749 1.85857,-11.6824 m 11.15138,19.38216 -9.02731,-11.15138 9.82383,-1.32754 m -0.79652,12.47892 7.96527,-0.79653 m -1.85857,-29.73701 -1.59305,2.9206 m 12.74443,7.96528 -7.43425,7.69975 -5.31018,-15.66503 12.74443,7.96528 m 18.58563,-12.74444 -18.58563,12.74444 m -7.43425,7.69975 -1.85856,11.15138 -7.16875,-11.68239 9.02731,0.53101 m -28.40946,7.16875 5.57568,-2.9206 13.00995,7.69976 -7.69977,6.63773 m -93.72468,-81.77678 3.18611,14.07198 -18.58563,7.96527 22.83378,33.45414 m 61.8636,-33.71965 -18.85114,7.43425 2.9206,23.36479 15.39952,1.06204 m -51.77426,9.55832 -11.15138,15.93054 1.59306,-23.63029 15.39952,5.31017 m 3.98263,1.85857 -3.98263,-1.85857 m 3.98263,1.85857 1.85857,8.23078 -2.9206,11.68239 m 7.43425,-9.29281 -7.43425,9.29281 m 10.08934,-26.01988 -9.02731,6.10671 m 6.37222,10.62036 10.62036,-13.54096 -3.71712,19.11665 -6.90324,-5.57569 -6.37222,-10.62036 -9.82383,0.53101 11.6824,7.69977 m 21.77174,-41.68492 -18.58563,-10.88587 3.98263,38.2333 m -7.16874,14.33749 4.51365,2.38958 m 0,0 2.65509,-16.72707 14.603,-27.34743 22.03725,13.54096 -19.11665,9.82383 10.08934,8.23078 m 0,0 5.31018,-7.16874 2.9206,15.93054 -16.19605,-1.06203 6.37222,8.49628 -15.13402,1.06204 6.37222,6.37222 8.7618,-7.43426 9.82383,-7.43425 3.18611,-16.19605 m -2.38958,-10.62036 2.38958,10.62036 m -46.19857,17.5236 -13.00994,3.18611 1.32754,-10.88588"
         style="fill:none;stroke:#000000;stroke-width:0.5;stroke-linecap:butt;stroke-linejoin:miter;stroke-miterlimit:4;stroke-opacity:1;stroke-dasharray:none;marker-start:url(#DotM);marker-mid:url(#DotM);marker-end:url(#DotM)"
         sodipodi:nodetypes="cccccccccccccccccccccccccccccccccccccccccccccccccccccccccccccccccccccccccccccccccccccccccccccccccccccccccccccccccccccccccccccccccccccccccccccccccccccccccccccccccccccccccccccccccccccccccccccccccccccccccccccccccccccccccccccccccccccccccccccccccccccccccccccccccccccccccccccccccccccccccccccccccccccccccccccccccccccccccccccccccccccccccccccccccccccccccccccccccccccc" />
      <flowRoot
         transform="matrix(0.37171262,0,0,0.37171262,353.76425,556.38002)"
         style="font-size:43.04400635px;font-style:normal;font-weight:normal;line-height:125%;letter-spacing:-2.96000004px;word-spacing:0px;fill:#000000;fill-opacity:1;stroke:none;font-family:Sans"
         id="flowRoot16420"
         xml:space="preserve"><flowRegion
           id="flowRegion16422"><rect
             style="font-size:43.04400635px"
             y="-252.92386"
             x="634.28571"
             height="222.85715"
             width="278.57144"
             id="rect16424" /></flowRegion><flowPara
           id="flowPara16426">a)</flowPara></flowRoot>    </g>
    <g
       id="g5139">
      <g
         id="g6234"
         transform="matrix(0.37171262,0,0,0.37171262,415.39371,310.52733)"
         style="stroke-width:1.3451252;stroke-miterlimit:4;stroke-dasharray:none">
        <path
           sodipodi:nodetypes="cccccccccccccccccccccccccccccccccccccccccccccccccccccccccccccccccccccccccccccccccccccccccccccccccccccccccccccccccccccccccccccccccccccccccccccccccccccccccccccccccccccccccccccccccccccccccccccccccccccccccccccccccccccccccccccccccccccccccccccccccccccccccccccccccccccccccccccccccccccccccccccccccccccccccccccccccccccccccccccccccccccccccccccccccccccccccccccccccccccc"
           style="fill:none;stroke:#c4c4c4;stroke-width:1.3451252;stroke-linecap:butt;stroke-linejoin:miter;stroke-miterlimit:4;stroke-opacity:1;stroke-dasharray:none;marker-start:url(#DotMA);marker-mid:url(#DotMW);marker-end:url(#DotMd)"
           d="m 1344.3138,325.3985 -27.8572,-21.42857 -20,-22.14286 m -10,110 -12.1428,-11.42857 m -50.7143,2.14286 -5.7143,-22.14286 42.1429,-22.14286 m -265.00004,21.42858 25.71434,20.71428 15.7142,-6.42857 m -10.7142,80 60.7142,0 m 182.8572,-43.57143 -67.1429,37.85714 -4.2857,-48.57142 m -56.4286,17.85714 25,17.14286 31.4286,-35 m -27.8571,-74.28572 -10,29.28572 16.4285,-0.71429 m 76.4286,-65 -82.8571,36.42857 m 174.2857,0 -57.8572,66.42857 -17.1428,18.57143 m -73.5714,-65.71428 -19.2858,9.28571 m -159.2857,55.71429 8.5715,44.28571 m -92.14295,-184.28571 32.14286,103.57142 29.28575,-13.57142 m -29.28575,13.57142 25.00005,50 m 4.2857,-237.14285 6.42854,34.28571 30,-32.85714 -36.42854,-1.42857 -36.42861,-5 -25,88.57143 88.57145,0 -27.14284,90 m 15.00004,-191.42858 -51.42865,12.85715 m 102.14295,78.57143 -38.5715,10 2.1429,-47.85715 m -2.1429,47.85715 38.5715,-10 m -77.14294,-11.42858 17.85714,-27.85714 22.8572,1.42857 m 38.5714,17.14286 -2.1428,20.71429 m 65,-27.85715 -15,57.14286 m 15,-57.14286 -38.5715,2.14286 -26.4285,25.71429 m 2.1428,-20.71429 -38.5714,-17.14286 7.1428,-34.28571 33.5715,25 m -40.7143,9.28571 40.7143,-9.28571 m -33.5715,-25 23.5715,-25.71429 10,50.71429 18.5714,2.14286 m 3.5714,19.28571 23.5715,55 m 57.8571,-65 -7.1429,45 m 182.8572,56.42857 -138.5714,-155.71429 -17.1429,-22.14286 m 97.8571,244.28572 7.8572,-32.14285 M 1188.5995,147.54135 1344.3138,325.3985 m -47.8572,-43.57143 47.8572,43.57143 -32.1429,5.71429 m -10,-12.85715 14.2857,-14.28571 -4.2857,27.14286 -10,-12.85715 m -42.1428,20 31.4285,5 20.7143,-12.14285 -17.8571,28.57143 -2.8572,-16.42858 m -21.4285,-55 -17.1429,0.71429 -2.8571,-23.57143 20,22.85714 3.5714,30.71429 7.1429,4.28571 m -16.4286,7.14286 16.4286,-7.14286 10.7142,20 m -17.8571,-24.28571 -9.2857,11.42857 m -138.5714,-98.57143 35.7142,37.14286 8.5715,56.42857 m -138.5715,-137.85714 -21.4285,-19.28572 m 79.2857,-25.71429 -19.2857,10 m 0,0 -15,9.28572 m 45.7143,12.14286 -30.7143,-21.42858 -60,15.71429 45,-6.42857 45.7143,12.14286 m 50,-17.85715 7.8571,39.28572 m -57.8571,-21.42857 6.4285,40 -23.5714,0.71429 3.5714,19.28571 m 44.2857,-81.42858 -30.7142,21.42858 -35.7143,38.57143 -2.1429,26.42857 m 78.5714,-35.71429 -34.2857,10.71429 m 81.4286,-66.42858 -37.8571,8.57143 -9.2858,47.14286 -15.7142,28.57143 -18.5715,-17.85714 -20,20 m -77.1428,-65.71429 -15.00004,17.85715 -20.00003,24.28571 -16.42858,-29.28571 130.71435,-38.57144 m -79.2857,25.71429 79.2857,-25.71429 m 42.1428,10 -42.1428,-10 11.4286,31.42858 m -17.1429,40.71429 17.1429,-40.71429 40.7142,29.28571 m -52.1428,-60.71429 99.2857,5 m -37.8571,8.57143 -19.2858,-3.57143 m 57.1429,-5 -0.7143,50.00001 m -29.2857,-2.14286 29.2857,2.14286 m -19.2857,26.42857 19.2857,-26.42857 m -46.4286,5.71428 17.1429,-7.85714 m 10,28.57143 -10,-28.57143 30,-47.85715 -57.1429,5 10,50.71429 27.1429,20.71429 m 22.1429,12.14286 -22.1429,-12.14286 -42.8571,7.85714 m 62.1428,-34.28571 25,22.14286 m -7.1428,-50.00001 -17.8572,27.85715 2.8572,38.57143 m 105.7142,45.71428 -26.4285,6.42857 10.7143,35 15.7142,-41.42857 5.7143,36.42857 -21.4285,5 m 15.7142,-41.42857 -83.5714,-62.14285 -22.1428,16.42857 m 59.2857,29.28571 -59.2857,-29.28571 -29.2858,32.85714 m 88.5715,-3.57143 -37.1429,-45.71428 -7.1428,-50.00001 90.7142,112.14286 m -43.5714,7.14286 -91.4286,-20 88.5715,-3.57143 46.4285,16.42857 m -47.8571,40 25,-2.85714 -20.7143,-30 -4.2857,32.85714 m -78.5714,3.57143 25.7143,19.28572 m -212.14294,-96.42858 38.57144,21.42858 m -88.57145,0 41.42858,-59.28572 26.42857,10 20.7143,49.28572 m 49.2857,92.85714 -35,11.42857 -14.2857,-104.28571 m 78.5715,150.71428 -7.8572,-49.28571 25.7143,-19.28572 -47.1429,10.71429 -49.2857,-92.85714 40.7143,-30.71429 24.2857,-5 m 2.8572,211.42857 10.7143,-25 m -17.8572,2.14286 7.1429,22.85714 27.8571,-7.85714 m 0.7143,-85.71429 5.7143,42.85715 m -52.8572,-32.14286 21.4286,8.57143 31.4286,23.57143 m -37.8572,59.28571 3.5715,-8.57143 -45.7143,-12.85714 38.5714,-10 17.8572,-2.14286 23.5714,-25.71428 m 43.5714,2.85714 -22.1428,-23.57143 -21.4286,20.71429 m -80,37.85714 -18.5714,21.42857 -35.00004,-30.71429 26.42854,-13.57142 27.1429,22.85714 42.1428,21.42857 31.4286,-16.42857 m -31.4286,16.42857 115.7143,-5.71429 m -84.2857,-10.71428 84.2857,10.71428 m -84.2857,-10.71428 48.5714,-2.85714 35.7143,13.57142 25,-17.85714 m 42.1429,-20 -42.1429,20 m 20.7143,-17.85714 2.1429,-33.57143 m -32.1429,-18.57143 -22.1428,-15.71428 52.8571,-22.85715 m -30.7143,38.57143 30.7143,-38.57143 11.4286,16.42857 m -42.1429,22.14286 32.1429,18.57143 10,-40.71429 m -90,-12.85714 78.5714,-3.57143 15.7143,8.57143 27.1428,12.85714 10.7143,-25 m -135.7143,116.42858 1.4286,-37.14286 30,2.14286 -21.4286,-45.71429 m 41.4286,6.42857 -41.4286,-6.42857 36.4286,37.85714 m 0,0 10.7143,-9.28571 m -25.7143,17.14286 29.2857,30.71428 -14.2857,-38.57143 5,-31.42857 m 30,52.14286 -24.2857,-30 26.4286,-3.57143 m -2.1429,33.57143 21.4286,-2.14286 m -5,-80 -4.2857,7.85714 m 34.2857,21.42858 -20,20.71428 -14.2857,-42.14286 34.2857,21.42858 m 50,-34.28572 -50,34.28572 m -20,20.71428 -5,30 -19.2857,-31.42857 24.2857,1.42857 m -76.4286,19.28572 15,-7.85715 35,20.71429 -20.7143,17.85714 m -252.14287,-220 8.57143,37.85714 -50.00001,21.42858 61.42861,90 m 166.42854,-90.71429 -50.7142,20 7.8571,62.85714 41.4286,2.85715 m -139.2857,25.71428 -30.00004,42.85714 4.2857,-63.57142 41.42854,14.28571 m 10.7143,5 -10.7143,-5 m 10.7143,5 5,22.14286 -7.8571,31.42857 m 20,-25 -20,25 m 27.1428,-70 -24.2857,16.42857 m 17.1429,28.57143 28.5714,-36.42857 -10,51.42857 -18.5714,-15 -17.1429,-28.57143 -26.4285,1.42857 31.4285,20.71429 m 58.5715,-112.14286 -50,-29.28571 10.7142,102.85714 m -19.2857,38.57143 12.1429,6.42857 m 0,0 7.1428,-45 39.2858,-73.57143 59.2857,36.42857 -51.4286,26.42857 27.1429,22.14286 m 0,0 14.2857,-19.28571 7.8571,42.85714 -43.5714,-2.85714 17.1428,22.85714 -40.7142,2.85714 17.1428,17.14286 23.5714,-20 26.4286,-20 8.5714,-43.57143 m -6.4285,-28.57143 6.4285,28.57143 m -124.2857,47.14286 -35,8.57143 3.5715,-29.28572"
           id="path4573-1-9"
           inkscape:connector-curvature="0" />
        <path
           inkscape:connector-curvature="0"
           id="path5180-1"
           d="m 1188.6042,147.54715 -99.2857,-5 -130.71435,38.57143 -25,88.57143 32.14285,103.57142 25,50 35,30.71429 60.7143,0 115.7143,-5.71429 67.1429,-37.85714 17.1428,-18.57143 57.8572,-66.42857 z"
           style="fill:none;stroke:#000000;stroke-width:1.3451252;stroke-linecap:butt;stroke-linejoin:miter;stroke-miterlimit:4;stroke-opacity:1;stroke-dasharray:none;marker-start:url(#DotM);marker-mid:url(#DotM);marker-end:url(#DotM)"
           sodipodi:nodetypes="ccccccccccccc" />
      </g>
      <flowRoot
         transform="matrix(0.37171262,0,0,0.37171262,524.45844,556.38002)"
         style="font-size:43.04400635px;font-style:normal;font-weight:normal;line-height:125%;letter-spacing:-2.96000004px;word-spacing:0px;fill:#000000;fill-opacity:1;stroke:none;font-family:Sans"
         id="flowRoot16420-2"
         xml:space="preserve"><flowRegion
           id="flowRegion16422-5"><rect
             style="font-size:43.04400635px"
             y="-252.92386"
             x="634.28571"
             height="222.85715"
             width="278.57144"
             id="rect16424-3" /></flowRegion><flowPara
           id="flowPara16426-8">b)</flowPara></flowRoot>    </g>
    <g
       id="g5148">
      <g
         transform="matrix(0.37171262,0,0,0.37171262,561.06022,338.26726)"
         id="g6445"
         style="stroke-width:1.3451252;stroke-miterlimit:4;stroke-dasharray:none">
        <path
           transform="matrix(0.85887096,0,0,0.85887096,581.21953,-317.51091)"
           d="m 576.07142,613.07648 c 0,24.45832 -19.82739,44.28571 -44.28571,44.28571 -24.45833,0 -44.28572,-19.82739 -44.28572,-44.28571 0,-24.45833 19.82739,-44.28572 44.28572,-44.28572 24.45832,0 44.28571,19.82739 44.28571,44.28572 z"
           sodipodi:ry="44.285713"
           sodipodi:rx="44.285713"
           sodipodi:cy="613.07648"
           sodipodi:cx="531.78571"
           id="path5566"
           style="fill:none;stroke:#8989ff;stroke-width:1.5661552;stroke-linecap:round;stroke-linejoin:miter;stroke-miterlimit:4;stroke-opacity:1;stroke-dasharray:none;stroke-dashoffset:0"
           sodipodi:type="arc" />
        <path
           sodipodi:type="arc"
           style="fill:none;stroke:#8989ff;stroke-width:1.5661552;stroke-linecap:round;stroke-linejoin:miter;stroke-miterlimit:4;stroke-opacity:1;stroke-dasharray:none;stroke-dashoffset:0"
           id="path6242"
           sodipodi:cx="531.78571"
           sodipodi:cy="613.07648"
           sodipodi:rx="44.285713"
           sodipodi:ry="44.285713"
           d="m 576.07142,613.07648 c 0,24.45832 -19.82739,44.28571 -44.28571,44.28571 -24.45833,0 -44.28572,-19.82739 -44.28572,-44.28571 0,-24.45833 19.82739,-44.28572 44.28572,-44.28572 24.45832,0 44.28571,19.82739 44.28571,44.28572 z"
           transform="matrix(0.85887096,0,0,0.85887096,599.14974,-315.4906)" />
        <path
           transform="matrix(0.85887096,0,0,0.85887096,661.27412,-305.13654)"
           d="m 576.07142,613.07648 c 0,24.45832 -19.82739,44.28571 -44.28571,44.28571 -24.45833,0 -44.28572,-19.82739 -44.28572,-44.28571 0,-24.45833 19.82739,-44.28572 44.28572,-44.28572 24.45832,0 44.28571,19.82739 44.28571,44.28572 z"
           sodipodi:ry="44.285713"
           sodipodi:rx="44.285713"
           sodipodi:cy="613.07648"
           sodipodi:cx="531.78571"
           id="path6244"
           style="fill:none;stroke:#8989ff;stroke-width:1.5661552;stroke-linecap:round;stroke-linejoin:miter;stroke-miterlimit:4;stroke-opacity:1;stroke-dasharray:none;stroke-dashoffset:0"
           sodipodi:type="arc" />
        <path
           sodipodi:type="arc"
           style="fill:none;stroke:#8989ff;stroke-width:1.5661552;stroke-linecap:round;stroke-linejoin:miter;stroke-miterlimit:4;stroke-opacity:1;stroke-dasharray:none;stroke-dashoffset:0"
           id="path6246"
           sodipodi:cx="531.78571"
           sodipodi:cy="613.07648"
           sodipodi:rx="44.285713"
           sodipodi:ry="44.285713"
           d="m 576.07142,613.07648 c 0,24.45832 -19.82739,44.28571 -44.28571,44.28571 -24.45833,0 -44.28572,-19.82739 -44.28572,-44.28571 0,-24.45833 19.82739,-44.28572 44.28572,-44.28572 24.45832,0 44.28571,19.82739 44.28571,44.28572 z"
           transform="matrix(0.85887096,0,0,0.85887096,684.00255,-305.64162)" />
        <path
           transform="matrix(0.85887096,0,0,0.85887096,801.93786,-308.41954)"
           d="m 576.07142,613.07648 c 0,24.45832 -19.82739,44.28571 -44.28571,44.28571 -24.45833,0 -44.28572,-19.82739 -44.28572,-44.28571 0,-24.45833 19.82739,-44.28572 44.28572,-44.28572 24.45832,0 44.28571,19.82739 44.28571,44.28572 z"
           sodipodi:ry="44.285713"
           sodipodi:rx="44.285713"
           sodipodi:cy="613.07648"
           sodipodi:cx="531.78571"
           id="path6248"
           style="fill:none;stroke:#8989ff;stroke-width:1.5661552;stroke-linecap:round;stroke-linejoin:miter;stroke-miterlimit:4;stroke-opacity:1;stroke-dasharray:none;stroke-dashoffset:0"
           sodipodi:type="arc" />
        <g
           id="g6435"
           style="stroke-width:1.3451252;stroke-miterlimit:4;stroke-dasharray:none">
          <path
             sodipodi:nodetypes="cccccccccccccccccccccccccccccccccccccccccccccccccccccccccccccccccccccccccccccccccccccccccccccccccccccccccccccccccccccccccccccccccccccccccccccccccccccccccccccccccccccccccccccccccccccccccccccccccccccccccccccccccccccccccccccccccccccccccccccccccccccccccccccccccccccccccccccccccccccccccccccccccccccccccccccccccccccccccccccccccccccc"
             style="fill:none;stroke:#c4c4c4;stroke-width:1.3451252;stroke-linecap:butt;stroke-linejoin:miter;stroke-miterlimit:4;stroke-opacity:1;stroke-dasharray:none;marker-start:url(#DotM3zKi);marker-mid:url(#DotMV9aE);marker-end:url(#DotM8DCP)"
             d="m 1412.2171,250.77114 -27.8571,-21.42857 -20,-22.14286 m -10,110 -12.1429,-11.42857 m -50.7143,2.14286 -5.7143,-22.14286 42.1429,-22.14286 m -265,21.42858 25.7143,20.71428 15.7143,-6.42857 m -10.7143,80 60.7143,0 m 115.7142,-5.71429 -4.2857,-48.57142 m -56.4285,17.85714 25,17.14286 31.4285,-35 m -27.8571,-74.28572 -10,29.28572 16.4286,-0.71429 m 110,37.85714 -17.1429,18.57143 m -73.5714,-65.71428 -19.2857,9.28571 m -159.2858,55.71429 8.5715,44.28571 m -60,-80.71429 29.2857,-13.57142 m -29.2857,13.57142 25,50 m 4.2857,-237.14285 6.4286,34.28571 30,-32.85714 -36.4286,-1.42857 -36.4286,-5 m 51.4286,-12.85715 -51.4286,12.85715 m 102.1429,78.57143 -38.5715,10 2.1429,-47.85715 m -2.1429,47.85715 38.5715,-10 m -77.1429,-11.42858 17.8572,-27.85714 22.8571,1.42857 m 38.5714,17.14286 -2.1428,20.71429 m 65,-27.85715 -15,57.14286 m 15,-57.14286 -38.5715,2.14286 -26.4285,25.71429 m 2.1428,-20.71429 -38.5714,-17.14286 7.1429,-34.28571 33.5714,25 m -40.7143,9.28571 40.7143,-9.28571 m -33.5714,-25 23.5714,-25.71429 10,50.71429 18.5714,2.14286 m 3.5714,19.28571 23.5715,55 m 57.8571,-65 -7.1428,45 m 44.2857,-99.28572 -17.1429,-22.14286 m 97.8572,244.28572 7.8571,-32.14285 m 50,-34.28572 -32.1429,5.71429 m -10,-12.85715 14.2858,-14.28571 -4.2858,27.14286 -10,-12.85715 m -42.1428,20 31.4286,5 20.7142,-12.14285 -17.8571,28.57143 -2.8571,-16.42858 m -21.4286,-55 -17.1429,0.71429 -2.8571,-23.57143 20,22.85714 3.5714,30.71429 7.1429,4.28571 m -16.4286,7.14286 16.4286,-7.14286 10.7143,20 m -17.8572,-24.28571 -9.2857,11.42857 m -138.5714,-98.57143 35.7143,37.14286 8.5714,56.42857 M 1099.36,112.914 1077.9314,93.62828 m 79.2857,-25.71429 -19.2857,10 m 0,0 -15,9.28572 m 45.7143,12.14286 -30.7143,-21.42858 m -60,15.71429 45,-6.42857 45.7143,12.14286 m 50,-17.85715 7.8571,39.28572 m -57.8571,-21.42857 6.4285,40 -23.5714,0.71429 3.5714,19.28571 m 44.2858,-81.42858 -30.7143,21.42858 -35.7143,38.57143 -2.1429,26.42857 m 78.5715,-35.71429 -34.2858,10.71429 m 81.4286,-66.42858 -37.8571,8.57143 -9.2857,47.14286 -15.7143,28.57143 -18.5715,-17.85714 -20,20 m -77.1428,-65.71429 -15,17.85715 -20,24.28571 -16.4286,-29.28571 m 172.8572,-28.57144 -42.1429,-10 11.4286,31.42858 m -17.1429,40.71429 17.1429,-40.71429 40.7143,29.28571 m 9.2857,-47.14286 -19.2857,-3.57143 m 57.1428,-5 -0.7143,50.00001 m -29.2857,-2.14286 29.2857,2.14286 m -19.2857,26.42857 19.2857,-26.42857 m -46.4285,5.71428 17.1428,-7.85714 m 10,28.57143 -10,-28.57143 30,-47.85715 m -57.1428,5 10,50.71429 27.1428,20.71429 m 22.1429,12.14286 -22.1429,-12.14286 -42.8571,7.85714 m 62.1428,-34.28571 25,22.14286 m -7.1428,-50.00001 -17.8572,27.85715 2.8572,38.57143 m 105.7143,45.71428 -26.4286,6.42857 10.7143,35 15.7143,-41.42857 5.7142,36.42857 -21.4285,5 m -67.8572,-103.57142 -22.1428,16.42857 m 59.2857,29.28571 -59.2857,-29.28571 -29.2857,32.85714 m 88.5714,-3.57143 -37.1429,-45.71428 -7.1428,-50.00001 m 44.2857,95.71429 46.4285,16.42857 m -47.8571,40 25,-2.85714 -20.7143,-30 -4.2857,32.85714 m -78.5714,3.57143 25.7143,19.28572 m -212.1429,-96.42858 38.5714,21.42858 m -88.5714,0 41.4286,-59.28572 26.4285,10 20.7143,49.28572 m 49.2857,92.85714 -35,11.42857 m 64.2858,46.42857 -7.8572,-49.28571 25.7143,-19.28572 -47.1429,10.71429 m -49.2857,-92.85714 40.7143,-30.71429 24.2857,-5 m 2.8572,211.42857 10.7143,-25 m -17.8572,2.14286 7.1429,22.85714 27.8571,-7.85714 m 0.7143,-85.71429 5.7143,42.85715 M 1139.36,287.914 l 21.4285,8.57143 31.4286,23.57143 m -37.8571,59.28571 3.5714,-8.57143 -45.7143,-12.85714 38.5714,-10 17.8572,-2.14286 23.5714,-25.71428 m 43.5714,2.85714 -22.1428,-23.57143 -21.4286,20.71429 m -80,37.85714 -18.5714,21.42857 -35,-30.71429 26.4285,-13.57142 27.1429,22.85714 42.1429,21.42857 31.4285,-16.42857 m 0,0 48.5715,-2.85714 35.7142,13.57142 25,-17.85714 m 20.7143,-17.85714 2.1429,-33.57143 m -32.1429,-18.57143 -22.1428,-15.71428 52.8571,-22.85715 m -30.7143,38.57143 30.7143,-38.57143 11.4286,16.42857 m -42.1429,22.14286 32.1429,18.57143 10,-40.71429 m -90,-12.85714 78.5714,-3.57143 15.7143,8.57143 27.1429,12.85714 10.7142,-25 m -135.7142,116.42858 1.4285,-37.14286 30,2.14286 -21.4285,-45.71429 m 41.4285,6.42857 -41.4285,-6.42857 36.4285,37.85714 m 0,0 10.7143,-9.28571 m -25.7143,17.14286 29.2857,30.71428 -14.2857,-38.57143 5,-31.42857 m 30,52.14286 -24.2857,-30 26.4286,-3.57143 m -2.1429,33.57143 21.4286,-2.14286 m -5,-80 -4.2857,7.85714 m 34.2857,21.42858 -20,20.71428 -14.2857,-42.14286 34.2857,21.42858 m -20,20.71428 -5,30 -19.2857,-31.42857 24.2857,1.42857 m -76.4286,19.28572 15,-7.85715 35,20.71429 -20.7143,17.85714 m -252.1428,-220 8.5714,37.85714 -50,21.42858 m 227.8572,-0.71429 -50.7143,20 7.8571,62.85714 41.4286,2.85715 m -139.2857,25.71428 -30,42.85714 4.2857,-63.57142 41.4286,14.28571 m 10.7142,5 -10.7142,-5 m 10.7142,5 5,22.14286 -7.8571,31.42857 m 20,-25 -20,25 m 27.1429,-70 -24.2858,16.42857 m 17.1429,28.57143 28.5714,-36.42857 -10,51.42857 -18.5714,-15 -17.1429,-28.57143 -26.4285,1.42857 31.4285,20.71429 m 58.5715,-112.14286 -50,-29.28571 m -8.5715,141.42857 12.1429,6.42857 m 0,0 7.1429,-45 m 39.2857,-73.57143 59.2857,36.42857 -51.4286,26.42857 27.1429,22.14286 m 0,0 14.2857,-19.28571 7.8571,42.85714 -43.5714,-2.85714 17.1429,22.85714 -40.7143,2.85714 17.1428,17.14286 23.5715,-20 26.4285,-20 8.5715,-43.57143 m -6.4286,-28.57143 6.4286,28.57143 m -124.2858,47.14286 -35,8.57143 3.5715,-29.28572"
             id="path5564"
             inkscape:connector-curvature="0" />
          <path
             inkscape:connector-curvature="0"
             id="path5568"
             d="m 1412.2171,250.77125 -27.8571,-21.42857 -20,-22.14286 m -270.7143,172.14284 60.7143,0 m 200,-62.1428 -17.1429,18.5714 m -303.5714,-37.1429 29.2857,-13.5714 m -29.2857,13.5714 25,50 m 19.2857,-254.99997 -51.4286,12.85715 m 102.1429,78.57143 -38.5715,10 m 0,0 38.5715,-10 m 145,-90.00001 -17.1429,-22.14286 m 97.8572,244.28576 7.8571,-32.1429 m 50,-34.28571 -32.1429,5.71431 m 0,0 -17.8571,28.5714 m -41.4286,-70.71428 -2.8571,-23.57143 m -88.5714,3.57143 8.5714,56.42857 m -80.7143,-182.85715 -19.2857,10 m 0,0 -15,9.28572 m -45,6.42857 45,-6.42857 m 133.5714,-14.28572 -37.8571,8.57143 m -175.7143,54.28572 -16.4286,-29.28571 M 1199.36,77.9141 l -42.1429,-10 m 61.4286,13.57143 -19.2857,-3.57143 m 118.5714,112.85715 -59.2857,-29.28571 -29.2857,32.85714 m 88.5714,-3.57143 -37.1429,-45.71428 -7.1428,-50.00001 m 44.2857,95.71429 46.4286,16.42857 m -43.5715,7.14286 -4.2857,32.85714 m -265,-73.57143 38.5714,21.42858 m -88.5714,0 41.4286,-59.28572 m 96.4286,152.14291 -35,11.4285 m 82.1428,-22.1428 -47.1428,10.7143 m -45.7143,91.4285 -35,-30.7143 m 95.7143,30.7143 31.4285,-16.4285 m 0,0 48.5715,-2.8572 35.7142,13.5714 25,-17.8571 m -57.1428,-105.00001 78.5714,-3.57143 m -0.7143,90.71434 21.4286,-2.1429 m -21.4286,2.1429 -20.7143,17.8571 m -243.5714,-182.14287 -50,21.42858 m 177.1429,19.28571 7.8571,62.85718 m -123.5714,7.8571 41.4286,14.2857 m 74.2857,-84.99998 -50,-29.28571"
             style="fill:none;stroke:#000000;stroke-width:1.3451252;stroke-linecap:butt;stroke-linejoin:miter;stroke-miterlimit:4;stroke-opacity:1;stroke-dasharray:none;marker-start:url(#DotM);marker-mid:url(#DotM);marker-end:url(#DotM)"
             sodipodi:nodetypes="ccccccccccccccccccccccccccccccccccccccccccccccccccccccccccccccccccccccccccccccccccc" />
        </g>
      </g>
      <flowRoot
         transform="matrix(0.37171262,0,0,0.37171262,695.54188,556.38002)"
         style="font-size:43.04400635px;font-style:normal;font-weight:normal;line-height:125%;letter-spacing:-2.96000004px;word-spacing:0px;fill:#000000;fill-opacity:1;stroke:none;font-family:Sans"
         id="flowRoot16420-3"
         xml:space="preserve"><flowRegion
           id="flowRegion16422-9"><rect
             style="font-size:43.04400635px"
             y="-252.92386"
             x="634.28571"
             height="222.85715"
             width="278.57144"
             id="rect16424-0" /></flowRegion><flowPara
           id="flowPara16426-2">c)</flowPara></flowRoot>    </g>
    <g
       id="g6439"
       transform="matrix(0.37171262,0,0,0.37171262,560.94466,477.19725)"
       style="stroke-width:1.3451252;stroke-miterlimit:4;stroke-dasharray:none">
      <path
         inkscape:connector-curvature="0"
         id="path6441"
         d="m 1412.2171,250.77114 -27.8571,-21.42857 -20,-22.14286 m -10,110 -12.1429,-11.42857 m -50.7143,2.14286 -5.7143,-22.14286 42.1429,-22.14286 m -265,21.42858 25.7143,20.71428 15.7143,-6.42857 m -10.7143,80 60.7143,0 m 115.7142,-5.71429 -4.2857,-48.57142 m -56.4285,17.85714 25,17.14286 31.4285,-35 m -27.8571,-74.28572 -10,29.28572 16.4286,-0.71429 m 110,37.85714 -17.1429,18.57143 m -73.5714,-65.71428 -19.2857,9.28571 m -159.2858,55.71429 8.5715,44.28571 m -60,-80.71429 29.2857,-13.57142 m -29.2857,13.57142 25,50 m 4.2857,-237.14285 6.4286,34.28571 30,-32.85714 -36.4286,-1.42857 -36.4286,-5 m 51.4286,-12.85715 -51.4286,12.85715 m 102.1429,78.57143 -38.5715,10 2.1429,-47.85715 m -2.1429,47.85715 38.5715,-10 m -77.1429,-11.42858 17.8572,-27.85714 22.8571,1.42857 m 38.5714,17.14286 -2.1428,20.71429 m 65,-27.85715 -15,57.14286 m 15,-57.14286 -38.5715,2.14286 -26.4285,25.71429 m 2.1428,-20.71429 -38.5714,-17.14286 7.1429,-34.28571 33.5714,25 m -40.7143,9.28571 40.7143,-9.28571 m -33.5714,-25 23.5714,-25.71429 10,50.71429 18.5714,2.14286 m 3.5714,19.28571 23.5715,55 m 57.8571,-65 -7.1428,45 m 44.2857,-99.28572 -17.1429,-22.14286 m 97.8572,244.28572 7.8571,-32.14285 m 50,-34.28572 -32.1429,5.71429 m -10,-12.85715 14.2858,-14.28571 -4.2858,27.14286 -10,-12.85715 m -42.1428,20 31.4286,5 20.7142,-12.14285 -17.8571,28.57143 -2.8571,-16.42858 m -21.4286,-55 -17.1429,0.71429 -2.8571,-23.57143 20,22.85714 3.5714,30.71429 7.1429,4.28571 m -16.4286,7.14286 16.4286,-7.14286 10.7143,20 m -17.8572,-24.28571 -9.2857,11.42857 m -138.5714,-98.57143 35.7143,37.14286 8.5714,56.42857 M 1099.36,112.914 1077.9314,93.62828 m 79.2857,-25.71429 -19.2857,10 m 0,0 -15,9.28572 m 45.7143,12.14286 -30.7143,-21.42858 m -60,15.71429 45,-6.42857 45.7143,12.14286 m 50,-17.85715 7.8571,39.28572 m -57.8571,-21.42857 6.4285,40 -23.5714,0.71429 3.5714,19.28571 m 44.2858,-81.42858 -30.7143,21.42858 -35.7143,38.57143 -2.1429,26.42857 m 78.5715,-35.71429 -34.2858,10.71429 m 81.4286,-66.42858 -37.8571,8.57143 -9.2857,47.14286 -15.7143,28.57143 -18.5715,-17.85714 -20,20 m -77.1428,-65.71429 -15,17.85715 -20,24.28571 -16.4286,-29.28571 m 172.8572,-28.57144 -42.1429,-10 11.4286,31.42858 m -17.1429,40.71429 17.1429,-40.71429 40.7143,29.28571 m 9.2857,-47.14286 -19.2857,-3.57143 m 57.1428,-5 -0.7143,50.00001 m -29.2857,-2.14286 29.2857,2.14286 m -19.2857,26.42857 19.2857,-26.42857 m -46.4285,5.71428 17.1428,-7.85714 m 10,28.57143 -10,-28.57143 30,-47.85715 m -57.1428,5 10,50.71429 27.1428,20.71429 m 22.1429,12.14286 -22.1429,-12.14286 -42.8571,7.85714 m 62.1428,-34.28571 25,22.14286 m -7.1428,-50.00001 -17.8572,27.85715 2.8572,38.57143 m 105.7143,45.71428 -26.4286,6.42857 10.7143,35 15.7143,-41.42857 5.7142,36.42857 -21.4285,5 m -67.8572,-103.57142 -22.1428,16.42857 m 59.2857,29.28571 -59.2857,-29.28571 -29.2857,32.85714 m 88.5714,-3.57143 -37.1429,-45.71428 -7.1428,-50.00001 m 44.2857,95.71429 46.4285,16.42857 m -47.8571,40 25,-2.85714 -20.7143,-30 -4.2857,32.85714 m -78.5714,3.57143 25.7143,19.28572 m -212.1429,-96.42858 38.5714,21.42858 m -88.5714,0 41.4286,-59.28572 26.4285,10 20.7143,49.28572 m 49.2857,92.85714 -35,11.42857 m 64.2858,46.42857 -7.8572,-49.28571 25.7143,-19.28572 -47.1429,10.71429 m -49.2857,-92.85714 40.7143,-30.71429 24.2857,-5 m 2.8572,211.42857 10.7143,-25 m -17.8572,2.14286 7.1429,22.85714 27.8571,-7.85714 m 0.7143,-85.71429 5.7143,42.85715 M 1139.36,287.914 l 21.4285,8.57143 31.4286,23.57143 m -37.8571,59.28571 3.5714,-8.57143 -45.7143,-12.85714 38.5714,-10 17.8572,-2.14286 23.5714,-25.71428 m 43.5714,2.85714 -22.1428,-23.57143 -21.4286,20.71429 m -80,37.85714 -18.5714,21.42857 -35,-30.71429 26.4285,-13.57142 27.1429,22.85714 42.1429,21.42857 31.4285,-16.42857 m 0,0 48.5715,-2.85714 35.7142,13.57142 25,-17.85714 m 20.7143,-17.85714 2.1429,-33.57143 m -32.1429,-18.57143 -22.1428,-15.71428 52.8571,-22.85715 m -30.7143,38.57143 30.7143,-38.57143 11.4286,16.42857 m -42.1429,22.14286 32.1429,18.57143 10,-40.71429 m -90,-12.85714 78.5714,-3.57143 15.7143,8.57143 27.1429,12.85714 10.7142,-25 m -135.7142,116.42858 1.4285,-37.14286 30,2.14286 -21.4285,-45.71429 m 41.4285,6.42857 -41.4285,-6.42857 36.4285,37.85714 m 0,0 10.7143,-9.28571 m -25.7143,17.14286 29.2857,30.71428 -14.2857,-38.57143 5,-31.42857 m 30,52.14286 -24.2857,-30 26.4286,-3.57143 m -2.1429,33.57143 21.4286,-2.14286 m -5,-80 -4.2857,7.85714 m 34.2857,21.42858 -20,20.71428 -14.2857,-42.14286 34.2857,21.42858 m -20,20.71428 -5,30 -19.2857,-31.42857 24.2857,1.42857 m -76.4286,19.28572 15,-7.85715 35,20.71429 -20.7143,17.85714 m -252.1428,-220 8.5714,37.85714 -50,21.42858 m 227.8572,-0.71429 -50.7143,20 7.8571,62.85714 41.4286,2.85715 m -139.2857,25.71428 -30,42.85714 4.2857,-63.57142 41.4286,14.28571 m 10.7142,5 -10.7142,-5 m 10.7142,5 5,22.14286 -7.8571,31.42857 m 20,-25 -20,25 m 27.1429,-70 -24.2858,16.42857 m 17.1429,28.57143 28.5714,-36.42857 -10,51.42857 -18.5714,-15 -17.1429,-28.57143 -26.4285,1.42857 31.4285,20.71429 m 58.5715,-112.14286 -50,-29.28571 m -8.5715,141.42857 12.1429,6.42857 m 0,0 7.1429,-45 m 39.2857,-73.57143 59.2857,36.42857 -51.4286,26.42857 27.1429,22.14286 m 0,0 14.2857,-19.28571 7.8571,42.85714 -43.5714,-2.85714 17.1429,22.85714 -40.7143,2.85714 17.1428,17.14286 23.5715,-20 26.4285,-20 8.5715,-43.57143 m -6.4286,-28.57143 6.4286,28.57143 m -124.2858,47.14286 -35,8.57143 3.5715,-29.28572"
         style="fill:none;stroke:#c4c4c4;stroke-width:1.3451252;stroke-linecap:butt;stroke-linejoin:miter;stroke-miterlimit:4;stroke-opacity:1;stroke-dasharray:none;marker-start:url(#DotM3zKi);marker-mid:url(#DotMV9aE);marker-end:url(#DotM8DCP)"
         sodipodi:nodetypes="cccccccccccccccccccccccccccccccccccccccccccccccccccccccccccccccccccccccccccccccccccccccccccccccccccccccccccccccccccccccccccccccccccccccccccccccccccccccccccccccccccccccccccccccccccccccccccccccccccccccccccccccccccccccccccccccccccccccccccccccccccccccccccccccccccccccccccccccccccccccccccccccccccccccccccccccccccccccccccccccccccccc" />
      <path
         sodipodi:nodetypes="ccccccccccccccccccccccccccccccccccccccccccccccccccccccccccccccccccccccccccccccccccc"
         style="fill:none;stroke:#000000;stroke-width:1.3451252;stroke-linecap:butt;stroke-linejoin:miter;stroke-miterlimit:4;stroke-opacity:1;stroke-dasharray:none;marker-start:url(#DotM);marker-mid:url(#DotM);marker-end:url(#DotM)"
         d="m 1412.2171,250.77125 -27.8571,-21.42857 -20,-22.14286 m -270.7143,172.14284 60.7143,0 m 200,-62.1428 -17.1429,18.5714 m -303.5714,-37.1429 29.2857,-13.5714 m -29.2857,13.5714 25,50 m 19.2857,-254.99997 -51.4286,12.85715 m 102.1429,78.57143 -38.5715,10 m 0,0 38.5715,-10 m 145,-90.00001 -17.1429,-22.14286 m 97.8572,244.28576 7.8571,-32.1429 m 50,-34.28571 -32.1429,5.71431 m 0,0 -17.8571,28.5714 m -41.4286,-70.71428 -2.8571,-23.57143 m -88.5714,3.57143 8.5714,56.42857 m -80.7143,-182.85715 -19.2857,10 m 0,0 -15,9.28572 m -45,6.42857 45,-6.42857 m 133.5714,-14.28572 -37.8571,8.57143 m -175.7143,54.28572 -16.4286,-29.28571 M 1199.36,77.9141 l -42.1429,-10 m 61.4286,13.57143 -19.2857,-3.57143 m 118.5714,112.85715 -59.2857,-29.28571 -29.2857,32.85714 m 88.5714,-3.57143 -37.1429,-45.71428 -7.1428,-50.00001 m 44.2857,95.71429 46.4286,16.42857 m -43.5715,7.14286 -4.2857,32.85714 m -265,-73.57143 38.5714,21.42858 m -88.5714,0 41.4286,-59.28572 m 96.4286,152.14291 -35,11.4285 m 82.1428,-22.1428 -47.1428,10.7143 m -45.7143,91.4285 -35,-30.7143 m 95.7143,30.7143 31.4285,-16.4285 m 0,0 48.5715,-2.8572 35.7142,13.5714 25,-17.8571 m -57.1428,-105.00001 78.5714,-3.57143 m -0.7143,90.71434 21.4286,-2.1429 m -21.4286,2.1429 -20.7143,17.8571 m -243.5714,-182.14287 -50,21.42858 m 177.1429,19.28571 7.8571,62.85718 m -123.5714,7.8571 41.4286,14.2857 m 74.2857,-84.99998 -50,-29.28571"
         id="path6443"
         inkscape:connector-curvature="0" />
    </g>
  </g>
</svg>
