<?xml version="1.0" encoding="UTF-8" standalone="no"?>
<!-- Created with Inkscape (http://www.inkscape.org/) -->

<svg
   xmlns:dc="http://purl.org/dc/elements/1.1/"
   xmlns:cc="http://creativecommons.org/ns#"
   xmlns:rdf="http://www.w3.org/1999/02/22-rdf-syntax-ns#"
   xmlns:svg="http://www.w3.org/2000/svg"
   xmlns="http://www.w3.org/2000/svg"
   xmlns:sodipodi="http://sodipodi.sourceforge.net/DTD/sodipodi-0.dtd"
   xmlns:inkscape="http://www.inkscape.org/namespaces/inkscape"
   width="584.29132"
   height="126.13869"
   id="svg2"
   version="1.1"
   inkscape:version="0.48.4 r9939"
   sodipodi:docname="reactors.svg">
  <sodipodi:namedview
     id="base"
     pagecolor="#ffffff"
     bordercolor="#666666"
     borderopacity="1.0"
     inkscape:pageopacity="0.0"
     inkscape:pageshadow="2"
     inkscape:zoom="2"
     inkscape:cx="315.93654"
     inkscape:cy="47.400983"
     inkscape:document-units="px"
     inkscape:current-layer="layer1"
     showgrid="false"
     units="cm"
     inkscape:window-width="1918"
     inkscape:window-height="1198"
     inkscape:window-x="1920"
     inkscape:window-y="0"
     inkscape:window-maximized="0"
     fit-margin-top="0"
     fit-margin-left="0"
     fit-margin-right="0"
     fit-margin-bottom="0"
     showguides="true"
     inkscape:guide-bbox="true" />
  <defs
     id="defs4">
    <marker
       style="overflow:visible"
       id="Arrow1Mend"
       refX="0"
       refY="0"
       orient="auto"
       inkscape:stockid="Arrow1Mend">
      <path
         inkscape:connector-curvature="0"
         transform="matrix(-0.4,0,0,-0.4,-4,0)"
         style="fill-rule:evenodd;stroke:#000000;stroke-width:1pt"
         d="M 0,0 5,-5 -12.5,0 5,5 0,0 z"
         id="path4171" />
    </marker>
    <marker
       style="overflow:visible"
       id="Arrow1Send"
       refX="0"
       refY="0"
       orient="auto"
       inkscape:stockid="Arrow1Send">
      <path
         inkscape:connector-curvature="0"
         transform="matrix(-0.2,0,0,-0.2,-1.2,0)"
         style="fill-rule:evenodd;stroke:#000000;stroke-width:1pt"
         d="M 0,0 5,-5 -12.5,0 5,5 0,0 z"
         id="path4177" />
    </marker>
    <marker
       style="overflow:visible"
       id="Arrow1Lend"
       refX="0"
       refY="0"
       orient="auto"
       inkscape:stockid="Arrow1Lend">
      <path
         inkscape:connector-curvature="0"
         transform="matrix(-0.8,0,0,-0.8,-10,0)"
         style="fill-rule:evenodd;stroke:#000000;stroke-width:1pt"
         d="M 0,0 5,-5 -12.5,0 5,5 0,0 z"
         id="path4165" />
    </marker>
    <marker
       style="overflow:visible"
       id="Arrow1Mend-5"
       refX="0"
       refY="0"
       orient="auto"
       inkscape:stockid="Arrow1Mend">
      <path
         transform="matrix(-0.4,0,0,-0.4,-4,0)"
         style="fill-rule:evenodd;stroke:#000000;stroke-width:1pt"
         d="M 0,0 5,-5 -12.5,0 5,5 0,0 z"
         id="path4171-6"
         inkscape:connector-curvature="0" />
    </marker>
    <marker
       style="overflow:visible"
       id="Arrow1Send-5"
       refX="0"
       refY="0"
       orient="auto"
       inkscape:stockid="Arrow1Send">
      <path
         transform="matrix(-0.2,0,0,-0.2,-1.2,0)"
         style="fill-rule:evenodd;stroke:#000000;stroke-width:1pt"
         d="M 0,0 5,-5 -12.5,0 5,5 0,0 z"
         id="path4177-6"
         inkscape:connector-curvature="0" />
    </marker>
    <marker
       style="overflow:visible"
       id="Arrow1Send-53"
       refX="0"
       refY="0"
       orient="auto"
       inkscape:stockid="Arrow1Send">
      <path
         transform="matrix(-0.2,0,0,-0.2,-1.2,0)"
         style="fill-rule:evenodd;stroke:#000000;stroke-width:1pt"
         d="M 0,0 5,-5 -12.5,0 5,5 0,0 z"
         id="path4177-7"
         inkscape:connector-curvature="0" />
    </marker>
    <marker
       style="overflow:visible"
       id="Arrow1Send-7"
       refX="0"
       refY="0"
       orient="auto"
       inkscape:stockid="Arrow1Send">
      <path
         transform="matrix(-0.2,0,0,-0.2,-1.2,0)"
         style="fill-rule:evenodd;stroke:#000000;stroke-width:1pt"
         d="M 0,0 5,-5 -12.5,0 5,5 0,0 z"
         id="path4177-0"
         inkscape:connector-curvature="0" />
    </marker>
    <marker
       style="overflow:visible"
       id="Arrow1Send-6"
       refX="0"
       refY="0"
       orient="auto"
       inkscape:stockid="Arrow1Send">
      <path
         transform="matrix(-0.2,0,0,-0.2,-1.2,0)"
         style="fill-rule:evenodd;stroke:#000000;stroke-width:1pt"
         d="M 0,0 5,-5 -12.5,0 5,5 0,0 z"
         id="path4177-9"
         inkscape:connector-curvature="0" />
    </marker>
    <marker
       style="overflow:visible"
       id="Arrow1Mendp"
       refX="0"
       refY="0"
       orient="auto"
       inkscape:stockid="Arrow1Mendp">
      <path
         inkscape:connector-curvature="0"
         transform="matrix(-0.4,0,0,-0.4,-4,0)"
         style="fill:#564fc7;fill-rule:evenodd;stroke:#564fc7;stroke-width:1pt"
         d="M 0,0 5,-5 -12.5,0 5,5 0,0 z"
         id="path4158" />
    </marker>
    <marker
       style="overflow:visible"
       id="Arrow1Mendi"
       refX="0"
       refY="0"
       orient="auto"
       inkscape:stockid="Arrow1Mendi">
      <path
         inkscape:connector-curvature="0"
         transform="matrix(-0.4,0,0,-0.4,-4,0)"
         style="fill:#564fc7;fill-rule:evenodd;stroke:#564fc7;stroke-width:1pt"
         d="M 0,0 5,-5 -12.5,0 5,5 0,0 z"
         id="path4161" />
    </marker>
    <marker
       style="overflow:visible"
       id="Arrow1MendX"
       refX="0"
       refY="0"
       orient="auto"
       inkscape:stockid="Arrow1MendX">
      <path
         inkscape:connector-curvature="0"
         transform="matrix(-0.4,0,0,-0.4,-4,0)"
         style="fill:#564fc7;fill-rule:evenodd;stroke:#564fc7;stroke-width:1pt"
         d="M 0,0 5,-5 -12.5,0 5,5 0,0 z"
         id="path4164" />
    </marker>
    <marker
       style="overflow:visible"
       id="Arrow1MendT"
       refX="0"
       refY="0"
       orient="auto"
       inkscape:stockid="Arrow1MendT">
      <path
         inkscape:connector-curvature="0"
         transform="matrix(-0.4,0,0,-0.4,-4,0)"
         style="fill:#01c0ff;fill-rule:evenodd;stroke:#01c0ff;stroke-width:1pt"
         d="M 0,0 5,-5 -12.5,0 5,5 0,0 z"
         id="path4167" />
    </marker>
    <marker
       style="overflow:visible"
       id="Arrow1MendK"
       refX="0"
       refY="0"
       orient="auto"
       inkscape:stockid="Arrow1MendK">
      <path
         inkscape:connector-curvature="0"
         transform="matrix(-0.4,0,0,-0.4,-4,0)"
         style="fill:#564fc7;fill-rule:evenodd;stroke:#564fc7;stroke-width:1pt"
         d="M 0,0 5,-5 -12.5,0 5,5 0,0 z"
         id="path4170" />
    </marker>
    <marker
       style="overflow:visible"
       id="Arrow1Mendq"
       refX="0"
       refY="0"
       orient="auto"
       inkscape:stockid="Arrow1Mendq">
      <path
         inkscape:connector-curvature="0"
         transform="matrix(-0.4,0,0,-0.4,-4,0)"
         style="fill:#564fc7;fill-rule:evenodd;stroke:#564fc7;stroke-width:1pt"
         d="M 0,0 5,-5 -12.5,0 5,5 0,0 z"
         id="path4173" />
    </marker>
    <marker
       style="overflow:visible"
       id="Arrow1Send-0"
       refX="0"
       refY="0"
       orient="auto"
       inkscape:stockid="Arrow1Send">
      <path
         inkscape:connector-curvature="0"
         transform="matrix(-0.2,0,0,-0.2,-1.2,0)"
         style="fill-rule:evenodd;stroke:#000000;stroke-width:1pt"
         d="M 0,0 5,-5 -12.5,0 5,5 0,0 z"
         id="path4177-8" />
    </marker>
    <marker
       style="overflow:visible"
       id="marker3356"
       refX="0"
       refY="0"
       orient="auto"
       inkscape:stockid="Arrow1Send">
      <path
         inkscape:connector-curvature="0"
         transform="matrix(-0.2,0,0,-0.2,-1.2,0)"
         style="fill-rule:evenodd;stroke:#000000;stroke-width:1pt"
         d="M 0,0 5,-5 -12.5,0 5,5 0,0 z"
         id="path3358" />
    </marker>
    <marker
       style="overflow:visible"
       id="marker3360"
       refX="0"
       refY="0"
       orient="auto"
       inkscape:stockid="Arrow1Send">
      <path
         inkscape:connector-curvature="0"
         transform="matrix(-0.2,0,0,-0.2,-1.2,0)"
         style="fill-rule:evenodd;stroke:#000000;stroke-width:1pt"
         d="M 0,0 5,-5 -12.5,0 5,5 0,0 z"
         id="path3362" />
    </marker>
    <marker
       style="overflow:visible"
       id="Arrow1Send-8"
       refX="0"
       refY="0"
       orient="auto"
       inkscape:stockid="Arrow1Send">
      <path
         inkscape:connector-curvature="0"
         transform="matrix(-0.2,0,0,-0.2,-1.2,0)"
         style="fill-rule:evenodd;stroke:#000000;stroke-width:1pt"
         d="M 0,0 5,-5 -12.5,0 5,5 0,0 z"
         id="path4177-92" />
    </marker>
    <marker
       style="overflow:visible"
       id="marker3161"
       refX="0"
       refY="0"
       orient="auto"
       inkscape:stockid="Arrow1Send">
      <path
         inkscape:connector-curvature="0"
         transform="matrix(-0.2,0,0,-0.2,-1.2,0)"
         style="fill-rule:evenodd;stroke:#000000;stroke-width:1pt"
         d="M 0,0 5,-5 -12.5,0 5,5 0,0 z"
         id="path3163" />
    </marker>
    <marker
       style="overflow:visible"
       id="marker3165"
       refX="0"
       refY="0"
       orient="auto"
       inkscape:stockid="Arrow1Send">
      <path
         inkscape:connector-curvature="0"
         transform="matrix(-0.2,0,0,-0.2,-1.2,0)"
         style="fill-rule:evenodd;stroke:#000000;stroke-width:1pt"
         d="M 0,0 5,-5 -12.5,0 5,5 0,0 z"
         id="path3167" />
    </marker>
  </defs>
  <metadata
     id="metadata7">
    <rdf:RDF>
      <cc:Work
         rdf:about="">
        <dc:format>image/svg+xml</dc:format>
        <dc:type
           rdf:resource="http://purl.org/dc/dcmitype/StillImage" />
        <dc:title />
      </cc:Work>
    </rdf:RDF>
  </metadata>
  <g
     transform="translate(-71.248762,-768.2777)"
     id="layer1"
     inkscape:groupmode="layer"
     inkscape:label="Layer 1">
    <g
       id="g3282"
       transform="matrix(1.399112,0,0,1.399112,-28.350523,-357.04557)">
      <rect
         style="fill:#ffffff;fill-opacity:1;stroke:#000000;stroke-width:0.71473902;stroke-linecap:round;stroke-linejoin:miter;stroke-miterlimit:4;stroke-opacity:1;stroke-dasharray:none;stroke-dashoffset:0"
         id="rect2985-4"
         width="121.69225"
         height="89.44368"
         x="71.534012"
         y="804.65637"
         rx="12.155225"
         ry="12.155225" />
      <rect
         style="fill:#8b8b8b;fill-opacity:1;stroke:#000000;stroke-width:0.71473902;stroke-linecap:round;stroke-linejoin:miter;stroke-miterlimit:4;stroke-opacity:1;stroke-dasharray:none;stroke-dashoffset:0"
         id="rect3862-6"
         width="81.365593"
         height="11.659094"
         x="91.697342"
         y="882.44086" />
      <rect
         style="fill:#01c0ff;fill-opacity:1;stroke:#000000;stroke-width:0.71473902;stroke-linecap:round;stroke-linejoin:miter;stroke-miterlimit:4;stroke-opacity:1;stroke-dasharray:none;stroke-dashoffset:0"
         id="rect5246"
         width="9.4265003"
         height="15.252398"
         x="71.534012"
         y="841.75195"
         rx="0"
         ry="0" />
      <path
         style="fill:none;stroke:#01c0ff;stroke-width:0.71473902px;stroke-linecap:butt;stroke-linejoin:miter;stroke-opacity:1;marker-end:url(#Arrow1MendT)"
         d="M 78.132729,850.6811 125.6356,816.5979"
         id="path4872"
         inkscape:connector-curvature="0"
         sodipodi:nodetypes="cc" />
      <path
         style="fill:none;stroke:#564fc7;stroke-width:0.71473902px;stroke-linecap:butt;stroke-linejoin:miter;stroke-opacity:1;marker-end:url(#Arrow1Mendp)"
         d="m 132.38013,812.77068 0,52.23779"
         id="path5284"
         inkscape:connector-curvature="0"
         sodipodi:nodetypes="cc"
         inkscape:transform-center-y="27.410722" />
      <path
         inkscape:transform-center-y="26.472453"
         sodipodi:nodetypes="cc"
         inkscape:connector-curvature="0"
         id="path5286"
         d="m 134.246,812.75576 13.52276,50.45782"
         style="fill:none;stroke:#564fc7;stroke-width:0.71473902px;stroke-linecap:butt;stroke-linejoin:miter;stroke-opacity:1;marker-end:url(#Arrow1Mendi)"
         inkscape:transform-center-x="-7.0630331" />
      <path
         inkscape:transform-center-x="7.0630331"
         style="fill:none;stroke:#564fc7;stroke-width:0.71473902px;stroke-linecap:butt;stroke-linejoin:miter;stroke-opacity:1;marker-end:url(#Arrow1Mendq)"
         d="m 130.51426,812.75576 -13.52275,50.45782"
         id="path5288"
         inkscape:connector-curvature="0"
         sodipodi:nodetypes="cc"
         inkscape:transform-center-y="26.472453" />
      <path
         inkscape:transform-center-y="23.721607"
         sodipodi:nodetypes="cc"
         inkscape:connector-curvature="0"
         id="path5290"
         d="m 128.65613,812.71199 -26.12397,45.23926"
         style="fill:none;stroke:#564fc7;stroke-width:0.71473902px;stroke-linecap:butt;stroke-linejoin:miter;stroke-opacity:1;marker-end:url(#Arrow1MendK)"
         inkscape:transform-center-x="13.645519" />
      <path
         inkscape:transform-center-x="-13.645518"
         style="fill:none;stroke:#564fc7;stroke-width:0.71473902px;stroke-linecap:butt;stroke-linejoin:miter;stroke-opacity:1;marker-end:url(#Arrow1MendX)"
         d="m 136.10414,812.71199 26.12397,45.23926"
         id="path5292"
         inkscape:connector-curvature="0"
         sodipodi:nodetypes="cc"
         inkscape:transform-center-y="23.721607" />
      <rect
         style="fill:#554fc7;fill-opacity:1;stroke:#000000;stroke-width:0.71473902;stroke-linecap:round;stroke-linejoin:miter;stroke-miterlimit:4;stroke-opacity:1;stroke-dasharray:none;stroke-dashoffset:0"
         id="rect5248"
         width="47.132504"
         height="9.4265003"
         x="108.81387"
         y="804.65637"
         rx="0"
         ry="0" />
      <rect
         style="fill:#564fc7;fill-opacity:1;stroke:#000000;stroke-width:0.71473902;stroke-linecap:round;stroke-linejoin:miter;stroke-miterlimit:4;stroke-opacity:1;stroke-dasharray:none;stroke-dashoffset:0"
         id="rect3920-8"
         width="64.497101"
         height="3.2248554"
         x="100.13158"
         y="879.21118" />
    </g>
    <g
       id="g3274"
       transform="matrix(1.399112,0,0,1.399112,177.43852,-489.26166)">
      <path
         id="path5468"
         style="fill:none;stroke:#000000;stroke-width:0.71473902;stroke-linecap:square;stroke-linejoin:round;stroke-miterlimit:4;stroke-opacity:1;stroke-dashoffset:0"
         d="m 170.81274,979.64567 -2.84673,0 -4.1e-4,-5.60175 0.4254,-0.0696 c 6.73399,0 12.15478,-5.42123 12.15478,-12.15522 l 0,-21.72171 c 0,-6.734 -5.42123,-12.15524 -12.15523,-12.15524 l -27.67062,0.0938 -1e-4,-20.46839 -45.72982,4e-4 m 67.72272,66.47585 0,5.60202 -73.52617,0.12327 -3e-5,-5.3924 z m -67.72272,-51.40049 30.65403,-1.4e-4 3e-4,5.39277 -42.13558,-0.0938 c -6.734,0 -12.15522,5.42124 -12.15522,12.15524 l 0,21.72171 c 0,6.73399 5.42122,12.15522 12.15522,12.15522 l 0.42491,0.4024 0,10.64512 86.87907,0 m -75.82245,-72.2014 40.47665,-1.5e-4 1.2e-4,15.21568 -4.56985,0 -2.8e-4,-10.64549 -35.90692,0"
         inkscape:connector-curvature="0"
         sodipodi:nodetypes="ccccsscccccccccccccsscccccccccc" />
      <path
         style="fill:none;stroke:#000000;stroke-width:2.53253984;stroke-linecap:butt;stroke-linejoin:miter;stroke-miterlimit:4;stroke-opacity:1;stroke-dasharray:none;marker-end:url(#Arrow1Send)"
         d="m 72.662365,910.19409 16.12427,0"
         id="path4137-7"
         inkscape:connector-curvature="0" />
      <path
         style="fill:none;stroke:#000000;stroke-width:2.53253984;stroke-linecap:butt;stroke-linejoin:miter;stroke-miterlimit:4;stroke-opacity:1;stroke-dasharray:none;marker-end:url(#Arrow1Send)"
         d="m 72.662365,920.11346 16.12427,0"
         id="path4137-76"
         inkscape:connector-curvature="0" />
      <path
         style="fill:none;stroke:#000000;stroke-width:2.53253984;stroke-linecap:butt;stroke-linejoin:miter;stroke-miterlimit:4;stroke-opacity:1;stroke-dasharray:none;marker-end:url(#Arrow1Send)"
         d="m 172.49472,982.21132 16.12427,0"
         id="path4790-2"
         inkscape:connector-curvature="0" />
      <rect
         style="fill:#8b8b8b;fill-opacity:1;stroke:#000000;stroke-width:0.71473902;stroke-linecap:round;stroke-linejoin:miter;stroke-miterlimit:4;stroke-opacity:1;stroke-dasharray:none;stroke-dashoffset:0"
         id="rect3862-6-8"
         width="70.990593"
         height="11.659094"
         x="90.351227"
         y="962.38495" />
      <rect
         style="fill:#564fc7;fill-opacity:1;stroke:#000000;stroke-width:0.71473902;stroke-linecap:round;stroke-linejoin:miter;stroke-miterlimit:4;stroke-opacity:1;stroke-dasharray:none;stroke-dashoffset:0"
         id="rect3920-8-9"
         width="56.273018"
         height="3.2248554"
         x="97.710007"
         y="959.15527" />
    </g>
    <g
       id="g3444"
       transform="matrix(1.399112,0,0,1.399112,-28.350523,-357.04557)">
      <path
         id="rect4040-7-4"
         style="fill:#ffffff;fill-opacity:1;stroke:#000000;stroke-width:0.71473902;stroke-linecap:square;stroke-linejoin:round;stroke-miterlimit:4;stroke-opacity:1;stroke-dashoffset:0"
         d="m 389.75853,860.7832 4.03809,0 0,-7.4818 -4.03809,0 m 0,-5.2529 4.03809,0 0,-6.617 c -5e-5,-6.7341 5.42141,-12.1553 12.15541,-12.1553 l 45.38178,0 c 6.73399,0 12.15474,5.4213 12.15485,12.1553 l 0,12.9844 3.41512,0 m 0,5.2528 -3.41512,0 3.7e-4,13.2345 c 1.3e-4,6.734 -5.42123,12.1552 -12.15522,12.1552 l -45.38178,0 c -6.734,0 -12.15517,-5.4212 -12.15523,-12.1552 l -1.8e-4,-6.8671 -4.03809,0"
         inkscape:connector-curvature="0"
         sodipodi:nodetypes="cccccccssccccccssccc" />
      <rect
         style="fill:#564fc7;fill-opacity:1;stroke:#000000;stroke-width:0.71473902;stroke-linecap:round;stroke-linejoin:miter;stroke-miterlimit:4;stroke-opacity:1;stroke-dasharray:none;stroke-dashoffset:0"
         id="rect3920-0"
         width="52.247101"
         height="3.2248554"
         x="402.01935"
         y="846.41553" />
      <rect
         style="fill:#564fc7;fill-opacity:1;stroke:#000000;stroke-width:0.71473902;stroke-linecap:round;stroke-linejoin:miter;stroke-miterlimit:4;stroke-opacity:1;stroke-dasharray:none;stroke-dashoffset:0"
         id="rect4003"
         width="52.247101"
         height="3.2248554"
         x="402.01935"
         y="855.55487" />
      <rect
         style="fill:#564fc7;fill-opacity:1;stroke:#000000;stroke-width:0.71473902;stroke-linecap:round;stroke-linejoin:miter;stroke-miterlimit:4;stroke-opacity:1;stroke-dasharray:none;stroke-dashoffset:0"
         id="rect4007"
         width="52.247101"
         height="3.2248554"
         x="402.01935"
         y="873.83356" />
      <rect
         y="837.27618"
         x="402.01935"
         height="3.2248554"
         width="52.247101"
         id="rect4038"
         style="fill:#564fc7;fill-opacity:1;stroke:#000000;stroke-width:0.71473902;stroke-linecap:round;stroke-linejoin:miter;stroke-miterlimit:4;stroke-opacity:1;stroke-dasharray:none;stroke-dashoffset:0" />
      <path
         style="fill:none;stroke:#000000;stroke-width:2.53253984;stroke-linecap:butt;stroke-linejoin:miter;stroke-miterlimit:4;stroke-opacity:1;stroke-dasharray:none;marker-end:url(#Arrow1Send)"
         d="m 366.7381,850.675 16.12427,0"
         id="path4137"
         inkscape:connector-curvature="0" />
      <path
         inkscape:connector-curvature="0"
         id="path4788"
         d="m 366.7381,863.4097 16.12427,0"
         style="fill:none;stroke:#000000;stroke-width:2.53253984;stroke-linecap:butt;stroke-linejoin:miter;stroke-miterlimit:4;stroke-opacity:1;stroke-dasharray:none;marker-end:url(#Arrow1Send)" />
      <path
         style="fill:none;stroke:#000000;stroke-width:2.53253984;stroke-linecap:butt;stroke-linejoin:miter;stroke-miterlimit:4;stroke-opacity:1;stroke-dasharray:none;marker-end:url(#Arrow1Send)"
         d="m 468.28949,857.0423 16.12427,0"
         id="path4790"
         inkscape:connector-curvature="0" />
      <rect
         y="864.69421"
         x="402.01935"
         height="3.2248554"
         width="52.247101"
         id="rect3442"
         style="fill:#564fc7;fill-opacity:1;stroke:#000000;stroke-width:0.71473902;stroke-linecap:round;stroke-linejoin:miter;stroke-miterlimit:4;stroke-opacity:1;stroke-dasharray:none;stroke-dashoffset:0" />
    </g>
  </g>
</svg>
