<?xml version="1.0" encoding="UTF-8" standalone="no"?>
<!-- Created with Inkscape (http://www.inkscape.org/) -->

<svg
   xmlns:dc="http://purl.org/dc/elements/1.1/"
   xmlns:cc="http://creativecommons.org/ns#"
   xmlns:rdf="http://www.w3.org/1999/02/22-rdf-syntax-ns#"
   xmlns:svg="http://www.w3.org/2000/svg"
   xmlns="http://www.w3.org/2000/svg"
   xmlns:sodipodi="http://sodipodi.sourceforge.net/DTD/sodipodi-0.dtd"
   xmlns:inkscape="http://www.inkscape.org/namespaces/inkscape"
   width="171.26111"
   height="90.687889"
   id="svg2"
   version="1.1"
   inkscape:version="0.48.4 r9939"
   sodipodi:docname="reactors-z.pdf">
  <defs
     id="defs4">
    <marker
       style="overflow:visible"
       id="Arrow1MendT"
       refX="0"
       refY="0"
       orient="auto"
       inkscape:stockid="Arrow1MendT">
      <path
         inkscape:connector-curvature="0"
         transform="matrix(-0.4,0,0,-0.4,-4,0)"
         style="fill:#01c0ff;fill-rule:evenodd;stroke:#01c0ff;stroke-width:1pt"
         d="M 0,0 5,-5 -12.5,0 5,5 0,0 z"
         id="path4167" />
    </marker>
    <marker
       style="overflow:visible"
       id="Arrow1Mendp"
       refX="0"
       refY="0"
       orient="auto"
       inkscape:stockid="Arrow1Mendp">
      <path
         inkscape:connector-curvature="0"
         transform="matrix(-0.4,0,0,-0.4,-4,0)"
         style="fill:#564fc7;fill-rule:evenodd;stroke:#564fc7;stroke-width:1pt"
         d="M 0,0 5,-5 -12.5,0 5,5 0,0 z"
         id="path4158" />
    </marker>
    <marker
       style="overflow:visible"
       id="Arrow1Mendi"
       refX="0"
       refY="0"
       orient="auto"
       inkscape:stockid="Arrow1Mendi">
      <path
         inkscape:connector-curvature="0"
         transform="matrix(-0.4,0,0,-0.4,-4,0)"
         style="fill:#564fc7;fill-rule:evenodd;stroke:#564fc7;stroke-width:1pt"
         d="M 0,0 5,-5 -12.5,0 5,5 0,0 z"
         id="path4161" />
    </marker>
    <marker
       style="overflow:visible"
       id="Arrow1Mendq"
       refX="0"
       refY="0"
       orient="auto"
       inkscape:stockid="Arrow1Mendq">
      <path
         inkscape:connector-curvature="0"
         transform="matrix(-0.4,0,0,-0.4,-4,0)"
         style="fill:#564fc7;fill-rule:evenodd;stroke:#564fc7;stroke-width:1pt"
         d="M 0,0 5,-5 -12.5,0 5,5 0,0 z"
         id="path4173" />
    </marker>
    <marker
       style="overflow:visible"
       id="Arrow1MendK"
       refX="0"
       refY="0"
       orient="auto"
       inkscape:stockid="Arrow1MendK">
      <path
         inkscape:connector-curvature="0"
         transform="matrix(-0.4,0,0,-0.4,-4,0)"
         style="fill:#564fc7;fill-rule:evenodd;stroke:#564fc7;stroke-width:1pt"
         d="M 0,0 5,-5 -12.5,0 5,5 0,0 z"
         id="path4170" />
    </marker>
    <marker
       style="overflow:visible"
       id="Arrow1MendX"
       refX="0"
       refY="0"
       orient="auto"
       inkscape:stockid="Arrow1MendX">
      <path
         inkscape:connector-curvature="0"
         transform="matrix(-0.4,0,0,-0.4,-4,0)"
         style="fill:#564fc7;fill-rule:evenodd;stroke:#564fc7;stroke-width:1pt"
         d="M 0,0 5,-5 -12.5,0 5,5 0,0 z"
         id="path4164" />
    </marker>
    <marker
       style="overflow:visible"
       id="Arrow1Send"
       refX="0"
       refY="0"
       orient="auto"
       inkscape:stockid="Arrow1Send">
      <path
         inkscape:connector-curvature="0"
         transform="matrix(-0.2,0,0,-0.2,-1.2,0)"
         style="fill-rule:evenodd;stroke:#000000;stroke-width:1pt"
         d="M 0,0 5,-5 -12.5,0 5,5 0,0 z"
         id="path4177" />
    </marker>
    <marker
       style="overflow:visible"
       id="marker3161"
       refX="0"
       refY="0"
       orient="auto"
       inkscape:stockid="Arrow1Send">
      <path
         inkscape:connector-curvature="0"
         transform="matrix(-0.2,0,0,-0.2,-1.2,0)"
         style="fill-rule:evenodd;stroke:#000000;stroke-width:1pt"
         d="M 0,0 5,-5 -12.5,0 5,5 0,0 z"
         id="path3163" />
    </marker>
    <marker
       style="overflow:visible"
       id="marker3165"
       refX="0"
       refY="0"
       orient="auto"
       inkscape:stockid="Arrow1Send">
      <path
         inkscape:connector-curvature="0"
         transform="matrix(-0.2,0,0,-0.2,-1.2,0)"
         style="fill-rule:evenodd;stroke:#000000;stroke-width:1pt"
         d="M 0,0 5,-5 -12.5,0 5,5 0,0 z"
         id="path3167" />
    </marker>
    <marker
       style="overflow:visible"
       id="Arrow1Send-6"
       refX="0"
       refY="0"
       orient="auto"
       inkscape:stockid="Arrow1Send">
      <path
         inkscape:connector-curvature="0"
         transform="matrix(-0.2,0,0,-0.2,-1.2,0)"
         style="fill-rule:evenodd;stroke:#000000;stroke-width:1pt"
         d="M 0,0 5,-5 -12.5,0 5,5 0,0 z"
         id="path4177-8" />
    </marker>
    <marker
       style="overflow:visible"
       id="marker3219"
       refX="0"
       refY="0"
       orient="auto"
       inkscape:stockid="Arrow1Send">
      <path
         inkscape:connector-curvature="0"
         transform="matrix(-0.2,0,0,-0.2,-1.2,0)"
         style="fill-rule:evenodd;stroke:#000000;stroke-width:1pt"
         d="M 0,0 5,-5 -12.5,0 5,5 0,0 z"
         id="path3221" />
    </marker>
    <marker
       style="overflow:visible"
       id="marker3223"
       refX="0"
       refY="0"
       orient="auto"
       inkscape:stockid="Arrow1Send">
      <path
         inkscape:connector-curvature="0"
         transform="matrix(-0.2,0,0,-0.2,-1.2,0)"
         style="fill-rule:evenodd;stroke:#000000;stroke-width:1pt"
         d="M 0,0 5,-5 -12.5,0 5,5 0,0 z"
         id="path3225" />
    </marker>
    <marker
       style="overflow:visible"
       id="Arrow1MendT-7"
       refX="0"
       refY="0"
       orient="auto"
       inkscape:stockid="Arrow1MendT">
      <path
         inkscape:connector-curvature="0"
         transform="matrix(-0.4,0,0,-0.4,-4,0)"
         style="fill:#01c0ff;fill-rule:evenodd;stroke:#01c0ff;stroke-width:1pt"
         d="M 0,0 5,-5 -12.5,0 5,5 0,0 z"
         id="path4167-6" />
    </marker>
    <marker
       style="overflow:visible"
       id="Arrow1Mendp-0"
       refX="0"
       refY="0"
       orient="auto"
       inkscape:stockid="Arrow1Mendp">
      <path
         inkscape:connector-curvature="0"
         transform="matrix(-0.4,0,0,-0.4,-4,0)"
         style="fill:#564fc7;fill-rule:evenodd;stroke:#564fc7;stroke-width:1pt"
         d="M 0,0 5,-5 -12.5,0 5,5 0,0 z"
         id="path4158-0" />
    </marker>
    <marker
       style="overflow:visible"
       id="Arrow1Mendi-8"
       refX="0"
       refY="0"
       orient="auto"
       inkscape:stockid="Arrow1Mendi">
      <path
         inkscape:connector-curvature="0"
         transform="matrix(-0.4,0,0,-0.4,-4,0)"
         style="fill:#564fc7;fill-rule:evenodd;stroke:#564fc7;stroke-width:1pt"
         d="M 0,0 5,-5 -12.5,0 5,5 0,0 z"
         id="path4161-3" />
    </marker>
    <marker
       style="overflow:visible"
       id="Arrow1Mendq-0"
       refX="0"
       refY="0"
       orient="auto"
       inkscape:stockid="Arrow1Mendq">
      <path
         inkscape:connector-curvature="0"
         transform="matrix(-0.4,0,0,-0.4,-4,0)"
         style="fill:#564fc7;fill-rule:evenodd;stroke:#564fc7;stroke-width:1pt"
         d="M 0,0 5,-5 -12.5,0 5,5 0,0 z"
         id="path4173-5" />
    </marker>
    <marker
       style="overflow:visible"
       id="Arrow1MendK-0"
       refX="0"
       refY="0"
       orient="auto"
       inkscape:stockid="Arrow1MendK">
      <path
         inkscape:connector-curvature="0"
         transform="matrix(-0.4,0,0,-0.4,-4,0)"
         style="fill:#564fc7;fill-rule:evenodd;stroke:#564fc7;stroke-width:1pt"
         d="M 0,0 5,-5 -12.5,0 5,5 0,0 z"
         id="path4170-5" />
    </marker>
    <marker
       style="overflow:visible"
       id="Arrow1MendX-9"
       refX="0"
       refY="0"
       orient="auto"
       inkscape:stockid="Arrow1MendX">
      <path
         inkscape:connector-curvature="0"
         transform="matrix(-0.4,0,0,-0.4,-4,0)"
         style="fill:#564fc7;fill-rule:evenodd;stroke:#564fc7;stroke-width:1pt"
         d="M 0,0 5,-5 -12.5,0 5,5 0,0 z"
         id="path4164-8" />
    </marker>
    <marker
       style="overflow:visible"
       id="Arrow1MendX-0"
       refX="0"
       refY="0"
       orient="auto"
       inkscape:stockid="Arrow1MendX">
      <path
         inkscape:connector-curvature="0"
         transform="matrix(-0.4,0,0,-0.4,-4,0)"
         style="fill:#564fc7;fill-rule:evenodd;stroke:#564fc7;stroke-width:1pt"
         d="M 0,0 5,-5 -12.5,0 5,5 0,0 z"
         id="path4164-5" />
    </marker>
    <marker
       style="overflow:visible"
       id="Arrow1MendK-4"
       refX="0"
       refY="0"
       orient="auto"
       inkscape:stockid="Arrow1MendK">
      <path
         inkscape:connector-curvature="0"
         transform="matrix(-0.4,0,0,-0.4,-4,0)"
         style="fill:#564fc7;fill-rule:evenodd;stroke:#564fc7;stroke-width:1pt"
         d="M 0,0 5,-5 -12.5,0 5,5 0,0 z"
         id="path4170-0" />
    </marker>
    <marker
       style="overflow:visible"
       id="Arrow1Mendq-8"
       refX="0"
       refY="0"
       orient="auto"
       inkscape:stockid="Arrow1Mendq">
      <path
         inkscape:connector-curvature="0"
         transform="matrix(-0.4,0,0,-0.4,-4,0)"
         style="fill:#564fc7;fill-rule:evenodd;stroke:#564fc7;stroke-width:1pt"
         d="M 0,0 5,-5 -12.5,0 5,5 0,0 z"
         id="path4173-4" />
    </marker>
    <marker
       style="overflow:visible"
       id="Arrow1Mendi-3"
       refX="0"
       refY="0"
       orient="auto"
       inkscape:stockid="Arrow1Mendi">
      <path
         inkscape:connector-curvature="0"
         transform="matrix(-0.4,0,0,-0.4,-4,0)"
         style="fill:#564fc7;fill-rule:evenodd;stroke:#564fc7;stroke-width:1pt"
         d="M 0,0 5,-5 -12.5,0 5,5 0,0 z"
         id="path4161-6" />
    </marker>
    <marker
       style="overflow:visible"
       id="Arrow1Mendp-5"
       refX="0"
       refY="0"
       orient="auto"
       inkscape:stockid="Arrow1Mendp">
      <path
         inkscape:connector-curvature="0"
         transform="matrix(-0.4,0,0,-0.4,-4,0)"
         style="fill:#564fc7;fill-rule:evenodd;stroke:#564fc7;stroke-width:1pt"
         d="M 0,0 5,-5 -12.5,0 5,5 0,0 z"
         id="path4158-6" />
    </marker>
    <marker
       style="overflow:visible"
       id="Arrow1MendT-2"
       refX="0"
       refY="0"
       orient="auto"
       inkscape:stockid="Arrow1MendT">
      <path
         inkscape:connector-curvature="0"
         transform="matrix(-0.4,0,0,-0.4,-4,0)"
         style="fill:#01c0ff;fill-rule:evenodd;stroke:#01c0ff;stroke-width:1pt"
         d="M 0,0 5,-5 -12.5,0 5,5 0,0 z"
         id="path4167-5" />
    </marker>
    <marker
       style="overflow:visible"
       id="Arrow1MendX-6"
       refX="0"
       refY="0"
       orient="auto"
       inkscape:stockid="Arrow1MendX">
      <path
         inkscape:connector-curvature="0"
         transform="matrix(-0.4,0,0,-0.4,-4,0)"
         style="fill:#564fc7;fill-rule:evenodd;stroke:#564fc7;stroke-width:1pt"
         d="M 0,0 5,-5 -12.5,0 5,5 0,0 z"
         id="path4164-6" />
    </marker>
    <marker
       style="overflow:visible"
       id="Arrow1MendK-9"
       refX="0"
       refY="0"
       orient="auto"
       inkscape:stockid="Arrow1MendK">
      <path
         inkscape:connector-curvature="0"
         transform="matrix(-0.4,0,0,-0.4,-4,0)"
         style="fill:#564fc7;fill-rule:evenodd;stroke:#564fc7;stroke-width:1pt"
         d="M 0,0 5,-5 -12.5,0 5,5 0,0 z"
         id="path4170-4" />
    </marker>
    <marker
       style="overflow:visible"
       id="Arrow1Mendq-9"
       refX="0"
       refY="0"
       orient="auto"
       inkscape:stockid="Arrow1Mendq">
      <path
         inkscape:connector-curvature="0"
         transform="matrix(-0.4,0,0,-0.4,-4,0)"
         style="fill:#564fc7;fill-rule:evenodd;stroke:#564fc7;stroke-width:1pt"
         d="M 0,0 5,-5 -12.5,0 5,5 0,0 z"
         id="path4173-54" />
    </marker>
    <marker
       style="overflow:visible"
       id="Arrow1Mendi-1"
       refX="0"
       refY="0"
       orient="auto"
       inkscape:stockid="Arrow1Mendi">
      <path
         inkscape:connector-curvature="0"
         transform="matrix(-0.4,0,0,-0.4,-4,0)"
         style="fill:#564fc7;fill-rule:evenodd;stroke:#564fc7;stroke-width:1pt"
         d="M 0,0 5,-5 -12.5,0 5,5 0,0 z"
         id="path4161-9" />
    </marker>
    <marker
       style="overflow:visible"
       id="Arrow1Mendp-8"
       refX="0"
       refY="0"
       orient="auto"
       inkscape:stockid="Arrow1Mendp">
      <path
         inkscape:connector-curvature="0"
         transform="matrix(-0.4,0,0,-0.4,-4,0)"
         style="fill:#564fc7;fill-rule:evenodd;stroke:#564fc7;stroke-width:1pt"
         d="M 0,0 5,-5 -12.5,0 5,5 0,0 z"
         id="path4158-01" />
    </marker>
  </defs>
  <sodipodi:namedview
     id="base"
     pagecolor="#ffffff"
     bordercolor="#666666"
     borderopacity="1.0"
     inkscape:pageopacity="0.0"
     inkscape:pageshadow="2"
     inkscape:zoom="3.5742918"
     inkscape:cx="127.37167"
     inkscape:cy="61.289633"
     inkscape:document-units="px"
     inkscape:current-layer="layer1"
     showgrid="false"
     fit-margin-top="0"
     fit-margin-left="0"
     fit-margin-right="0"
     fit-margin-bottom="0"
     inkscape:window-width="1920"
     inkscape:window-height="1200"
     inkscape:window-x="0"
     inkscape:window-y="0"
     inkscape:window-maximized="0"
     units="cm" />
  <metadata
     id="metadata7">
    <rdf:RDF>
      <cc:Work
         rdf:about="">
        <dc:format>image/svg+xml</dc:format>
        <dc:type
           rdf:resource="http://purl.org/dc/dcmitype/StillImage" />
        <dc:title></dc:title>
      </cc:Work>
    </rdf:RDF>
  </metadata>
  <g
     inkscape:label="Layer 1"
     inkscape:groupmode="layer"
     id="layer1"
     transform="translate(-247.95555,-167.03771)">
    <g
       id="g4048"
       transform="translate(-12.291456,-67.826186)">
      <rect
         style="fill:#ffffff;fill-opacity:1;stroke:#000000;stroke-width:0.99999994;stroke-linecap:round;stroke-linejoin:miter;stroke-miterlimit:4;stroke-opacity:1;stroke-dasharray:none;stroke-dashoffset:0"
         id="rect2985-4"
         width="170.26111"
         height="89.687889"
         x="260.74701"
         y="235.36113"
         rx="17.006521"
         ry="17.006521" />
      <path
         style="fill:none;stroke:#564fc7;stroke-width:0.99999994px;stroke-linecap:butt;stroke-linejoin:miter;stroke-opacity:1;marker-end:url(#Arrow1Mendp)"
         d="m 345.87754,256.19321 0,43.62023"
         id="path5284"
         inkscape:connector-curvature="0"
         sodipodi:nodetypes="cc"
         inkscape:transform-center-y="16.510717" />
      <path
         inkscape:transform-center-y="15.937022"
         sodipodi:nodetypes="cc"
         inkscape:connector-curvature="0"
         id="path5286"
         d="m 347.74187,256.18076 13.51165,42.13389"
         style="fill:none;stroke:#564fc7;stroke-width:0.99999994px;stroke-linecap:butt;stroke-linejoin:miter;stroke-opacity:1;marker-end:url(#Arrow1Mendi)"
         inkscape:transform-center-x="-5.0258111" />
      <path
         inkscape:transform-center-x="5.0258445"
         style="fill:none;stroke:#564fc7;stroke-width:0.99999994px;stroke-linecap:butt;stroke-linejoin:miter;stroke-opacity:1;marker-end:url(#Arrow1Mendq)"
         d="m 344.0132,256.18076 -13.51163,42.13389"
         id="path5288"
         inkscape:connector-curvature="0"
         sodipodi:nodetypes="cc"
         inkscape:transform-center-y="15.937022" />
      <path
         inkscape:transform-center-y="14.260292"
         sodipodi:nodetypes="cc"
         inkscape:connector-curvature="0"
         id="path5290"
         d="m 342.1566,256.14421 -26.10249,37.77623"
         style="fill:none;stroke:#564fc7;stroke-width:0.99999994px;stroke-linecap:butt;stroke-linejoin:miter;stroke-opacity:1;marker-end:url(#Arrow1MendK)"
         inkscape:transform-center-x="9.8149229" />
      <path
         inkscape:transform-center-x="-9.8148908"
         style="fill:none;stroke:#564fc7;stroke-width:0.99999994px;stroke-linecap:butt;stroke-linejoin:miter;stroke-opacity:1;marker-end:url(#Arrow1MendX)"
         d="m 349.59849,256.14421 26.10249,37.77623"
         id="path5292"
         inkscape:connector-curvature="0"
         sodipodi:nodetypes="cc"
         inkscape:transform-center-y="14.260292" />
      <g
         transform="translate(12.291447,50.099407)"
         id="g4036">
        <rect
           y="258.63724"
           x="276.66632"
           height="16.312378"
           width="113.83958"
           id="rect3862-6"
           style="fill:#8b8b8b;fill-opacity:1;stroke:#000000;stroke-width:0.99999994;stroke-linecap:round;stroke-linejoin:miter;stroke-miterlimit:4;stroke-opacity:1;stroke-dasharray:none;stroke-dashoffset:0" />
        <rect
           y="254.11856"
           x="288.46677"
           height="4.5119338"
           width="90.23867"
           id="rect3920-8"
           style="fill:#564fc7;fill-opacity:1;stroke:#000000;stroke-width:0.99999994;stroke-linecap:round;stroke-linejoin:miter;stroke-miterlimit:4;stroke-opacity:1;stroke-dasharray:none;stroke-dashoffset:0" />
      </g>
      <path
         sodipodi:nodetypes="cscscscsc"
         inkscape:connector-curvature="0"
         id="path3919"
         d="m 330.53879,235.36113 c 0,0 -2.77693,8.02318 3.83469,8.02318 6.61161,0 3.83468,-6.52115 3.83468,-6.52115 0,0 -2.77693,6.52115 3.83469,6.52115 6.61161,0 3.83468,-6.52115 3.83468,-6.52115 0,0 -2.77693,6.52115 3.83469,6.52115 6.61162,0 3.83469,-6.52115 3.83469,-6.52115 0,0 -2.77693,6.52115 3.83468,6.52115 6.61162,0 3.83469,-8.02318 3.83469,-8.02318"
         style="fill:none;stroke:#000000;stroke-width:1px;stroke-linecap:butt;stroke-linejoin:bevel;stroke-opacity:1" />
      <rect
         style="fill:#554fc7;fill-opacity:1;stroke:#000000;stroke-width:0.99999994;stroke-linecap:round;stroke-linejoin:miter;stroke-miterlimit:4;stroke-opacity:1;stroke-dasharray:none;stroke-dashoffset:0"
         id="rect5248"
         width="34.608768"
         height="13.188729"
         x="328.57315"
         y="244.8735"
         rx="0"
         ry="0" />
    </g>
  </g>
</svg>
