<?xml version="1.0" encoding="UTF-8" standalone="no"?>
<!-- Created with Inkscape (http://www.inkscape.org/) -->

<svg
   xmlns:dc="http://purl.org/dc/elements/1.1/"
   xmlns:cc="http://creativecommons.org/ns#"
   xmlns:rdf="http://www.w3.org/1999/02/22-rdf-syntax-ns#"
   xmlns:svg="http://www.w3.org/2000/svg"
   xmlns="http://www.w3.org/2000/svg"
   xmlns:sodipodi="http://sodipodi.sourceforge.net/DTD/sodipodi-0.dtd"
   xmlns:inkscape="http://www.inkscape.org/namespaces/inkscape"
   width="171.26006"
   height="126.14"
   id="svg2"
   version="1.1"
   inkscape:version="0.48.4 r9939"
   sodipodi:docname="reactors-a.svg">
  <defs
     id="defs4">
    <marker
       style="overflow:visible"
       id="Arrow1MendT"
       refX="0"
       refY="0"
       orient="auto"
       inkscape:stockid="Arrow1MendT">
      <path
         inkscape:connector-curvature="0"
         transform="matrix(-0.4,0,0,-0.4,-4,0)"
         style="fill:#01c0ff;fill-rule:evenodd;stroke:#01c0ff;stroke-width:1pt"
         d="M 0,0 5,-5 -12.5,0 5,5 0,0 z"
         id="path4167" />
    </marker>
    <marker
       style="overflow:visible"
       id="Arrow1Mendp"
       refX="0"
       refY="0"
       orient="auto"
       inkscape:stockid="Arrow1Mendp">
      <path
         inkscape:connector-curvature="0"
         transform="matrix(-0.4,0,0,-0.4,-4,0)"
         style="fill:#564fc7;fill-rule:evenodd;stroke:#564fc7;stroke-width:1pt"
         d="M 0,0 5,-5 -12.5,0 5,5 0,0 z"
         id="path4158" />
    </marker>
    <marker
       style="overflow:visible"
       id="Arrow1Mendi"
       refX="0"
       refY="0"
       orient="auto"
       inkscape:stockid="Arrow1Mendi">
      <path
         inkscape:connector-curvature="0"
         transform="matrix(-0.4,0,0,-0.4,-4,0)"
         style="fill:#564fc7;fill-rule:evenodd;stroke:#564fc7;stroke-width:1pt"
         d="M 0,0 5,-5 -12.5,0 5,5 0,0 z"
         id="path4161" />
    </marker>
    <marker
       style="overflow:visible"
       id="Arrow1Mendq"
       refX="0"
       refY="0"
       orient="auto"
       inkscape:stockid="Arrow1Mendq">
      <path
         inkscape:connector-curvature="0"
         transform="matrix(-0.4,0,0,-0.4,-4,0)"
         style="fill:#564fc7;fill-rule:evenodd;stroke:#564fc7;stroke-width:1pt"
         d="M 0,0 5,-5 -12.5,0 5,5 0,0 z"
         id="path4173" />
    </marker>
    <marker
       style="overflow:visible"
       id="Arrow1MendK"
       refX="0"
       refY="0"
       orient="auto"
       inkscape:stockid="Arrow1MendK">
      <path
         inkscape:connector-curvature="0"
         transform="matrix(-0.4,0,0,-0.4,-4,0)"
         style="fill:#564fc7;fill-rule:evenodd;stroke:#564fc7;stroke-width:1pt"
         d="M 0,0 5,-5 -12.5,0 5,5 0,0 z"
         id="path4170" />
    </marker>
    <marker
       style="overflow:visible"
       id="Arrow1MendX"
       refX="0"
       refY="0"
       orient="auto"
       inkscape:stockid="Arrow1MendX">
      <path
         inkscape:connector-curvature="0"
         transform="matrix(-0.4,0,0,-0.4,-4,0)"
         style="fill:#564fc7;fill-rule:evenodd;stroke:#564fc7;stroke-width:1pt"
         d="M 0,0 5,-5 -12.5,0 5,5 0,0 z"
         id="path4164" />
    </marker>
    <marker
       style="overflow:visible"
       id="Arrow1Send"
       refX="0"
       refY="0"
       orient="auto"
       inkscape:stockid="Arrow1Send">
      <path
         inkscape:connector-curvature="0"
         transform="matrix(-0.2,0,0,-0.2,-1.2,0)"
         style="fill-rule:evenodd;stroke:#000000;stroke-width:1pt"
         d="M 0,0 5,-5 -12.5,0 5,5 0,0 z"
         id="path4177" />
    </marker>
    <marker
       style="overflow:visible"
       id="marker3161"
       refX="0"
       refY="0"
       orient="auto"
       inkscape:stockid="Arrow1Send">
      <path
         inkscape:connector-curvature="0"
         transform="matrix(-0.2,0,0,-0.2,-1.2,0)"
         style="fill-rule:evenodd;stroke:#000000;stroke-width:1pt"
         d="M 0,0 5,-5 -12.5,0 5,5 0,0 z"
         id="path3163" />
    </marker>
    <marker
       style="overflow:visible"
       id="marker3165"
       refX="0"
       refY="0"
       orient="auto"
       inkscape:stockid="Arrow1Send">
      <path
         inkscape:connector-curvature="0"
         transform="matrix(-0.2,0,0,-0.2,-1.2,0)"
         style="fill-rule:evenodd;stroke:#000000;stroke-width:1pt"
         d="M 0,0 5,-5 -12.5,0 5,5 0,0 z"
         id="path3167" />
    </marker>
    <marker
       style="overflow:visible"
       id="Arrow1Send-6"
       refX="0"
       refY="0"
       orient="auto"
       inkscape:stockid="Arrow1Send">
      <path
         inkscape:connector-curvature="0"
         transform="matrix(-0.2,0,0,-0.2,-1.2,0)"
         style="fill-rule:evenodd;stroke:#000000;stroke-width:1pt"
         d="M 0,0 5,-5 -12.5,0 5,5 0,0 z"
         id="path4177-8" />
    </marker>
    <marker
       style="overflow:visible"
       id="marker3219"
       refX="0"
       refY="0"
       orient="auto"
       inkscape:stockid="Arrow1Send">
      <path
         inkscape:connector-curvature="0"
         transform="matrix(-0.2,0,0,-0.2,-1.2,0)"
         style="fill-rule:evenodd;stroke:#000000;stroke-width:1pt"
         d="M 0,0 5,-5 -12.5,0 5,5 0,0 z"
         id="path3221" />
    </marker>
    <marker
       style="overflow:visible"
       id="marker3223"
       refX="0"
       refY="0"
       orient="auto"
       inkscape:stockid="Arrow1Send">
      <path
         inkscape:connector-curvature="0"
         transform="matrix(-0.2,0,0,-0.2,-1.2,0)"
         style="fill-rule:evenodd;stroke:#000000;stroke-width:1pt"
         d="M 0,0 5,-5 -12.5,0 5,5 0,0 z"
         id="path3225" />
    </marker>
    <marker
       style="overflow:visible"
       id="Arrow1MendT-7"
       refX="0"
       refY="0"
       orient="auto"
       inkscape:stockid="Arrow1MendT">
      <path
         inkscape:connector-curvature="0"
         transform="matrix(-0.4,0,0,-0.4,-4,0)"
         style="fill:#01c0ff;fill-rule:evenodd;stroke:#01c0ff;stroke-width:1pt"
         d="M 0,0 5,-5 -12.5,0 5,5 0,0 z"
         id="path4167-6" />
    </marker>
    <marker
       style="overflow:visible"
       id="Arrow1Mendp-0"
       refX="0"
       refY="0"
       orient="auto"
       inkscape:stockid="Arrow1Mendp">
      <path
         inkscape:connector-curvature="0"
         transform="matrix(-0.4,0,0,-0.4,-4,0)"
         style="fill:#564fc7;fill-rule:evenodd;stroke:#564fc7;stroke-width:1pt"
         d="M 0,0 5,-5 -12.5,0 5,5 0,0 z"
         id="path4158-0" />
    </marker>
    <marker
       style="overflow:visible"
       id="Arrow1Mendi-8"
       refX="0"
       refY="0"
       orient="auto"
       inkscape:stockid="Arrow1Mendi">
      <path
         inkscape:connector-curvature="0"
         transform="matrix(-0.4,0,0,-0.4,-4,0)"
         style="fill:#564fc7;fill-rule:evenodd;stroke:#564fc7;stroke-width:1pt"
         d="M 0,0 5,-5 -12.5,0 5,5 0,0 z"
         id="path4161-3" />
    </marker>
    <marker
       style="overflow:visible"
       id="Arrow1Mendq-0"
       refX="0"
       refY="0"
       orient="auto"
       inkscape:stockid="Arrow1Mendq">
      <path
         inkscape:connector-curvature="0"
         transform="matrix(-0.4,0,0,-0.4,-4,0)"
         style="fill:#564fc7;fill-rule:evenodd;stroke:#564fc7;stroke-width:1pt"
         d="M 0,0 5,-5 -12.5,0 5,5 0,0 z"
         id="path4173-5" />
    </marker>
    <marker
       style="overflow:visible"
       id="Arrow1MendK-0"
       refX="0"
       refY="0"
       orient="auto"
       inkscape:stockid="Arrow1MendK">
      <path
         inkscape:connector-curvature="0"
         transform="matrix(-0.4,0,0,-0.4,-4,0)"
         style="fill:#564fc7;fill-rule:evenodd;stroke:#564fc7;stroke-width:1pt"
         d="M 0,0 5,-5 -12.5,0 5,5 0,0 z"
         id="path4170-5" />
    </marker>
    <marker
       style="overflow:visible"
       id="Arrow1MendX-9"
       refX="0"
       refY="0"
       orient="auto"
       inkscape:stockid="Arrow1MendX">
      <path
         inkscape:connector-curvature="0"
         transform="matrix(-0.4,0,0,-0.4,-4,0)"
         style="fill:#564fc7;fill-rule:evenodd;stroke:#564fc7;stroke-width:1pt"
         d="M 0,0 5,-5 -12.5,0 5,5 0,0 z"
         id="path4164-8" />
    </marker>
  </defs>
  <sodipodi:namedview
     id="base"
     pagecolor="#ffffff"
     bordercolor="#666666"
     borderopacity="1.0"
     inkscape:pageopacity="0.0"
     inkscape:pageshadow="2"
     inkscape:zoom="1.4"
     inkscape:cx="100.61498"
     inkscape:cy="49.087152"
     inkscape:document-units="px"
     inkscape:current-layer="layer1"
     showgrid="false"
     fit-margin-top="0"
     fit-margin-left="0"
     fit-margin-right="0"
     fit-margin-bottom="0"
     inkscape:window-width="638"
     inkscape:window-height="1198"
     inkscape:window-x="1920"
     inkscape:window-y="0"
     inkscape:window-maximized="0" />
  <metadata
     id="metadata7">
    <rdf:RDF>
      <cc:Work
         rdf:about="">
        <dc:format>image/svg+xml</dc:format>
        <dc:type
           rdf:resource="http://purl.org/dc/dcmitype/StillImage" />
        <dc:title />
      </cc:Work>
    </rdf:RDF>
  </metadata>
  <g
     inkscape:label="Layer 1"
     inkscape:groupmode="layer"
     id="layer1"
     transform="translate(-247.95608,-149.30889)">
    <g
       id="g3282"
       transform="matrix(1.399112,0,0,1.399112,148.37147,-975.99636)">
      <rect
         style="fill:#ffffff;fill-opacity:1;stroke:#000000;stroke-width:0.71473902;stroke-linecap:round;stroke-linejoin:miter;stroke-miterlimit:4;stroke-opacity:1;stroke-dasharray:none;stroke-dashoffset:0"
         id="rect2985-4"
         width="121.69225"
         height="89.44368"
         x="71.534012"
         y="804.65637"
         rx="12.155225"
         ry="12.155225" />
      <rect
         style="fill:#8b8b8b;fill-opacity:1;stroke:#000000;stroke-width:0.71473902;stroke-linecap:round;stroke-linejoin:miter;stroke-miterlimit:4;stroke-opacity:1;stroke-dasharray:none;stroke-dashoffset:0"
         id="rect3862-6"
         width="81.365593"
         height="11.659094"
         x="91.697342"
         y="882.44086" />
      <rect
         style="fill:#01c0ff;fill-opacity:1;stroke:#000000;stroke-width:0.71473902;stroke-linecap:round;stroke-linejoin:miter;stroke-miterlimit:4;stroke-opacity:1;stroke-dasharray:none;stroke-dashoffset:0"
         id="rect5246"
         width="9.4265003"
         height="15.252398"
         x="71.534012"
         y="841.75195"
         rx="0"
         ry="0" />
      <path
         style="fill:none;stroke:#01c0ff;stroke-width:0.71473902px;stroke-linecap:butt;stroke-linejoin:miter;stroke-opacity:1;marker-end:url(#Arrow1MendT)"
         d="M 78.132729,850.6811 125.6356,816.5979"
         id="path4872"
         inkscape:connector-curvature="0"
         sodipodi:nodetypes="cc" />
      <path
         style="fill:none;stroke:#564fc7;stroke-width:0.71473902px;stroke-linecap:butt;stroke-linejoin:miter;stroke-opacity:1;marker-end:url(#Arrow1Mendp)"
         d="m 132.38013,812.77068 0,52.23779"
         id="path5284"
         inkscape:connector-curvature="0"
         sodipodi:nodetypes="cc"
         inkscape:transform-center-y="27.410722" />
      <path
         inkscape:transform-center-y="26.472453"
         sodipodi:nodetypes="cc"
         inkscape:connector-curvature="0"
         id="path5286"
         d="m 134.246,812.75576 13.52276,50.45782"
         style="fill:none;stroke:#564fc7;stroke-width:0.71473902px;stroke-linecap:butt;stroke-linejoin:miter;stroke-opacity:1;marker-end:url(#Arrow1Mendi)"
         inkscape:transform-center-x="-7.0630331" />
      <path
         inkscape:transform-center-x="7.0630331"
         style="fill:none;stroke:#564fc7;stroke-width:0.71473902px;stroke-linecap:butt;stroke-linejoin:miter;stroke-opacity:1;marker-end:url(#Arrow1Mendq)"
         d="m 130.51426,812.75576 -13.52275,50.45782"
         id="path5288"
         inkscape:connector-curvature="0"
         sodipodi:nodetypes="cc"
         inkscape:transform-center-y="26.472453" />
      <path
         inkscape:transform-center-y="23.721607"
         sodipodi:nodetypes="cc"
         inkscape:connector-curvature="0"
         id="path5290"
         d="m 128.65613,812.71199 -26.12397,45.23926"
         style="fill:none;stroke:#564fc7;stroke-width:0.71473902px;stroke-linecap:butt;stroke-linejoin:miter;stroke-opacity:1;marker-end:url(#Arrow1MendK)"
         inkscape:transform-center-x="13.645519" />
      <path
         inkscape:transform-center-x="-13.645518"
         style="fill:none;stroke:#564fc7;stroke-width:0.71473902px;stroke-linecap:butt;stroke-linejoin:miter;stroke-opacity:1;marker-end:url(#Arrow1MendX)"
         d="m 136.10414,812.71199 26.12397,45.23926"
         id="path5292"
         inkscape:connector-curvature="0"
         sodipodi:nodetypes="cc"
         inkscape:transform-center-y="23.721607" />
      <rect
         style="fill:#554fc7;fill-opacity:1;stroke:#000000;stroke-width:0.71473902;stroke-linecap:round;stroke-linejoin:miter;stroke-miterlimit:4;stroke-opacity:1;stroke-dasharray:none;stroke-dashoffset:0"
         id="rect5248"
         width="47.132504"
         height="9.4265003"
         x="108.81387"
         y="804.65637"
         rx="0"
         ry="0" />
      <rect
         style="fill:#564fc7;fill-opacity:1;stroke:#000000;stroke-width:0.71473902;stroke-linecap:round;stroke-linejoin:miter;stroke-miterlimit:4;stroke-opacity:1;stroke-dasharray:none;stroke-dashoffset:0"
         id="rect3920-8"
         width="64.497101"
         height="3.2248554"
         x="100.13158"
         y="879.21118" />
    </g>
  </g>
</svg>
