<?xml version="1.0" encoding="UTF-8" standalone="no"?>
<!-- Created with Inkscape (http://www.inkscape.org/) -->

<svg
   xmlns:dc="http://purl.org/dc/elements/1.1/"
   xmlns:cc="http://creativecommons.org/ns#"
   xmlns:rdf="http://www.w3.org/1999/02/22-rdf-syntax-ns#"
   xmlns:svg="http://www.w3.org/2000/svg"
   xmlns="http://www.w3.org/2000/svg"
   xmlns:sodipodi="http://sodipodi.sourceforge.net/DTD/sodipodi-0.dtd"
   xmlns:inkscape="http://www.inkscape.org/namespaces/inkscape"
   width="169.61671"
   height="109.36721"
   id="svg2"
   version="1.1"
   inkscape:version="0.48.4 r9939"
   sodipodi:docname="reactors-b.svg">
  <defs
     id="defs4">
    <marker
       style="overflow:visible"
       id="Arrow1Send"
       refX="0"
       refY="0"
       orient="auto"
       inkscape:stockid="Arrow1Send">
      <path
         inkscape:connector-curvature="0"
         transform="matrix(-0.2,0,0,-0.2,-1.2,0)"
         style="fill-rule:evenodd;stroke:#000000;stroke-width:1pt"
         d="M 0,0 5,-5 -12.5,0 5,5 0,0 z"
         id="path4177" />
    </marker>
    <marker
       style="overflow:visible"
       id="marker3347"
       refX="0"
       refY="0"
       orient="auto"
       inkscape:stockid="Arrow1Send">
      <path
         inkscape:connector-curvature="0"
         transform="matrix(-0.2,0,0,-0.2,-1.2,0)"
         style="fill-rule:evenodd;stroke:#000000;stroke-width:1pt"
         d="M 0,0 5,-5 -12.5,0 5,5 0,0 z"
         id="path3349" />
    </marker>
    <marker
       style="overflow:visible"
       id="marker3351"
       refX="0"
       refY="0"
       orient="auto"
       inkscape:stockid="Arrow1Send">
      <path
         inkscape:connector-curvature="0"
         transform="matrix(-0.2,0,0,-0.2,-1.2,0)"
         style="fill-rule:evenodd;stroke:#000000;stroke-width:1pt"
         d="M 0,0 5,-5 -12.5,0 5,5 0,0 z"
         id="path3353" />
    </marker>
  </defs>
  <sodipodi:namedview
     id="base"
     pagecolor="#ffffff"
     bordercolor="#666666"
     borderopacity="1.0"
     inkscape:pageopacity="0.0"
     inkscape:pageshadow="2"
     inkscape:zoom="1.979899"
     inkscape:cx="44.387842"
     inkscape:cy="45.422188"
     inkscape:document-units="px"
     inkscape:current-layer="layer1"
     showgrid="false"
     fit-margin-top="0"
     fit-margin-left="0"
     fit-margin-right="0"
     fit-margin-bottom="0"
     inkscape:window-width="638"
     inkscape:window-height="1198"
     inkscape:window-x="2560"
     inkscape:window-y="0"
     inkscape:window-maximized="0" />
  <metadata
     id="metadata7">
    <rdf:RDF>
      <cc:Work
         rdf:about="">
        <dc:format>image/svg+xml</dc:format>
        <dc:type
           rdf:resource="http://purl.org/dc/dcmitype/StillImage" />
        <dc:title />
      </cc:Work>
    </rdf:RDF>
  </metadata>
  <g
     inkscape:label="Layer 1"
     inkscape:groupmode="layer"
     id="layer1"
     transform="translate(-301.49793,-292.14623)">
    <g
       id="g3274"
       transform="matrix(1.399112,0,0,1.399112,202.16634,-977.14243)">
      <path
         id="path5468"
         style="fill:none;stroke:#000000;stroke-width:0.71473902;stroke-linecap:square;stroke-linejoin:round;stroke-miterlimit:4;stroke-opacity:1;stroke-dashoffset:0"
         d="m 170.81274,979.64567 -2.84673,0 -4.1e-4,-5.60175 0.4254,-0.0696 c 6.73399,0 12.15478,-5.42123 12.15478,-12.15522 l 0,-21.72171 c 0,-6.734 -5.42123,-12.15524 -12.15523,-12.15524 l -27.67062,0.0938 -1e-4,-20.46839 -45.72982,4e-4 m 67.72272,66.47585 0,5.60202 -73.52617,0.12327 -3e-5,-5.3924 z m -67.72272,-51.40049 30.65403,-1.4e-4 3e-4,5.39277 -42.13558,-0.0938 c -6.734,0 -12.15522,5.42124 -12.15522,12.15524 l 0,21.72171 c 0,6.73399 5.42122,12.15522 12.15522,12.15522 l 0.42491,0.4024 0,10.64512 86.87907,0 m -75.82245,-72.2014 40.47665,-1.5e-4 1.2e-4,15.21568 -4.56985,0 -2.8e-4,-10.64549 -35.90692,0"
         inkscape:connector-curvature="0"
         sodipodi:nodetypes="ccccsscccccccccccccsscccccccccc" />
      <path
         style="fill:none;stroke:#000000;stroke-width:2.53253984;stroke-linecap:butt;stroke-linejoin:miter;stroke-miterlimit:4;stroke-opacity:1;stroke-dasharray:none;marker-end:url(#Arrow1Send)"
         d="m 72.662365,910.19409 16.12427,0"
         id="path4137-7"
         inkscape:connector-curvature="0" />
      <path
         style="fill:none;stroke:#000000;stroke-width:2.53253984;stroke-linecap:butt;stroke-linejoin:miter;stroke-miterlimit:4;stroke-opacity:1;stroke-dasharray:none;marker-end:url(#Arrow1Send)"
         d="m 72.662365,920.11346 16.12427,0"
         id="path4137-76"
         inkscape:connector-curvature="0" />
      <path
         style="fill:none;stroke:#000000;stroke-width:2.53253984;stroke-linecap:butt;stroke-linejoin:miter;stroke-miterlimit:4;stroke-opacity:1;stroke-dasharray:none;marker-end:url(#Arrow1Send)"
         d="m 172.49472,982.21132 16.12427,0"
         id="path4790-2"
         inkscape:connector-curvature="0" />
      <rect
         style="fill:#8b8b8b;fill-opacity:1;stroke:#000000;stroke-width:0.71473902;stroke-linecap:round;stroke-linejoin:miter;stroke-miterlimit:4;stroke-opacity:1;stroke-dasharray:none;stroke-dashoffset:0"
         id="rect3862-6-8"
         width="70.990593"
         height="11.659094"
         x="90.351227"
         y="962.38495" />
      <rect
         style="fill:#564fc7;fill-opacity:1;stroke:#000000;stroke-width:0.71473902;stroke-linecap:round;stroke-linejoin:miter;stroke-miterlimit:4;stroke-opacity:1;stroke-dasharray:none;stroke-dashoffset:0"
         id="rect3920-8-9"
         width="56.273018"
         height="3.2248554"
         x="97.710007"
         y="959.15527" />
    </g>
  </g>
</svg>
