<?xml version="1.0" encoding="UTF-8" standalone="no"?>
<!-- Created with Inkscape (http://www.inkscape.org/) -->

<svg
   xmlns:dc="http://purl.org/dc/elements/1.1/"
   xmlns:cc="http://creativecommons.org/ns#"
   xmlns:rdf="http://www.w3.org/1999/02/22-rdf-syntax-ns#"
   xmlns:svg="http://www.w3.org/2000/svg"
   xmlns="http://www.w3.org/2000/svg"
   xmlns:sodipodi="http://sodipodi.sourceforge.net/DTD/sodipodi-0.dtd"
   xmlns:inkscape="http://www.inkscape.org/namespaces/inkscape"
   width="656.39331"
   height="377.95584"
   id="svg2"
   version="1.1"
   inkscape:version="0.48.4 r9939"
   sodipodi:docname="sterichindrance_noalpha.pdf">
  <sodipodi:namedview
     id="base"
     pagecolor="#ffffff"
     bordercolor="#666666"
     borderopacity="1.0"
     inkscape:pageopacity="0.0"
     inkscape:pageshadow="2"
     inkscape:zoom="1.4628906"
     inkscape:cx="384.67745"
     inkscape:cy="93.793045"
     inkscape:document-units="px"
     inkscape:current-layer="g3888"
     showgrid="false"
     inkscape:window-width="1918"
     inkscape:window-height="1198"
     inkscape:window-x="0"
     inkscape:window-y="0"
     inkscape:window-maximized="0"
     fit-margin-top="0"
     fit-margin-left="0"
     fit-margin-right="0"
     fit-margin-bottom="0"
     units="mm" />
  <defs
     id="defs4" />
  <metadata
     id="metadata7">
    <rdf:RDF>
      <cc:Work
         rdf:about="">
        <dc:format>image/svg+xml</dc:format>
        <dc:type
           rdf:resource="http://purl.org/dc/dcmitype/StillImage" />
        <dc:title></dc:title>
      </cc:Work>
    </rdf:RDF>
  </metadata>
  <g
     id="layer1"
     inkscape:groupmode="layer"
     inkscape:label="Layer 1"
     transform="translate(-2.1528664,-39.950443)">
    <g
       id="g3851">
      <path
         inkscape:connector-curvature="0"
         id="path3841"
         d="m 238.93407,417.23169 c 38.63159,-31.97882 58.72121,-83.73837 47.78125,-136.25 -8.06476,-38.7107 -31.41442,-70.33804 -62.4375,-89.84375 l 5e-5,0 c 0.91705,3.22589 1.74249,6.5093 2.4375,9.84375 l 0.0312,0 c 15.742,75.56136 -32.75114,149.5705 -108.3125,165.3125 -36.854703,7.67809 -73.36667,0.0715 -102.906254,-18.5 7.974834,28.08202 24.157935,51.93203 45.375,69.4375"
         style="fill:#80ff80;fill-opacity:1;stroke:#000000;stroke-width:1.34911335;stroke-opacity:1"
         sodipodi:nodetypes="csccccscc" />
      <path
         sodipodi:nodetypes="csscscc"
         inkscape:connector-curvature="0"
         id="path3786"
         d="m 302.21537,40.63794 c -39.52541,31.88139 -60.1936,84.24592 -49.125,137.375 15.742,75.56136 89.75114,124.0545 165.3125,108.3125 7.34339,-1.52988 14.42079,-3.63975 21.21875,-6.21875 -2.73805,-7.07116 -4.93387,-14.45758 -6.53125,-22.125 C 418.87808,189.7629 457.03162,122.80914 520.18412,98.85669 511.14575,75.52187 496.216,55.66163 477.52787,40.63794"
         style="fill:#80ff80;fill-opacity:1;stroke:#000000;stroke-width:1.34911335;stroke-opacity:1" />
      <path
         sodipodi:nodetypes="ccscc"
         inkscape:connector-curvature="0"
         id="path4825"
         transform="translate(2.1528664,39.950443)"
         d="m 637.375,377.28125 c -8.16534,-20.32651 -20.82234,-37.95458 -36.53125,-51.96875 -1.51588,0.36836 -3.05503,0.71068 -4.59375,1.03125 -45.10535,9.39698 -89.65791,-4.08627 -121.59375,-32.5625 -45.2211,10.99926 -80.18524,43.05676 -96.53125,83.5"
         style="fill:#80ff80;fill-opacity:1;stroke:#000000;stroke-width:1.34911335;stroke-opacity:1" />
    </g>
    <g
       id="g3884">
      <path
         sodipodi:nodetypes="ccssscssc"
         inkscape:connector-curvature="0"
         id="path3835"
         d="m 2.84037,338.79419 c 4.06569,3.23504 8.29197,6.23654 12.6875,9 -0.91323,-3.21578 -1.7451,-6.48896 -2.4375,-9.8125 -15.74201,-75.56136 32.75114,-149.5705 108.3125,-165.3125 9.44517,-1.96775 18.87017,-2.93575 28.15625,-2.96875 26.93464,-0.0957 52.72941,7.63721 74.6875,21.4375 C 206.97906,130.41028 151.27648,89.480387 89.55912,89.700443 c -9.28551,0.03311 -18.71171,1.00113 -28.15625,2.96875 -22.16821,4.618393 -41.99245,14.251347 -58.5625,27.468747"
         style="fill:#ff8080;fill-opacity:1;stroke:#000000;stroke-width:1.34911335;stroke-opacity:1" />
      <path
         inkscape:connector-curvature="0"
         id="path3803"
         d="m 657.87162,120.88794 c -24.52854,-19.84797 -55.57439,-31.303814 -88.3125,-31.187497 -9.28608,0.03299 -18.71108,1.001 -28.15625,2.96875 -7.34257,1.529707 -14.42148,3.609435 -21.21875,6.1875 2.73712,7.066557 4.93394,14.461547 6.53125,22.124997 14.21212,68.21797 -23.9426,135.16686 -87.09375,159.125 8.13784,21.01642 21.05254,39.23794 37.1875,53.625 1.52456,-0.37082 3.04616,-0.74008 4.59375,-1.0625 9.44454,-1.96762 18.87074,-2.93565 28.15625,-2.96875 35.06391,-0.12502 68.19328,13.04173 93.4375,35.5625 20.72045,-5.03505 39.26683,-14.49271 54.875,-27.15625"
         style="fill:#ff8080;fill-opacity:1;stroke:#000000;stroke-width:1.34911335;stroke-opacity:1"
         sodipodi:nodetypes="cssccccsscc" />
    </g>
    <g
       id="g3888">
      <path
         id="path3837"
         transform="translate(2.1528664,39.950443)"
         d="M 147.40625 129.75 C 138.12017 129.783 128.69517 130.751 119.25 132.71875 C 43.688641 148.46075 -4.8045037 222.46989 10.9375 298.03125 C 11.629906 301.35479 12.461773 304.62797 13.375 307.84375 C 42.914584 326.41524 79.426551 334.02184 116.28125 326.34375 C 191.84261 310.60175 240.33575 236.59261 224.59375 161.03125 L 224.5625 161.03125 C 223.86749 157.6968 223.04205 154.41339 222.125 151.1875 C 200.16202 137.37831 174.35013 129.65427 147.40625 129.75 z "
         style="fill:#bf833f;fill-opacity:1;stroke:#000000;stroke-width:1.34911335000000010;stroke-opacity:1" />
      <path
         inkscape:connector-curvature="0"
         id="path3798"
         d="m 509.55912,329.70044 c -9.28551,0.0331 -18.71171,1.00113 -28.15625,2.96875 -1.54759,0.32242 -3.06919,0.69168 -4.59375,1.0625 31.93584,28.47623 76.4884,41.95948 121.59375,32.5625 1.53872,-0.32057 3.07787,-0.66289 4.59375,-1.03125 -25.24422,-22.52077 -58.37359,-35.68752 -93.4375,-35.5625 z"
         style="fill:#bf833f;fill-opacity:1;stroke:#000000;stroke-width:1.34911335;stroke-opacity:1" />
      <path
         inkscape:connector-curvature="0"
         id="path4795"
         d="m 520.18412,98.856693 c -63.1525,23.952457 -101.30604,90.906207 -87.09375,159.124997 1.59738,7.66742 3.7932,15.05384 6.53125,22.125 63.15115,-23.95814 101.30587,-90.90703 87.09375,-159.125 -1.59731,-7.66345 -3.79413,-15.05844 -6.53125,-22.124997 z"
         style="fill:#bf833f;fill-opacity:1;stroke:#000000;stroke-width:1.34911335000000010;stroke-opacity:1" />
    </g>
    <path
       sodipodi:type="arc"
       style="fill:#008000;fill-opacity:1;stroke:none"
       id="path3862"
       sodipodi:cx="89.90358"
       sodipodi:cy="69.483757"
       sodipodi:rx="6.5659914"
       sodipodi:ry="6.5659914"
       d="m 96.469571,69.483757 a 6.5659914,6.5659914 0 1 1 -13.131983,0 6.5659914,6.5659914 0 1 1 13.131983,0 z"
       transform="matrix(1.3491135,0,0,1.3491135,268.61345,55.74228)" />
    <g
       id="g3966">
      <path
         transform="matrix(1.3491135,0,0,1.3491135,448.61345,135.74228)"
         d="m 96.469571,69.483757 c 0,3.626297 -2.939694,6.565991 -6.565991,6.565991 -3.626297,0 -6.565992,-2.939694 -6.565992,-6.565991 0,-3.626297 2.939695,-6.565991 6.565992,-6.565991 3.626297,0 6.565991,2.939694 6.565991,6.565991 z"
         sodipodi:ry="6.5659914"
         sodipodi:rx="6.5659914"
         sodipodi:cy="69.483757"
         sodipodi:cx="89.90358"
         id="path3876"
         style="fill:#800000;fill-opacity:1;stroke:none"
         sodipodi:type="arc" />
      <path
         transform="matrix(1.3491135,0,0,1.3491135,-31.386554,135.74228)"
         d="m 96.469571,69.483757 a 6.5659914,6.5659914 0 1 1 -13.131983,0 6.5659914,6.5659914 0 1 1 13.131983,0 z"
         sodipodi:ry="6.5659914"
         sodipodi:rx="6.5659914"
         sodipodi:cy="69.483757"
         sodipodi:cx="89.90358"
         id="path3868"
         style="fill:#800000;fill-opacity:1;stroke:none"
         sodipodi:type="arc" />
    </g>
    <g
       id="g3940">
      <path
         sodipodi:type="arc"
         style="fill:#000000;fill-opacity:1;stroke:none"
         id="path2985"
         sodipodi:cx="89.90358"
         sodipodi:cy="69.483757"
         sodipodi:rx="6.5659914"
         sodipodi:ry="6.5659914"
         d="m 96.469571,69.483757 a 6.5659914,6.5659914 0 1 1 -13.131983,0 6.5659914,6.5659914 0 1 1 13.131983,0 z"
         transform="matrix(1.3491135,0,0,1.3491135,-31.386554,-24.257718)" />
      <path
         transform="matrix(1.3491135,0,0,1.3491135,88.61345,-24.257718)"
         d="m 96.469571,69.483757 a 6.5659914,6.5659914 0 1 1 -13.131983,0 6.5659914,6.5659914 0 1 1 13.131983,0 z"
         sodipodi:ry="6.5659914"
         sodipodi:rx="6.5659914"
         sodipodi:cy="69.483757"
         sodipodi:cx="89.90358"
         id="path3826"
         style="fill:#000000;fill-opacity:1;stroke:none"
         sodipodi:type="arc" />
      <path
         sodipodi:type="arc"
         style="fill:#000000;fill-opacity:1;stroke:none"
         id="path3844"
         sodipodi:cx="89.90358"
         sodipodi:cy="69.483757"
         sodipodi:rx="6.5659914"
         sodipodi:ry="6.5659914"
         d="m 96.469571,69.483757 a 6.5659914,6.5659914 0 1 1 -13.131983,0 6.5659914,6.5659914 0 1 1 13.131983,0 z"
         transform="matrix(1.3491135,0,0,1.3491135,448.61345,-24.257718)" />
      <path
         sodipodi:type="arc"
         style="fill:#000000;fill-opacity:1;stroke:none"
         id="path3858"
         sodipodi:cx="89.90358"
         sodipodi:cy="69.483757"
         sodipodi:rx="6.5659914"
         sodipodi:ry="6.5659914"
         d="m 96.469571,69.483757 a 6.5659914,6.5659914 0 1 1 -13.131983,0 6.5659914,6.5659914 0 1 1 13.131983,0 z"
         transform="matrix(1.3491135,0,0,1.3491135,28.613446,55.74228)" />
      <path
         sodipodi:type="arc"
         style="fill:#000000;fill-opacity:1;stroke:none"
         id="path3870"
         sodipodi:cx="89.90358"
         sodipodi:cy="69.483757"
         sodipodi:rx="6.5659914"
         sodipodi:ry="6.5659914"
         d="m 96.469571,69.483757 a 6.5659914,6.5659914 0 1 1 -13.131983,0 6.5659914,6.5659914 0 1 1 13.131983,0 z"
         transform="matrix(1.3491135,0,0,1.3491135,88.61345,135.74228)" />
      <path
         sodipodi:type="arc"
         style="fill:#000000;fill-opacity:1;stroke:none"
         id="path3880"
         sodipodi:cx="89.90358"
         sodipodi:cy="69.483757"
         sodipodi:rx="6.5659914"
         sodipodi:ry="6.5659914"
         d="m 96.469571,69.483757 a 6.5659914,6.5659914 0 1 1 -13.131983,0 6.5659914,6.5659914 0 1 1 13.131983,0 z"
         transform="matrix(1.3491135,0,0,1.3491135,148.61345,215.74228)" />
      <path
         sodipodi:type="arc"
         style="fill:#000000;fill-opacity:1;stroke:none"
         id="path3882"
         sodipodi:cx="89.90358"
         sodipodi:cy="69.483757"
         sodipodi:rx="6.5659914"
         sodipodi:ry="6.5659914"
         d="m 96.469571,69.483757 a 6.5659914,6.5659914 0 1 1 -13.131983,0 6.5659914,6.5659914 0 1 1 13.131983,0 z"
         transform="matrix(1.3491135,0,0,1.3491135,268.61345,215.74228)" />
      <path
         sodipodi:type="arc"
         style="fill:#000000;fill-opacity:1;stroke:none"
         id="path3888"
         sodipodi:cx="89.90358"
         sodipodi:cy="69.483757"
         sodipodi:rx="6.5659914"
         sodipodi:ry="6.5659914"
         d="m 96.469571,69.483757 a 6.5659914,6.5659914 0 1 1 -13.131983,0 6.5659914,6.5659914 0 1 1 13.131983,0 z"
         transform="matrix(1.3491135,0,0,1.3491135,-31.386554,295.74228)" />
      <path
         transform="matrix(1.3491135,0,0,1.3491135,88.61345,295.74228)"
         d="m 96.469571,69.483757 a 6.5659914,6.5659914 0 1 1 -13.131983,0 6.5659914,6.5659914 0 1 1 13.131983,0 z"
         sodipodi:ry="6.5659914"
         sodipodi:rx="6.5659914"
         sodipodi:cy="69.483757"
         sodipodi:cx="89.90358"
         id="path3890"
         style="fill:#000000;fill-opacity:1;stroke:none"
         sodipodi:type="arc" />
      <path
         transform="matrix(1.3491135,0,0,1.3491135,208.61345,295.74228)"
         d="m 96.469571,69.483757 a 6.5659914,6.5659914 0 1 1 -13.131983,0 6.5659914,6.5659914 0 1 1 13.131983,0 z"
         sodipodi:ry="6.5659914"
         sodipodi:rx="6.5659914"
         sodipodi:cy="69.483757"
         sodipodi:cx="89.90358"
         id="path3892"
         style="fill:#000000;fill-opacity:1;stroke:none"
         sodipodi:type="arc" />
      <path
         transform="matrix(1.3491135,0,0,1.3491135,-91.38655,215.74228)"
         d="m 96.469571,69.483757 a 6.5659914,6.5659914 0 1 1 -13.131983,0 6.5659914,6.5659914 0 1 1 13.131983,0 z"
         sodipodi:ry="6.5659914"
         sodipodi:rx="6.5659914"
         sodipodi:cy="69.483757"
         sodipodi:cx="89.90358"
         id="path4811"
         style="fill:#000000;fill-opacity:1;stroke:none"
         sodipodi:type="arc" />
      <path
         sodipodi:type="arc"
         style="fill:#000000;fill-opacity:1;stroke:none"
         id="path4813"
         sodipodi:cx="89.90358"
         sodipodi:cy="69.483757"
         sodipodi:rx="6.5659914"
         sodipodi:ry="6.5659914"
         d="m 96.469571,69.483757 a 6.5659914,6.5659914 0 1 1 -13.131983,0 6.5659914,6.5659914 0 1 1 13.131983,0 z"
         transform="matrix(1.3491135,0,0,1.3491135,-91.38655,55.74228)" />
      <path
         transform="matrix(1.3491135,0,0,1.3491135,208.61345,-24.257718)"
         d="m 96.469571,69.483757 a 6.5659914,6.5659914 0 1 1 -13.131983,0 6.5659914,6.5659914 0 1 1 13.131983,0 z"
         sodipodi:ry="6.5659914"
         sodipodi:rx="6.5659914"
         sodipodi:cy="69.483757"
         sodipodi:cx="89.90358"
         id="path3828"
         style="fill:#000000;fill-opacity:1;stroke:none"
         sodipodi:type="arc" />
      <path
         sodipodi:type="arc"
         style="fill:#000000;fill-opacity:1;stroke:none"
         id="path3830"
         sodipodi:cx="89.90358"
         sodipodi:cy="69.483757"
         sodipodi:rx="6.5659914"
         sodipodi:ry="6.5659914"
         d="m 96.469571,69.483757 a 6.5659914,6.5659914 0 1 1 -13.131983,0 6.5659914,6.5659914 0 1 1 13.131983,0 z"
         transform="matrix(1.3491135,0,0,1.3491135,328.61345,-24.257718)" />
      <path
         sodipodi:type="arc"
         style="fill:#000000;fill-opacity:1;stroke:none"
         id="path3872"
         sodipodi:cx="89.90358"
         sodipodi:cy="69.483757"
         sodipodi:rx="6.5659914"
         sodipodi:ry="6.5659914"
         d="m 96.469571,69.483757 a 6.5659914,6.5659914 0 1 1 -13.131983,0 6.5659914,6.5659914 0 1 1 13.131983,0 z"
         transform="matrix(1.3491135,0,0,1.3491135,208.61345,135.74228)" />
      <path
         transform="matrix(1.3491135,0,0,1.3491135,328.61345,135.74228)"
         d="m 96.469571,69.483757 a 6.5659914,6.5659914 0 1 1 -13.131983,0 6.5659914,6.5659914 0 1 1 13.131983,0 z"
         sodipodi:ry="6.5659914"
         sodipodi:rx="6.5659914"
         sodipodi:cy="69.483757"
         sodipodi:cx="89.90358"
         id="path3874"
         style="fill:#000000;fill-opacity:1;stroke:none"
         sodipodi:type="arc" />
      <path
         transform="matrix(1.3491135,0,0,1.3491135,148.61345,55.74228)"
         d="m 96.469571,69.483757 a 6.5659914,6.5659914 0 1 1 -13.131983,0 6.5659914,6.5659914 0 1 1 13.131983,0 z"
         sodipodi:ry="6.5659914"
         sodipodi:rx="6.5659914"
         sodipodi:cy="69.483757"
         sodipodi:cx="89.90358"
         id="path3860"
         style="fill:#000000;fill-opacity:1;stroke:none"
         sodipodi:type="arc" />
      <path
         sodipodi:type="arc"
         style="fill:#000000;fill-opacity:1;stroke:none"
         id="path3866"
         sodipodi:cx="89.90358"
         sodipodi:cy="69.483757"
         sodipodi:rx="6.5659914"
         sodipodi:ry="6.5659914"
         d="m 96.469571,69.483757 a 6.5659914,6.5659914 0 1 1 -13.131983,0 6.5659914,6.5659914 0 1 1 13.131983,0 z"
         transform="matrix(1.3491135,0,0,1.3491135,508.61345,55.74228)" />
      <path
         transform="matrix(1.3491135,0,0,1.3491135,388.61345,215.74228)"
         d="m 96.469571,69.483757 a 6.5659914,6.5659914 0 1 1 -13.131983,0 6.5659914,6.5659914 0 1 1 13.131983,0 z"
         sodipodi:ry="6.5659914"
         sodipodi:rx="6.5659914"
         sodipodi:cy="69.483757"
         sodipodi:cx="89.90358"
         id="path3884"
         style="fill:#000000;fill-opacity:1;stroke:none"
         sodipodi:type="arc" />
      <path
         transform="matrix(1.3491135,0,0,1.3491135,508.61345,215.74228)"
         d="m 96.469571,69.483757 a 6.5659914,6.5659914 0 1 1 -13.131983,0 6.5659914,6.5659914 0 1 1 13.131983,0 z"
         sodipodi:ry="6.5659914"
         sodipodi:rx="6.5659914"
         sodipodi:cy="69.483757"
         sodipodi:cx="89.90358"
         id="path3886"
         style="fill:#000000;fill-opacity:1;stroke:none"
         sodipodi:type="arc" />
      <path
         sodipodi:type="arc"
         style="fill:#000000;fill-opacity:1;stroke:none"
         id="path3864"
         sodipodi:cx="89.90358"
         sodipodi:cy="69.483757"
         sodipodi:rx="6.5659914"
         sodipodi:ry="6.5659914"
         d="m 96.469571,69.483757 a 6.5659914,6.5659914 0 1 1 -13.131983,0 6.5659914,6.5659914 0 1 1 13.131983,0 z"
         transform="matrix(1.3491135,0,0,1.3491135,388.61345,55.74228)" />
      <path
         sodipodi:type="arc"
         style="fill:#000000;fill-opacity:1;stroke:none"
         id="path3894"
         sodipodi:cx="89.90358"
         sodipodi:cy="69.483757"
         sodipodi:rx="6.5659914"
         sodipodi:ry="6.5659914"
         d="m 96.469571,69.483757 a 6.5659914,6.5659914 0 1 1 -13.131983,0 6.5659914,6.5659914 0 1 1 13.131983,0 z"
         transform="matrix(1.3491135,0,0,1.3491135,328.61345,295.74228)" />
      <path
         sodipodi:type="arc"
         style="fill:#000000;fill-opacity:1;stroke:none"
         id="path3896"
         sodipodi:cx="89.90358"
         sodipodi:cy="69.483757"
         sodipodi:rx="6.5659914"
         sodipodi:ry="6.5659914"
         d="m 96.469571,69.483757 a 6.5659914,6.5659914 0 1 1 -13.131983,0 6.5659914,6.5659914 0 1 1 13.131983,0 z"
         transform="matrix(1.3491135,0,0,1.3491135,448.61345,295.74228)" />
      <path
         transform="matrix(1.3491135,0,0,1.3491135,448.61345,295.74228)"
         d="m 96.469571,69.483757 a 6.5659914,6.5659914 0 1 1 -13.131983,0 6.5659914,6.5659914 0 1 1 13.131983,0 z"
         sodipodi:ry="6.5659914"
         sodipodi:rx="6.5659914"
         sodipodi:cy="69.483757"
         sodipodi:cx="89.90358"
         id="path4817"
         style="fill:#000000;fill-opacity:1;stroke:none"
         sodipodi:type="arc" />
    </g>
    <path
       sodipodi:type="arc"
       style="fill:#804400;fill-opacity:1;stroke:none"
       id="path3878"
       sodipodi:cx="89.90358"
       sodipodi:cy="69.483757"
       sodipodi:rx="6.5659914"
       sodipodi:ry="6.5659914"
       d="m 96.469571,69.483757 c 0,3.626297 -2.939694,6.565991 -6.565991,6.565991 -3.626297,0 -6.565992,-2.939694 -6.565992,-6.565991 0,-3.626297 2.939695,-6.565991 6.565992,-6.565991 3.626297,0 6.565991,2.939694 6.565991,6.565991 z"
       transform="matrix(1.3491135,0,0,1.3491135,28.613446,215.74228)" />
  </g>
</svg>
