<?xml version="1.0" encoding="UTF-8" standalone="no"?>
<!-- Created with Inkscape (http://www.inkscape.org/) -->

<svg
   xmlns:dc="http://purl.org/dc/elements/1.1/"
   xmlns:cc="http://creativecommons.org/ns#"
   xmlns:rdf="http://www.w3.org/1999/02/22-rdf-syntax-ns#"
   xmlns:svg="http://www.w3.org/2000/svg"
   xmlns="http://www.w3.org/2000/svg"
   xmlns:sodipodi="http://sodipodi.sourceforge.net/DTD/sodipodi-0.dtd"
   xmlns:inkscape="http://www.inkscape.org/namespaces/inkscape"
   width="715.50537"
   height="377.95584"
   id="svg2"
   version="1.1"
   inkscape:version="0.48.4 r9939"
   sodipodi:docname="sterichindrance.svg">
  <sodipodi:namedview
     id="base"
     pagecolor="#ffffff"
     bordercolor="#666666"
     borderopacity="1.0"
     inkscape:pageopacity="0.0"
     inkscape:pageshadow="2"
     inkscape:zoom="0.98994949"
     inkscape:cx="347.90118"
     inkscape:cy="184.43541"
     inkscape:document-units="px"
     inkscape:current-layer="layer1"
     showgrid="false"
     inkscape:window-width="1918"
     inkscape:window-height="1198"
     inkscape:window-x="1920"
     inkscape:window-y="0"
     inkscape:window-maximized="0"
     fit-margin-top="0"
     fit-margin-left="0"
     fit-margin-right="0"
     fit-margin-bottom="0"
     units="mm" />
  <defs
     id="defs4" />
  <metadata
     id="metadata7">
    <rdf:RDF>
      <cc:Work
         rdf:about="">
        <dc:format>image/svg+xml</dc:format>
        <dc:type
           rdf:resource="http://purl.org/dc/dcmitype/StillImage" />
        <dc:title />
      </cc:Work>
    </rdf:RDF>
  </metadata>
  <g
     id="layer1"
     inkscape:groupmode="layer"
     inkscape:label="Layer 1"
     transform="translate(-2.1528664,-39.950443)">
    <path
       id="rect4833"
       style="fill:#ffffff;fill-opacity:1;stroke:none"
       d="M 716.97958,417.23072 2.8274231,417.23085 2.8277462,40.640116 716.97974,40.639852 z"
       inkscape:connector-curvature="0"
       sodipodi:nodetypes="ccccc" />
    <path
       style="fill:#00ff00;fill-opacity:0.50196078;stroke:#000000;stroke-width:1.34911335;stroke-opacity:1"
       d="m 714.8125,245.15625 c -35.87893,32.0121 -54.25781,81.67731 -44.03125,132.125 l 44.03125,0 0,-132.125 z"
       transform="translate(2.1528664,39.950469)"
       id="path4926"
       inkscape:connector-curvature="0" />
    <path
       sodipodi:type="arc"
       style="fill:#000000;fill-opacity:1;stroke:none"
       id="path3876"
       sodipodi:cx="89.90358"
       sodipodi:cy="69.483757"
       sodipodi:rx="6.5659914"
       sodipodi:ry="6.5659914"
       d="m 96.469571,69.483757 c 0,3.626297 -2.939694,6.565991 -6.565991,6.565991 -3.626297,0 -6.565992,-2.939694 -6.565992,-6.565991 0,-3.626297 2.939695,-6.565991 6.565992,-6.565991 3.626297,0 6.565991,2.939694 6.565991,6.565991 z"
       transform="matrix(1.3491135,0,0,1.3491135,448.61345,135.74228)" />
    <path
       style="fill:#00ff00;fill-opacity:0.50196078;stroke:#000000;stroke-width:1.34911335;stroke-opacity:1"
       d="m 617,0.6875 c 16.84071,42.969732 53.69858,74.120338 97.15625,84.6875 l 0,-84.6875 -97.15625,0 z"
       transform="translate(2.8274231,39.950443)"
       id="path4939"
       inkscape:connector-curvature="0" />
    <path
       sodipodi:type="arc"
       style="fill:#000000;fill-opacity:1;stroke:none"
       id="path3878"
       sodipodi:cx="89.90358"
       sodipodi:cy="69.483757"
       sodipodi:rx="6.5659914"
       sodipodi:ry="6.5659914"
       d="m 96.469571,69.483757 c 0,3.626297 -2.939694,6.565991 -6.565991,6.565991 -3.626297,0 -6.565992,-2.939694 -6.565992,-6.565991 0,-3.626297 2.939695,-6.565991 6.565992,-6.565991 3.626297,0 6.565991,2.939694 6.565991,6.565991 z"
       transform="matrix(1.3491135,0,0,1.3491135,28.613446,215.74228)" />
    <path
       sodipodi:type="arc"
       style="fill:#000000;fill-opacity:1;stroke:none"
       id="path3862"
       sodipodi:cx="89.90358"
       sodipodi:cy="69.483757"
       sodipodi:rx="6.5659914"
       sodipodi:ry="6.5659914"
       d="m 96.469571,69.483757 c 0,3.626297 -2.939694,6.565991 -6.565991,6.565991 -3.626297,0 -6.565992,-2.939694 -6.565992,-6.565991 0,-3.626297 2.939695,-6.565991 6.565992,-6.565991 3.626297,0 6.565991,2.939694 6.565991,6.565991 z"
       transform="matrix(1.3491135,0,0,1.3491135,268.61345,55.74228)" />
    <path
       style="fill:#00ff00;fill-opacity:0.50196078;stroke:#000000;stroke-width:1.34911335;stroke-opacity:1"
       d="m 147.40625,129.75 c -9.28608,0.033 -18.71108,1.001 -28.15625,2.96875 -75.561359,15.742 -124.0545037,89.75114 -108.3125,165.3125 6.7389,32.34661 24.165791,59.73991 47.8125,79.25 l 178.03125,0 c 38.63159,-31.97882 58.72121,-83.73837 47.78125,-136.25 C 270.78825,174.91506 212.40881,129.51905 147.40625,129.75 z"
       transform="translate(2.1528664,39.950469)"
       id="path4782"
       inkscape:connector-curvature="0" />
    <path
       sodipodi:type="arc"
       style="fill:#000000;fill-opacity:1;stroke:none"
       id="path3868"
       sodipodi:cx="89.90358"
       sodipodi:cy="69.483757"
       sodipodi:rx="6.5659914"
       sodipodi:ry="6.5659914"
       d="m 96.469571,69.483757 c 0,3.626297 -2.939694,6.565991 -6.565991,6.565991 -3.626297,0 -6.565992,-2.939694 -6.565992,-6.565991 0,-3.626297 2.939695,-6.565991 6.565992,-6.565991 3.626297,0 6.565991,2.939694 6.565991,6.565991 z"
       transform="matrix(1.3491135,0,0,1.3491135,-31.386554,135.74228)" />
    <path
       style="fill:#ff0800;fill-opacity:0.50196078;stroke:#000000;stroke-width:1.34911335;stroke-opacity:1"
       d="M 86.71875,49.75 C 77.43324,49.783108 68.007043,50.75113 58.5625,52.71875 36.39429,57.337143 16.570052,66.970093 0,80.1875 l 0,218.65625 c 31.388684,24.97571 73.255028,36.3206 115.59375,27.5 75.56136,-15.742 124.0545,-89.75114 108.3125,-165.3125 l -0.0312,0 C 210.09546,94.920739 151.71732,49.518245 86.71875,49.75 z"
       transform="translate(2.8274231,39.950443)"
       id="path4921"
       inkscape:connector-curvature="0" />
    <path
       style="fill:#00ff00;fill-opacity:0.50196078;stroke:#000000;stroke-width:1.34911335;stroke-opacity:1"
       d="m 302.21875,40.625 c -39.52541,31.881392 -60.1936,84.24592 -49.125,137.375 15.742,75.56136 89.75114,124.0545 165.3125,108.3125 75.56136,-15.742 124.0545,-89.78239 108.3125,-165.34375 C 519.84689,87.999423 501.87876,60.198359 477.53125,40.625 l -175.3125,0 z"
       id="path4795"
       inkscape:connector-curvature="0" />
    <path
       style="fill:#00ff00;fill-opacity:0.50196078;stroke:#000000;stroke-width:1.34911335;stroke-opacity:1"
       d="m 507.40625,289.75 c -9.28551,0.0331 -18.71171,1.00113 -28.15625,2.96875 -47.4518,9.88582 -84.22791,42.75578 -101.125,84.5625 l 259.25,0 C 616.08797,324.29004 564.28965,289.54718 507.40625,289.75 z"
       transform="translate(2.1528664,39.950469)"
       id="path4825"
       inkscape:connector-curvature="0" />
    <path
       sodipodi:type="arc"
       style="fill:#ff0800;fill-opacity:0.50196078;stroke:#000000;stroke-width:0.06338493;stroke-opacity:1"
       id="path4829"
       sodipodi:cx="89.90358"
       sodipodi:cy="69.483757"
       sodipodi:rx="6.5659914"
       sodipodi:ry="6.5659914"
       d="m 96.469571,69.483757 c 0,3.626297 -2.939694,6.565991 -6.565991,6.565991 -3.626297,0 -6.565992,-2.939694 -6.565992,-6.565991 0,-3.626297 2.939695,-6.565991 6.565992,-6.565991 3.626297,0 6.565991,2.939694 6.565991,6.565991 z"
       transform="matrix(20.837058,-4.3410686,4.3410686,20.837058,-1605.0563,-828.07572)" />
    <path
       transform="matrix(1.3491135,0,0,1.3491135,-31.386554,-24.257718)"
       d="m 96.469571,69.483757 c 0,3.626297 -2.939694,6.565991 -6.565991,6.565991 -3.626297,0 -6.565992,-2.939694 -6.565992,-6.565991 0,-3.626297 2.939695,-6.565991 6.565992,-6.565991 3.626297,0 6.565991,2.939694 6.565991,6.565991 z"
       sodipodi:ry="6.5659914"
       sodipodi:rx="6.5659914"
       sodipodi:cy="69.483757"
       sodipodi:cx="89.90358"
       id="path2985"
       style="fill:#000000;fill-opacity:1;stroke:none"
       sodipodi:type="arc" />
    <path
       sodipodi:type="arc"
       style="fill:#000000;fill-opacity:1;stroke:none"
       id="path3826"
       sodipodi:cx="89.90358"
       sodipodi:cy="69.483757"
       sodipodi:rx="6.5659914"
       sodipodi:ry="6.5659914"
       d="m 96.469571,69.483757 c 0,3.626297 -2.939694,6.565991 -6.565991,6.565991 -3.626297,0 -6.565992,-2.939694 -6.565992,-6.565991 0,-3.626297 2.939695,-6.565991 6.565992,-6.565991 3.626297,0 6.565991,2.939694 6.565991,6.565991 z"
       transform="matrix(1.3491135,0,0,1.3491135,88.61345,-24.257718)" />
    <path
       sodipodi:type="arc"
       style="fill:#000000;fill-opacity:1;stroke:none"
       id="path3828"
       sodipodi:cx="89.90358"
       sodipodi:cy="69.483757"
       sodipodi:rx="6.5659914"
       sodipodi:ry="6.5659914"
       d="m 96.469571,69.483757 c 0,3.626297 -2.939694,6.565991 -6.565991,6.565991 -3.626297,0 -6.565992,-2.939694 -6.565992,-6.565991 0,-3.626297 2.939695,-6.565991 6.565992,-6.565991 3.626297,0 6.565991,2.939694 6.565991,6.565991 z"
       transform="matrix(1.3491135,0,0,1.3491135,208.61345,-24.257718)" />
    <path
       transform="matrix(1.3491135,0,0,1.3491135,328.61345,-24.257718)"
       d="m 96.469571,69.483757 c 0,3.626297 -2.939694,6.565991 -6.565991,6.565991 -3.626297,0 -6.565992,-2.939694 -6.565992,-6.565991 0,-3.626297 2.939695,-6.565991 6.565992,-6.565991 3.626297,0 6.565991,2.939694 6.565991,6.565991 z"
       sodipodi:ry="6.5659914"
       sodipodi:rx="6.5659914"
       sodipodi:cy="69.483757"
       sodipodi:cx="89.90358"
       id="path3830"
       style="fill:#000000;fill-opacity:1;stroke:none"
       sodipodi:type="arc" />
    <path
       transform="matrix(1.3491135,0,0,1.3491135,448.61345,-24.257718)"
       d="m 96.469571,69.483757 c 0,3.626297 -2.939694,6.565991 -6.565991,6.565991 -3.626297,0 -6.565992,-2.939694 -6.565992,-6.565991 0,-3.626297 2.939695,-6.565991 6.565992,-6.565991 3.626297,0 6.565991,2.939694 6.565991,6.565991 z"
       sodipodi:ry="6.5659914"
       sodipodi:rx="6.5659914"
       sodipodi:cy="69.483757"
       sodipodi:cx="89.90358"
       id="path3844"
       style="fill:#000000;fill-opacity:1;stroke:none"
       sodipodi:type="arc" />
    <path
       transform="matrix(1.3491135,0,0,1.3491135,28.613446,55.74228)"
       d="m 96.469571,69.483757 c 0,3.626297 -2.939694,6.565991 -6.565991,6.565991 -3.626297,0 -6.565992,-2.939694 -6.565992,-6.565991 0,-3.626297 2.939695,-6.565991 6.565992,-6.565991 3.626297,0 6.565991,2.939694 6.565991,6.565991 z"
       sodipodi:ry="6.5659914"
       sodipodi:rx="6.5659914"
       sodipodi:cy="69.483757"
       sodipodi:cx="89.90358"
       id="path3858"
       style="fill:#000000;fill-opacity:1;stroke:none"
       sodipodi:type="arc" />
    <path
       sodipodi:type="arc"
       style="fill:#000000;fill-opacity:1;stroke:none"
       id="path3860"
       sodipodi:cx="89.90358"
       sodipodi:cy="69.483757"
       sodipodi:rx="6.5659914"
       sodipodi:ry="6.5659914"
       d="m 96.469571,69.483757 c 0,3.626297 -2.939694,6.565991 -6.565991,6.565991 -3.626297,0 -6.565992,-2.939694 -6.565992,-6.565991 0,-3.626297 2.939695,-6.565991 6.565992,-6.565991 3.626297,0 6.565991,2.939694 6.565991,6.565991 z"
       transform="matrix(1.3491135,0,0,1.3491135,148.61345,55.74228)" />
    <path
       transform="matrix(1.3491135,0,0,1.3491135,388.61345,55.74228)"
       d="m 96.469571,69.483757 c 0,3.626297 -2.939694,6.565991 -6.565991,6.565991 -3.626297,0 -6.565992,-2.939694 -6.565992,-6.565991 0,-3.626297 2.939695,-6.565991 6.565992,-6.565991 3.626297,0 6.565991,2.939694 6.565991,6.565991 z"
       sodipodi:ry="6.5659914"
       sodipodi:rx="6.5659914"
       sodipodi:cy="69.483757"
       sodipodi:cx="89.90358"
       id="path3864"
       style="fill:#000000;fill-opacity:1;stroke:none"
       sodipodi:type="arc" />
    <path
       transform="matrix(1.3491135,0,0,1.3491135,508.61345,55.74228)"
       d="m 96.469571,69.483757 c 0,3.626297 -2.939694,6.565991 -6.565991,6.565991 -3.626297,0 -6.565992,-2.939694 -6.565992,-6.565991 0,-3.626297 2.939695,-6.565991 6.565992,-6.565991 3.626297,0 6.565991,2.939694 6.565991,6.565991 z"
       sodipodi:ry="6.5659914"
       sodipodi:rx="6.5659914"
       sodipodi:cy="69.483757"
       sodipodi:cx="89.90358"
       id="path3866"
       style="fill:#000000;fill-opacity:1;stroke:none"
       sodipodi:type="arc" />
    <path
       transform="matrix(1.3491135,0,0,1.3491135,88.61345,135.74228)"
       d="m 96.469571,69.483757 c 0,3.626297 -2.939694,6.565991 -6.565991,6.565991 -3.626297,0 -6.565992,-2.939694 -6.565992,-6.565991 0,-3.626297 2.939695,-6.565991 6.565992,-6.565991 3.626297,0 6.565991,2.939694 6.565991,6.565991 z"
       sodipodi:ry="6.5659914"
       sodipodi:rx="6.5659914"
       sodipodi:cy="69.483757"
       sodipodi:cx="89.90358"
       id="path3870"
       style="fill:#000000;fill-opacity:1;stroke:none"
       sodipodi:type="arc" />
    <g
       id="g4944">
      <path
         sodipodi:type="arc"
         style="fill:#000000;fill-opacity:1;stroke:none"
         id="path3872"
         sodipodi:cx="89.90358"
         sodipodi:cy="69.483757"
         sodipodi:rx="6.5659914"
         sodipodi:ry="6.5659914"
         d="m 96.469571,69.483757 c 0,3.626297 -2.939694,6.565991 -6.565991,6.565991 -3.626297,0 -6.565992,-2.939694 -6.565992,-6.565991 0,-3.626297 2.939695,-6.565991 6.565992,-6.565991 3.626297,0 6.565991,2.939694 6.565991,6.565991 z"
         transform="matrix(1.3491135,0,0,1.3491135,208.61345,135.74228)" />
      <path
         transform="matrix(1.3491135,0,0,1.3491135,328.61345,135.74228)"
         d="m 96.469571,69.483757 c 0,3.626297 -2.939694,6.565991 -6.565991,6.565991 -3.626297,0 -6.565992,-2.939694 -6.565992,-6.565991 0,-3.626297 2.939695,-6.565991 6.565992,-6.565991 3.626297,0 6.565991,2.939694 6.565991,6.565991 z"
         sodipodi:ry="6.5659914"
         sodipodi:rx="6.5659914"
         sodipodi:cy="69.483757"
         sodipodi:cx="89.90358"
         id="path3874"
         style="fill:#000000;fill-opacity:1;stroke:none"
         sodipodi:type="arc" />
    </g>
    <path
       transform="matrix(1.3491135,0,0,1.3491135,148.61345,215.74228)"
       d="m 96.469571,69.483757 c 0,3.626297 -2.939694,6.565991 -6.565991,6.565991 -3.626297,0 -6.565992,-2.939694 -6.565992,-6.565991 0,-3.626297 2.939695,-6.565991 6.565992,-6.565991 3.626297,0 6.565991,2.939694 6.565991,6.565991 z"
       sodipodi:ry="6.5659914"
       sodipodi:rx="6.5659914"
       sodipodi:cy="69.483757"
       sodipodi:cx="89.90358"
       id="path3880"
       style="fill:#000000;fill-opacity:1;stroke:none"
       sodipodi:type="arc" />
    <path
       transform="matrix(1.3491135,0,0,1.3491135,268.61345,215.74228)"
       d="m 96.469571,69.483757 c 0,3.626297 -2.939694,6.565991 -6.565991,6.565991 -3.626297,0 -6.565992,-2.939694 -6.565992,-6.565991 0,-3.626297 2.939695,-6.565991 6.565992,-6.565991 3.626297,0 6.565991,2.939694 6.565991,6.565991 z"
       sodipodi:ry="6.5659914"
       sodipodi:rx="6.5659914"
       sodipodi:cy="69.483757"
       sodipodi:cx="89.90358"
       id="path3882"
       style="fill:#000000;fill-opacity:1;stroke:none"
       sodipodi:type="arc" />
    <path
       sodipodi:type="arc"
       style="fill:#000000;fill-opacity:1;stroke:none"
       id="path3884"
       sodipodi:cx="89.90358"
       sodipodi:cy="69.483757"
       sodipodi:rx="6.5659914"
       sodipodi:ry="6.5659914"
       d="m 96.469571,69.483757 c 0,3.626297 -2.939694,6.565991 -6.565991,6.565991 -3.626297,0 -6.565992,-2.939694 -6.565992,-6.565991 0,-3.626297 2.939695,-6.565991 6.565992,-6.565991 3.626297,0 6.565991,2.939694 6.565991,6.565991 z"
       transform="matrix(1.3491135,0,0,1.3491135,388.61345,215.74228)" />
    <path
       sodipodi:type="arc"
       style="fill:#000000;fill-opacity:1;stroke:none"
       id="path3886"
       sodipodi:cx="89.90358"
       sodipodi:cy="69.483757"
       sodipodi:rx="6.5659914"
       sodipodi:ry="6.5659914"
       d="m 96.469571,69.483757 c 0,3.626297 -2.939694,6.565991 -6.565991,6.565991 -3.626297,0 -6.565992,-2.939694 -6.565992,-6.565991 0,-3.626297 2.939695,-6.565991 6.565992,-6.565991 3.626297,0 6.565991,2.939694 6.565991,6.565991 z"
       transform="matrix(1.3491135,0,0,1.3491135,508.61345,215.74228)" />
    <path
       transform="matrix(1.3491135,0,0,1.3491135,-31.386554,295.74228)"
       d="m 96.469571,69.483757 c 0,3.626297 -2.939694,6.565991 -6.565991,6.565991 -3.626297,0 -6.565992,-2.939694 -6.565992,-6.565991 0,-3.626297 2.939695,-6.565991 6.565992,-6.565991 3.626297,0 6.565991,2.939694 6.565991,6.565991 z"
       sodipodi:ry="6.5659914"
       sodipodi:rx="6.5659914"
       sodipodi:cy="69.483757"
       sodipodi:cx="89.90358"
       id="path3888"
       style="fill:#000000;fill-opacity:1;stroke:none"
       sodipodi:type="arc" />
    <path
       sodipodi:type="arc"
       style="fill:#000000;fill-opacity:1;stroke:none"
       id="path3890"
       sodipodi:cx="89.90358"
       sodipodi:cy="69.483757"
       sodipodi:rx="6.5659914"
       sodipodi:ry="6.5659914"
       d="m 96.469571,69.483757 c 0,3.626297 -2.939694,6.565991 -6.565991,6.565991 -3.626297,0 -6.565992,-2.939694 -6.565992,-6.565991 0,-3.626297 2.939695,-6.565991 6.565992,-6.565991 3.626297,0 6.565991,2.939694 6.565991,6.565991 z"
       transform="matrix(1.3491135,0,0,1.3491135,88.61345,295.74228)" />
    <path
       sodipodi:type="arc"
       style="fill:#000000;fill-opacity:1;stroke:none"
       id="path3892"
       sodipodi:cx="89.90358"
       sodipodi:cy="69.483757"
       sodipodi:rx="6.5659914"
       sodipodi:ry="6.5659914"
       d="m 96.469571,69.483757 c 0,3.626297 -2.939694,6.565991 -6.565991,6.565991 -3.626297,0 -6.565992,-2.939694 -6.565992,-6.565991 0,-3.626297 2.939695,-6.565991 6.565992,-6.565991 3.626297,0 6.565991,2.939694 6.565991,6.565991 z"
       transform="matrix(1.3491135,0,0,1.3491135,208.61345,295.74228)" />
    <path
       transform="matrix(1.3491135,0,0,1.3491135,328.61345,295.74228)"
       d="m 96.469571,69.483757 c 0,3.626297 -2.939694,6.565991 -6.565991,6.565991 -3.626297,0 -6.565992,-2.939694 -6.565992,-6.565991 0,-3.626297 2.939695,-6.565991 6.565992,-6.565991 3.626297,0 6.565991,2.939694 6.565991,6.565991 z"
       sodipodi:ry="6.5659914"
       sodipodi:rx="6.5659914"
       sodipodi:cy="69.483757"
       sodipodi:cx="89.90358"
       id="path3894"
       style="fill:#000000;fill-opacity:1;stroke:none"
       sodipodi:type="arc" />
    <path
       transform="matrix(1.3491135,0,0,1.3491135,448.61345,295.74228)"
       d="m 96.469571,69.483757 c 0,3.626297 -2.939694,6.565991 -6.565991,6.565991 -3.626297,0 -6.565992,-2.939694 -6.565992,-6.565991 0,-3.626297 2.939695,-6.565991 6.565992,-6.565991 3.626297,0 6.565991,2.939694 6.565991,6.565991 z"
       sodipodi:ry="6.5659914"
       sodipodi:rx="6.5659914"
       sodipodi:cy="69.483757"
       sodipodi:cx="89.90358"
       id="path3896"
       style="fill:#000000;fill-opacity:1;stroke:none"
       sodipodi:type="arc" />
    <path
       sodipodi:type="arc"
       style="fill:#000000;fill-opacity:1;stroke:none"
       id="path4811"
       sodipodi:cx="89.90358"
       sodipodi:cy="69.483757"
       sodipodi:rx="6.5659914"
       sodipodi:ry="6.5659914"
       d="m 96.469571,69.483757 c 0,3.626297 -2.939694,6.565991 -6.565991,6.565991 -3.626297,0 -6.565992,-2.939694 -6.565992,-6.565991 0,-3.626297 2.939695,-6.565991 6.565992,-6.565991 3.626297,0 6.565991,2.939694 6.565991,6.565991 z"
       transform="matrix(1.3491135,0,0,1.3491135,-91.38655,215.74228)" />
    <path
       transform="matrix(1.3491135,0,0,1.3491135,-91.38655,55.74228)"
       d="m 96.469571,69.483757 c 0,3.626297 -2.939694,6.565991 -6.565991,6.565991 -3.626297,0 -6.565992,-2.939694 -6.565992,-6.565991 0,-3.626297 2.939695,-6.565991 6.565992,-6.565991 3.626297,0 6.565991,2.939694 6.565991,6.565991 z"
       sodipodi:ry="6.5659914"
       sodipodi:rx="6.5659914"
       sodipodi:cy="69.483757"
       sodipodi:cx="89.90358"
       id="path4813"
       style="fill:#000000;fill-opacity:1;stroke:none"
       sodipodi:type="arc" />
    <path
       sodipodi:type="arc"
       style="fill:#000000;fill-opacity:1;stroke:none"
       id="path4817"
       sodipodi:cx="89.90358"
       sodipodi:cy="69.483757"
       sodipodi:rx="6.5659914"
       sodipodi:ry="6.5659914"
       d="m 96.469571,69.483757 c 0,3.626297 -2.939694,6.565991 -6.565991,6.565991 -3.626297,0 -6.565992,-2.939694 -6.565992,-6.565991 0,-3.626297 2.939695,-6.565991 6.565992,-6.565991 3.626297,0 6.565991,2.939694 6.565991,6.565991 z"
       transform="matrix(1.3491135,0,0,1.3491135,448.61345,295.74228)" />
    <path
       sodipodi:type="arc"
       style="fill:#000000;fill-opacity:1;stroke:none"
       id="path4819"
       sodipodi:cx="89.90358"
       sodipodi:cy="69.483757"
       sodipodi:rx="6.5659914"
       sodipodi:ry="6.5659914"
       d="m 96.469571,69.483757 c 0,3.626297 -2.939694,6.565991 -6.565991,6.565991 -3.626297,0 -6.565992,-2.939694 -6.565992,-6.565991 0,-3.626297 2.939695,-6.565991 6.565992,-6.565991 3.626297,0 6.565991,2.939694 6.565991,6.565991 z"
       transform="matrix(1.3491135,0,0,1.3491135,568.61345,-24.257718)" />
    <path
       transform="matrix(1.3491135,0,0,1.3491135,568.61345,135.74228)"
       d="m 96.469571,69.483757 c 0,3.626297 -2.939694,6.565991 -6.565991,6.565991 -3.626297,0 -6.565992,-2.939694 -6.565992,-6.565991 0,-3.626297 2.939695,-6.565991 6.565992,-6.565991 3.626297,0 6.565991,2.939694 6.565991,6.565991 z"
       sodipodi:ry="6.5659914"
       sodipodi:rx="6.5659914"
       sodipodi:cy="69.483757"
       sodipodi:cx="89.90358"
       id="path4821"
       style="fill:#000000;fill-opacity:1;stroke:none"
       sodipodi:type="arc" />
    <path
       transform="matrix(1.3491135,0,0,1.3491135,568.61345,295.74228)"
       d="m 96.469571,69.483757 c 0,3.626297 -2.939694,6.565991 -6.565991,6.565991 -3.626297,0 -6.565992,-2.939694 -6.565992,-6.565991 0,-3.626297 2.939695,-6.565991 6.565992,-6.565991 3.626297,0 6.565991,2.939694 6.565991,6.565991 z"
       sodipodi:ry="6.5659914"
       sodipodi:rx="6.5659914"
       sodipodi:cy="69.483757"
       sodipodi:cx="89.90358"
       id="path4823"
       style="fill:#000000;fill-opacity:1;stroke:none"
       sodipodi:type="arc" />
  </g>
</svg>
